<svg width="14" height="19" fill="none" xmlns="http://www.w3.org/2000/svg"><path d="M13.659 0H.34A.342.342 0 0 0 0 .341v17.757c0 .188.153.341.341.341H13.66a.342.342 0 0 0 .341-.341V.34A.342.342 0 0 0 13.659 0zm-.342 17.756H.683V.683h12.634v17.073z" fill="#000" fill-opacity=".3"/><path d="M11.951 4.78H6.488a.342.342 0 0 0 0 .683h5.463a.342.342 0 0 0 0-.682zM11.952 6.83H3.757a.342.342 0 0 0 0 .682h8.195a.342.342 0 0 0 0-.683zM11.952 8.878H3.757a.342.342 0 0 0 0 .683h8.195a.342.342 0 0 0 0-.683zM11.952 10.927H3.757a.342.342 0 0 0 0 .683h8.195a.342.342 0 0 0 0-.683zM11.952 12.976H3.757a.342.342 0 0 0 0 .682h8.195a.342.342 0 0 0 0-.682zM6.488 15.024H3.757a.342.342 0 0 0 0 .683h2.731a.342.342 0 0 0 0-.683z" fill="#000" fill-opacity=".3"/></svg>