<svg width="47" height="59" viewBox="0 0 47 59" fill="none" xmlns="http://www.w3.org/2000/svg">
<path d="M45.4525 36.8603C47.7375 42.7122 47.4846 47.4077 44.743 50.0833C42.2694 52.4982 38.1074 52.9322 32.911 51.3566C30.3777 56.0848 27.0845 58.7035 23.5007 58.7035C19.8514 58.7035 16.5673 55.9553 14.0877 51.3785C12.4796 51.8654 10.9404 52.1699 9.50213 52.2707L9.36675 50.442C10.5898 50.3556 11.895 50.1088 13.2589 49.7156C11.4149 45.6906 10.1281 40.5432 9.63017 34.7562C8.56684 33.5134 7.57648 32.253 6.66368 30.9874C3.85919 35.3496 2.15061 39.6008 1.88902 43.1435L0.0143129 43.0105C0.309402 39.0083 2.2915 34.2031 5.52463 29.3396C3.8468 26.811 2.49939 24.2814 1.54712 21.8423C-0.736948 15.9904 -0.484998 11.2949 2.25662 8.61927C3.76052 7.1507 5.89865 6.44799 8.46175 6.44799C10.1639 6.44799 12.0519 6.75926 14.0671 7.36165C16.5494 2.76289 19.8408 -3.05176e-05 23.5007 -3.05176e-05C27.1506 -3.05176e-05 30.4342 2.74722 32.9137 7.32492C34.5209 6.83809 36.0606 6.53353 37.4984 6.43276L37.6347 8.26142C36.4121 8.34786 35.1065 8.59464 33.7426 8.98787C35.5865 13.0129 36.8734 18.1603 37.3717 23.9473C38.4346 25.1901 39.425 26.4504 40.3369 27.7152C43.1414 23.3529 44.8509 19.1017 45.1124 15.5591L46.9867 15.6921C46.6911 19.6943 44.709 24.5004 41.4759 29.3638C43.1537 31.8916 44.5007 34.4212 45.4525 36.8603ZM43.4149 48.7863C45.57 46.683 45.6723 42.5756 43.6971 37.5142C42.8724 35.4029 41.7343 33.216 40.3295 31.0183C39.4186 32.2804 38.4268 33.5416 37.3621 34.7871C37.067 38.1287 36.5002 41.3408 35.6806 44.2699L33.8669 43.7862C34.4456 41.7152 34.894 39.4947 35.2052 37.1832C34.6214 37.7995 34.0198 38.4104 33.4016 39.0132C30.7678 41.5831 27.9927 43.8606 25.2084 45.7739C27.4594 47.1461 29.7004 48.256 31.8637 49.0604C31.8913 49.0707 31.9183 49.0805 31.9454 49.0908C32.442 48.0177 32.9023 46.8452 33.3199 45.5822L35.1092 46.1447C34.6912 47.4113 34.2313 48.591 33.7371 49.6816C38.0578 50.9342 41.5259 50.6279 43.4149 48.7863ZM23.5007 56.869C26.263 56.869 28.9509 54.6529 31.1111 50.7435C28.6379 49.8164 26.0744 48.5131 23.5122 46.8931C20.9312 48.5274 18.3654 49.8338 15.9216 50.7538C18.0212 54.562 20.6669 56.869 23.5007 56.869ZM15.0928 49.1119C17.2506 48.3164 19.5223 47.1914 21.8238 45.7815C19.0212 43.8579 16.2428 41.571 13.6114 39.0029C12.9941 38.4005 12.3915 37.7896 11.8069 37.172C12.431 41.7399 13.5824 45.8455 15.0928 49.1119ZM9.4411 31.5844C9.41586 30.8485 9.40255 30.1037 9.40255 29.3517C9.40255 28.5903 9.41586 27.8366 9.44201 27.0909C8.85734 27.8375 8.30204 28.5868 7.77749 29.3343C8.30296 30.0862 8.85734 30.8378 9.4411 31.5844ZM3.58659 9.91721C1.43239 12.0195 1.32913 16.1279 3.30481 21.1893C4.12904 23.3005 5.26717 25.4884 6.67332 27.6852C7.58199 26.4258 8.57097 25.1673 9.63385 23.9244C10.1318 18.1558 11.414 13.025 13.2506 9.00803C9.03678 7.78175 5.55079 8.00031 3.58659 9.91721ZM11.8096 21.5077C12.3897 20.8955 12.9872 20.2895 13.5999 19.6902C16.2327 17.1212 19.0065 14.8447 21.7894 12.9323C19.4695 11.5179 17.2047 10.4031 15.0813 9.61624C13.5792 12.8727 12.4337 16.9609 11.8096 21.5077ZM23.5007 1.83445C20.6595 1.83445 18.0065 4.15398 15.9037 7.98195C18.3195 8.88173 20.8775 10.1676 23.4856 11.813C26.0684 10.1779 28.6352 8.87053 31.0799 7.9497C28.9803 4.14145 26.3346 1.83445 23.5007 1.83445ZM31.9092 9.5916C29.7499 10.3879 27.4773 11.513 25.1749 12.9238C26.7141 13.979 28.263 15.1555 29.8018 16.4481L28.5751 17.8387C26.8826 16.4158 25.1717 15.1363 23.4792 14.0099C20.5898 15.9415 17.6857 18.2982 14.9289 20.9873C13.7054 22.1817 12.5503 23.4035 11.4695 24.6406C11.347 26.1763 11.2823 27.7501 11.2823 29.3517C11.2823 30.9439 11.3461 32.5106 11.4686 34.0378C12.5549 35.2825 13.7146 36.5092 14.9404 37.7059C17.6912 40.3909 20.5994 42.7534 23.5177 44.6972C26.408 42.7655 29.3139 40.4084 32.0716 37.7171C33.297 36.5208 34.4544 35.2972 35.536 34.058C35.6572 32.5106 35.7192 30.9368 35.7192 29.3517C35.7192 27.7595 35.6554 26.1938 35.5333 24.6665C34.4466 23.4219 33.2859 22.1943 32.0592 20.9976C31.5397 20.4892 31.0161 19.9939 30.4869 19.5142L31.7696 18.1724C32.313 18.6686 32.8536 19.1788 33.3892 19.7014C34.0078 20.3052 34.609 20.9161 35.1946 21.5332C34.5705 16.9645 33.4195 12.8579 31.9092 9.5916ZM37.5604 27.12C37.5856 27.8558 37.5989 28.5998 37.5989 29.3517C37.5989 30.1095 37.5847 30.8633 37.5576 31.6144C38.1423 30.8669 38.6985 30.1176 39.224 29.3683C38.6985 28.6181 38.1441 27.8666 37.5604 27.12Z" fill="#3D6F6D"/>
<path d="M46.9974 10.0896C46.9974 8.06343 45.3141 6.42064 43.238 6.42064C41.1618 6.42064 39.4785 8.06343 39.4785 10.0896C39.4785 12.1158 41.1618 13.7585 43.238 13.7585C45.3141 13.7585 46.9974 12.1158 46.9974 10.0896Z" fill="#3D6F6D"/>
<path d="M7.52295 48.6139C7.52295 46.5877 5.83961 44.9449 3.76343 44.9449C1.68725 44.9449 0.00390625 46.5877 0.00390625 48.6139C0.00390625 50.64 1.68725 52.2828 3.76343 52.2828C5.83961 52.2828 7.52295 50.64 7.52295 48.6139Z" fill="#3D6F6D"/>
<path d="M23.5005 36.6895C19.3546 36.6895 15.9814 33.3977 15.9814 29.3516C15.9814 25.3055 19.3546 22.0136 23.5005 22.0136C27.6464 22.0136 31.0195 25.3055 31.0195 29.3516C31.0195 33.3977 27.6464 36.6895 23.5005 36.6895ZM26.3201 30.2688H24.4404V32.1033H26.3201V30.2688Z" fill="#3D6F6D"/>
</svg>
