<svg width="30" height="23" fill="none" xmlns="http://www.w3.org/2000/svg"><path d="M14.862 5.46c4.21 0 7.634 3.426 7.634 7.635 0 4.21-3.425 7.635-7.634 7.635-4.21 0-7.635-3.425-7.635-7.635s3.425-7.634 7.635-7.634zm0 14.054c3.539 0 6.419-2.88 6.419-6.419 0-3.54-2.88-6.419-6.42-6.419a6.426 6.426 0 0 0-6.418 6.42c0 3.539 2.88 6.418 6.419 6.418z" fill="#fff"/><path d="M14.862 8.332a4.769 4.769 0 0 1 4.763 4.763 4.769 4.769 0 0 1-4.763 4.763 4.769 4.769 0 0 1-4.764-4.763 4.769 4.769 0 0 1 4.764-4.763zm0 8.375a3.616 3.616 0 0 0 3.612-3.612 3.616 3.616 0 0 0-3.612-3.612 3.616 3.616 0 0 0-3.612 3.612 3.616 3.616 0 0 0 3.612 3.612z" fill="#fff"/><path d="M1.92 3.247h7.825l.8-2.177c.234-.64.85-1.07 1.533-1.07h5.567c.683 0 1.299.43 1.534 1.07l.799 2.177h2.66v-.853c0-.688.559-1.247 1.247-1.247h1.841c.688 0 1.248.56 1.248 1.247v.853h.83c1.058 0 1.92.861 1.92 1.92v15.857c0 1.058-.862 1.92-1.92 1.92H1.919A1.921 1.921 0 0 1 0 21.023V5.167c0-1.059.862-1.92 1.92-1.92zm16.058-1.736a.355.355 0 0 0-.333-.231h-5.567a.355.355 0 0 0-.332.231l-.638 1.736h7.507l-.637-1.736zm7.78.883a.032.032 0 0 0-.032-.032h-1.841a.032.032 0 0 0-.032.032v.853h1.905v-.853zm2.686 5.695h-1.895v10.012h1.895V8.09zM1.279 21.024c0 .353.287.64.64.64h25.885a.64.64 0 0 0 .64-.64V19.38h-2.535a.64.64 0 0 1-.64-.64V7.45a.64.64 0 0 1 .64-.64h2.535V5.167a.64.64 0 0 0-.64-.64H1.919a.64.64 0 0 0-.64.64v1.642h2.535a.64.64 0 0 1 .64.64v11.292a.64.64 0 0 1-.64.64H1.28v1.643zm0-2.923h1.895V8.09H1.28v10.012z" fill="#fff"/><path d="M14.862 10.742a2.356 2.356 0 0 1 2.354 2.353.576.576 0 1 1-1.152 0c0-.662-.539-1.202-1.202-1.202a.576.576 0 0 1 0-1.151z" fill="#fff"/></svg>