<svg width="27" height="30" fill="none" xmlns="http://www.w3.org/2000/svg"><path d="M.323 10.916c.2-.12.45-.125.655-.014l4.29 2.309v-1.98c0-.366.297-.663.663-.663h1.08a5.939 5.939 0 0 1-2.208-4.62A5.954 5.954 0 0 1 10.751 0c2.799 0 5.152 1.944 5.782 4.553a4.478 4.478 0 0 1 3.454-1.628 4.49 4.49 0 0 1 4.485 4.485 4.47 4.47 0 0 1-1.304 3.159h.606c.366 0 .663.296.663.663v3.012h1.68c.366 0 .663.297.663.663v2.61a.663.663 0 0 1-.663.663h-1.68v3.012a.664.664 0 0 1-.663.663h-7.827l3.596 6.898a.664.664 0 0 1-1.177.614l-3.513-6.74-3.514 6.74a.663.663 0 1 1-1.177-.614l3.597-6.898H5.932a.664.664 0 0 1-.664-.663v-1.98l-4.29 2.31A.663.663 0 0 1 0 20.938v-9.452c0-.234.123-.45.323-.57zm24.114 5.937h1.016V15.57h-1.016v1.283zM10.751 1.327a4.626 4.626 0 0 0-4.621 4.62 4.626 4.626 0 0 0 4.62 4.621 4.626 4.626 0 0 0 4.621-4.62 4.626 4.626 0 0 0-4.62-4.621zm5.066 7.732a5.994 5.994 0 0 1-1.326 1.51h2.315a4.5 4.5 0 0 1-.989-1.51zm4.17-4.807a3.162 3.162 0 0 0-3.158 3.158 3.162 3.162 0 0 0 3.158 3.158 3.162 3.162 0 0 0 3.158-3.158 3.162 3.162 0 0 0-3.158-3.158zM6.595 14.322V20.527H23.11V11.895H6.595v2.426zm-5.268 5.505l3.941-2.122v-2.987l-3.941-2.122v7.23z" fill="#fff"/><path d="M19.987 5.395c1.11 0 2.015.904 2.015 2.015a2.018 2.018 0 0 1-2.015 2.016A2.018 2.018 0 0 1 17.97 7.41c0-1.11.904-2.015 2.016-2.015zm0 2.837a.822.822 0 1 0-.002-1.645.822.822 0 0 0 .002 1.645zM10.75 3.053a2.898 2.898 0 0 1 2.895 2.895 2.898 2.898 0 0 1-2.894 2.894 2.898 2.898 0 0 1-2.895-2.894 2.898 2.898 0 0 1 2.895-2.895zm0 4.462a1.57 1.57 0 0 0 1.568-1.567 1.57 1.57 0 0 0-1.567-1.568 1.57 1.57 0 0 0-1.568 1.568 1.57 1.57 0 0 0 1.568 1.567zM12.89 13.825h7.215a.63.63 0 0 1 .63.63v3.513a.63.63 0 0 1-.63.63H12.89a.63.63 0 0 1-.63-.63v-3.513a.63.63 0 0 1 .63-.63zm.631 3.513h5.953v-2.253h-5.953v2.253zM9.411 15.782a.664.664 0 1 1 0-1.327.664.664 0 0 1 0 1.327zM9.411 17.968a.664.664 0 1 1 0-1.327.664.664 0 0 1 0 1.327z" fill="#fff"/></svg>