<svg width="621" height="413" viewBox="0 0 621 413" fill="none" xmlns="http://www.w3.org/2000/svg">
<path d="M208.967 308.561C171.966 346.539 54.2385 337.378 0 328.05V413H623V0.742901C619.285 -3.25474 602.939 6.93925 567.276 79.6964C522.696 170.643 472.544 160.149 450.811 159.15C429.079 158.15 385.614 135.663 331.004 134.664C276.394 133.665 255.218 261.089 208.967 308.561Z" fill="#2967A0"/>
<path d="M208.967 308.561C171.966 346.539 54.2385 337.378 0 328.05V413H623V0.742901C619.285 -3.25474 602.939 6.93925 567.276 79.6964C522.696 170.643 472.544 160.149 450.811 159.15C429.079 158.15 385.614 135.663 331.004 134.664C276.394 133.665 255.218 261.089 208.967 308.561Z" fill="url(#paint0_linear)"/>
<defs>
<linearGradient id="paint0_linear" x1="311.5" y1="0" x2="311.5" y2="413" gradientUnits="userSpaceOnUse">
<stop stop-color="#083966"/>
<stop offset="1" stop-color="white" stop-opacity="0"/>
</linearGradient>
</defs>
</svg>
