<svg width="45" height="45" fill="none" xmlns="http://www.w3.org/2000/svg"><path d="M6.361 9.375c.519.38 1.259.284 1.655-.214 3.48-4.381 8.76-6.894 14.485-6.894 5.724 0 11.004 2.513 14.485 6.894.232.293.583.446.939.446.25 0 .501-.076.715-.232.518-.38.617-1.092.222-1.59C34.93 2.839 28.967 0 22.5 0 16.034 0 10.07 2.838 6.14 7.786a1.105 1.105 0 0 0 .221 1.589zM35.045 15.422c0 1.952 1.653 3.54 3.685 3.54 2.033 0 3.686-1.588 3.686-3.54s-1.653-3.54-3.685-3.54c-2.033 0-3.686 1.588-3.686 3.54zM42.502 20.138l-.937-.276a1.14 1.14 0 0 0-.983.164l-1.852 1.332-1.852-1.332a1.14 1.14 0 0 0-.983-.164l-.937.276c-1.494.479-2.498 1.817-2.498 3.33v5.353c0 .206.063.408.181.58l1.869 2.733v7.174c0 .584.493 1.058 1.101 1.058h6.238c.608 0 1.101-.474 1.101-1.058v-7.174l1.869-2.732c.118-.173.181-.375.181-.581v-5.353c0-1.513-1.004-2.851-2.498-3.33zM6.27 18.963c2.033 0 3.686-1.589 3.686-3.54 0-1.953-1.653-3.542-3.685-3.542s-3.686 1.589-3.686 3.541c0 1.953 1.653 3.54 3.686 3.54zM10.042 20.138l-.937-.276a1.14 1.14 0 0 0-.983.164L6.27 21.358l-1.852-1.332a1.139 1.139 0 0 0-.983-.164l-.937.276C1.004 20.617 0 21.955 0 23.468v5.353c0 .206.063.408.181.58l1.869 2.733v7.174c0 .584.493 1.058 1.101 1.058h6.238c.608 0 1.101-.474 1.101-1.058v-7.174l1.869-2.732c.118-.173.181-.375.181-.581v-5.353c0-1.513-1.004-2.851-2.498-3.33z" fill="#384960"/><path d="M27.254 10.432c0-2.518-2.133-4.567-4.754-4.567-2.621 0-4.754 2.049-4.754 4.567 0 2.518 2.133 4.567 4.754 4.567 2.621 0 4.754-2.049 4.754-4.567zM27.722 17.212l-.008-.002-1.357-.4a.426.426 0 0 0-.52.248l-2.852 7.52c-.165.434-.804.434-.968 0l-2.853-7.52a.421.421 0 0 0-.396-.266c-.04 0-1.48.417-1.48.417-1.733.555-2.89 2.099-2.89 3.844v7.956c0 .078.024.156.069.222l2.977 4.352v11.012c0 .224.188.405.421.405h9.271a.413.413 0 0 0 .422-.405V33.583l2.977-4.352a.394.394 0 0 0 .069-.222v-7.977c0-1.738-1.163-3.279-2.882-3.82z" fill="#384960"/><path d="M23.615 17.054a.64.64 0 0 0-.464-.186h-1.3a.641.641 0 0 0-.465.186.562.562 0 0 0-.08.682l.695 1.007-.325 2.637.64 1.638c.063.165.306.165.368 0l.641-1.638L23 18.743l.695-1.007a.561.561 0 0 0-.08-.682z" fill="#384960"/></svg>