<svg width="47" height="47" fill="none" xmlns="http://www.w3.org/2000/svg"><path d="M44.253 15.555l-.75-4.665a1.38 1.38 0 0 0-1.36-1.166h-3.927a1.38 1.38 0 0 0-1.359 1.166l-.75 4.665a3.701 3.701 0 0 0-2.748 3.58v1.114H7.792a5.618 5.618 0 0 0-4.112 1.803L.732 25.265A2.787 2.787 0 0 0 0 27.148v18.464C0 46.38.617 47 1.377 47h44.246c.76 0 1.377-.621 1.377-1.388V19.136a3.701 3.701 0 0 0-2.747-3.581zM33.36 44.225H2.754V27.966H33.36v16.26zm0-19.034H4.54l1.154-1.247a2.866 2.866 0 0 1 2.097-.92H33.36v2.167zM39.388 12.5h1.584l.472 2.937h-2.528l.472-2.937zm4.858 31.726h-8.133v-25.09c0-.51.412-.924.919-.924h6.296c.506 0 .918.415.918.925v25.09z" fill="#384960"/><path d="M40.229 21.069c-.66 0-1.195.544-1.195 1.215v1.621c0 .671.535 1.216 1.195 1.216s1.194-.545 1.194-1.216v-1.62c0-.672-.535-1.216-1.194-1.216zM40.229 27.552c-.66 0-1.195.653-1.195 1.458v1.945c0 .806.535 1.459 1.195 1.459s1.194-.653 1.194-1.459V29.01c0-.805-.535-1.458-1.194-1.458zM40.229 34.034c-.66 0-1.195.654-1.195 1.459v1.945c0 .805.535 1.459 1.195 1.459s1.194-.654 1.194-1.46v-1.944c0-.806-.535-1.459-1.194-1.459zM8.364 31.604c-.66 0-1.195.653-1.195 1.458v1.945c0 .806.535 1.459 1.195 1.459s1.195-.654 1.195-1.459v-1.945c0-.805-.535-1.458-1.195-1.458zM13.144 31.604c-.66 0-1.195.653-1.195 1.458v1.945c0 .806.535 1.459 1.195 1.459s1.195-.654 1.195-1.459v-1.945c0-.805-.535-1.458-1.195-1.458zM17.924 31.604c-.66 0-1.195.653-1.195 1.458v1.945c0 .806.535 1.459 1.195 1.459s1.195-.654 1.195-1.459v-1.945c0-.805-.535-1.458-1.195-1.458zM22.703 31.604c-.66 0-1.195.653-1.195 1.458v1.945c0 .806.535 1.459 1.195 1.459s1.195-.654 1.195-1.459v-1.945c0-.805-.535-1.458-1.195-1.458zM27.881 31.604c-.88 0-1.593.653-1.593 1.458v1.945c0 .806.713 1.459 1.593 1.459s1.593-.654 1.593-1.459v-1.945c0-.805-.713-1.458-1.593-1.458zM12.73 11.334c.906 0 1.774-.26 2.518-.732a6.29 6.29 0 0 0 4.92 2.364 6.31 6.31 0 0 0 4.866-2.3c.76.485 1.649.753 2.573.753a4.802 4.802 0 0 0 3.241-1.268 3.95 3.95 0 0 0 1.78.423c2.214 0 4.016-1.836 4.016-4.091 0-2.256-1.802-4.091-4.017-4.091-.625 0-1.233.147-1.779.423a4.803 4.803 0 0 0-3.241-1.268c-.924 0-1.813.267-2.573.752A6.31 6.31 0 0 0 20.168 0a6.29 6.29 0 0 0-4.92 2.364 4.69 4.69 0 0 0-2.518-.732c-2.627 0-4.764 2.176-4.764 4.85 0 2.675 2.137 4.852 4.764 4.852zm0-6.862c.668 0 1.287.341 1.654.913.285.442.787.687 1.305.634a1.397 1.397 0 0 0 1.155-.886c.546-1.393 1.851-2.293 3.324-2.293 1.44 0 2.735.873 3.297 2.223.2.479.64.808 1.147.86a1.384 1.384 0 0 0 1.289-.615 2.051 2.051 0 0 1 1.706-.921 2.06 2.06 0 0 1 1.797 1.073 1.38 1.38 0 0 0 2.281.22 1.22 1.22 0 0 1 .942-.448c.678 0 1.23.561 1.23 1.25 0 .69-.551 1.251-1.23 1.251a1.22 1.22 0 0 1-.942-.447 1.379 1.379 0 0 0-2.28.22 2.06 2.06 0 0 1-1.799 1.073c-.683 0-1.32-.345-1.706-.921a1.384 1.384 0 0 0-1.288-.615c-.508.051-.948.38-1.147.859a3.574 3.574 0 0 1-3.297 2.223c-1.473 0-2.777-.9-3.324-2.293a1.397 1.397 0 0 0-1.294-.893c-.467 0-.907.239-1.166.642a1.965 1.965 0 0 1-1.654.912c-1.09 0-1.976-.902-1.976-2.01 0-1.109.886-2.011 1.976-2.011z" fill="#384960"/></svg>