<svg width="49" height="35" fill="none" xmlns="http://www.w3.org/2000/svg"><path d="M48.802 33.543l-5.162-4.707a1.106 1.106 0 0 0-.664-.26c-3.502-.243-5.372-.764-6.875-1.183-1.329-.37-2.703-.754-4.477-.754-2.701 0-4.766 1.01-6.167 2.154v-.025c.78-1.26 2.86-3.25 6.09-3.25 1.39 0 2.473.301 3.727.65 1.047.293 2.349.656 4.253.936.517.076 1.025-.156 1.133-.518.109-.363-.222-.719-.74-.795-1.743-.257-2.909-.582-3.939-.87-1.316-.366-2.677-.746-4.433-.746-3.364 0-5.731 1.58-7.048 3.02-1.317-1.44-3.684-3.02-7.048-3.02-1.756 0-3.118.38-4.434.747-1.485.414-3.334.93-6.796 1.17-.526.037-.91.365-.858.734.052.369.52.638 1.047.602 3.73-.26 5.802-.838 7.315-1.26 1.253-.349 2.336-.65 3.726-.65 3.231 0 5.311 1.99 6.091 3.25v.025c-1.401-1.144-3.466-2.154-6.168-2.154-1.773 0-3.147.383-4.478.754-1.502.419-3.37.94-6.873 1.184a1.107 1.107 0 0 0-.664.258L.198 33.544c-.222.203-.26.476-.1.706.162.229.494.374.859.374h47.086c.365 0 .697-.145.858-.374.161-.23.123-.503-.1-.706zm-17.178-5.562c1.407 0 2.502.305 3.77.659 1.472.41 3.468.966 6.979 1.241l3.717 3.39c-6.396-.096-9.432-.942-11.48-1.514-1.19-.331-1.975-.55-2.986-.55-1.768 0-2.98.93-3.483 1.73l-.014.019-.218.325h-2.452v-2.008c.789-1.276 2.895-3.292 6.167-3.292zm-24.997 1.9c3.512-.275 5.506-.831 6.979-1.241 1.268-.354 2.363-.66 3.77-.66 3.272 0 5.378 2.017 6.167 3.293v2.008H21.09l-.217-.325-.014-.02c-.503-.799-1.715-1.73-3.483-1.73-1.01 0-1.796.22-2.985.551-2.05.572-5.085 1.418-11.481 1.515l3.717-3.39zm8.471 3.123c1.054-.294 1.634-.456 2.277-.456.826 0 1.345.456 1.584.733h-4.873c.364-.096.699-.19 1.012-.277zm14.943.277c.24-.277.758-.733 1.583-.733.644 0 1.224.162 2.278.456.313.088.649.18 1.012.277h-4.873z" fill="#3D6F6D"/><path d="M21.18 16.617a1.115 1.115 0 0 0-.634.23c-.18.146-.258.34-.216.532.39 1.791 1.744 3.015 3.72 3.434-.045.251-.087.502-.125.754l-.501 3.369c-.055.364.32.69.838.728.034.003.067.004.1.004.476 0 .885-.253.936-.594l.501-3.369c.037-.244.077-.488.12-.732 4.383-.038 7.059-2.005 8.398-6.166.149-.463.33-1.002.537-1.602.066-.19.01-.391-.155-.55a.878.878 0 0 0-.217-.15l.37-.148c.223-.09.384-.24.447-.415 1.646-4.612 4.056-10.744 4.08-10.806.081-.206.016-.427-.175-.593-.19-.167-.485-.259-.787-.246-.32.013-7.888.398-14.11 7.525l-.226.264a.506.506 0 0 0-.122.447l.472 2.045h-1.6c-.378 0-.718.159-.867.403-1.008 1.665-1.588 3.227-1.723 4.644-.018.189.08.374.267.509l.673.483zm12.39-5.272l-2.517 1.012c-.36.146-.544.44-.45.725.092.285.44.493.854.513l1.305.062a66.28 66.28 0 0 0-.283.857c-1.36 4.225-3.871 5.059-6.283 5.13 1.382-5.87 4.88-11.32 10.232-15.939a377.448 377.448 0 0 0-2.859 7.64zm-10.11.56h2.078c.276 0 .539-.085.718-.234.179-.148.256-.344.212-.536l-.593-2.574.038-.044c2.97-3.403 6.245-5.096 8.469-5.918.526-.194 1.02-.35 1.47-.476-3.241 2.65-5.901 5.613-7.91 8.817-1.714 2.734-2.926 5.596-3.616 8.536-1.026-.296-1.576-.93-1.871-1.534h.963c.38 0 .722-.16.869-.407.147-.246.07-.53-.195-.72l-1.936-1.393c.152-1.078.59-2.258 1.305-3.517z" fill="#3D6F6D"/></svg>