<svg width="47" height="47" fill="none" xmlns="http://www.w3.org/2000/svg"><path d="M44.285 12.533l2.176-2.176c1.152-1.153.336-3.134-1.298-3.134h-5.386V1.838c0-1.631-1.979-2.453-3.134-1.298l-2.175 2.175A23.473 23.473 0 0 0 23.499.002C10.512.002 0 10.512 0 23.502 0 36.487 10.51 47 23.5 47c12.987 0 23.498-10.51 23.498-23.499 0-3.84-.934-7.602-2.713-10.969zm-6.344-1.638h2.79l-3.55 3.55h-4.625V9.818l3.55-3.55v2.79c0 1.014.821 1.836 1.835 1.836zM30.842 23.5c0 4.05-3.294 7.343-7.343 7.343-4.05 0-7.343-3.294-7.343-7.343 0-4.05 3.294-7.344 7.343-7.344 1.36 0 2.634.374 3.728 1.02L22.2 22.203a1.836 1.836 0 0 0 2.596 2.596l5.026-5.025a7.295 7.295 0 0 1 1.02 3.727zM23.5 43.328c-10.933 0-19.827-8.894-19.827-19.827 0-10.933 8.894-19.827 19.827-19.827 2.855 0 5.659.611 8.227 1.782l-2.304 2.305a1.836 1.836 0 0 0-.538 1.298v4.836a10.945 10.945 0 0 0-5.385-1.41c-6.074 0-11.015 4.942-11.015 11.016s4.941 11.015 11.015 11.015c6.074 0 11.015-4.941 11.015-11.015 0-1.955-.512-3.792-1.409-5.385h4.836c.487 0 .954-.194 1.298-.538l2.305-2.304a19.817 19.817 0 0 1 1.783 8.227c0 10.933-8.895 19.827-19.828 19.827z" fill="#384960"/></svg>