<svg width="47" height="51" fill="none" xmlns="http://www.w3.org/2000/svg"><path d="M10.824 2.314c-2.658 0-4.82 2.48-4.82 5.516l-.176 28.6 2.63.022.175-28.61c0-1.37.983-2.485 2.19-2.485h26.424V2.314H10.824z" fill="#384960"/><path d="M41.442 0c-3.065 0-5.558 2.885-5.558 6.432v35.713c0 2.582-1.816 4.683-4.047 4.683-2.23 0-4.047-2.101-4.047-4.683v-4.119c0-.934-.654-1.692-1.462-1.692H1.463c-.808 0-1.463.758-1.463 1.692v4.119c0 4.449 3.128 8.068 6.972 8.068v-3.385c-2.232 0-4.047-2.101-4.047-4.683v-2.426h21.94v2.426c0 4.449 3.128 8.068 6.972 8.068 3.844 0 6.972-3.62 6.972-8.068v-26.46h6.728c.808 0 1.463-.758 1.463-1.693v-7.56C47 2.885 44.507 0 41.442 0zm2.633 12.3h-5.266V6.431c0-1.68 1.181-3.047 2.633-3.047 1.451 0 2.633 1.367 2.633 3.047v5.867z" fill="#384960"/><path d="M31.495 46.828H6.679v3.385h24.816v-3.385zM21.744 9.422h-7.557c-.808 0-1.462.758-1.462 1.692 0 .935.654 1.693 1.462 1.693h7.557c.808 0 1.463-.758 1.463-1.693 0-.934-.655-1.692-1.463-1.692zM30.52 16.192H14.187c-.808 0-1.462.758-1.462 1.693s.654 1.693 1.462 1.693H30.52c.808 0 1.463-.758 1.463-1.693s-.655-1.693-1.463-1.693zM30.52 22.962H14.187c-.808 0-1.462.758-1.462 1.693s.654 1.693 1.462 1.693H30.52c.808 0 1.463-.758 1.463-1.693s-.655-1.693-1.463-1.693zM30.52 29.733H14.187c-.808 0-1.462.758-1.462 1.692 0 .935.654 1.693 1.462 1.693H30.52c.808 0 1.463-.758 1.463-1.693 0-.934-.655-1.692-1.463-1.692z" fill="#384960"/></svg>