<svg width="46" height="44" fill="none" xmlns="http://www.w3.org/2000/svg"><path d="M15.155 38.016a7.388 7.388 0 0 0-.281-1.03 5.137 5.137 0 0 0-.498-1.017 4.158 4.158 0 0 0-.799-.933 3.786 3.786 0 0 0-1.207-.685 4.469 4.469 0 0 0-1.5-.247c-.45 0-.801.184-1.124.373l-.654.38c-.102.058-.298.149-.652.252a2.67 2.67 0 0 1-1.548 0 3.054 3.054 0 0 1-.65-.252c-.244-.14-.462-.267-.657-.381-.322-.188-.673-.372-1.122-.372-.535 0-1.04.084-1.5.248a3.79 3.79 0 0 0-1.209.685 4.16 4.16 0 0 0-.797.932c-.207.326-.374.669-.498 1.016a7.414 7.414 0 0 0-.28 1.03c-.072.356-.12.695-.144 1.01-.023.297-.035.606-.035.917 0 1.233.586 1.993 1.078 2.414.696.596 1.597.898 2.678.898h7.82c1.082 0 1.983-.302 2.68-.898.49-.42 1.077-1.18 1.077-2.415 0-.312-.012-.62-.035-.917a8.66 8.66 0 0 0-.143-1.008zm-2.785 2.56c-.11.094-.313.22-.793.22h-7.82c-.481 0-.684-.126-.793-.22-.107-.092-.229-.246-.229-.634 0-.255.01-.507.028-.748a6.324 6.324 0 0 1 .3-1.46c.067-.186.158-.371.272-.551.094-.15.2-.275.31-.37a1.2 1.2 0 0 1 .53-.228l.595.344c.35.2.77.37 1.281.518a5.746 5.746 0 0 0 3.23 0 5.825 5.825 0 0 0 1.282-.519l.594-.343c.074.012.143.03.207.052.134.048.243.107.323.175.111.096.216.221.31.371.115.18.206.365.272.552.077.215.142.456.194.714.054.27.09.52.107.745v.001c.019.24.028.491.028.747 0 .388-.122.542-.228.633zM33.373 29.529c0 1.257.489 2.345 1.453 3.235.965.889 2.145 1.34 3.508 1.34s2.543-.451 3.508-1.34c.964-.89 1.453-1.978 1.453-3.235s-.49-2.346-1.454-3.235c-.964-.89-2.144-1.34-3.507-1.34s-2.544.45-3.508 1.34c-.964.89-1.453 1.978-1.453 3.235zm3.45-1.393c.428-.394.908-.577 1.511-.577.603 0 1.083.183 1.51.577.427.394.626.837.626 1.393s-.199.999-.626 1.393c-.427.393-.907.577-1.51.577s-1.083-.183-1.51-.577c-.428-.394-.627-.837-.627-1.393 0-.557.2-1 .627-1.393z" fill="#384960"/><path d="M2.705 29.529c0 1.257.489 2.345 1.453 3.235.965.889 2.145 1.34 3.508 1.34s2.543-.451 3.508-1.34c.964-.89 1.453-1.978 1.453-3.235s-.49-2.346-1.454-3.235c-.964-.89-2.144-1.34-3.507-1.34s-2.544.45-3.508 1.34c-.964.89-1.453 1.978-1.453 3.235zm3.45-1.393c.428-.394.908-.577 1.511-.577.603 0 1.083.183 1.51.577.427.394.626.837.626 1.393s-.199.999-.626 1.393c-.427.393-.907.577-1.51.577s-1.083-.183-1.51-.577c-.428-.394-.626-.837-.626-1.393 0-.557.199-1 .626-1.393zM45.964 39.024a8.572 8.572 0 0 0-.143-1.008 7.388 7.388 0 0 0-.281-1.03 5.104 5.104 0 0 0-.498-1.017 4.149 4.149 0 0 0-.799-.933 3.787 3.787 0 0 0-1.207-.685 4.468 4.468 0 0 0-1.5-.247c-.45 0-.801.184-1.124.373l-.654.38c-.102.058-.299.149-.652.252a2.671 2.671 0 0 1-1.548 0 3.047 3.047 0 0 1-.65-.252l-.657-.38c-.322-.19-.673-.373-1.122-.373-.535 0-1.04.084-1.5.248a3.79 3.79 0 0 0-1.209.685 4.155 4.155 0 0 0-.797.932c-.207.326-.375.669-.498 1.016a8.532 8.532 0 0 0-.424 2.039c-.023.298-.035.607-.035.918 0 1.233.586 1.993 1.078 2.414.696.596 1.597.898 2.678.898h7.82c1.082 0 1.983-.302 2.68-.898.49-.42 1.077-1.18 1.077-2.415 0-.312-.012-.62-.035-.917zm-2.929 1.551c-.11.095-.312.22-.793.22h-7.82c-.48 0-.682-.125-.792-.22-.107-.09-.23-.245-.23-.633 0-.255.01-.507.029-.748.017-.225.053-.476.107-.744.052-.259.117-.5.194-.715a2.79 2.79 0 0 1 .27-.552c.095-.15.2-.275.312-.37.08-.069.188-.128.323-.176a1.22 1.22 0 0 1 .206-.052l.595.344c.35.2.77.37 1.28.519a5.75 5.75 0 0 0 3.231 0 5.845 5.845 0 0 0 1.282-.52l.594-.343c.074.012.143.03.206.052.135.048.244.107.323.175.112.097.217.222.312.371.113.18.205.365.271.552.077.215.142.456.194.714.053.27.09.52.107.745v.001c.019.24.028.491.028.747 0 .388-.122.542-.229.633zM23 9.15c1.363 0 2.543-.45 3.507-1.34.965-.89 1.454-1.978 1.454-3.235s-.49-2.345-1.454-3.235C25.543.451 24.363 0 23 0s-2.543.451-3.508 1.34c-.964.89-1.453 1.978-1.453 3.235s.49 2.346 1.454 3.235c.964.89 2.144 1.34 3.507 1.34zm-1.51-5.968c.427-.394.907-.577 1.51-.577s1.083.183 1.51.577c.427.394.626.837.626 1.393 0 .557-.198 1-.626 1.393-.427.394-.907.577-1.51.577s-1.083-.183-1.51-.577c-.427-.394-.626-.836-.626-1.393 0-.556.199-.999.626-1.393z" fill="#384960"/><path d="M30.633 14.07a8.639 8.639 0 0 0-.143-1.008 7.46 7.46 0 0 0-.282-1.031 5.127 5.127 0 0 0-.498-1.017 4.15 4.15 0 0 0-.798-.932 3.79 3.79 0 0 0-1.207-.685 4.467 4.467 0 0 0-1.501-.247c-.45 0-.801.184-1.123.373-.194.113-.412.24-.655.379-.102.059-.298.15-.652.253a2.67 2.67 0 0 1-1.548 0 3.044 3.044 0 0 1-.65-.253c-.244-.14-.462-.266-.656-.38-.322-.188-.674-.372-1.123-.372-.535 0-1.04.083-1.5.247a3.79 3.79 0 0 0-1.208.685 4.143 4.143 0 0 0-.798.932c-.207.327-.374.67-.498 1.017a8.53 8.53 0 0 0-.424 2.039c-.023.298-.035.607-.035.918 0 1.233.586 1.993 1.078 2.414.696.596 1.597.898 2.678.898h7.821c1.081 0 1.982-.302 2.679-.898.491-.42 1.077-1.18 1.077-2.415 0-.312-.011-.621-.034-.918zm-2.929 1.551c-.11.095-.313.22-.793.22h-7.82c-.481 0-.683-.125-.793-.22-.107-.09-.229-.245-.229-.633 0-.255.01-.506.028-.748a6.45 6.45 0 0 1 .107-.745c.052-.258.117-.499.194-.714.066-.187.157-.372.271-.552.095-.15.2-.274.311-.37.08-.07.189-.128.323-.176.063-.023.133-.04.207-.053.178.105.377.22.595.345.35.2.77.37 1.28.518a5.752 5.752 0 0 0 3.23 0 5.828 5.828 0 0 0 1.283-.519l.593-.344c.075.013.143.03.207.053.135.048.244.107.323.176.112.095.217.22.312.37.113.18.205.366.27.551.078.217.143.457.194.715.054.27.09.52.107.745v.001c.019.24.029.491.029.747 0 .388-.122.542-.229.633zM26.65 37.431h-8.201c-.724 0-1.311.559-1.311 1.248s.587 1.247 1.31 1.247h8.202c.724 0 1.311-.558 1.311-1.247 0-.69-.587-1.248-1.311-1.248zM14.725 19.38c-.654-.427-1.564-.29-2.033.305l-2.498 3.171c-.468.595-.318 1.423.336 1.85.257.168.554.248.848.248.453 0 .9-.192 1.185-.553l2.498-3.172c.468-.595.318-1.423-.336-1.85zM33.963 24.954c.244 0 .492-.08.706-.248.545-.426.67-1.254.28-1.85l-2.082-3.17c-.39-.596-1.15-.733-1.694-.306-.545.426-.67 1.254-.28 1.85l2.081 3.17c.238.362.61.554.989.554z" fill="#384960"/></svg>