<svg width="9" height="11" fill="none" xmlns="http://www.w3.org/2000/svg"><path d="M8.02 4.125h-.687v-.917C7.333 1.44 5.894 0 4.125 0A3.212 3.212 0 0 0 .917 3.208v.917H.229a.229.229 0 0 0-.229.23v5.728c0 .506.411.917.917.917h6.416a.918.918 0 0 0 .917-.917V4.354a.229.229 0 0 0-.23-.229zM4.812 8.912a.23.23 0 0 1-.228.255h-.916a.23.23 0 0 1-.228-.255l.144-1.3a.907.907 0 0 1-.375-.737.918.918 0 0 1 1.834 0c0 .296-.14.566-.375.737l.144 1.3zm1.147-4.787H2.292v-.917c0-1.01.822-1.833 1.833-1.833 1.01 0 1.833.822 1.833 1.833v.917z" fill="#000" fill-opacity=".2"/></svg>