<svg width="36" height="48" fill="none" xmlns="http://www.w3.org/2000/svg"><path d="M34.383 40.643L23.055 20.71V8.81h1.628V0H10.368v8.81h1.628v11.9L.668 40.643c-.804 1.415-.888 3.234-.219 4.747.67 1.512 1.974 2.452 3.405 2.452h27.343c1.431 0 2.736-.94 3.405-2.452.67-1.513.586-3.332-.218-4.747zM12.712 2.803h9.628v3.205h-9.628V2.803zm1.628 18.77V8.81h6.371v12.761l3.23 5.684H11.11l3.23-5.684zm18.191 22.505c-.266.601-.765.96-1.334.96H3.854c-.569 0-1.067-.359-1.334-.96a2.077 2.077 0 0 1 .086-1.86l6.91-12.159h16.019l6.91 12.16c.32.563.352 1.258.086 1.86z" fill="#3D6F6D"/><path d="M7.724 39.308h2.343v2.803H7.724v-2.803zM9.6 34.137h2.344v2.803H9.601v-2.803zM11.944 38.872h2.344v2.803h-2.344v-2.803z" fill="#3D6F6D"/></svg>