<svg width="77" height="77" fill="none" xmlns="http://www.w3.org/2000/svg"><circle cx="38.5" cy="38.5" r="38" stroke="#0679E3"/><path d="M40.825 10h-4.65C23.396 10 13 20.355 13 33.084V45.547c0 .715.582 1.294 1.299 1.294H16.248v.91c0 .715.581 1.294 1.298 1.294h2.357c2.33 0 4.225-1.888 4.225-4.209V34.728c0-2.32-1.895-4.209-4.225-4.209h-2.357c-.717 0-1.298.58-1.298 1.294v.91h-.642c.194-11.135 9.343-20.136 20.57-20.136h4.649c11.225 0 20.375 9.001 20.569 20.137h-.642v-.911c0-.715-.581-1.294-1.298-1.294h-2.357c-2.33 0-4.225 1.888-4.225 4.209v10.109c0 2.32 1.895 4.208 4.225 4.208h2.357c.36 0 .685-.145.92-.38v2.79c0 3.745-3.059 6.792-6.818 6.792h-7.72a3.477 3.477 0 0 0-3.22-2.167h-3.507a3.47 3.47 0 0 0-3.473 3.46A3.47 3.47 0 0 0 39.109 63h3.507a3.477 3.477 0 0 0 3.22-2.166h7.72c5.192 0 9.415-4.207 9.415-9.378v-4.644A1.294 1.294 0 0 0 64 45.548V33.084C64 20.355 53.604 10 40.825 10z" fill="#0679E3"/></svg>