<svg width="39" height="45" fill="none" xmlns="http://www.w3.org/2000/svg"><path d="M37.766 4.683a3.292 3.292 0 0 0-2.484-1.12h-3.145v-.958c0-1.186-.99-2.15-2.207-2.15H8.607C7.39.454 6.4 1.418 6.4 2.604v.959H3.255c-.958 0-1.864.408-2.485 1.12A3.079 3.079 0 0 0 .042 7.22c.826 4.95 4.023 9.324 8.56 11.723.416.971.885 1.891 1.408 2.749 1.67 2.738 3.747 4.631 6.032 5.546.232 2.282-1.327 4.444-3.674 4.96-.005 0-.008.003-.013.004a1.02 1.02 0 0 0-.799.986v4.656H9.624c-1.723 0-3.125 1.366-3.125 3.045v2.403c0 .56.466 1.015 1.041 1.015h23.556c.575 0 1.041-.454 1.041-1.015V40.89c0-1.68-1.401-3.045-3.124-3.045H27.08v-4.656c0-.48-.342-.881-.801-.987-.005 0-.009-.002-.013-.003-2.365-.519-3.926-2.703-3.67-5.002 2.245-.93 4.285-2.806 5.931-5.504.523-.858.992-1.778 1.407-2.75 4.538-2.398 7.735-6.772 8.56-11.722a3.078 3.078 0 0 0-.728-2.538zM2.098 6.895a1.074 1.074 0 0 1 .259-.897 1.19 1.19 0 0 1 .898-.405h3.144v1.868c0 2.928.384 5.764 1.11 8.358-2.855-2.2-4.822-5.395-5.411-8.924zm26.915 32.98c.574 0 1.041.455 1.041 1.015v1.388H8.582V40.89c0-.56.467-1.015 1.042-1.015h19.389zm-4.016-5.671v3.641H13.639v-3.641h11.358zm-8.626-2.03c.257-.276.493-.576.703-.896a6.482 6.482 0 0 0 1.075-3.484c.37.05.743.076 1.12.076.41 0 .816-.031 1.218-.09a6.59 6.59 0 0 0 1.788 4.394h-5.904zM30.054 7.46c0 5-1.178 9.686-3.318 13.194-2.038 3.343-4.69 5.185-7.467 5.185-2.777 0-5.43-1.841-7.468-5.184C9.66 17.147 8.483 12.46 8.483 7.46V2.605c0-.067.055-.12.124-.12H29.93c.068 0 .124.054.124.12v4.856zm6.385-.566c-.59 3.53-2.556 6.724-5.412 8.924.727-2.594 1.11-5.43 1.11-8.358V5.594h3.145c.346 0 .673.147.897.404.222.254.314.572.26.897z" fill="#384960"/><path d="M25.591 10.874a1.035 1.035 0 0 0-.84-.69l-3.144-.446-1.405-2.775a1.045 1.045 0 0 0-.934-.566c-.397 0-.759.22-.934.566l-1.406 2.775-3.143.446a1.035 1.035 0 0 0-.84.69.997.997 0 0 0 .263 1.04l2.274 2.161-.537 3.05c-.067.381.094.766.415.993.32.227.746.257 1.097.077l2.81-1.44 2.812 1.44a1.063 1.063 0 0 0 1.097-.077c.32-.227.481-.612.414-.993l-.537-3.05 2.274-2.16a.997.997 0 0 0 .264-1.04zm-4.384 2.12a.999.999 0 0 0-.3.898l.273 1.55-1.427-.732a1.063 1.063 0 0 0-.97 0l-1.428.732.273-1.55a1 1 0 0 0-.3-.898l-1.155-1.097 1.597-.226a1.04 1.04 0 0 0 .784-.556l.714-1.41.714 1.41c.152.3.445.508.784.556l1.596.226-1.155 1.097z" fill="#384960"/></svg>