<svg width="18" height="18" viewBox="0 0 18 18" fill="none" xmlns="http://www.w3.org/2000/svg">
<path d="M9 1.67616C13.0112 1.67616 16.2581 4.79979 16.2581 8.66016C16.2581 12.5199 13.0119 15.6442 9 15.6442C4.98876 15.6442 1.74194 12.5205 1.74194 8.66016C1.74194 4.80038 4.98814 1.67616 9 1.67616ZM9 0C4.02942 0 0 3.87727 0 8.66016C0 13.443 4.02942 17.3203 9 17.3203C13.9706 17.3203 18 13.443 18 8.66016C18 3.87727 13.9706 0 9 0ZM9 5.86656C7.39658 5.86656 6.09677 7.11729 6.09677 8.66016C6.09677 10.203 7.39658 11.4538 9 11.4538C10.6034 11.4538 11.9032 10.203 11.9032 8.66016C11.9032 7.11729 10.6034 5.86656 9 5.86656Z" fill="#0679E3"/>
</svg>
