<svg width="26" height="23" fill="none" xmlns="http://www.w3.org/2000/svg"><path d="M15.733 17.997h5.863a.58.58 0 1 1 0 1.16h-5.863a.58.58 0 0 1 0-1.16zM6.967 17.997h5.863a.58.58 0 0 1 0 1.16H6.967a.58.58 0 0 1 0-1.16zM6.967 3.483h14.63a.58.58 0 1 1 0 1.161H6.966a.58.58 0 0 1 0-1.16zM6.967 6.386h5.863a.58.58 0 0 1 0 1.16H6.967a.58.58 0 0 1 0-1.16zM6.967 9.289h5.863a.58.58 0 0 1 0 1.16H6.967a.58.58 0 0 1 0-1.16zM6.967 12.191h5.863a.58.58 0 0 1 0 1.161H6.967a.58.58 0 0 1 0-1.16zM6.967 15.094h5.863a.58.58 0 0 1 0 1.16H6.967a.58.58 0 0 1 0-1.16zM15.733 15.094h5.863a.58.58 0 1 1 0 1.16h-5.863a.58.58 0 0 1 0-1.16zM15.733 6.386h5.863c.32 0 .58.26.58.58v5.864c0 .32-.26.58-.58.58h-5.863a.58.58 0 0 1-.58-.58V6.966c0-.32.26-.58.58-.58zm.58 5.863h4.703V7.547h-4.703v4.702z" fill="#fff"/><path d="M1.161 2.903h1.742V1.16c0-.64.52-1.161 1.16-1.161H24.5c.64 0 1.16.52 1.16 1.161v18.577c0 1.6-1.301 2.903-2.902 2.903H2.903A2.906 2.906 0 0 1 0 19.738V4.064c0-.64.521-1.161 1.161-1.161zm0 16.835c0 .96.781 1.742 1.742 1.742h19.854c.96 0 1.742-.782 1.742-1.742V1.161H4.064v17.706c0 .8-.651 1.452-1.451 1.452a.58.58 0 0 1 0-1.161c.16 0 .29-.13.29-.29V4.063H1.16v15.674z" fill="#fff"/></svg>