<svg width="78" height="78" fill="none" xmlns="http://www.w3.org/2000/svg"><path d="M77.063 73.183L53.828 49.947c4.452-5.311 7.157-12.108 7.157-19.454C60.985 13.86 47.125 0 30.492 0 13.86 0 0 13.86 0 30.493s13.86 30.493 30.493 30.493c7.207 0 13.882-2.606 19.15-6.908l22.985 22.986c.554.554 1.109.554 2.218.554 1.108 0 1.663 0 2.217-.554 1.11-1.11 1.11-2.772 0-3.881zm-46.57-17.741A24.845 24.845 0 0 1 5.544 30.493 24.845 24.845 0 0 1 30.493 5.545 24.845 24.845 0 0 1 55.44 30.493a24.845 24.845 0 0 1-24.948 24.949z" fill="#fff"/><path d="M38.809 27.721h-5.544v-5.544c0-1.663-1.109-2.772-2.772-2.772-1.663 0-2.772 1.108-2.772 2.772v5.544h-5.544c-1.664 0-2.773 1.109-2.773 2.772 0 1.664 1.109 2.772 2.773 2.772h5.544v5.544c0 1.664 1.108 2.773 2.772 2.773 1.663 0 2.772-1.11 2.772-2.773v-5.544h5.544c1.663 0 2.772-1.108 2.772-2.772 0-1.663-1.109-2.772-2.772-2.772z" fill="#fff"/></svg>