<svg width="139" height="123" viewBox="0 0 139 123" fill="none" xmlns="http://www.w3.org/2000/svg">
<path d="M61.9445 122.01C63.0271 121.558 63.7336 120.505 63.7336 119.335L63.7336 87.6133L136.105 87.6133C137.703 87.6133 139 86.3163 139 84.7183L139 38.4004C139 36.8024 137.703 35.5055 136.105 35.5055L63.7333 35.5054L63.7333 3.66202C63.7333 2.49258 63.0269 1.43876 61.95 0.987161C60.8674 0.541261 59.6225 0.784429 58.7945 1.61245L0.850828 59.365C0.306684 59.9092 -0.000262017 60.6446 -0.00026205 61.4146C-0.000262084 62.1845 0.306684 62.92 0.845121 63.4642L58.7888 121.385C59.6171 122.213 60.8617 122.462 61.9445 122.01Z" fill="#75ABDE"/>
</svg>
