<svg width="16" height="16" viewBox="0 0 16 16" fill="none" xmlns="http://www.w3.org/2000/svg">
<g clip-path="url(#clip0)">
<path d="M3.24309 2.23111C2.90291 2.23111 2.56272 2.21943 2.22254 2.23111C1.59887 2.25447 1.25868 2.66323 1.14529 3.24717C1.12261 3.3406 1.14529 3.44571 1.14529 3.53914C1.14529 3.87783 1.14529 4.21651 1.14529 4.56688C5.7151 4.56688 10.2622 4.56688 14.832 4.56688C14.832 4.12308 14.8547 3.69097 14.832 3.25885C14.798 2.65155 14.3104 2.21943 13.7094 2.24279C13.3919 2.25447 13.0744 2.24279 12.7456 2.24279C12.7456 1.88075 12.7456 1.53038 12.7456 1.1917C12.7456 1.15666 12.8136 1.08659 12.859 1.08659C13.3579 1.09827 13.8568 1.05155 14.3444 1.14498C14.8547 1.23841 15.2516 1.55374 15.5578 1.99754C15.8753 2.46469 16.0113 2.97856 16.0113 3.55082C16.0113 5.75812 16.0113 7.9771 16 10.1844C16 11.3523 16.0113 12.5085 16 13.6764C15.9887 14.5406 15.6258 15.2413 14.9114 15.7085C14.5826 15.9304 14.2084 16.0121 13.8115 16.0005C11.8611 16.0005 9.89936 16.0005 7.94897 16.0005C6.0326 16.0005 4.11623 16.0005 2.2112 16.0005C1.63288 16.0005 1.13395 15.8136 0.725727 15.4048C0.374203 15.0661 0.136074 14.6574 0.0793763 14.1552C0.022679 13.8165 0 13.4778 0 13.1391C0 9.91579 0 6.68075 0 3.45739C0 2.65155 0.306166 1.98586 0.929837 1.49535C1.25868 1.23841 1.64422 1.09827 2.07512 1.08659C2.41531 1.08659 2.74415 1.08659 3.08434 1.08659C3.19773 1.08659 3.25443 1.10995 3.25443 1.23841C3.24309 1.55374 3.24309 1.88075 3.24309 2.23111ZM1.14529 5.75812C1.14529 5.85155 1.14529 5.90995 1.14529 5.96834C1.14529 8.45593 1.14529 10.9318 1.14529 13.4194C1.14529 13.653 1.13395 13.8866 1.22466 14.1202C1.37208 14.5056 1.75762 14.8443 2.17718 14.8443C6.06662 14.8443 9.95606 14.8443 13.8455 14.8443C14.095 14.8443 14.3104 14.7391 14.5032 14.564C14.7753 14.307 14.8661 13.9683 14.8661 13.6063C14.8661 12.7187 14.8661 11.8311 14.8661 10.9435C14.8661 9.30849 14.8661 7.66177 14.8661 6.02673C14.8661 5.73476 14.9001 5.7698 14.6166 5.7698C10.2055 5.7698 5.78313 5.7698 1.37208 5.7698C1.2927 5.75812 1.22466 5.75812 1.14529 5.75812Z" fill="#009ABE"/>
<path d="M10.761 2.23046C8.91265 2.23046 7.07566 2.23046 5.25 2.23046C5.25 1.85674 5.25 1.48302 5.25 1.09762C5.3067 1.09762 5.36339 1.08594 5.42009 1.08594C7.14369 1.08594 8.86729 1.08594 10.5796 1.08594C10.727 1.08594 10.761 1.13265 10.761 1.2728C10.7496 1.57645 10.761 1.89178 10.761 2.23046Z" fill="#009ABE"/>
<path d="M12.348 1.47178C12.348 1.86886 12.348 2.26594 12.348 2.6747C12.348 3.04842 12.0872 3.29368 11.7583 3.30536C11.4408 3.31703 11.1687 3.03674 11.1687 2.69806C11.1573 1.99733 11.1573 1.2966 11.1687 0.595867C11.1687 0.245502 11.4295 0.023604 11.7583 0.000246357C12.0418 -0.0231113 12.3253 0.292217 12.3253 0.595867C12.3253 0.887838 12.3253 1.17981 12.3253 1.4601C12.3366 1.47178 12.3366 1.47178 12.348 1.47178Z" fill="#009ABE"/>
<path d="M4.80582 1.64667C4.80582 1.99704 4.80582 2.3474 4.80582 2.69777C4.80582 3.0131 4.57903 3.28171 4.30689 3.30507C3.97804 3.32842 3.68321 3.08317 3.67188 2.74448C3.67188 2.1255 3.68321 1.50653 3.69455 0.887548C3.69455 0.817475 3.70589 0.735723 3.69455 0.66565C3.6492 0.385358 3.76259 0.175139 3.98938 0.07003C4.32956 -0.105152 4.78314 0.0817088 4.79448 0.525504C4.80582 0.899227 4.80582 1.27295 4.80582 1.64667Z" fill="#009ABE"/>
<path d="M5.6791 9.43631C6.28009 10.2071 6.86974 10.9662 7.47073 11.7254C8.17378 10.7093 8.85415 9.69325 9.5572 8.68887C9.90872 8.175 10.2716 7.67281 10.6118 7.15894C10.6798 7.05383 10.7365 7.08887 10.7932 7.1239C11.0313 7.29909 11.2695 7.48595 11.5076 7.64945C11.5983 7.71952 11.5983 7.76624 11.5416 7.84799C10.8499 8.85237 10.1582 9.85675 9.46648 10.8495C8.97889 11.5619 8.49129 12.2743 8.00369 12.9867C7.74288 13.3721 7.30064 13.3954 7.01716 13.0334C6.52956 12.4027 6.04196 11.7721 5.55436 11.1414C5.33891 10.8611 5.12346 10.5692 4.89667 10.3005C4.80596 10.1838 4.82864 10.1487 4.93069 10.067C5.18016 9.86843 5.42963 9.64653 5.6791 9.43631Z" fill="#009ABE"/>
</g>
<defs>
<clipPath id="clip0">
<rect width="16" height="16" fill="white"/>
</clipPath>
</defs>
</svg>
