<svg width="39" height="39" fill="none" xmlns="http://www.w3.org/2000/svg"><rect width="39" height="39" rx="2" fill="#93A3A7"/><path fill-rule="evenodd" clip-rule="evenodd" d="M25.82 20.063c-.285-.547-1.075-1.002-2.124-.212C22.278 20.918 20 20.918 20 20.918s-2.278 0-3.696-1.067c-1.05-.79-1.84-.335-2.124.212-.497.953.064 1.414 1.332 2.19 1.082.664 2.569.912 3.53 1.005l-.802.765-2.976 2.842a1.07 1.07 0 0 0 0 1.563l.137.13c.225.216.52.324.816.324h.005c.295 0 .59-.108.816-.324l2.975-2.84 2.976 2.84a1.197 1.197 0 0 0 1.637 0l.136-.13a1.07 1.07 0 0 0 0-1.563l-2.975-2.842-.804-.768c.961-.094 2.432-.343 3.506-1.001 1.267-.777 1.828-1.238 1.331-2.191zM20 12.28c1.372 0 2.484 1.062 2.484 2.372 0 1.31-1.112 2.372-2.484 2.372-1.372 0-2.484-1.062-2.484-2.372 0-1.31 1.112-2.372 2.484-2.372zm0 7.193c-2.789 0-5.05-2.158-5.05-4.821S17.212 9.83 20 9.83c2.788 0 5.05 2.159 5.05 4.822 0 2.663-2.262 4.821-5.05 4.821z" fill="#fff"/></svg>