<?xml version="1.0" standalone="no"?>
<!DOCTYPE svg PUBLIC "-//W3C//DTD SVG 1.1//EN" "http://www.w3.org/Graphics/SVG/1.1/DTD/svg11.dtd" >
<svg>
<metadata>
Created by FontForge 20090622 at Wed Dec 16 15:46:14 2015
 By deploy user
Copyright (c) 2013 by Tupperware Brands Corporation .              All rights reserved.
</metadata>
<defs>
<font id="TupperPRO-Normal" horiz-adv-x="566" >
  <font-face 
    font-family="TupperPRO  Normal"
    font-weight="400"
    font-stretch="normal"
    units-per-em="1000"
    panose-1="0 0 5 0 0 0 0 0 0 0"
    ascent="800"
    descent="-200"
    x-height="525"
    cap-height="700"
    bbox="-72 -295 1461 1155"
    underline-thickness="50"
    underline-position="-50"
    unicode-range="U+0020-U+FB04"
  />
<missing-glyph horiz-adv-x="250" 
 />
    <glyph glyph-name="f_f" unicode="ff" horiz-adv-x="616" 
d="M97 525v52q0 70 36.5 106.5t103.5 36.5q49 0 90 -15v-83q-40 18 -87 18q-28 0 -43 -17t-15 -61v-37h190v52q0 70 36.5 106.5t103.5 36.5q49 0 90 -15v-83q-40 18 -87 18q-28 0 -43 -17t-15 -61v-37h130v-75h-130v-450h-85v450h-190v-450h-85v450h-75v75h75z" />
    <glyph glyph-name="fi" unicode="fi" horiz-adv-x="524" 
d="M467 0h-85v450h-200v-450h-85v450h-75v75h75v52q0 70 36.5 106.5t103.5 36.5q49 0 90 -15v-83q-40 18 -87 18q-28 0 -43 -17t-15 -61v-37h285v-525zM475 648q0 -52 -50 -52t-50 52t50 52t50 -52z" />
    <glyph glyph-name="fl" unicode="fl" horiz-adv-x="646" 
d="M327 705v-83q-40 18 -87 18q-28 0 -43 -17t-15 -61v-37h130v-75h-130v-450h-85v450h-75v75h75v52q0 70 36.5 106.5t103.5 36.5q49 0 90 -15zM632 88v-83q-41 -15 -90 -15q-67 0 -103.5 36.5t-36.5 106.5v587h85v-572q0 -44 15 -61t43 -17q47 0 87 18z" />
    <glyph glyph-name="f_f_i" unicode="ffi" horiz-adv-x="799" 
d="M602 705v-83q-40 18 -87 18q-28 0 -43 -17t-15 -61v-37h285v-525h-85v450h-200v-450h-85v450h-190v-450h-85v450h-75v75h75v52q0 70 36.5 106.5t103.5 36.5q49 0 90 -15v-83q-40 18 -87 18q-28 0 -43 -17t-15 -61v-37h190v52q0 70 36.5 106.5t103.5 36.5q49 0 90 -15z
M750 648q0 -52 -50 -52t-50 52t50 52t50 -52z" />
    <glyph glyph-name="f_f_l" unicode="ffl" horiz-adv-x="982" 
d="M602 705v-83q-40 18 -87 18q-28 0 -43 -17t-15 -61v-37h130v-75h-130v-450h-85v450h-190v-450h-85v450h-75v75h75v52q0 70 36.5 106.5t103.5 36.5q49 0 90 -15v-83q-40 18 -87 18q-28 0 -43 -17t-15 -61v-37h190v52q0 70 36.5 106.5t103.5 36.5q49 0 90 -15zM907 88v-83
q-41 -15 -90 -15q-67 0 -103.5 36.5t-36.5 106.5v587h85v-572q0 -44 15 -61t43 -17q47 0 87 18z" />
    <glyph glyph-name=".notdef" horiz-adv-x="250" 
 />
    <glyph glyph-name=".null" horiz-adv-x="0" 
 />
    <glyph glyph-name="nonmarkingreturn" horiz-adv-x="333" 
 />
    <glyph glyph-name="space" unicode=" " horiz-adv-x="250" 
 />
    <glyph glyph-name="exclam" unicode="!" horiz-adv-x="231" 
d="M80 175l-10 305v230h90v-230l-10 -305h-70zM173 45q0 -55 -58 -55q-57 0 -57 55t57 55q58 0 58 -55z" />
    <glyph glyph-name="quotedbl" unicode="&#x22;" horiz-adv-x="298" 
d="M27 555v190h90l-25 -190h-65zM172 555v190h90l-25 -190h-65z" />
    <glyph glyph-name="numbersign" unicode="#" horiz-adv-x="797" 
d="M249 525l57 195h90l-56 -195h215l57 195h90l-56 -195h124v-80h-146l-50 -175h129v-80h-151l-54 -190h-95l55 190h-213l-54 -190h-95l55 190h-124v80h148l51 175h-132v80h155zM481 270l51 175h-214l-50 -175h213z" />
    <glyph glyph-name="dollar" unicode="$" horiz-adv-x="594" 
d="M473 191q0 25 -8.5 44.5t-22 32t-37 22t-45.5 15t-55 11.5q-30 5 -46 8.5t-46 12t-48 17t-40.5 24t-35 34.5t-21.5 46t-9 60q0 86 53 132t144 57v83h85v-82q93 -9 150 -56t57 -127h-90q0 100 -159 100q-150 0 -150 -104q0 -25 9 -44t21.5 -30.5t37.5 -21t44.5 -14.5
t54.5 -12q47 -10 73 -16.5t64.5 -22.5t58.5 -35.5t35.5 -53.5t15.5 -78q0 -96 -61 -144t-161 -57v-82h-85v83q-91 10 -151.5 56.5t-60.5 125.5h90q0 -50 48.5 -75t125.5 -25q165 0 165 116z" />
    <glyph glyph-name="percent" unicode="%" horiz-adv-x="866" 
d="M266 0l240 720h90l-235 -720h-95zM197 710q68 0 110 -45.5t42 -124.5q0 -78 -42 -124t-110 -46t-110.5 46t-42.5 124t42.5 124t110.5 46zM197 446q40 0 53.5 24t13.5 70t-13 70t-54 24t-55 -24t-14 -70q0 -45 14 -69.5t55 -24.5zM670 330q68 0 110 -45.5t42 -124.5
q0 -78 -42 -124t-110 -46t-110.5 46t-42.5 124t42.5 124t110.5 46zM670 66q40 0 53.5 24t13.5 70t-13 70t-54 24t-55 -24t-14 -70q0 -45 14 -69.5t55 -24.5z" />
    <glyph glyph-name="ampersand" unicode="&#x26;" horiz-adv-x="669" 
d="M129 552q0 73 49.5 115.5t119.5 42.5t118 -43t48 -116q0 -63 -35 -102.5t-99 -74.5l150 -166q16 43 19 102h80q-4 -97 -40 -167l130 -143h-108l-69 74q-81 -84 -214 -84q-99 0 -164 50.5t-65 141.5q0 74 41.5 123t111.5 87q-73 86 -73 160zM379 550q0 33 -20.5 56.5
t-59.5 23.5t-59.5 -23t-20.5 -55q0 -57 58 -119q50 27 76 53.5t26 63.5zM139 184q0 -54 40.5 -84t102.5 -30q101 0 156 64l-182 199q-117 -64 -117 -149z" />
    <glyph glyph-name="quotesingle" unicode="'" horiz-adv-x="153" 
d="M27 555v190h90l-25 -190h-65z" />
    <glyph glyph-name="parenleft" unicode="(" horiz-adv-x="280" 
d="M183 783l53 -33q-80 -193 -80 -395t80 -395l-53 -33q-117 213 -117 428t117 428z" />
    <glyph glyph-name="parenright" unicode=")" horiz-adv-x="280" 
d="M44 750l53 33q117 -213 117 -428t-117 -428l-53 33q80 193 80 395t-80 395z" />
    <glyph glyph-name="asterisk" unicode="*" horiz-adv-x="300" 
d="M170 686l102 60l23 -72l-117 -12l-7 -3l4 -5l87 -82l-60 -42l-48 108l-4 7l-4 -7l-48 -108l-60 42l87 82l4 5l-7 3l-117 12l23 72l102 -60l7 -2v8l-24 115h74l-24 -115v-8z" />
    <glyph glyph-name="plus" unicode="+" horiz-adv-x="436" 
d="M178 365v160h80v-160h160v-80h-160v-160h-80v160h-160v80h160z" />
    <glyph glyph-name="comma" unicode="," horiz-adv-x="159" 
d="M137 36q0 -62 -31.5 -106t-74.5 -65l-9 51q43 28 46 75q-46 5 -46 54q0 55 59 55q30 0 43 -14.5t13 -49.5z" />
    <glyph glyph-name="hyphen" unicode="-" horiz-adv-x="356" 
d="M263 365v-80h-245v80h245z" />
    <glyph glyph-name="period" unicode="." horiz-adv-x="159" 
d="M137 45q0 -55 -58 -55q-57 0 -57 55t57 55q58 0 58 -55z" />
    <glyph glyph-name="slash" unicode="/" horiz-adv-x="320" 
d="M-5 -10l240 730h90l-235 -730h-95z" />
    <glyph glyph-name="zero" unicode="0" horiz-adv-x="588" 
d="M294 -10q-136 0 -193 87.5t-57 262.5q0 176 57.5 268t192.5 92t192.5 -92t57.5 -268q0 -175 -57 -262.5t-193 -87.5zM294 620q-88 0 -121.5 -69.5t-33.5 -210.5q0 -140 33 -205t122 -65t122 65t33 205q0 141 -33.5 210.5t-121.5 69.5z" />
    <glyph glyph-name="one" unicode="1" horiz-adv-x="424" 
d="M219 0v572l-94 -106l-59 59l153 165h90v-690h-90z" />
    <glyph glyph-name="two" unicode="2" horiz-adv-x="543" 
d="M44 0v80q193 163 271.5 259t78.5 180q0 57 -31.5 79t-93.5 22q-56 0 -90.5 -20t-38.5 -75h-90q7 97 65.5 136t155.5 39q213 0 213 -171q0 -54 -19 -105.5t-57.5 -101t-70.5 -84t-86 -85t-76 -73.5h324v-80h-455z" />
    <glyph glyph-name="three" unicode="3" horiz-adv-x="555" 
d="M208 395h65q50 0 85.5 38t35.5 93q0 94 -126 94q-122 0 -128 -95h-90q7 97 65.5 136t155.5 39q213 0 213 -171q0 -124 -96 -163q63 -25 93 -66t30 -104q0 -100 -67 -153t-183 -53q-206 0 -217 175h90q6 -95 126 -95q78 0 119.5 33.5t41.5 93.5q0 59 -39.5 91t-108.5 32
h-65v75z" />
    <glyph glyph-name="four" unicode="4" horiz-adv-x="541" 
d="M424 245h90v-80h-90v-165h-90v165h-307v85l322 440h75v-445zM334 544l-212 -299h212v299z" />
    <glyph glyph-name="five" unicode="5" horiz-adv-x="565" 
d="M300 450q99 0 157.5 -60t58.5 -163q0 -109 -67 -173t-187 -64q-90 0 -148.5 40.5t-64.5 134.5h90q5 -95 124 -95q83 0 123 43.5t40 112.5q0 65 -36 104.5t-104 39.5q-100 0 -136 -70h-83l39 390h365v-80h-289l-20 -212q55 52 138 52z" />
    <glyph glyph-name="six" unicode="6" horiz-adv-x="568" 
d="M307 450q101 0 159 -60t58 -166q0 -108 -61 -171t-175 -63q-135 0 -189.5 90.5t-54.5 264.5q0 180 57.5 267.5t197.5 87.5q203 0 214 -175h-90q-6 95 -124 95q-92 0 -127.5 -60.5t-37.5 -207.5q45 98 173 98zM292 370q-69 0 -108 -38t-39 -107q0 -70 39.5 -112.5
t110.5 -42.5q72 0 105.5 43t33.5 109q0 69 -36 108.5t-106 39.5z" />
    <glyph glyph-name="seven" unicode="7" horiz-adv-x="514" 
d="M487 690v-77q-205 -217 -264 -613h-97q23 171 85.5 329t161.5 275h-337v86h451z" />
    <glyph glyph-name="eight" unicode="8" horiz-adv-x="594" 
d="M71 520q0 89 64.5 134.5t161.5 45.5t161.5 -45.5t64.5 -134.5q0 -109 -96 -147q123 -52 123 -175q0 -99 -70.5 -153.5t-182.5 -54.5t-182.5 54.5t-70.5 153.5q0 123 123 175q-96 38 -96 147zM433 516q0 51 -39.5 77.5t-96.5 26.5t-96.5 -26.5t-39.5 -77.5q0 -50 39.5 -78
t96.5 -28t96.5 28t39.5 78zM134 202q0 -58 45.5 -95t117.5 -37t117.5 37t45.5 95q0 59 -46 93.5t-117 34.5t-117 -34.5t-46 -93.5z" />
    <glyph glyph-name="nine" unicode="9" horiz-adv-x="568" 
d="M262 240q-102 0 -160 60t-58 166q0 108 61 171t175 63q135 0 189.5 -90.5t54.5 -264.5q0 -180 -57.5 -267.5t-197.5 -87.5q-203 0 -214 175h90q6 -95 124 -95q91 0 127 60t38 207q-46 -97 -172 -97zM275 320q68 0 108 38.5t40 106.5q0 70 -39.5 112.5t-110.5 42.5
q-72 0 -105.5 -43t-33.5 -109q0 -69 35.5 -108.5t105.5 -39.5z" />
    <glyph glyph-name="colon" unicode=":" horiz-adv-x="159" 
d="M137 425q0 -55 -58 -55q-57 0 -57 55t57 55q58 0 58 -55zM137 45q0 -55 -58 -55q-57 0 -57 55t57 55q58 0 58 -55z" />
    <glyph glyph-name="semicolon" unicode=";" horiz-adv-x="159" 
d="M137 425q0 -55 -58 -55q-57 0 -57 55t57 55q58 0 58 -55zM137 36q0 -62 -31.5 -106t-74.5 -65l-9 51q43 28 46 75q-46 5 -46 54q0 55 59 55q30 0 43 -14.5t13 -49.5z" />
    <glyph glyph-name="less" unicode="&#x3c;" horiz-adv-x="411" 
d="M393 541v-85l-307 -140l307 -140v-85l-375 189v72z" />
    <glyph glyph-name="equal" unicode="=" horiz-adv-x="476" 
d="M458 455v-80h-440v80h440zM458 280v-80h-440v80h440z" />
    <glyph glyph-name="greater" unicode="&#x3e;" horiz-adv-x="411" 
d="M18 91v85l307 140l-307 140v85l375 -189v-72z" />
    <glyph glyph-name="question" unicode="?" horiz-adv-x="496" 
d="M465 547q0 -52 -19 -93t-46.5 -68.5l-54.5 -54.5t-46 -66.5t-19 -89.5h-88q0 54 19 99t46 75.5l53.5 58.5t45.5 62t19 73q0 55 -33.5 76t-91.5 21q-123 0 -129 -95h-90q7 97 65.5 136t155.5 39q213 0 213 -173zM293 45q0 -55 -58 -55q-57 0 -57 55t57 55q58 0 58 -55z
" />
    <glyph glyph-name="at" unicode="@" horiz-adv-x="819" 
d="M599 131q48 0 77 59.5t29 139.5q0 66 -22.5 116t-60.5 78t-83 41.5t-97 13.5q-146 0 -232 -96t-86 -237q0 -136 82.5 -214t220.5 -78q73 0 130 24.5t110 77.5h70q-60 -85 -134 -125.5t-179 -40.5q-172 0 -273.5 98.5t-101.5 259.5q0 172 111 284t280 112
q141 0 235.5 -80.5t94.5 -224.5q0 -106 -50 -187t-132 -81q-85 0 -84 95q-51 -95 -143 -95q-71 0 -106 52t-26 147q11 90 63 144.5t126 54.5q77 0 109 -73l22 67h54l-39 -276q-8 -56 35 -56zM386 130q106 0 125 140q20 142 -85 142q-104 0 -128 -142q-16 -140 88 -140z" />
    <glyph glyph-name="A" unicode="A" horiz-adv-x="645" 
d="M172 180l-67 -180h-100l273 700h89l273 -700h-100l-68 180h-300zM442 260l-120 321l-120 -321h240z" />
    <glyph glyph-name="B" unicode="B" horiz-adv-x="655" 
d="M66 700h266q55 0 95.5 -7.5t76.5 -26t54.5 -55.5t18.5 -91q0 -61 -28 -99.5t-93 -62.5q76 -16 113 -56.5t37 -112.5q0 -100 -67 -144.5t-178 -44.5h-295v700zM156 390h155q80 0 125.5 25.5t45.5 96.5q0 66 -40 87t-120 21h-166v-230zM156 80h195q79 0 119.5 23t40.5 89
q0 68 -41 93t-110 25h-204v-230z" />
    <glyph glyph-name="C" unicode="C" horiz-adv-x="708" 
d="M378 710q98 0 175 -48.5t111 -136.5h-99q-56 100 -178 100q-107 0 -177.5 -74t-70.5 -201t70.5 -201t177.5 -74q121 0 177 100h99q-34 -88 -110.5 -136.5t-174.5 -48.5q-145 0 -239.5 98.5t-94.5 261.5t94.5 261.5t239.5 98.5z" />
    <glyph glyph-name="D" unicode="D" horiz-adv-x="650" 
d="M66 700h241q137 0 218 -87t81 -263t-81 -263t-218 -87h-241v700zM156 80h146q96 0 152.5 66.5t56.5 203.5t-56.5 203.5t-152.5 66.5h-146v-540z" />
    <glyph glyph-name="E" unicode="E" horiz-adv-x="574" 
d="M156 620v-230h325v-80h-325v-230h365v-80h-455v700h455v-80h-365z" />
    <glyph glyph-name="F" unicode="F" horiz-adv-x="557" 
d="M156 620v-230h325v-80h-325v-310h-90v700h455v-80h-365z" />
    <glyph glyph-name="G" unicode="G" horiz-adv-x="743" 
d="M699 370v-20q0 -167 -83 -263.5t-231 -96.5q-151 0 -246 98t-95 261t94.5 262t238.5 99q99 0 176 -48.5t111 -136.5h-99q-56 100 -177 100q-108 0 -178.5 -73.5t-70.5 -201.5t70.5 -201.5t178.5 -73.5q93 0 151 56.5t68 158.5h-183v80h275z" />
    <glyph glyph-name="H" unicode="H" horiz-adv-x="692" 
d="M536 0v310h-380v-310h-90v700h90v-310h380v310h90v-700h-90z" />
    <glyph glyph-name="I" unicode="I" horiz-adv-x="222" 
d="M66 0v700h90v-700h-90z" />
    <glyph glyph-name="J" unicode="J" horiz-adv-x="370" 
d="M14 135h90q0 -30 14 -47.5t39 -17.5q26 0 41.5 17.5t15.5 47.5v565h90v-565q0 -70 -38.5 -107.5t-108.5 -37.5t-106.5 37t-36.5 108z" />
    <glyph glyph-name="K" unicode="K" horiz-adv-x="619" 
d="M459 700h112l-283 -313l331 -387h-111l-281 321l-71 -79v-242h-90v700h90v-334z" />
    <glyph glyph-name="L" unicode="L" horiz-adv-x="515" 
d="M156 700v-620h350v-80h-440v700h90z" />
    <glyph glyph-name="M" unicode="M" horiz-adv-x="832" 
d="M156 0h-90v700h105l244 -564l246 564h105v-700h-90v538l-228 -523h-65l-227 522v-537z" />
    <glyph glyph-name="N" unicode="N" horiz-adv-x="677" 
d="M506 0l-350 568v-568h-90v700h105l350 -582v582h90v-700h-105z" />
    <glyph glyph-name="O" unicode="O" horiz-adv-x="758" 
d="M379 -10q-145 0 -240 98.5t-95 261.5t95 261.5t240 98.5t240 -98.5t95 -261.5t-95 -261.5t-240 -98.5zM379 625q-98 0 -169 -74.5t-71 -200.5t71 -200.5t169 -74.5t169 74.5t71 200.5t-71 200.5t-169 74.5z" />
    <glyph glyph-name="P" unicode="P" horiz-adv-x="626" 
d="M156 0h-90v700h275q245 0 245 -220t-245 -220h-185v-260zM156 340h175q79 0 119.5 29t40.5 111t-40.5 111t-119.5 29h-175v-280z" />
    <glyph glyph-name="Q" unicode="Q" horiz-adv-x="758" 
d="M379 -10q-145 0 -240 98.5t-95 261.5t95 261.5t240 98.5t240 -98.5t95 -261.5q0 -112 -47 -195.5t-128 -126.5l101 -151h-100l-81 122q-37 -9 -80 -9zM379 625q-98 0 -169 -74.5t-71 -200.5t71 -200.5t169 -74.5t169 74.5t71 200.5t-71 200.5t-169 74.5z" />
    <glyph glyph-name="R" unicode="R" horiz-adv-x="626" 
d="M156 260v-260h-90v700h275q245 0 245 -220q0 -187 -174 -215l174 -265h-100l-170 260h-160zM156 340h175q79 0 119.5 29t40.5 111t-40.5 111t-119.5 29h-175v-280z" />
    <glyph glyph-name="S" unicode="S" horiz-adv-x="612" 
d="M473 186q0 23 -7 42t-23 32.5t-30.5 23t-42.5 18l-44 13t-49 11.5q-39 9 -62 15.5t-56.5 22t-52.5 34t-33 49.5t-14 71q0 95 67.5 143.5t175.5 48.5q109 0 177.5 -48t68.5 -137h-90q0 51 -42.5 75.5t-115.5 24.5q-151 0 -151 -100q0 -15 3.5 -28.5t11.5 -24t15.5 -18.5
t22.5 -15.5l24.5 -12t29 -10l29 -8t32.5 -7.5t31 -7q46 -11 78.5 -23t66.5 -34.5t52 -59t18 -85.5q0 -101 -72 -151.5t-183 -50.5q-110 0 -184.5 47.5t-74.5 137.5h90q0 -50 46.5 -75t121.5 -25q166 0 166 111z" />
    <glyph glyph-name="T" unicode="T" horiz-adv-x="548" 
d="M319 620v-620h-90v620h-220v80h530v-80h-220z" />
    <glyph glyph-name="U" unicode="U" horiz-adv-x="676" 
d="M156 700v-420q0 -90 44.5 -147.5t137.5 -57.5t137.5 57.5t44.5 147.5v420h90v-420q0 -126 -69 -208t-203 -82t-203 82t-69 208v420h90z" />
    <glyph glyph-name="V" unicode="V" horiz-adv-x="584" 
d="M575 700l-238 -700h-90l-238 700h100l183 -562l183 562h100z" />
    <glyph glyph-name="W" unicode="W" horiz-adv-x="937" 
d="M298 0h-90l-199 700h100l147 -564l169 553h87l168 -553l148 564h100l-199 -700h-90l-171 549z" />
    <glyph glyph-name="X" unicode="X" horiz-adv-x="625" 
d="M311 419l191 281h104l-236 -341l246 -359h-105l-198 296l-202 -296h-102l245 356l-235 344h105z" />
    <glyph glyph-name="Y" unicode="Y" horiz-adv-x="588" 
d="M249 0v245l-240 455h100l185 -362l185 362h100l-240 -455v-245h-90z" />
    <glyph glyph-name="Z" unicode="Z" horiz-adv-x="534" 
d="M402 620h-365v80h465v-80l-380 -540h390v-80h-490v80z" />
    <glyph glyph-name="bracketleft" unicode="[" horiz-adv-x="263" 
d="M227 780v-80h-80v-700h80v-80h-165v860h165z" />
    <glyph glyph-name="backslash" unicode="\" horiz-adv-x="320" 
d="M85 720l240 -720h-95l-235 720h90z" />
    <glyph glyph-name="bracketright" unicode="]" horiz-adv-x="263" 
d="M201 780v-860h-165v80h80v700h-80v80h165z" />
    <glyph glyph-name="asciicircum" unicode="^" horiz-adv-x="468" 
d="M459 300h-100l-125 295l-125 -295h-100l189 369h72z" />
    <glyph glyph-name="underscore" unicode="_" horiz-adv-x="418" 
d="M409 0v-60h-400v60h400z" />
    <glyph glyph-name="grave" unicode="`" horiz-adv-x="191" 
d="M99 910l70 -160h-50l-110 160h90z" />
    <glyph glyph-name="a" unicode="a" horiz-adv-x="542" 
d="M44 144q0 83 62 122t158 39q81 0 135 -34v79q0 62 -30.5 83.5t-85.5 21.5q-124 0 -124 -75h-90q0 80 57.5 117.5t153.5 37.5q99 0 151.5 -44t52.5 -151v-340h-65l-12 60q-56 -70 -164 -70q-88 0 -143.5 37.5t-55.5 116.5zM277 235q-143 0 -143 -87q0 -78 122 -78
q98 0 143 52v86q-46 27 -122 27z" />
    <glyph glyph-name="b" unicode="b" horiz-adv-x="562" 
d="M297 -10q-100 0 -159 84l-15 -74h-65v720h85v-263q59 78 153 78q101 0 161.5 -73.5t60.5 -198.5t-60 -199t-161 -74zM277 70q71 0 111 52.5t40 140.5t-40 140t-111 52q-87 0 -134 -66v-254q47 -65 134 -65z" />
    <glyph glyph-name="c" unicode="c" horiz-adv-x="532" 
d="M281 70q91 0 125 75h90q-25 -74 -80.5 -114.5t-134.5 -40.5q-108 0 -176.5 74.5t-68.5 198.5t68 198t177 74q79 0 134.5 -40.5t80.5 -114.5h-90q-34 75 -125 75q-71 0 -113 -52t-42 -140t42.5 -140.5t112.5 -52.5z" />
    <glyph glyph-name="d" unicode="d" horiz-adv-x="562" 
d="M265 -10q-101 0 -161 74t-60 199t60 198.5t161 73.5q95 0 154 -78v263h85v-720h-65l-15 74q-59 -84 -159 -84zM285 70q85 0 134 65v254q-48 66 -134 66q-71 0 -111 -52t-40 -140t40 -140.5t111 -52.5z" />
    <glyph glyph-name="e" unicode="e" horiz-adv-x="547" 
d="M281 -10q-108 0 -176.5 74.5t-68.5 198.5t68 198t177 74q107 0 168.5 -73t61.5 -199v-38h-383q9 -72 49.5 -113.5t103.5 -41.5q88 0 122 75h90q-25 -74 -79.5 -114.5t-132.5 -40.5zM281 455q-63 0 -103.5 -41.5t-49.5 -113.5h291q-7 73 -42 114t-96 41z" />
    <glyph glyph-name="f" unicode="f" horiz-adv-x="341" 
d="M327 705v-83q-40 18 -87 18q-28 0 -43 -17t-15 -61v-37h130v-75h-130v-450h-85v450h-75v75h75v52q0 70 36.5 106.5t103.5 36.5q49 0 90 -15z" />
    <glyph glyph-name="g" unicode="g" horiz-adv-x="562" 
d="M281 -200q-86 0 -140.5 38.5t-69.5 116.5h90q18 -75 121 -75q65 0 101 35.5t36 120.5v31q-59 -77 -153 -77q-101 0 -161.5 74t-60.5 199t60 198.5t161 73.5q100 0 159 -85l15 75h65v-489q0 -123 -60 -179.5t-163 -56.5zM285 455q-71 0 -111 -52t-40 -140t40 -140.5
t111 -52.5q85 0 134 65v254q-48 66 -134 66z" />
    <glyph glyph-name="h" unicode="h" 
d="M313 535q195 0 195 -250v-285h-85v285q0 89 -31 129.5t-101 40.5q-99 0 -148 -67v-388h-85v720h85v-270q65 85 170 85z" />
    <glyph glyph-name="i" unicode="i" horiz-adv-x="206" 
d="M153 648q0 -52 -50 -52t-50 52t50 52t50 -52zM60 0v525h85v-525h-85z" />
    <glyph glyph-name="j" unicode="j" horiz-adv-x="199" 
d="M146 648q0 -52 -50 -52t-50 52t50 52t50 -52zM139 525v-582q0 -73 -43.5 -108t-117.5 -35v80q33 0 54.5 16t21.5 62v567h85z" />
    <glyph glyph-name="k" unicode="k" horiz-adv-x="517" 
d="M386 525h107l-205 -212l240 -313h-105l-194 251l-86 -89v-162h-85v720h85v-444z" />
    <glyph glyph-name="l" unicode="l" horiz-adv-x="302" 
d="M288 88v-83q-41 -15 -90 -15q-67 0 -103.5 36.5t-36.5 106.5v587h85v-572q0 -44 15 -61t43 -17q47 0 87 18z" />
    <glyph glyph-name="m" unicode="m" horiz-adv-x="881" 
d="M279 455q-92 0 -136 -60v-395h-85v525h65l15 -77q62 87 164 87q59 0 101 -23.5t60 -67.5q58 91 179 91q96 0 138.5 -53t42.5 -162v-320h-85v320q0 76 -29.5 105.5t-92.5 29.5q-92 0 -133 -54v-401h-85v320q0 75 -29.5 105t-89.5 30z" />
    <glyph glyph-name="n" unicode="n" 
d="M291 455q-99 0 -148 -67v-388h-85v525h65l16 -81q64 91 174 91q195 0 195 -250v-285h-85v285q0 89 -31 129.5t-101 40.5z" />
    <glyph glyph-name="o" unicode="o" horiz-adv-x="562" 
d="M281 -10q-108 0 -176.5 74.5t-68.5 198.5t68 198t177 74t177 -74t68 -198t-68.5 -198.5t-176.5 -74.5zM281 455q-71 0 -113 -52t-42 -140t42.5 -140.5t112.5 -52.5t112.5 52.5t42.5 140.5t-42 140t-113 52z" />
    <glyph glyph-name="p" unicode="p" horiz-adv-x="562" 
d="M297 535q101 0 161 -73.5t60 -198.5t-60 -199t-161 -74q-95 0 -154 77v-262h-85v720h65l15 -75q59 85 159 85zM277 455q-87 0 -134 -66v-254q47 -65 134 -65q71 0 111 52.5t40 140.5t-40 140t-111 52z" />
    <glyph glyph-name="q" unicode="q" horiz-adv-x="562" 
d="M265 535q100 0 159 -85l15 75h65v-720h-85v262q-59 -77 -153 -77q-101 0 -161.5 74t-60.5 199t60 198.5t161 73.5zM285 455q-71 0 -111 -52t-40 -140t40 -140.5t111 -52.5q85 0 134 65v254q-48 66 -134 66z" />
    <glyph glyph-name="r" unicode="r" horiz-adv-x="326" 
d="M123 525l18 -92q31 48 75 75t92 27v-90q-47 0 -91.5 -22.5t-73.5 -62.5v-360h-85v525h65z" />
    <glyph glyph-name="s" unicode="s" horiz-adv-x="518" 
d="M389 145q0 15 -4.5 27t-15.5 20.5t-20.5 14t-29 10.5t-30.5 7t-35.5 5.5t-34.5 5.5q-35 6 -59.5 13.5t-51 23.5t-40.5 44t-14 68q0 78 53.5 114.5t146.5 36.5q94 0 149.5 -37.5t55.5 -117.5h-90q0 75 -114 75q-116 0 -116 -71q0 -21 11 -35t31 -21.5t42.5 -12t50.5 -8.5
q7 -1 10 -1q40 -6 66 -13t58.5 -23.5t49 -48t16.5 -76.5q0 -74 -61 -114.5t-158 -40.5q-92 0 -151.5 38t-59.5 117h90q0 -39 34.5 -57t87.5 -18q57 0 95 19.5t38 55.5z" />
    <glyph glyph-name="t" unicode="t" horiz-adv-x="349" 
d="M182 525h130v-75h-130v-302q0 -44 15 -61t43 -17q47 0 87 18v-83q-41 -15 -90 -15q-67 0 -103.5 36.5t-36.5 106.5v317h-75v75h75v100l85 15v-115z" />
    <glyph glyph-name="u" unicode="u" 
d="M275 70q99 0 148 67v388h85v-525h-65l-16 80q-67 -90 -174 -90q-195 0 -195 250v285h85v-285q0 -89 31 -129.5t101 -40.5z" />
    <glyph glyph-name="v" unicode="v" horiz-adv-x="504" 
d="M207 0l-193 525h95l143 -410l143 410h95l-193 -525h-90z" />
    <glyph glyph-name="w" unicode="w" horiz-adv-x="818" 
d="M269 0h-89l-166 525h95l119 -405l141 395h80l140 -395l120 405h95l-166 -525h-89l-140 400z" />
    <glyph glyph-name="x" unicode="x" horiz-adv-x="513" 
d="M390 0l-135 202l-141 -202h-100l192 272l-184 253h100l137 -189l140 189h100l-191 -258l182 -267h-100z" />
    <glyph glyph-name="y" unicode="y" horiz-adv-x="504" 
d="M297 0l-29 -76q-23 -61 -66 -92.5t-118 -31.5v80q44 2 69.5 17.5t38.5 49.5l17 47l-195 531h95l143 -410l143 410h95z" />
    <glyph glyph-name="z" unicode="z" horiz-adv-x="482" 
d="M441 525v-75l-302 -375h307v-75h-410v75l302 375h-292v75h395z" />
    <glyph glyph-name="braceleft" unicode="{" horiz-adv-x="286" 
d="M27 330v40q32 0 56.5 35.5t24.5 93.5v134q0 78 32 112.5t98 34.5h15v-80h-15q-24 0 -34.5 -14.5t-10.5 -52.5v-133q0 -51 -19.5 -91t-54.5 -59q35 -19 54.5 -59t19.5 -91v-133q0 -38 10.5 -52.5t34.5 -14.5h15v-80h-15q-66 0 -98 34.5t-32 112.5v134q0 58 -24.5 93.5
t-56.5 35.5z" />
    <glyph glyph-name="bar" unicode="|" horiz-adv-x="192" 
d="M54 -50v830h85v-830h-85z" />
    <glyph glyph-name="braceright" unicode="}" horiz-adv-x="286" 
d="M253 370v-40q-32 0 -56.5 -35.5t-24.5 -93.5v-134q0 -78 -32 -112.5t-98 -34.5h-15v80h15q24 0 34.5 14.5t10.5 52.5v133q0 51 19 91t54 59q-35 19 -54 59t-19 91v133q0 38 -10.5 52.5t-34.5 14.5h-15v80h15q66 0 98 -34.5t32 -112.5v-134q0 -58 24.5 -93.5t56.5 -35.5z
" />
    <glyph glyph-name="asciitilde" unicode="~" horiz-adv-x="388" 
d="M275 365q40 0 39 44h65q0 -54 -32 -84t-77 -30q-31 0 -82.5 22t-74.5 22q-40 0 -39 -44h-65q0 54 32 84t77 30q31 0 82.5 -22t74.5 -22z" />
    <glyph glyph-name="exclamdown" unicode="&#xa1;" horiz-adv-x="228" 
d="M171 535q0 -55 -58 -55q-57 0 -57 55t57 55q58 0 58 -55zM148 405l10 -305v-230h-90v230l10 305h70z" />
    <glyph glyph-name="cent" unicode="&#xa2;" horiz-adv-x="532" 
d="M281 70q91 0 125 75h90q-45 -132 -175 -152v-83h-85v84q-90 14 -145 86.5t-55 182.5t54.5 181.5t145.5 86.5v84h85v-83q129 -20 175 -152h-90q-34 75 -125 75q-71 0 -113 -52t-42 -140t42.5 -140.5t112.5 -52.5z" />
    <glyph glyph-name="sterling" unicode="&#xa3;" horiz-adv-x="541" 
d="M500 556h-90q0 75 -124 75q-55 0 -85.5 -22t-30.5 -87q0 -61 34 -142h206v-60h-179q34 -77 34 -123q0 -64 -66 -122h302v-75h-425l-17 79q116 22 116 120q0 53 -33 121h-102v60h74q-29 69 -29 138q0 106 53 149.5t151 43.5q96 0 153.5 -37.5t57.5 -117.5z" />
    <glyph glyph-name="currency" unicode="&#xa4;" horiz-adv-x="660" 
d="M49 44l60 60q-51 70 -51 157t51 158l-60 59l64 64l59 -60q71 52 159 52t158 -50l59 58l63 -63l-58 -59q51 -71 51 -159t-52 -159l59 -59l-63 -63l-60 59q-70 -50 -157.5 -49.5t-157.5 50.5l-60 -60zM198 393q-55 -58 -54 -134t54 -129q55 -55 132.5 -55.5t132.5 53.5
q55 55 55 133.5t-55 133.5q-55 54 -132.5 53.5t-132.5 -55.5z" />
    <glyph glyph-name="yen" unicode="&#xa5;" horiz-adv-x="588" 
d="M217 305l-208 395h95l190 -368l190 368h95l-209 -395h109v-60h-140v-70h140v-60h-140v-115h-90v115h-140v60h140v70h-140v60h108z" />
    <glyph glyph-name="brokenbar" unicode="&#xa6;" horiz-adv-x="192" 
d="M54 780h85v-355h-85v355zM139 -50h-85v355h85v-355z" />
    <glyph glyph-name="section" unicode="&#xa7;" horiz-adv-x="596" 
d="M505 625h-85q0 52 -36 76t-94 24q-128 0 -134 -100q0 -45 40 -72t97 -40.5t113.5 -29.5t96.5 -51.5t40 -92.5q0 -89 -77 -142q59 -47 59 -127q-4 -51 -22.5 -86t-49.5 -54t-67 -27t-83 -8q-99 0 -155.5 39.5t-56.5 135.5h85q0 -52 36 -76t94 -24q128 0 134 100
q0 44 -40 71t-97 41t-113.5 30t-96.5 51.5t-40 92.5q0 88 76 141q-58 46 -58 128q4 51 22.5 86t49.5 54t67 27t83 8q99 0 155.5 -39.5t56.5 -135.5zM465 322q0 28 -16.5 47t-47 31t-62.5 20l-76 19.5t-75 24.5q-57 -38 -57 -92q0 -28 16.5 -47t47 -30.5t62.5 -19.5l76 -19.5
t75 -24.5q57 37 57 91z" />
    <glyph glyph-name="dieresis" unicode="&#xa8;" horiz-adv-x="322" 
d="M111 802q0 -52 -50 -52t-50 52t50 52t50 -52zM311 802q0 -52 -50 -52t-50 52t50 52t50 -52z" />
    <glyph glyph-name="copyright" unicode="&#xa9;" horiz-adv-x="758" 
d="M14 355q0 151 107 258t258 107t258 -107t107 -258t-107 -258t-258 -107t-258 107t-107 258zM39 355q0 -140 100 -240t240 -100t240 100t100 240t-100 240t-240 100t-240 -100t-100 -240zM379 585q63 0 112 -31t71 -87h-63q-37 64 -114 64q-68 0 -113 -47t-45 -129
t45 -129t113 -47q76 0 113 64h63q-22 -56 -71 -87t-111 -31q-92 0 -152.5 63t-60.5 167t60.5 167t152.5 63z" />
    <glyph glyph-name="ordfeminine" unicode="&#xaa;" horiz-adv-x="333" 
d="M31 517q0 49 36.5 72.5t93.5 23.5q45 0 79 -21v48q0 55 -67 55q-65 0 -65 -37h-62q0 46 34.5 69t92.5 23q129 0 129 -116v-203h-50l-7 33q-32 -41 -96 -41q-52 0 -85 23.5t-33 70.5zM167 566q-71 0 -71 -48q0 -24 15.5 -33t47.5 -9q56 0 81 26v50q-29 14 -73 14z" />
    <glyph glyph-name="guillemotleft" unicode="&#xab;" horiz-adv-x="488" 
d="M249 541v-85l-189 -140l189 -140v-85l-231 189v72zM470 541v-85l-211 -140l211 -140v-85l-258 189v72z" />
    <glyph glyph-name="logicalnot" unicode="&#xac;" horiz-adv-x="426" 
d="M408 390v-215h-80v135h-310v80h390z" />
    <glyph glyph-name="uni00AD" unicode="&#xad;" horiz-adv-x="356" 
d="M263 365v-80h-245v80h245z" />
    <glyph glyph-name="registered" unicode="&#xae;" horiz-adv-x="758" 
d="M14 355q0 151 107 258t258 107t258 -107t107 -258t-107 -258t-258 -107t-258 107t-107 258zM39 355q0 -140 100 -240t240 -100t240 100t100 240t-100 240t-240 100t-240 -100t-100 -240zM224 580h177q157 0 157 -141q0 -120 -112 -138l112 -170h-65l-109 167h-102v-167
h-58v449zM282 348h113q50 0 76 19.5t26 71.5t-26 70.5t-76 18.5h-113v-180z" />
    <glyph glyph-name="macron" unicode="&#xaf;" horiz-adv-x="308" 
d="M299 825v-60h-290v60h290z" />
    <glyph glyph-name="degree" unicode="&#xb0;" horiz-adv-x="258" 
d="M9 581q0 49 35.5 84t85.5 35t84.5 -35t34.5 -84q0 -50 -35 -85.5t-84 -35.5q-50 0 -85.5 36t-35.5 85zM78 581q0 -21 15.5 -36.5t36.5 -15.5t35 15.5t14 36.5t-14 35t-35 14t-36.5 -14t-15.5 -35z" />
    <glyph glyph-name="plusminus" unicode="&#xb1;" horiz-adv-x="436" 
d="M178 390v160h80v-160h160v-80h-160v-160h-80v160h-160v80h160zM419 95v-80h-401v80h401z" />
    <glyph glyph-name="twosuperior" unicode="&#xb2;" horiz-adv-x="339" 
d="M303 486v-55h-267v55q114 99 157 151.5t43 101.5q0 31 -15.5 43.5t-48.5 12.5q-65 0 -69 -50h-62q7 105 132 105q128 0 128 -103q0 -26 -9 -52.5t-18 -44.5t-34 -46.5t-34.5 -38.5t-43.5 -42t-39 -37h180z" />
    <glyph glyph-name="threesuperior" unicode="&#xb3;" horiz-adv-x="352" 
d="M134 672h39q30 0 46 19.5t16 49.5q0 54 -64 54q-65 0 -69 -50h-62q8 105 132 105q128 0 128 -104q0 -78 -55 -100q71 -21 71 -98q0 -60 -40 -92t-110 -32q-123 0 -130 105h65q3 -30 20 -40t44 -10q86 0 86 72q0 66 -78 66h-39v55z" />
    <glyph glyph-name="acute" unicode="&#xb4;" horiz-adv-x="191" 
d="M9 750l70 160h90l-110 -160h-50z" />
    <glyph glyph-name="mu" unicode="&#xb5;" horiz-adv-x="573" 
d="M256 -10q-71 0 -113 31v-216h-85v720h85v-285q0 -89 31 -129.5t101 -40.5q99 0 148 67v388h85v-377q0 -44 15 -61t43 -17v-80q-114 0 -131 104q-64 -104 -179 -104z" />
    <glyph glyph-name="paragraph" unicode="&#xb6;" horiz-adv-x="560" 
d="M425 -10v686h-135v-686h-70v386q-71 0 -121 50.5t-50 121.5t50 121.5t121 50.5h274v-730h-69z" />
    <glyph glyph-name="periodcentered" unicode="&#xb7;" horiz-adv-x="169" 
d="M142 367q0 -55 -58 -55q-57 0 -57 55t57 55q58 0 58 -55z" />
    <glyph glyph-name="cedilla" unicode="&#xb8;" horiz-adv-x="229" 
d="M110 5l-12 -73q45 11 83.5 -7t38.5 -60t-40 -67.5t-93 -25.5q-45 0 -78 19l8 46q31 -15 62 -15q30 0 50.5 11t20.5 33q0 16 -10.5 23.5t-30.5 6.5t-36 -4.5t-39 -9.5l21 123h55z" />
    <glyph glyph-name="onesuperior" unicode="&#xb9;" horiz-adv-x="224" 
d="M113 431v329l-45 -50l-41 40l86 95h62v-414h-62z" />
    <glyph glyph-name="ordmasculine" unicode="&#xba;" horiz-adv-x="372" 
d="M186 424q-81 0 -115.5 52.5t-34.5 157.5q0 106 34.5 161t115.5 55t115.5 -55t34.5 -161q0 -105 -34.5 -157.5t-115.5 -52.5zM186 795q-49 0 -67 -38.5t-18 -122.5q0 -83 17.5 -119t67.5 -36t67.5 36t17.5 119q0 84 -18 122.5t-67 38.5z" />
    <glyph glyph-name="guillemotright" unicode="&#xbb;" horiz-adv-x="488" 
d="M18 91v85l211 140l-211 140v85l258 -189v-72zM239 91v85l189 140l-189 140v85l231 -189v-72z" />
    <glyph glyph-name="onequarter" unicode="&#xbc;" horiz-adv-x="660" 
d="M149 0l240 720h65l-235 -720h-70zM113 286v329l-45 -50l-41 40l86 95h62v-414h-62zM578 148h46v-55h-46v-93h-62v93h-184v58l190 263h56v-266zM516 319l-117 -171h117v171z" />
    <glyph glyph-name="onehalf" unicode="&#xbd;" horiz-adv-x="689" 
d="M149 0l240 720h65l-235 -720h-70zM113 286v329l-45 -50l-41 40l86 95h62v-414h-62zM386 0v55q114 99 157 151.5t43 101.5q0 31 -15.5 43.5t-48.5 12.5q-65 0 -69 -50h-62q7 105 132 105q128 0 128 -103q0 -26 -9 -52.5t-18 -44.5t-34 -46.5t-34.5 -38.5t-43.5 -42
t-39 -37h180v-55h-267z" />
    <glyph glyph-name="threequarters" unicode="&#xbe;" horiz-adv-x="785" 
d="M256 0l240 720h65l-235 -720h-70zM134 528h39q30 0 46 19.5t16 49.5q0 54 -64 54q-65 0 -69 -50h-62q8 105 132 105q128 0 128 -104q0 -78 -55 -100q71 -21 71 -98q0 -60 -40 -92t-110 -32q-123 0 -130 105h65q3 -30 20 -40t44 -10q86 0 86 72q0 66 -78 66h-39v55z
M695 148h46v-55h-46v-93h-62v93h-184v58l190 263h56v-266zM633 319l-117 -171h117v171z" />
    <glyph glyph-name="questiondown" unicode="&#xbf;" horiz-adv-x="496" 
d="M318 500q0 -55 -57 -55q-58 0 -58 55t58 55q57 0 57 -55zM31 -2q0 52 19 93t46.5 68.5l54.5 54.5t46 66.5t19 89.5h88q0 -54 -19 -99t-45.5 -75.5t-53.5 -58.5t-46 -62t-19 -73q0 -55 33.5 -76t91.5 -21q123 0 129 95h90q-7 -97 -65.5 -136t-155.5 -39q-213 0 -213 173z
" />
    <glyph glyph-name="Agrave" unicode="&#xc0;" horiz-adv-x="645" 
d="M297 920l70 -160h-50l-110 160h90zM172 180l-67 -180h-100l273 700h89l273 -700h-100l-68 180h-300zM442 260l-120 321l-120 -321h240z" />
    <glyph glyph-name="Aacute" unicode="&#xc1;" horiz-adv-x="645" 
d="M278 760l70 160h90l-110 -160h-50zM172 180l-67 -180h-100l273 700h89l273 -700h-100l-68 180h-300zM442 260l-120 321l-120 -321h240z" />
    <glyph glyph-name="Acircumflex" unicode="&#xc2;" horiz-adv-x="645" 
d="M383 760l-60 113l-60 -113h-90l125 160h50l125 -160h-90zM172 180l-67 -180h-100l273 700h89l273 -700h-100l-68 180h-300zM442 260l-120 321l-120 -321h240z" />
    <glyph glyph-name="Atilde" unicode="&#xc3;" horiz-adv-x="645" 
d="M403 830q39 0 39 44h65q0 -54 -32 -84t-77 -30q-31 0 -82.5 22t-74.5 22q-39 0 -39 -44h-65q0 54 32 84t77 30q31 0 82.5 -22t74.5 -22zM172 180l-67 -180h-100l273 700h89l273 -700h-100l-68 180h-300zM442 260l-120 321l-120 -321h240z" />
    <glyph glyph-name="Adieresis" unicode="&#xc4;" horiz-adv-x="645" 
d="M272 812q0 -52 -50 -52t-50 52t50 52t50 -52zM472 812q0 -52 -50 -52t-50 52t50 52t50 -52zM172 180l-67 -180h-100l273 700h89l273 -700h-100l-68 180h-300zM442 260l-120 321l-120 -321h240z" />
    <glyph glyph-name="Aring" unicode="&#xc5;" horiz-adv-x="645" 
d="M202 752q0 49 35.5 84t85.5 35q49 0 84 -34.5t35 -84.5q0 -67 -56 -102l254 -650h-100l-68 180h-300l-67 -180h-100l253 650q-56 35 -56 102zM271 752q0 -21 15.5 -36.5t36.5 -15.5h4q19 1 32 16.5t13 35.5q0 21 -14 35t-35 14t-36.5 -14t-15.5 -35zM442 260l-120 321
l-120 -321h240z" />
    <glyph glyph-name="AE" unicode="&#xc6;" horiz-adv-x="948" 
d="M530 620v-230h325v-80h-325v-230h365v-80h-455v180h-272l-68 -180h-95l273 700h617v-80h-365zM440 260v360h-104l-137 -360h241z" />
    <glyph glyph-name="Ccedilla" unicode="&#xc7;" horiz-adv-x="708" 
d="M378 710q98 0 175 -48.5t111 -136.5h-99q-56 100 -178 100q-107 0 -177.5 -74t-70.5 -201t70.5 -201t177.5 -74q121 0 177 100h99q-33 -86 -106 -134t-167 -51l-9 -58q45 11 83.5 -7t38.5 -60t-40 -67.5t-93 -25.5q-45 0 -78 19l8 46q31 -15 62 -15q30 0 50.5 11t20.5 33
q0 16 -10.5 23.5t-30.5 6.5t-36 -4.5t-39 -9.5l19 111q-129 14 -210.5 110t-81.5 247q0 163 94.5 261.5t239.5 98.5z" />
    <glyph glyph-name="Egrave" unicode="&#xc8;" horiz-adv-x="574" 
d="M278 920l70 -160h-50l-110 160h90zM156 620v-230h325v-80h-325v-230h365v-80h-455v700h455v-80h-365z" />
    <glyph glyph-name="Eacute" unicode="&#xc9;" horiz-adv-x="574" 
d="M241 760l70 160h90l-110 -160h-50zM156 620v-230h325v-80h-325v-230h365v-80h-455v700h455v-80h-365z" />
    <glyph glyph-name="Ecircumflex" unicode="&#xca;" horiz-adv-x="574" 
d="M358 760l-60 113l-60 -113h-90l125 160h50l125 -160h-90zM521 700v-80h-365v-230h325v-80h-325v-230h365v-80h-455v700h455z" />
    <glyph glyph-name="Edieresis" unicode="&#xcb;" horiz-adv-x="574" 
d="M249 812q0 -52 -50 -52t-50 52t50 52t50 -52zM449 812q0 -52 -50 -52t-50 52t50 52t50 -52zM521 700v-80h-365v-230h325v-80h-325v-230h365v-80h-455v700h455z" />
    <glyph glyph-name="Igrave" unicode="&#xcc;" horiz-adv-x="231" 
d="M95 920l70 -160h-50l-110 160h90zM75 0v700h90v-700h-90z" />
    <glyph glyph-name="Iacute" unicode="&#xcd;" horiz-adv-x="231" 
d="M66 760l70 160h90l-110 -160h-50zM66 0v700h90v-700h-90z" />
    <glyph glyph-name="Icircumflex" unicode="&#xce;" horiz-adv-x="234" 
d="M177 760l-60 113l-60 -113h-90l125 160h50l125 -160h-90zM71 0v700h90v-700h-90z" />
    <glyph glyph-name="Idieresis" unicode="&#xcf;" horiz-adv-x="234" 
d="M67 812q0 -52 -50 -52t-50 52t50 52t50 -52zM267 812q0 -52 -50 -52t-50 52t50 52t50 -52zM71 0v700h90v-700h-90z" />
    <glyph glyph-name="Eth" unicode="&#xd0;" horiz-adv-x="663" 
d="M74 382v318h241q137 0 218 -87t81 -263t-81 -263t-218 -87h-241v322h-60v60h60zM164 382h140v-60h-140v-242h146q96 0 152.5 66.5t56.5 203.5t-56.5 203.5t-152.5 66.5h-146v-238z" />
    <glyph glyph-name="Ntilde" unicode="&#xd1;" horiz-adv-x="677" 
d="M419 830q39 0 39 44h65q0 -54 -32 -84t-77 -30q-31 0 -82.5 22t-74.5 22q-39 0 -39 -44h-65q0 54 32 84t77 30q31 0 82.5 -22t74.5 -22zM506 0l-350 568v-568h-90v700h105l350 -582v582h90v-700h-105z" />
    <glyph glyph-name="Ograve" unicode="&#xd2;" horiz-adv-x="758" 
d="M359 920l70 -160h-50l-110 160h90zM379 -10q-145 0 -240 98.5t-95 261.5t95 261.5t240 98.5t240 -98.5t95 -261.5t-95 -261.5t-240 -98.5zM379 75q98 0 169 74.5t71 200.5t-71 200.5t-169 74.5t-169 -74.5t-71 -200.5t71 -200.5t169 -74.5z" />
    <glyph glyph-name="Oacute" unicode="&#xd3;" horiz-adv-x="758" 
d="M329 760l70 160h90l-110 -160h-50zM379 -10q-145 0 -240 98.5t-95 261.5t95 261.5t240 98.5t240 -98.5t95 -261.5t-95 -261.5t-240 -98.5zM379 625q-98 0 -169 -74.5t-71 -200.5t71 -200.5t169 -74.5t169 74.5t71 200.5t-71 200.5t-169 74.5z" />
    <glyph glyph-name="Ocircumflex" unicode="&#xd4;" horiz-adv-x="758" 
d="M440 760l-60 113l-60 -113h-90l125 160h50l125 -160h-90zM379 -10q-145 0 -240 98.5t-95 261.5t95 261.5t240 98.5t240 -98.5t95 -261.5t-95 -261.5t-240 -98.5zM379 625q-98 0 -169 -74.5t-71 -200.5t71 -200.5t169 -74.5t169 74.5t71 200.5t-71 200.5t-169 74.5z" />
    <glyph glyph-name="Otilde" unicode="&#xd5;" horiz-adv-x="758" 
d="M460 830q39 0 39 44h65q0 -54 -32 -84t-77 -30q-31 0 -82.5 22t-74.5 22q-39 0 -39 -44h-65q0 54 32 84t77 30q31 0 82.5 -22t74.5 -22zM379 -10q-145 0 -240 98.5t-95 261.5t95 261.5t240 98.5t240 -98.5t95 -261.5t-95 -261.5t-240 -98.5zM379 625q-98 0 -169 -74.5
t-71 -200.5t71 -200.5t169 -74.5t169 74.5t71 200.5t-71 200.5t-169 74.5z" />
    <glyph glyph-name="Odieresis" unicode="&#xd6;" horiz-adv-x="758" 
d="M329 812q0 -52 -50 -52t-50 52t50 52t50 -52zM529 812q0 -52 -50 -52t-50 52t50 52t50 -52zM379 -10q-145 0 -240 98.5t-95 261.5t95 261.5t240 98.5t240 -98.5t95 -261.5t-95 -261.5t-240 -98.5zM379 625q-98 0 -169 -74.5t-71 -200.5t71 -200.5t169 -74.5t169 74.5
t71 200.5t-71 200.5t-169 74.5z" />
    <glyph glyph-name="multiply" unicode="&#xd7;" horiz-adv-x="428" 
d="M214 407l113 113l57 -57l-113 -113l113 -113l-57 -57l-113 113l-113 -113l-57 57l113 113l-113 113l57 57z" />
    <glyph glyph-name="Oslash" unicode="&#xd8;" horiz-adv-x="758" 
d="M379 710q99 0 180 -50l42 60l49 -30l-46 -65q110 -102 110 -275q0 -163 -95 -261.5t-240 -98.5q-102 0 -182 51l-44 -63l-49 30l47 68q-107 102 -107 274q0 163 95 261.5t240 98.5zM378 625q-98 0 -168.5 -74.5t-70.5 -200.5q0 -121 67 -196l301 431q-58 40 -129 40z
M619 350q0 121 -69 197l-301 -432q58 -40 130 -40q98 0 169 74.5t71 200.5z" />
    <glyph glyph-name="Ugrave" unicode="&#xd9;" horiz-adv-x="676" 
d="M318 920l70 -160h-50l-110 160h90zM156 700v-420q0 -90 44.5 -147.5t137.5 -57.5t137.5 57.5t44.5 147.5v420h90v-420q0 -126 -69 -208t-203 -82t-203 82t-69 208v420h90z" />
    <glyph glyph-name="Uacute" unicode="&#xda;" horiz-adv-x="676" 
d="M288 760l70 160h90l-110 -160h-50zM156 700v-420q0 -90 44.5 -147.5t137.5 -57.5t137.5 57.5t44.5 147.5v420h90v-420q0 -126 -69 -208t-203 -82t-203 82t-69 208v420h90z" />
    <glyph glyph-name="Ucircumflex" unicode="&#xdb;" horiz-adv-x="676" 
d="M398 760l-60 113l-60 -113h-90l125 160h50l125 -160h-90zM156 700v-420q0 -90 44.5 -147.5t137.5 -57.5t137.5 57.5t44.5 147.5v420h90v-420q0 -126 -69 -208t-203 -82t-203 82t-69 208v420h90z" />
    <glyph glyph-name="Udieresis" unicode="&#xdc;" horiz-adv-x="676" 
d="M288 812q0 -52 -50 -52t-50 52t50 52t50 -52zM488 812q0 -52 -50 -52t-50 52t50 52t50 -52zM156 700v-420q0 -90 44.5 -147.5t137.5 -57.5t137.5 57.5t44.5 147.5v420h90v-420q0 -126 -69 -208t-203 -82t-203 82t-69 208v420h90z" />
    <glyph glyph-name="Yacute" unicode="&#xdd;" horiz-adv-x="588" 
d="M258 760l70 160h90l-110 -160h-50zM249 0v245l-240 455h100l185 -362l185 362h100l-240 -455v-245h-90z" />
    <glyph glyph-name="Thorn" unicode="&#xde;" horiz-adv-x="630" 
d="M156 0h-90v700h90v-120h185q245 0 245 -220t-245 -220h-185v-140zM156 220h175q79 0 119.5 29t40.5 111t-40.5 111t-119.5 29h-175v-280z" />
    <glyph glyph-name="germandbls" unicode="&#xdf;" horiz-adv-x="567" 
d="M218 0v79q27 -9 66 -9q149 0 149 123q0 45 -19 74.5t-54 42t-67.5 16t-74.5 1.5v75q71 -4 121 28.5t50 100.5q0 51 -30 80t-89 29q-67 0 -97 -41.5t-30 -127.5v-471h-85v471q0 249 207 249q96 0 155 -49t59 -137q0 -111 -116 -161q81 -18 120.5 -61.5t39.5 -120.5
q0 -103 -65 -152t-167 -49q-45 0 -73 10z" />
    <glyph glyph-name="agrave" unicode="&#xe0;" horiz-adv-x="542" 
d="M259 750l70 -160h-50l-110 160h90zM44 144q0 83 62 122t158 39q81 0 135 -34v79q0 62 -30.5 83.5t-85.5 21.5q-124 0 -124 -75h-90q0 80 57.5 117.5t153.5 37.5q99 0 151.5 -44t52.5 -151v-340h-65l-12 60q-56 -70 -164 -70q-88 0 -143.5 37.5t-55.5 116.5zM277 235
q-143 0 -143 -87q0 -78 122 -78q98 0 143 52v86q-46 27 -122 27z" />
    <glyph glyph-name="aacute" unicode="&#xe1;" horiz-adv-x="542" 
d="M250 590l70 160h90l-110 -160h-50zM44 144q0 83 62 122t158 39q81 0 135 -34v79q0 62 -30.5 83.5t-85.5 21.5q-124 0 -124 -75h-90q0 80 57.5 117.5t153.5 37.5q99 0 151.5 -44t52.5 -151v-340h-65l-12 60q-56 -70 -164 -70q-88 0 -143.5 37.5t-55.5 116.5zM277 235
q-143 0 -143 -87q0 -78 122 -78q98 0 143 52v86q-46 27 -122 27z" />
    <glyph glyph-name="acircumflex" unicode="&#xe2;" horiz-adv-x="542" 
d="M332 590l-60 113l-60 -113h-90l125 160h50l125 -160h-90zM44 144q0 83 62 122t158 39q81 0 135 -34v79q0 62 -30.5 83.5t-85.5 21.5q-124 0 -124 -75h-90q0 80 57.5 117.5t153.5 37.5q99 0 151.5 -44t52.5 -151v-340h-65l-12 60q-56 -70 -164 -70q-88 0 -143.5 37.5
t-55.5 116.5zM277 235q-143 0 -143 -87q0 -78 122 -78q98 0 143 52v86q-46 27 -122 27z" />
    <glyph glyph-name="atilde" unicode="&#xe3;" horiz-adv-x="542" 
d="M360 660q39 0 39 44h65q0 -54 -32 -84t-77 -30q-31 0 -82.5 22t-74.5 22q-39 0 -39 -44h-65q0 54 32 84t77 30q31 0 82.5 -22t74.5 -22zM44 144q0 83 62 122t158 39q81 0 135 -34v79q0 62 -30.5 83.5t-85.5 21.5q-124 0 -124 -75h-90q0 80 57.5 117.5t153.5 37.5
q99 0 151.5 -44t52.5 -151v-340h-65l-12 60q-56 -70 -164 -70q-88 0 -143.5 37.5t-55.5 116.5zM277 235q-143 0 -143 -87q0 -78 122 -78q98 0 143 52v86q-46 27 -122 27z" />
    <glyph glyph-name="adieresis" unicode="&#xe4;" horiz-adv-x="542" 
d="M234 648q0 -52 -50 -52t-50 52t50 52t50 -52zM434 648q0 -52 -50 -52t-50 52t50 52t50 -52zM44 144q0 83 62 122t158 39q81 0 135 -34v79q0 62 -30.5 83.5t-85.5 21.5q-124 0 -124 -75h-90q0 80 57.5 117.5t153.5 37.5q99 0 151.5 -44t52.5 -151v-340h-65l-12 60
q-56 -70 -164 -70q-88 0 -143.5 37.5t-55.5 116.5zM277 235q-143 0 -143 -87q0 -78 122 -78q98 0 143 52v86q-46 27 -122 27z" />
    <glyph glyph-name="aring" unicode="&#xe5;" horiz-adv-x="542" 
d="M159 696q0 49 35.5 84t85.5 35t84.5 -34.5t34.5 -84.5t-35 -85.5t-84 -35.5q-50 0 -85.5 35.5t-35.5 85.5zM228 696q0 -21 15.5 -36.5t36.5 -15.5t35 15.5t14 36.5t-14 35t-35 14t-36.5 -14t-15.5 -35zM44 144q0 83 62 122t158 39q81 0 135 -34v79q0 62 -30.5 83.5
t-85.5 21.5q-124 0 -124 -75h-90q0 80 57.5 117.5t153.5 37.5q99 0 151.5 -44t52.5 -151v-340h-65l-12 60q-56 -70 -164 -70q-88 0 -143.5 37.5t-55.5 116.5zM277 235q-143 0 -143 -87q0 -78 122 -78q98 0 143 52v86q-46 27 -122 27z" />
    <glyph glyph-name="ae" unicode="&#xe6;" horiz-adv-x="913" 
d="M44 144q0 83 62 122t158 39q81 0 135 -34q0 12 7 68q8 62 -30.5 89t-99.5 27q-50 0 -83.5 -18t-33.5 -57h-90q0 80 57.5 117.5t153.5 37.5q138 0 177 -83q67 83 182 83q107 0 168.5 -73t61.5 -199v-38h-383q9 -72 49.5 -113.5t103.5 -41.5q88 0 122 75h90
q-25 -74 -79.5 -114.5t-132.5 -40.5q-130 0 -195 101q-60 -101 -200 -101q-90 0 -145 38t-55 116zM639 455q-63 0 -103.5 -41.5t-49.5 -113.5h291q-7 73 -42 114t-96 41zM278 235q-144 0 -144 -88q0 -77 116 -77q109 0 166 82q-8 21 -13 53q-46 30 -125 30z" />
    <glyph glyph-name="ccedilla" unicode="&#xe7;" horiz-adv-x="532" 
d="M281 70q91 0 125 75h90q-24 -71 -76.5 -111t-126.5 -43l-9 -59q45 11 83.5 -7t38.5 -60t-40 -67.5t-93 -25.5q-45 0 -78 19l8 46q31 -15 62 -15q30 0 50.5 11t20.5 33q0 16 -10.5 23.5t-30.5 6.5t-36 -4.5t-39 -9.5l19 111q-92 14 -147.5 86.5t-55.5 183.5q0 124 68 198
t177 74q79 0 134.5 -40.5t80.5 -114.5h-90q-34 75 -125 75q-71 0 -113 -52t-42 -140t42.5 -140.5t112.5 -52.5z" />
    <glyph glyph-name="egrave" unicode="&#xe8;" horiz-adv-x="547" 
d="M261 750l70 -160h-50l-110 160h90zM281 -10q-108 0 -176.5 74.5t-68.5 198.5t68 198t177 74q107 0 168.5 -73t61.5 -199v-38h-383q9 -72 49.5 -113.5t103.5 -41.5q88 0 122 75h90q-25 -74 -79.5 -114.5t-132.5 -40.5zM281 455q-63 0 -103.5 -41.5t-49.5 -113.5h291
q-7 73 -42 114t-96 41z" />
    <glyph glyph-name="eacute" unicode="&#xe9;" horiz-adv-x="547" 
d="M230 590l70 160h90l-110 -160h-50zM281 -10q-108 0 -176.5 74.5t-68.5 198.5t68 198t177 74q107 0 168.5 -73t61.5 -199v-38h-383q9 -72 49.5 -113.5t103.5 -41.5q88 0 122 75h90q-25 -74 -79.5 -114.5t-132.5 -40.5zM281 455q-63 0 -103.5 -41.5t-49.5 -113.5h291
q-7 73 -42 114t-96 41z" />
    <glyph glyph-name="ecircumflex" unicode="&#xea;" horiz-adv-x="547" 
d="M341 590l-60 113l-60 -113h-90l125 160h50l125 -160h-90zM281 -10q-108 0 -176.5 74.5t-68.5 198.5t68 198t177 74q107 0 168.5 -73t61.5 -199v-38h-383q9 -72 49.5 -113.5t103.5 -41.5q88 0 122 75h90q-25 -74 -79.5 -114.5t-132.5 -40.5zM281 455q-63 0 -103.5 -41.5
t-49.5 -113.5h291q-7 73 -42 114t-96 41z" />
    <glyph glyph-name="edieresis" unicode="&#xeb;" horiz-adv-x="547" 
d="M226 648q0 -52 -50 -52t-50 52t50 52t50 -52zM426 648q0 -52 -50 -52t-50 52t50 52t50 -52zM281 -10q-108 0 -176.5 74.5t-68.5 198.5t68 198t177 74q107 0 168.5 -73t61.5 -199v-38h-383q9 -72 49.5 -113.5t103.5 -41.5q88 0 122 75h90q-25 -74 -79.5 -114.5
t-132.5 -40.5zM281 455q-63 0 -103.5 -41.5t-49.5 -113.5h291q-7 73 -42 114t-96 41z" />
    <glyph glyph-name="igrave" unicode="&#xec;" horiz-adv-x="197" 
d="M74 750l70 -160h-50l-110 160h90zM59 0v525h85v-525h-85z" />
    <glyph glyph-name="iacute" unicode="&#xed;" horiz-adv-x="200" 
d="M53 590l70 160h90l-110 -160h-50zM53 0v525h85v-525h-85z" />
    <glyph glyph-name="icircumflex" unicode="&#xee;" horiz-adv-x="290" 
d="M205 590l-60 113l-60 -113h-90l125 160h50l125 -160h-90zM101 0v525h85v-525h-85z" />
    <glyph glyph-name="idieresis" unicode="&#xef;" horiz-adv-x="268" 
d="M84 648q0 -52 -50 -52t-50 52t50 52t50 -52zM284 648q0 -52 -50 -52t-50 52t50 52t50 -52zM91 0v525h85v-525h-85z" />
    <glyph glyph-name="eth" unicode="&#xf0;" horiz-adv-x="562" 
d="M199 619l38 38q-30 17 -70 32l48 48q48 -20 70 -32l45 45l50 -50l-35 -35q74 -53 127.5 -159t53.5 -237q0 -141 -65.5 -210t-176.5 -69q-113 0 -180.5 67.5t-67.5 188.5q0 122 67 185.5t175 63.5q118 0 164 -92q-36 135 -143 216l-50 -50zM281 415q-73 0 -114 -41
t-41 -126q0 -86 41.5 -132t113.5 -46t113.5 46t41.5 132q0 85 -41 126t-114 41z" />
    <glyph glyph-name="ntilde" unicode="&#xf1;" 
d="M366 660q39 0 39 44h65q0 -54 -32 -84t-77 -30q-31 0 -82.5 22t-74.5 22q-39 0 -39 -44h-65q0 54 32 84t77 30q31 0 82.5 -22t74.5 -22zM291 455q-99 0 -148 -67v-388h-85v525h65l16 -81q64 91 174 91q195 0 195 -250v-285h-85v285q0 89 -31 129.5t-101 40.5z" />
    <glyph glyph-name="ograve" unicode="&#xf2;" horiz-adv-x="562" 
d="M261 750l70 -160h-50l-110 160h90zM281 -10q-108 0 -176.5 74.5t-68.5 198.5t68 198t177 74t177 -74t68 -198t-68.5 -198.5t-176.5 -74.5zM281 455q-71 0 -113 -52t-42 -140t42.5 -140.5t112.5 -52.5t112.5 52.5t42.5 140.5t-42 140t-113 52z" />
    <glyph glyph-name="oacute" unicode="&#xf3;" horiz-adv-x="562" 
d="M231 590l70 160h90l-110 -160h-50zM281 -10q-108 0 -176.5 74.5t-68.5 198.5t68 198t177 74t177 -74t68 -198t-68.5 -198.5t-176.5 -74.5zM281 455q-71 0 -113 -52t-42 -140t42.5 -140.5t112.5 -52.5t112.5 52.5t42.5 140.5t-42 140t-113 52z" />
    <glyph glyph-name="ocircumflex" unicode="&#xf4;" horiz-adv-x="562" 
d="M341 590l-60 113l-60 -113h-90l125 160h50l125 -160h-90zM281 -10q-108 0 -176.5 74.5t-68.5 198.5t68 198t177 74t177 -74t68 -198t-68.5 -198.5t-176.5 -74.5zM281 455q-71 0 -113 -52t-42 -140t42.5 -140.5t112.5 -52.5t112.5 52.5t42.5 140.5t-42 140t-113 52z" />
    <glyph glyph-name="otilde" unicode="&#xf5;" horiz-adv-x="562" 
d="M362 660q39 0 39 44h65q0 -54 -32 -84t-77 -30q-31 0 -82.5 22t-74.5 22q-39 0 -39 -44h-65q0 54 32 84t77 30q31 0 82.5 -22t74.5 -22zM281 -10q-108 0 -176.5 74.5t-68.5 198.5t68 198t177 74t177 -74t68 -198t-68.5 -198.5t-176.5 -74.5zM281 455q-71 0 -113 -52
t-42 -140t42.5 -140.5t112.5 -52.5t112.5 52.5t42.5 140.5t-42 140t-113 52z" />
    <glyph glyph-name="odieresis" unicode="&#xf6;" horiz-adv-x="562" 
d="M226 648q0 -52 -50 -52t-50 52t50 52t50 -52zM426 648q0 -52 -50 -52t-50 52t50 52t50 -52zM281 -10q-108 0 -176.5 74.5t-68.5 198.5t68 198t177 74t177 -74t68 -198t-68.5 -198.5t-176.5 -74.5zM281 455q-71 0 -113 -52t-42 -140t42.5 -140.5t112.5 -52.5t112.5 52.5
t42.5 140.5t-42 140t-113 52z" />
    <glyph glyph-name="divide" unicode="&#xf7;" horiz-adv-x="436" 
d="M275 490q0 -55 -58 -55q-57 0 -57 55t57 55q58 0 58 -55zM418 365v-80h-400v80h400zM275 210q0 -55 -58 -55q-57 0 -57 55t57 55q58 0 58 -55z" />
    <glyph glyph-name="oslash" unicode="&#xf8;" horiz-adv-x="562" 
d="M281 535q86 0 149 -49l35 49l49 -30l-43 -60q55 -72 55 -182q0 -124 -68.5 -198.5t-176.5 -74.5q-65 0 -119 28l-41 -57l-49 30l44 61q-80 77 -80 211q0 124 68 198t177 74zM281 455q-71 0 -113 -52t-42 -140q0 -87 42 -140l212 294q-40 38 -99 38zM280 70
q71 0 113.5 52.5t42.5 140.5q0 61 -21 105l-204 -282q31 -16 69 -16z" />
    <glyph glyph-name="ugrave" unicode="&#xf9;" 
d="M255 750l70 -160h-50l-110 160h90zM275 70q99 0 148 67v388h85v-525h-65l-16 80q-67 -90 -174 -90q-195 0 -195 250v285h85v-285q0 -89 31 -129.5t101 -40.5z" />
    <glyph glyph-name="uacute" unicode="&#xfa;" 
d="M221 590l70 160h90l-110 -160h-50zM275 70q99 0 148 67v388h85v-525h-65l-16 80q-67 -90 -174 -90q-195 0 -195 250v285h85v-285q0 -89 31 -129.5t101 -40.5z" />
    <glyph glyph-name="ucircumflex" unicode="&#xfb;" 
d="M340 590l-60 113l-60 -113h-90l125 160h50l125 -160h-90zM275 70q99 0 148 67v388h85v-525h-65l-16 80q-67 -90 -174 -90q-195 0 -195 250v285h85v-285q0 -89 31 -129.5t101 -40.5z" />
    <glyph glyph-name="udieresis" unicode="&#xfc;" 
d="M233 648q0 -52 -50 -52t-50 52t50 52t50 -52zM433 648q0 -52 -50 -52t-50 52t50 52t50 -52zM275 70q99 0 148 67v388h85v-525h-65l-16 80q-67 -90 -174 -90q-195 0 -195 250v285h85v-285q0 -89 31 -129.5t101 -40.5z" />
    <glyph glyph-name="yacute" unicode="&#xfd;" horiz-adv-x="504" 
d="M215 590l70 160h90l-110 -160h-50zM490 525l-222 -601q-23 -61 -66.5 -92t-117.5 -31v80q45 2 70 17t38 49l17 47l-195 531h95l143 -410l143 410h95z" />
    <glyph glyph-name="thorn" unicode="&#xfe;" horiz-adv-x="562" 
d="M296 535q101 0 161.5 -73.5t60.5 -198.5t-60 -199t-161 -74q-95 0 -154 77v-262h-85v915h85v-263q59 78 153 78zM277 455q-87 0 -134 -66v-254q47 -65 134 -65q71 0 111 52.5t40 140.5t-40 140t-111 52z" />
    <glyph glyph-name="ydieresis" unicode="&#xff;" horiz-adv-x="504" 
d="M198 648q0 -52 -50 -52t-50 52t50 52t50 -52zM398 648q0 -52 -50 -52t-50 52t50 52t50 -52zM490 525l-222 -601q-23 -61 -66.5 -92.5t-117.5 -31.5v80q44 2 69.5 17.5t38.5 49.5l17 47l-195 531h95l143 -410l143 410h95z" />
    <glyph glyph-name="Amacron" unicode="&#x100;" horiz-adv-x="645" 
d="M467 820v-60h-290v60h290zM172 180l-67 -180h-100l273 700h89l273 -700h-100l-68 180h-300zM442 260l-120 321l-120 -321h240z" />
    <glyph glyph-name="amacron" unicode="&#x101;" horiz-adv-x="542" 
d="M424 650v-60h-290v60h290zM44 144q0 83 62 122t158 39q81 0 135 -34v79q0 62 -30.5 83.5t-85.5 21.5q-124 0 -124 -75h-90q0 80 57.5 117.5t153.5 37.5q99 0 151.5 -44t52.5 -151v-340h-65l-12 60q-56 -70 -164 -70q-88 0 -143.5 37.5t-55.5 116.5zM277 235
q-143 0 -143 -87q0 -78 122 -78q98 0 143 52v86q-46 27 -122 27z" />
    <glyph glyph-name="Abreve" unicode="&#x102;" horiz-adv-x="645" 
d="M413 884h55q0 -65 -40.5 -94.5t-104.5 -29.5t-104.5 29.5t-40.5 94.5h55q0 -28 26 -43.5t64 -15.5t64 15.5t26 43.5zM172 180l-67 -180h-100l273 700h89l273 -700h-100l-68 180h-300zM442 260l-120 321l-120 -321h240z" />
    <glyph glyph-name="abreve" unicode="&#x103;" horiz-adv-x="542" 
d="M369 714h55q0 -65 -40.5 -94.5t-104.5 -29.5t-104.5 29.5t-40.5 94.5h55q0 -28 26 -43.5t64 -15.5t64 15.5t26 43.5zM44 144q0 83 62 122t158 39q81 0 135 -34v79q0 62 -30.5 83.5t-85.5 21.5q-124 0 -124 -75h-90q0 80 57.5 117.5t153.5 37.5q99 0 151.5 -44t52.5 -151
v-340h-65l-12 60q-56 -70 -164 -70q-88 0 -143.5 37.5t-55.5 116.5zM277 235q-143 0 -143 -87q0 -78 122 -78q98 0 143 52v86q-46 27 -122 27z" />
    <glyph glyph-name="Aogonek" unicode="&#x104;" horiz-adv-x="645" 
d="M172 180l-67 -180h-100l273 700h89l273 -700q-55 -35 -74.5 -62.5t-19.5 -56.5q0 -46 40 -46q20 0 33 9l20 -38q-28 -21 -66 -21q-39 0 -67 18.5t-28 63.5q0 72 112 133h-50l-68 180h-300zM442 260l-120 321l-120 -321h240z" />
    <glyph glyph-name="aogonek" unicode="&#x105;" horiz-adv-x="542" 
d="M448 -156l20 -38q-28 -21 -66 -21q-39 0 -67 18.5t-28 63.5q0 72 112 133l-12 60q-56 -70 -164 -70q-88 0 -143.5 37.5t-55.5 116.5q0 83 62 122t158 39q81 0 135 -34v79q0 62 -30.5 83.5t-85.5 21.5q-124 0 -124 -75h-90q0 80 57.5 117.5t153.5 37.5q99 0 151.5 -44
t52.5 -151v-340q-65 -35 -87 -62.5t-22 -56.5q0 -46 40 -46q20 0 33 9zM277 235q-143 0 -143 -87q0 -78 122 -78q98 0 143 52v86q-46 27 -122 27z" />
    <glyph glyph-name="Cacute" unicode="&#x106;" horiz-adv-x="708" 
d="M328 760l70 160h90l-110 -160h-50zM378 710q98 0 175 -48.5t111 -136.5h-99q-56 100 -178 100q-107 0 -177.5 -74t-70.5 -201t70.5 -201t177.5 -74q121 0 177 100h99q-34 -88 -110.5 -136.5t-174.5 -48.5q-145 0 -239.5 98.5t-94.5 261.5t94.5 261.5t239.5 98.5z" />
    <glyph glyph-name="cacute" unicode="&#x107;" horiz-adv-x="532" 
d="M231 590l70 160h90l-110 -160h-50zM281 70q91 0 125 75h90q-25 -74 -80.5 -114.5t-134.5 -40.5q-108 0 -176.5 74.5t-68.5 198.5t68 198t177 74q79 0 134.5 -40.5t80.5 -114.5h-90q-34 75 -125 75q-71 0 -113 -52t-42 -140t42.5 -140.5t112.5 -52.5z" />
    <glyph glyph-name="Ccircumflex" unicode="&#x108;" horiz-adv-x="708" 
d="M438 760l-60 113l-60 -113h-90l125 160h50l125 -160h-90zM378 710q98 0 175 -48.5t111 -136.5h-99q-56 100 -178 100q-107 0 -177.5 -74t-70.5 -201t70.5 -201t177.5 -74q121 0 177 100h99q-34 -88 -110.5 -136.5t-174.5 -48.5q-145 0 -239.5 98.5t-94.5 261.5
t94.5 261.5t239.5 98.5z" />
    <glyph glyph-name="ccircumflex" unicode="&#x109;" horiz-adv-x="532" 
d="M341 590l-60 113l-60 -113h-90l125 160h50l125 -160h-90zM281 70q91 0 125 75h90q-25 -74 -80.5 -114.5t-134.5 -40.5q-108 0 -176.5 74.5t-68.5 198.5t68 198t177 74q79 0 134.5 -40.5t80.5 -114.5h-90q-34 75 -125 75q-71 0 -113 -52t-42 -140t42.5 -140.5t112.5 -52.5
z" />
    <glyph glyph-name="Cdotaccent" unicode="&#x10a;" horiz-adv-x="708" 
d="M428 812q0 -52 -50 -52t-50 52t50 52t50 -52zM378 710q98 0 175 -48.5t111 -136.5h-99q-56 100 -178 100q-107 0 -177.5 -74t-70.5 -201t70.5 -201t177.5 -74q121 0 177 100h99q-34 -88 -110.5 -136.5t-174.5 -48.5q-145 0 -239.5 98.5t-94.5 261.5t94.5 261.5
t239.5 98.5z" />
    <glyph glyph-name="cdotaccent" unicode="&#x10b;" horiz-adv-x="532" 
d="M331 648q0 -52 -50 -52t-50 52t50 52t50 -52zM281 70q91 0 125 75h90q-25 -74 -80.5 -114.5t-134.5 -40.5q-108 0 -176.5 74.5t-68.5 198.5t68 198t177 74q79 0 134.5 -40.5t80.5 -114.5h-90q-34 75 -125 75q-71 0 -113 -52t-42 -140t42.5 -140.5t112.5 -52.5z" />
    <glyph glyph-name="Ccaron" unicode="&#x10c;" horiz-adv-x="708" 
d="M354 750l-125 160h90l60 -113l60 113h90l-125 -160h-50zM378 710q98 0 175 -48.5t111 -136.5h-99q-56 100 -178 100q-107 0 -177.5 -74t-70.5 -201t70.5 -201t177.5 -74q121 0 177 100h99q-34 -88 -110.5 -136.5t-174.5 -48.5q-145 0 -239.5 98.5t-94.5 261.5t94.5 261.5
t239.5 98.5z" />
    <glyph glyph-name="ccaron" unicode="&#x10d;" horiz-adv-x="532" 
d="M256 590l-125 160h90l60 -113l60 113h90l-125 -160h-50zM281 70q91 0 125 75h90q-25 -74 -80.5 -114.5t-134.5 -40.5q-108 0 -176.5 74.5t-68.5 198.5t68 198t177 74q79 0 134.5 -40.5t80.5 -114.5h-90q-34 75 -125 75q-71 0 -113 -52t-42 -140t42.5 -140.5t112.5 -52.5z
" />
    <glyph glyph-name="Dcaron" unicode="&#x10e;" horiz-adv-x="650" 
d="M260 760l-125 160h90l60 -113l60 113h90l-125 -160h-50zM66 700h241q137 0 218 -87t81 -263t-81 -263t-218 -87h-241v700zM156 80h146q96 0 152.5 66.5t56.5 203.5t-56.5 203.5t-152.5 66.5h-146v-540z" />
    <glyph glyph-name="dcaron" unicode="&#x10f;" horiz-adv-x="708" 
d="M699 750v-6q0 -121 -106 -174l-9 51q43 28 46 74q-46 5 -46 55q0 55 57 55q58 0 58 -55zM265 -10q-101 0 -161 74t-60 199t60 198.5t161 73.5q95 0 154 -78v263h85v-720h-65l-15 74q-59 -84 -159 -84zM285 70q85 0 134 65v254q-48 66 -134 66q-71 0 -111 -52t-40 -140
t40 -140.5t111 -52.5z" />
    <glyph glyph-name="Dcroat" unicode="&#x110;" horiz-adv-x="658" 
d="M74 382v318h241q137 0 218 -87t81 -263t-81 -263t-218 -87h-241v322h-60v60h60zM164 382h140v-60h-140v-242h146q96 0 152.5 66.5t56.5 203.5t-56.5 203.5t-152.5 66.5h-146v-238z" />
    <glyph glyph-name="dcroat" unicode="&#x111;" horiz-adv-x="583" 
d="M439 0l-15 74q-59 -84 -159 -84q-101 0 -161 74t-60 199t60 198.5t161 73.5q95 0 154 -78v128h-140v60h140v75h85v-75h65v-60h-65v-585h-65zM285 70q85 0 134 65v254q-48 66 -134 66q-71 0 -111 -52t-40 -140t40 -140.5t111 -52.5z" />
    <glyph glyph-name="Emacron" unicode="&#x112;" horiz-adv-x="574" 
d="M444 820v-60h-290v60h290zM521 700v-80h-365v-230h325v-80h-325v-230h365v-80h-455v700h455z" />
    <glyph glyph-name="emacron" unicode="&#x113;" horiz-adv-x="547" 
d="M426 650v-60h-290v60h290zM281 -10q-108 0 -176.5 74.5t-68.5 198.5t68 198t177 74q107 0 168.5 -73t61.5 -199v-38h-383q9 -72 49.5 -113.5t103.5 -41.5q88 0 122 75h90q-25 -74 -79.5 -114.5t-132.5 -40.5zM281 455q-63 0 -103.5 -41.5t-49.5 -113.5h291q-7 73 -42 114
t-96 41z" />
    <glyph glyph-name="Ebreve" unicode="&#x114;" horiz-adv-x="574" 
d="M378 884h55q0 -65 -40.5 -94.5t-104.5 -29.5t-104.5 29.5t-40.5 94.5h55q0 -28 26 -43.5t64 -15.5t64 15.5t26 43.5zM521 700v-80h-365v-230h325v-80h-325v-230h365v-80h-455v700h455z" />
    <glyph glyph-name="ebreve" unicode="&#x115;" horiz-adv-x="547" 
d="M371 714h55q0 -65 -40.5 -94.5t-104.5 -29.5t-104.5 29.5t-40.5 94.5h55q0 -28 26 -43.5t64 -15.5t64 15.5t26 43.5zM281 -10q-108 0 -176.5 74.5t-68.5 198.5t68 198t177 74q107 0 168.5 -73t61.5 -199v-38h-383q9 -72 49.5 -113.5t103.5 -41.5q88 0 122 75h90
q-25 -74 -79.5 -114.5t-132.5 -40.5zM281 455q-63 0 -103.5 -41.5t-49.5 -113.5h291q-7 73 -42 114t-96 41z" />
    <glyph glyph-name="Edotaccent" unicode="&#x116;" horiz-adv-x="574" 
d="M341 802q0 -52 -50 -52t-50 52t50 52t50 -52zM156 620v-230h325v-80h-325v-230h365v-80h-455v700h455v-80h-365z" />
    <glyph glyph-name="edotaccent" unicode="&#x117;" horiz-adv-x="547" 
d="M333 648q0 -52 -50 -52t-50 52t50 52t50 -52zM281 -10q-108 0 -176.5 74.5t-68.5 198.5t68 198t177 74q107 0 168.5 -73t61.5 -199v-38h-383q9 -72 49.5 -113.5t103.5 -41.5q88 0 122 75h90q-25 -74 -79.5 -114.5t-132.5 -40.5zM281 455q-63 0 -103.5 -41.5t-49.5 -113.5
h291q-7 73 -42 114t-96 41z" />
    <glyph glyph-name="Eogonek" unicode="&#x118;" horiz-adv-x="574" 
d="M521 700v-80h-365v-230h325v-80h-325v-230h365v-80q-55 -35 -74.5 -62.5t-19.5 -56.5q0 -46 40 -46q19 0 33 9l20 -38q-28 -21 -66 -21q-39 0 -67 18.5t-28 63.5q0 72 112 133h-405v700h455z" />
    <glyph glyph-name="eogonek" unicode="&#x119;" horiz-adv-x="547" 
d="M331 -156l20 -38q-28 -21 -66 -21q-39 0 -67 19t-28 65q0 64 94 121h-3q-108 0 -176.5 74.5t-68.5 198.5t68 198t177 74q107 0 168.5 -73t61.5 -199v-38h-383q9 -72 49.5 -113.5t103.5 -41.5q88 0 122 75h90q-39 -115 -142 -145q-54 -36 -73.5 -63t-19.5 -56
q0 -46 40 -46q20 0 33 9zM281 455q-63 0 -103.5 -41.5t-49.5 -113.5h291q-7 73 -42 114t-96 41z" />
    <glyph glyph-name="Ecaron" unicode="&#x11a;" horiz-adv-x="574" 
d="M273 760l-125 160h90l60 -113l60 113h90l-125 -160h-50zM521 700v-80h-365v-230h325v-80h-325v-230h365v-80h-455v700h455z" />
    <glyph glyph-name="ecaron" unicode="&#x11b;" horiz-adv-x="547" 
d="M256 590l-125 160h90l60 -113l60 113h90l-125 -160h-50zM281 -10q-108 0 -176.5 74.5t-68.5 198.5t68 198t177 74q107 0 168.5 -73t61.5 -199v-38h-383q9 -72 49.5 -113.5t103.5 -41.5q88 0 122 75h90q-25 -74 -79.5 -114.5t-132.5 -40.5zM281 455q-63 0 -103.5 -41.5
t-49.5 -113.5h291q-7 73 -42 114t-96 41z" />
    <glyph glyph-name="Gcircumflex" unicode="&#x11c;" horiz-adv-x="743" 
d="M438 760l-60 113l-60 -113h-90l125 160h50l125 -160h-90zM699 370v-20q0 -168 -83 -264t-238 -96q-145 0 -239.5 98.5t-94.5 261.5t94.5 261.5t239.5 98.5q98 0 175 -48.5t111 -136.5h-99q-56 100 -177 100q-107 0 -178 -73.5t-71 -200.5t70.5 -201.5t168.5 -74.5
q206 0 229 215h-183v80h275z" />
    <glyph glyph-name="gcircumflex" unicode="&#x11d;" horiz-adv-x="562" 
d="M350 590l-60 113l-60 -113h-90l125 160h50l125 -160h-90zM281 -200q-86 0 -140.5 38.5t-69.5 116.5h90q18 -75 121 -75q65 0 101 35.5t36 120.5v31q-59 -77 -153 -77q-101 0 -161.5 74t-60.5 199t60 198.5t161 73.5q100 0 159 -85l15 75h65v-489q0 -123 -60 -179.5
t-163 -56.5zM285 455q-71 0 -111 -52t-40 -140t40 -140.5t111 -52.5q85 0 134 65v254q-48 66 -134 66z" />
    <glyph glyph-name="Gbreve" unicode="&#x11e;" horiz-adv-x="743" 
d="M468 884h55q0 -65 -40.5 -94.5t-104.5 -29.5t-104.5 29.5t-40.5 94.5h55q0 -28 26 -43.5t64 -15.5t64 15.5t26 43.5zM699 370v-20q0 -168 -83 -264t-238 -96q-145 0 -239.5 98.5t-94.5 261.5t94.5 261.5t239.5 98.5q98 0 175 -48.5t111 -136.5h-99q-56 100 -177 100
q-107 0 -178 -73.5t-71 -200.5t70.5 -201.5t168.5 -74.5q206 0 229 215h-183v80h275z" />
    <glyph glyph-name="gbreve" unicode="&#x11f;" horiz-adv-x="562" 
d="M379 714h55q0 -65 -40.5 -94.5t-104.5 -29.5t-104.5 29.5t-40.5 94.5h55q0 -28 26 -43.5t64 -15.5t64 15.5t26 43.5zM281 -200q-86 0 -140.5 38.5t-69.5 116.5h90q18 -75 121 -75q65 0 101 35.5t36 120.5v31q-59 -77 -153 -77q-101 0 -161.5 74t-60.5 199t60 198.5
t161 73.5q100 0 159 -85l15 75h65v-489q0 -123 -60 -179.5t-163 -56.5zM285 455q-71 0 -111 -52t-40 -140t40 -140.5t111 -52.5q85 0 134 65v254q-48 66 -134 66z" />
    <glyph glyph-name="Gdotaccent" unicode="&#x120;" horiz-adv-x="743" 
d="M428 812q0 -52 -50 -52t-50 52t50 52t50 -52zM699 370v-20q0 -168 -83 -264t-238 -96q-145 0 -239.5 98.5t-94.5 261.5t94.5 261.5t239.5 98.5q98 0 175 -48.5t111 -136.5h-99q-56 100 -177 100q-107 0 -178 -73.5t-71 -200.5t70.5 -201.5t168.5 -74.5q206 0 229 215
h-183v80h275z" />
    <glyph glyph-name="gdotaccent" unicode="&#x121;" horiz-adv-x="562" 
d="M339 648q0 -52 -50 -52t-50 52t50 52t50 -52zM281 -200q-86 0 -140.5 38.5t-69.5 116.5h90q18 -75 121 -75q65 0 101 35.5t36 120.5v31q-59 -77 -153 -77q-101 0 -161.5 74t-60.5 199t60 198.5t161 73.5q100 0 159 -85l15 75h65v-489q0 -123 -60 -179.5t-163 -56.5z
M285 455q-71 0 -111 -52t-40 -140t40 -140.5t111 -52.5q85 0 134 65v254q-48 66 -134 66z" />
    <glyph glyph-name="Gcommaaccent" unicode="&#x122;" horiz-adv-x="743" 
d="M699 370v-20q0 -168 -83 -264t-238 -96q-145 0 -239.5 98.5t-94.5 261.5t94.5 261.5t239.5 98.5q98 0 175 -48.5t111 -136.5h-99q-56 100 -177 100q-107 0 -178 -73.5t-71 -200.5t70.5 -201.5t168.5 -74.5q206 0 229 215h-183v80h275zM436 -124q0 -62 -31.5 -106
t-74.5 -65l-9 51q43 28 46 75q-46 5 -46 54q0 55 59 55q30 0 43 -14.5t13 -49.5z" />
    <glyph glyph-name="gcommaaccent" unicode="&#x123;" horiz-adv-x="562" 
d="M239 662q0 62 31.5 106t74.5 65l9 -51q-42 -28 -47 -75q47 -5 47 -55q0 -54 -59 -54q-30 0 -43 14.5t-13 49.5zM281 -200q-86 0 -140.5 38.5t-69.5 116.5h90q18 -75 121 -75q65 0 101 35.5t36 120.5v31q-59 -77 -153 -77q-101 0 -161.5 74t-60.5 199t60 198.5t161 73.5
q100 0 159 -85l15 75h65v-489q0 -123 -60 -179.5t-163 -56.5zM285 455q-71 0 -111 -52t-40 -140t40 -140.5t111 -52.5q85 0 134 65v254q-48 66 -134 66z" />
    <glyph glyph-name="Hcircumflex" unicode="&#x124;" horiz-adv-x="692" 
d="M398 760l-60 113l-60 -113h-90l125 160h50l125 -160h-90zM536 0v310h-380v-310h-90v700h90v-310h380v310h90v-700h-90z" />
    <glyph glyph-name="hcircumflex" unicode="&#x125;" 
d="M355 750l-60 113l-60 -113h-90l125 160h50l125 -160h-90zM313 535q195 0 195 -250v-285h-85v285q0 89 -31 129.5t-101 40.5q-99 0 -148 -67v-388h-85v720h85v-270q65 85 170 85z" />
    <glyph glyph-name="Hbar" unicode="&#x126;" horiz-adv-x="728" 
d="M554 0v310h-380v-310h-90v585h-75v60h75v55h90v-55h380v55h90v-55h75v-60h-75v-585h-90zM554 390v195h-380v-195h380z" />
    <glyph glyph-name="hbar" unicode="&#x127;" horiz-adv-x="582" 
d="M329 535q195 0 195 -250v-285h-85v285q0 89 -31 129.5t-101 40.5q-99 0 -148 -67v-388h-85v585h-65v60h65v75h85v-75h140v-60h-140v-135q65 85 170 85z" />
    <glyph glyph-name="Itilde" unicode="&#x128;" horiz-adv-x="226" 
d="M194 830q39 0 39 44h65q0 -54 -32 -84t-77 -30q-31 0 -82.5 22t-74.5 22q-39 0 -39 -44h-65q0 54 32 84t77 30q31 0 82.5 -22t74.5 -22zM68 0v700h90v-700h-90z" />
    <glyph glyph-name="itilde" unicode="&#x129;" horiz-adv-x="326" 
d="M244 660q39 0 39 44h65q0 -54 -32 -84t-77 -30q-31 0 -82.5 22t-74.5 22q-39 0 -39 -44h-65q0 54 32 84t77 30q31 0 82.5 -22t74.5 -22zM120 0v525h85v-525h-85z" />
    <glyph glyph-name="Imacron" unicode="&#x12a;" horiz-adv-x="224" 
d="M257 820v-60h-290v60h290zM67 0v700h90v-700h-90z" />
    <glyph glyph-name="imacron" unicode="&#x12b;" horiz-adv-x="300" 
d="M295 650v-60h-290v60h290zM108 0v525h85v-525h-85z" />
    <glyph glyph-name="Ibreve" unicode="&#x12c;" horiz-adv-x="224" 
d="M202 884h55q0 -65 -40.5 -94.5t-104.5 -29.5t-104.5 29.5t-40.5 94.5h55q0 -28 26 -43.5t64 -15.5t64 15.5t26 43.5zM67 0v700h90v-700h-90z" />
    <glyph glyph-name="ibreve" unicode="&#x12d;" horiz-adv-x="300" 
d="M240 714h55q0 -65 -40.5 -94.5t-104.5 -29.5t-104.5 29.5t-40.5 94.5h55q0 -28 26 -43.5t64 -15.5t64 15.5t26 43.5zM108 0v525h85v-525h-85z" />
    <glyph glyph-name="Iogonek" unicode="&#x12e;" horiz-adv-x="229" 
d="M102 -156l20 -38q-28 -21 -66 -21q-39 0 -67 18.5t-28 63.5q0 72 112 133v700h90v-700h-40q-55 -35 -74.5 -62.5t-19.5 -56.5q0 -46 40 -46q19 0 33 9z" />
    <glyph glyph-name="iogonek" unicode="&#x12f;" horiz-adv-x="207" 
d="M154 648q0 -52 -50 -52t-50 52t50 52t50 -52zM125 -156l20 -38q-28 -21 -66 -21q-39 0 -67 18.5t-28 63.5q0 72 112 133h-35v525h85v-525q-55 -35 -74.5 -62.5t-19.5 -56.5q0 -46 40 -46q20 0 33 9z" />
    <glyph glyph-name="Idotaccent" unicode="&#x130;" horiz-adv-x="222" 
d="M160 802q0 -52 -50 -52t-50 52t50 52t50 -52zM66 0v700h90v-700h-90z" />
    <glyph glyph-name="dotlessi" unicode="&#x131;" horiz-adv-x="196" 
d="M55 0v525h85v-525h-85z" />
    <glyph glyph-name="IJ" unicode="&#x132;" horiz-adv-x="602" 
d="M66 0v700h90v-700h-90zM246 135h90q0 -30 14 -47.5t39 -17.5q26 0 41.5 17.5t15.5 47.5v565h90v-565q0 -70 -38.5 -107.5t-108.5 -37.5t-106.5 37t-36.5 108z" />
    <glyph glyph-name="ij" unicode="&#x133;" horiz-adv-x="415" 
d="M153 648q0 -52 -50 -52t-50 52t50 52t50 -52zM362 648q0 -52 -50 -52t-50 52t50 52t50 -52zM60 0v525h85v-525h-85zM355 525v-582q0 -73 -43.5 -108t-117.5 -35v80q33 0 54.5 16t21.5 62v567h85z" />
    <glyph glyph-name="Jcircumflex" unicode="&#x134;" horiz-adv-x="393" 
d="M319 760l-60 113l-60 -113h-90l125 160h50l125 -160h-90zM14 135h90q0 -30 14 -47.5t39 -17.5q26 0 41.5 17.5t15.5 47.5v565h90v-565q0 -70 -38.5 -107.5t-108.5 -37.5t-106.5 37t-36.5 108z" />
    <glyph glyph-name="jcircumflex" unicode="&#x135;" horiz-adv-x="290" 
d="M205 590l-60 113l-60 -113h-90l125 160h50l125 -160h-90zM188 525v-582q0 -73 -43.5 -108t-117.5 -35v80q33 0 54.5 16t21.5 62v567h85z" />
    <glyph glyph-name="Kcommaaccent" unicode="&#x136;" horiz-adv-x="619" 
d="M459 700h112l-283 -313l331 -387h-111l-281 321l-71 -79v-242h-90v700h90v-334zM356 -115v-5q0 -119 -106 -175l-9 51q43 28 46 75q-46 5 -46 54q0 55 57 55q58 0 58 -55z" />
    <glyph glyph-name="kcommaaccent" unicode="&#x137;" horiz-adv-x="517" 
d="M386 525h107l-205 -212l240 -313h-105l-194 251l-86 -89v-162h-85v720h85v-444zM341 -115v-5q0 -119 -106 -175l-9 51q43 28 46 75q-46 5 -46 54q0 55 57 55q58 0 58 -55z" />
    <glyph glyph-name="kgreenlandic" unicode="&#x138;" horiz-adv-x="517" 
d="M528 0h-105l-195 251l-85 -89v-162h-85v525h85v-249l114 116q83 86 122 109.5t92 23.5v-75q-31 0 -51.5 -11.5t-55.5 -46.5l-76 -79z" />
    <glyph glyph-name="Lacute" unicode="&#x139;" horiz-adv-x="515" 
d="M66 760l70 160h90l-110 -160h-50zM156 700v-620h350v-80h-440v700h90z" />
    <glyph glyph-name="lacute" unicode="&#x13a;" horiz-adv-x="302" 
d="M58 760l70 160h90l-110 -160h-50zM288 88v-83q-41 -15 -90 -15q-67 0 -103.5 36.5t-36.5 106.5v587h85v-572q0 -44 15 -61t43 -17q47 0 87 18z" />
    <glyph glyph-name="Lcommaaccent" unicode="&#x13b;" horiz-adv-x="515" 
d="M156 700v-620h350v-80h-440v700h90zM356 -115v-5q0 -119 -106 -175l-9 51q43 28 46 75q-46 5 -46 54q0 55 57 55q58 0 58 -55z" />
    <glyph glyph-name="lcommaaccent" unicode="&#x13c;" horiz-adv-x="302" 
d="M288 88v-83q-41 -15 -90 -15q-67 0 -103.5 36.5t-36.5 106.5v587h85v-572q0 -44 15 -61t43 -17q47 0 87 18zM244 -124q0 -62 -31.5 -106t-74.5 -65l-9 51q43 28 46 75q-46 5 -46 54q0 55 59 55q30 0 43 -14.5t13 -49.5z" />
    <glyph glyph-name="Lcaron" unicode="&#x13d;" horiz-adv-x="515" 
d="M371 750v-6q0 -121 -106 -174l-9 51q43 28 46 74q-46 5 -46 55q0 55 57 55q58 0 58 -55zM156 700v-620h350v-80h-440v700h90z" />
    <glyph glyph-name="lcaron" unicode="&#x13e;" horiz-adv-x="397" 
d="M370 750v-6q0 -121 -106 -174l-9 51q43 28 46 74q-46 5 -46 55q0 55 57 55q58 0 58 -55zM288 88v-83q-41 -15 -90 -15q-67 0 -103.5 36.5t-36.5 106.5v587h85v-572q0 -44 15 -61t43 -17q47 0 87 18z" />
    <glyph glyph-name="Ldot" unicode="&#x13f;" horiz-adv-x="515" 
d="M156 700v-620h350v-80h-440v700h90zM356 367q0 -55 -58 -55q-57 0 -57 55t57 55q58 0 58 -55z" />
    <glyph glyph-name="ldot" unicode="&#x140;" horiz-adv-x="332" 
d="M288 88v-83q-41 -15 -90 -15q-67 0 -103.5 36.5t-36.5 106.5v587h85v-572q0 -44 15 -61t43 -17q47 0 87 18zM318 367q0 -55 -58 -55q-57 0 -57 55t57 55q58 0 58 -55z" />
    <glyph glyph-name="Lslash" unicode="&#x141;" horiz-adv-x="519" 
d="M369 482v-85l-209 -100v-217h350v-80h-440v254l-61 -29v85l61 29v361h90v-318z" />
    <glyph glyph-name="lslash" unicode="&#x142;" horiz-adv-x="336" 
d="M322 88v-83q-41 -15 -90 -15q-67 0 -103.5 36.5t-36.5 106.5v205l-78 -38v85l78 38v297h85v-255l122 60v-85l-122 -60v-232q0 -44 15 -61t43 -17q47 0 87 18z" />
    <glyph glyph-name="Nacute" unicode="&#x143;" horiz-adv-x="677" 
d="M305 760l70 160h90l-110 -160h-50zM506 0l-350 568v-568h-90v700h105l350 -582v582h90v-700h-105z" />
    <glyph glyph-name="nacute" unicode="&#x144;" 
d="M245 590l70 160h90l-110 -160h-50zM291 455q-99 0 -148 -67v-388h-85v525h65l16 -81q64 91 174 91q195 0 195 -250v-285h-85v285q0 89 -31 129.5t-101 40.5z" />
    <glyph glyph-name="Ncommaaccent" unicode="&#x145;" horiz-adv-x="677" 
d="M506 0l-350 568v-568h-90v700h105l350 -582v582h90v-700h-105zM405 -124q0 -62 -31.5 -106t-74.5 -65l-9 51q43 28 46 75q-46 5 -46 54q0 55 59 55q30 0 43 -14.5t13 -49.5z" />
    <glyph glyph-name="ncommaaccent" unicode="&#x146;" 
d="M291 455q-99 0 -148 -67v-388h-85v525h65l16 -81q64 91 174 91q195 0 195 -250v-285h-85v285q0 89 -31 129.5t-101 40.5zM353 -124q0 -62 -31.5 -106t-74.5 -65l-9 51q43 28 46 75q-46 5 -46 54q0 55 59 55q30 0 43 -14.5t13 -49.5z" />
    <glyph glyph-name="Ncaron" unicode="&#x147;" horiz-adv-x="677" 
d="M323 760l-125 160h90l60 -113l60 113h90l-125 -160h-50zM506 0l-350 568v-568h-90v700h105l350 -582v582h90v-700h-105z" />
    <glyph glyph-name="ncaron" unicode="&#x148;" 
d="M271 590l-125 160h90l60 -113l60 113h90l-125 -160h-50zM291 455q-99 0 -148 -67v-388h-85v525h65l16 -81q64 91 174 91q195 0 195 -250v-285h-85v285q0 89 -31 129.5t-101 40.5z" />
    <glyph glyph-name="napostrophe" unicode="&#x149;" horiz-adv-x="575" 
d="M124 751v-6q0 -121 -106 -174l-9 51q43 28 46 74q-46 5 -46 55q0 55 57 55q58 0 58 -55zM300 455q-99 0 -148 -67v-388h-85v525h65l16 -81q64 91 174 91q195 0 195 -250v-285h-85v285q0 89 -31 129.5t-101 40.5z" />
    <glyph glyph-name="Eng" unicode="&#x14a;" horiz-adv-x="677" 
d="M156 0h-90v700h90l365 -558v558h90v-757q0 -73 -43 -108t-117 -35v80q32 0 51 15.5t19 62.5v42l-365 558v-558z" />
    <glyph glyph-name="eng" unicode="&#x14b;" 
d="M423 -42v327q0 89 -31 129.5t-101 40.5q-99 0 -148 -67v-388h-85v525h65l16 -81q64 91 174 91q195 0 195 -250v-342q0 -73 -43 -108t-117 -35v80q33 0 54 16t21 62z" />
    <glyph glyph-name="Omacron" unicode="&#x14c;" horiz-adv-x="758" 
d="M524 820v-60h-290v60h290zM379 -10q-145 0 -240 98.5t-95 261.5t95 261.5t240 98.5t240 -98.5t95 -261.5t-95 -261.5t-240 -98.5zM379 625q-98 0 -169 -74.5t-71 -200.5t71 -200.5t169 -74.5t169 74.5t71 200.5t-71 200.5t-169 74.5z" />
    <glyph glyph-name="omacron" unicode="&#x14d;" horiz-adv-x="562" 
d="M426 650v-60h-290v60h290zM281 -10q-108 0 -176.5 74.5t-68.5 198.5t68 198t177 74t177 -74t68 -198t-68.5 -198.5t-176.5 -74.5zM281 455q-71 0 -113 -52t-42 -140t42.5 -140.5t112.5 -52.5t112.5 52.5t42.5 140.5t-42 140t-113 52z" />
    <glyph glyph-name="Obreve" unicode="&#x14e;" horiz-adv-x="758" 
d="M469 884h55q0 -65 -40.5 -94.5t-104.5 -29.5t-104.5 29.5t-40.5 94.5h55q0 -28 26 -43.5t64 -15.5t64 15.5t26 43.5zM379 -10q-145 0 -240 98.5t-95 261.5t95 261.5t240 98.5t240 -98.5t95 -261.5t-95 -261.5t-240 -98.5zM379 625q-98 0 -169 -74.5t-71 -200.5t71 -200.5
t169 -74.5t169 74.5t71 200.5t-71 200.5t-169 74.5z" />
    <glyph glyph-name="obreve" unicode="&#x14f;" horiz-adv-x="562" 
d="M371 714h55q0 -65 -40.5 -94.5t-104.5 -29.5t-104.5 29.5t-40.5 94.5h55q0 -28 26 -43.5t64 -15.5t64 15.5t26 43.5zM281 -10q-108 0 -176.5 74.5t-68.5 198.5t68 198t177 74t177 -74t68 -198t-68.5 -198.5t-176.5 -74.5zM281 455q-71 0 -113 -52t-42 -140t42.5 -140.5
t112.5 -52.5t112.5 52.5t42.5 140.5t-42 140t-113 52z" />
    <glyph glyph-name="Ohungarumlaut" unicode="&#x150;" horiz-adv-x="758" 
d="M219 760l70 160h90l-110 -160h-50zM414 760l70 160h90l-110 -160h-50zM379 -10q-145 0 -240 98.5t-95 261.5t95 261.5t240 98.5t240 -98.5t95 -261.5t-95 -261.5t-240 -98.5zM379 625q-98 0 -169 -74.5t-71 -200.5t71 -200.5t169 -74.5t169 74.5t71 200.5t-71 200.5
t-169 74.5z" />
    <glyph glyph-name="ohungarumlaut" unicode="&#x151;" horiz-adv-x="562" 
d="M146 590l70 160h90l-110 -160h-50zM341 590l70 160h90l-110 -160h-50zM281 -10q-108 0 -176.5 74.5t-68.5 198.5t68 198t177 74t177 -74t68 -198t-68.5 -198.5t-176.5 -74.5zM281 455q-71 0 -113 -52t-42 -140t42.5 -140.5t112.5 -52.5t112.5 52.5t42.5 140.5t-42 140
t-113 52z" />
    <glyph glyph-name="OE" unicode="&#x152;" horiz-adv-x="1020" 
d="M971 620h-418q144 -60 159 -230h219v-80h-219q-14 -161 -138 -230h397v-80h-592q-146 0 -240.5 94t-94.5 256t94.5 256t240.5 94h592v-80zM379 615q-99 0 -169.5 -70t-70.5 -195t70.5 -195t169.5 -70t169.5 70t70.5 195t-70.5 195t-169.5 70z" />
    <glyph glyph-name="oe" unicode="&#x153;" horiz-adv-x="955" 
d="M681 70q88 0 122 75h90q-25 -74 -79.5 -114.5t-132.5 -40.5q-133 0 -200 105q-67 -105 -200 -105q-108 0 -176.5 74.5t-68.5 198.5t68 198t177 74q132 0 200 -104q68 104 200 104q107 0 168.5 -73t61.5 -199v-38h-383q9 -72 49.5 -113.5t103.5 -41.5zM280 455
q-69 0 -111.5 -52t-42.5 -140t42.5 -140.5t112.5 -52.5t112.5 52.5t42.5 140.5v8q0 79 -43 131.5t-113 52.5zM681 455q-63 0 -103.5 -41.5t-49.5 -113.5h291q-7 73 -42 114t-96 41z" />
    <glyph glyph-name="Racute" unicode="&#x154;" horiz-adv-x="626" 
d="M236 760l70 160h90l-110 -160h-50zM156 260v-260h-90v700h275q245 0 245 -220q0 -187 -174 -215l174 -265h-100l-170 260h-160zM156 340h175q79 0 119.5 29t40.5 111t-40.5 111t-119.5 29h-175v-280z" />
    <glyph glyph-name="racute" unicode="&#x155;" horiz-adv-x="330" 
d="M125 590l70 160h90l-110 -160h-50zM123 525l18 -92q31 48 75 75t92 27v-90q-47 0 -91.5 -22.5t-73.5 -62.5v-360h-85v525h65z" />
    <glyph glyph-name="Rcommaaccent" unicode="&#x156;" horiz-adv-x="626" 
d="M156 260v-260h-90v700h275q245 0 245 -220q0 -187 -174 -215l174 -265h-100l-170 260h-160zM156 340h175q79 0 119.5 29t40.5 111t-40.5 111t-119.5 29h-175v-280zM368 -124q0 -62 -31.5 -106t-74.5 -65l-9 51q43 28 46 75q-46 5 -46 54q0 55 59 55q30 0 43 -14.5
t13 -49.5z" />
    <glyph glyph-name="rcommaaccent" unicode="&#x157;" horiz-adv-x="331" 
d="M124 525l18 -92q31 48 75 75t92 27v-90q-47 0 -91.5 -22.5t-73.5 -62.5v-360h-85v525h65zM159 -115v-5q0 -119 -106 -175l-9 51q43 28 46 75q-46 5 -46 54q0 55 57 55q58 0 58 -55z" />
    <glyph glyph-name="Rcaron" unicode="&#x158;" horiz-adv-x="626" 
d="M278 760l-125 160h90l60 -113l60 113h90l-125 -160h-50zM156 260v-260h-90v700h275q245 0 245 -220q0 -187 -174 -215l174 -265h-100l-170 260h-160zM156 340h175q79 0 119.5 29t40.5 111t-40.5 111t-119.5 29h-175v-280z" />
    <glyph glyph-name="rcaron" unicode="&#x159;" horiz-adv-x="345" 
d="M152 590l-125 160h90l60 -113l60 113h90l-125 -160h-50zM130 525l18 -92q31 48 75 75t92 27v-90q-47 0 -91.5 -22.5t-73.5 -62.5v-360h-85v525h65z" />
    <glyph glyph-name="Sacute" unicode="&#x15a;" horiz-adv-x="612" 
d="M253 760l70 160h90l-110 -160h-50zM473 186q0 23 -7 42t-23 32.5t-30.5 23t-42.5 18l-44 13t-49 11.5q-39 9 -62 15.5t-56.5 22t-52.5 34t-33 49.5t-14 71q0 95 67.5 143.5t175.5 48.5q109 0 177.5 -48t68.5 -137h-90q0 51 -42.5 75.5t-115.5 24.5q-151 0 -151 -100
q0 -15 3.5 -28.5t11.5 -24t15.5 -18.5t22.5 -15.5l24.5 -12t29 -10l29 -8t32.5 -7.5t31 -7q46 -11 78.5 -23t66.5 -34.5t52 -59t18 -85.5q0 -101 -72 -151.5t-183 -50.5q-110 0 -184.5 47.5t-74.5 137.5h90q0 -50 46.5 -75t121.5 -25q166 0 166 111z" />
    <glyph glyph-name="sacute" unicode="&#x15b;" horiz-adv-x="518" 
d="M205 590l70 160h90l-110 -160h-50zM139 384q0 -21 11 -35t31 -21.5t42.5 -12t50.5 -8.5q7 -1 10 -1q37 -5 64 -12.5t59 -23.5t49.5 -46.5t17.5 -72.5q0 -80 -60.5 -120.5t-157.5 -40.5q-93 0 -152.5 38t-59.5 117h90q0 -39 34.5 -57t88.5 -18q57 0 94.5 19t37.5 59
q0 11 -3 20.5t-9.5 16.5t-13 12.5t-19 10.5t-21 8t-25 6t-25.5 4.5l-27.5 4.5t-26.5 4q-34 5 -58 12.5t-51 23.5t-41.5 44.5t-14.5 68.5q0 78 53.5 114.5t146.5 36.5q94 0 149.5 -37.5t55.5 -117.5h-90q0 75 -114 75q-116 0 -116 -71z" />
    <glyph glyph-name="Scircumflex" unicode="&#x15c;" horiz-adv-x="612" 
d="M363 760l-60 113l-60 -113h-90l125 160h50l125 -160h-90zM473 186q0 23 -7 42t-23 32.5t-30.5 23t-42.5 18l-44 13t-49 11.5q-39 9 -62 15.5t-56.5 22t-52.5 34t-33 49.5t-14 71q0 95 67.5 143.5t175.5 48.5q109 0 177.5 -48t68.5 -137h-90q0 51 -42.5 75.5t-115.5 24.5
q-151 0 -151 -100q0 -15 3.5 -28.5t11.5 -24t15.5 -18.5t22.5 -15.5l24.5 -12t29 -10l29 -8t32.5 -7.5t31 -7q46 -11 78.5 -23t66.5 -34.5t52 -59t18 -85.5q0 -101 -72 -151.5t-183 -50.5q-110 0 -184.5 47.5t-74.5 137.5h90q0 -50 46.5 -75t121.5 -25q166 0 166 111z" />
    <glyph glyph-name="scircumflex" unicode="&#x15d;" horiz-adv-x="518" 
d="M314 590l-60 113l-60 -113h-90l125 160h50l125 -160h-90zM139 384q0 -21 11 -35t31 -21.5t42.5 -12t50.5 -8.5q7 -1 10 -1q37 -5 64 -12.5t59 -23.5t49.5 -46.5t17.5 -72.5q0 -80 -60.5 -120.5t-157.5 -40.5q-93 0 -152.5 38t-59.5 117h90q0 -39 34.5 -57t88.5 -18
q57 0 94.5 19t37.5 59q0 11 -3 20.5t-9.5 16.5t-13 12.5t-19 10.5t-21 8t-25 6t-25.5 4.5l-27.5 4.5t-26.5 4q-34 5 -58 12.5t-51 23.5t-41.5 44.5t-14.5 68.5q0 78 53.5 114.5t146.5 36.5q94 0 149.5 -37.5t55.5 -117.5h-90q0 75 -114 75q-116 0 -116 -71z" />
    <glyph glyph-name="Scedilla" unicode="&#x15e;" horiz-adv-x="612" 
d="M473 186q0 23 -7 42t-23 32.5t-30.5 23t-42.5 18l-44 13t-49 11.5q-39 9 -62 15.5t-56.5 22t-52.5 34t-33 49.5t-14 71q0 95 67.5 143.5t175.5 48.5q109 0 177.5 -48t68.5 -137h-90q0 51 -42.5 75.5t-115.5 24.5q-151 0 -151 -100q0 -15 3.5 -28.5t11.5 -24t15.5 -18.5
t22.5 -15.5l24.5 -12t29 -10l29 -8t32.5 -7.5t31 -7q46 -11 78 -23t66.5 -34t52.5 -59t18 -87q0 -99 -68 -148t-180 -53l-9 -58q45 11 83.5 -7t38.5 -60t-40 -67.5t-93 -25.5q-45 0 -78 19l8 46q31 -15 62 -15q30 0 50.5 11t20.5 33q0 16 -10.5 23.5t-30.5 6.5t-36 -4.5
t-39 -9.5l19 111q-92 9 -152 55.5t-60 126.5h90q0 -50 46.5 -75t121.5 -25q166 0 166 111z" />
    <glyph glyph-name="scedilla" unicode="&#x15f;" horiz-adv-x="518" 
d="M139 384q0 -21 11 -35t31 -21.5t42.5 -12t50.5 -8.5q7 -1 10 -1q29 -4 49.5 -8.5t49.5 -16t47 -27t31 -42.5t13 -62q0 -77 -56 -116.5t-147 -43.5l-9 -58q45 11 83.5 -7t38.5 -60t-40 -67.5t-93 -25.5q-45 0 -78 19l8 46q31 -15 62 -15q30 0 50.5 11t20.5 33
q0 16 -10.5 23.5t-30.5 6.5t-36 -4.5t-39 -9.5l19 110q-79 7 -126 44.5t-47 108.5h90q0 -39 34.5 -57t88.5 -18q57 0 94.5 19t37.5 59q0 11 -3 20.5t-9.5 16.5t-13 12.5t-19 10.5t-21 8t-25 6t-25.5 4.5l-27.5 4.5t-26.5 4q-34 5 -58 12.5t-51 23.5t-41.5 44.5t-14.5 68.5
q0 78 53.5 114.5t146.5 36.5q94 0 149.5 -37.5t55.5 -117.5h-90q0 75 -114 75q-116 0 -116 -71z" />
    <glyph glyph-name="Scaron" unicode="&#x160;" horiz-adv-x="612" 
d="M273 760l-125 160h90l60 -113l60 113h90l-125 -160h-50zM473 186q0 23 -7 42t-23 32.5t-30.5 23t-42.5 18l-44 13t-49 11.5q-39 9 -62 15.5t-56.5 22t-52.5 34t-33 49.5t-14 71q0 95 67.5 143.5t175.5 48.5q109 0 177.5 -48t68.5 -137h-90q0 51 -42.5 75.5t-115.5 24.5
q-151 0 -151 -100q0 -15 3.5 -28.5t11.5 -24t15.5 -18.5t22.5 -15.5l24.5 -12t29 -10l29 -8t32.5 -7.5t31 -7q46 -11 78.5 -23t66.5 -34.5t52 -59t18 -85.5q0 -101 -72 -151.5t-183 -50.5q-110 0 -184.5 47.5t-74.5 137.5h90q0 -50 46.5 -75t121.5 -25q166 0 166 111z" />
    <glyph glyph-name="scaron" unicode="&#x161;" horiz-adv-x="518" 
d="M229 590l-125 160h90l60 -113l60 113h90l-125 -160h-50zM389 145q0 15 -4.5 27t-15.5 20.5t-20.5 14t-29 10.5t-30.5 7t-35.5 5.5t-34.5 5.5q-35 6 -59.5 13.5t-51 23.5t-40.5 44t-14 68q0 78 53.5 114.5t146.5 36.5q94 0 149.5 -37.5t55.5 -117.5h-90q0 75 -114 75
q-116 0 -116 -71q0 -21 11 -35t31 -21.5t42.5 -12t50.5 -8.5q7 -1 10 -1q40 -6 66 -13t58.5 -23.5t49 -48t16.5 -76.5q0 -74 -61 -114.5t-158 -40.5q-92 0 -151.5 38t-59.5 117h90q0 -39 34.5 -57t87.5 -18q57 0 95 19.5t38 55.5z" />
    <glyph glyph-name="Tcaron" unicode="&#x164;" horiz-adv-x="548" 
d="M249 760l-125 160h90l60 -113l60 113h90l-125 -160h-50zM319 620v-620h-90v620h-220v80h530v-80h-220z" />
    <glyph glyph-name="tcaron" unicode="&#x165;" horiz-adv-x="472" 
d="M454 750v-6q0 -121 -106 -174l-9 51q43 28 46 74q-46 5 -46 55q0 55 57 55q58 0 58 -55zM182 525h130v-75h-130v-302q0 -44 15 -61t43 -17q47 0 87 18v-83q-41 -15 -90 -15q-67 0 -103.5 36.5t-36.5 106.5v317h-75v75h75v100l85 15v-115z" />
    <glyph glyph-name="Tbar" unicode="&#x166;" horiz-adv-x="548" 
d="M319 620v-80h99v-60h-99v-480h-90v480h-101v60h101v80h-220v80h530v-80h-220z" />
    <glyph glyph-name="tbar" unicode="&#x167;" horiz-adv-x="349" 
d="M182 525h130v-75h-130v-95h130v-60h-130v-147q0 -44 15 -61t43 -17q47 0 87 18v-83q-41 -15 -90 -15q-67 0 -103.5 36.5t-36.5 106.5v162h-75v60h75v95h-75v75h75v100l85 15v-115z" />
    <glyph glyph-name="Utilde" unicode="&#x168;" horiz-adv-x="676" 
d="M419 830q39 0 39 44h65q0 -54 -32 -84t-77 -30q-31 0 -82.5 22t-74.5 22q-39 0 -39 -44h-65q0 54 32 84t77 30q31 0 82.5 -22t74.5 -22zM156 700v-420q0 -90 44.5 -147.5t137.5 -57.5t137.5 57.5t44.5 147.5v420h90v-420q0 -126 -69 -208t-203 -82t-203 82t-69 208v420
h90z" />
    <glyph glyph-name="utilde" unicode="&#x169;" 
d="M366 660q39 0 39 44h65q0 -54 -32 -84t-77 -30q-31 0 -82.5 22t-74.5 22q-39 0 -39 -44h-65q0 54 32 84t77 30q31 0 82.5 -22t74.5 -22zM275 70q99 0 148 67v388h85v-525h-65l-16 80q-67 -90 -174 -90q-195 0 -195 250v285h85v-285q0 -89 31 -129.5t101 -40.5z" />
    <glyph glyph-name="Umacron" unicode="&#x16a;" horiz-adv-x="676" 
d="M483 820v-60h-290v60h290zM156 700v-420q0 -90 44.5 -147.5t137.5 -57.5t137.5 57.5t44.5 147.5v420h90v-420q0 -126 -69 -208t-203 -82t-203 82t-69 208v420h90z" />
    <glyph glyph-name="umacron" unicode="&#x16b;" 
d="M428 650v-60h-290v60h290zM275 70q99 0 148 67v388h85v-525h-65l-16 80q-67 -90 -174 -90q-195 0 -195 250v285h85v-285q0 -89 31 -129.5t101 -40.5z" />
    <glyph glyph-name="Ubreve" unicode="&#x16c;" horiz-adv-x="676" 
d="M428 884h55q0 -65 -40.5 -94.5t-104.5 -29.5t-104.5 29.5t-40.5 94.5h55q0 -28 26 -43.5t64 -15.5t64 15.5t26 43.5zM156 700v-420q0 -90 44.5 -147.5t137.5 -57.5t137.5 57.5t44.5 147.5v420h90v-420q0 -126 -69 -208t-203 -82t-203 82t-69 208v420h90z" />
    <glyph glyph-name="ubreve" unicode="&#x16d;" 
d="M385 714h55q0 -65 -40.5 -94.5t-104.5 -29.5t-104.5 29.5t-40.5 94.5h55q0 -28 26 -43.5t64 -15.5t64 15.5t26 43.5zM275 70q99 0 148 67v388h85v-525h-65l-16 80q-67 -90 -174 -90q-195 0 -195 250v285h85v-285q0 -89 31 -129.5t101 -40.5z" />
    <glyph glyph-name="Uring" unicode="&#x16e;" horiz-adv-x="676" 
d="M218 856q0 49 35.5 84t85.5 35q49 0 84 -34.5t35 -84.5t-35 -85.5t-84 -35.5t-85 35.5t-36 85.5zM287 856q0 -21 15.5 -36.5t36.5 -15.5t35 15.5t14 36.5t-14 35t-35 14t-36.5 -14t-15.5 -35zM156 700v-420q0 -90 44.5 -147.5t137.5 -57.5t137.5 57.5t44.5 147.5v420h90
v-420q0 -126 -69 -208t-203 -82t-203 82t-69 208v420h90z" />
    <glyph glyph-name="uring" unicode="&#x16f;" 
d="M167 696q0 49 35.5 84t85.5 35t84.5 -34.5t34.5 -84.5t-35 -85.5t-84 -35.5q-50 0 -85.5 35.5t-35.5 85.5zM236 696q0 -21 15.5 -36.5t36.5 -15.5t35 15.5t14 36.5t-14 35t-35 14t-36.5 -14t-15.5 -35zM275 70q99 0 148 67v388h85v-525h-65l-16 80q-67 -90 -174 -90
q-195 0 -195 250v285h85v-285q0 -89 31 -129.5t101 -40.5z" />
    <glyph glyph-name="Uhungarumlaut" unicode="&#x170;" horiz-adv-x="676" 
d="M199 760l70 160h90l-110 -160h-50zM394 760l70 160h90l-110 -160h-50zM156 700v-420q0 -90 44.5 -147.5t137.5 -57.5t137.5 57.5t44.5 147.5v420h90v-420q0 -126 -69 -208t-203 -82t-203 82t-69 208v420h90z" />
    <glyph glyph-name="uhungarumlaut" unicode="&#x171;" 
d="M149 590l70 160h90l-110 -160h-50zM344 590l70 160h90l-110 -160h-50zM275 70q99 0 148 67v388h85v-525h-65l-16 80q-67 -90 -174 -90q-195 0 -195 250v285h85v-285q0 -89 31 -129.5t101 -40.5z" />
    <glyph glyph-name="Uogonek" unicode="&#x172;" horiz-adv-x="676" 
d="M156 700v-420q0 -90 44.5 -147.5t137.5 -57.5t137.5 57.5t44.5 147.5v420h90v-420q0 -105 -49 -181.5t-144 -99.5q-54 -35 -73 -62t-19 -56q0 -46 40 -46q19 0 33 9l20 -38q-28 -21 -66 -21q-39 0 -67 19t-28 65q0 64 94 121h-13q-134 0 -203 82t-69 208v420h90z" />
    <glyph glyph-name="uogonek" unicode="&#x173;" 
d="M253 -10q-195 0 -195 250v285h85v-285q0 -89 31 -129.5t101 -40.5q99 0 148 67v388h85v-525q-65 -35 -87 -62.5t-22 -56.5q0 -46 40 -46q20 0 33 9l20 -38q-28 -21 -66 -21q-39 0 -67 18.5t-28 63.5q0 72 112 133l-16 80q-67 -90 -174 -90z" />
    <glyph glyph-name="Wcircumflex" unicode="&#x174;" horiz-adv-x="937" 
d="M527 760l-60 113l-60 -113h-90l125 160h50l125 -160h-90zM298 0h-90l-199 700h100l147 -564l169 553h87l168 -553l148 564h100l-199 -700h-90l-171 549z" />
    <glyph glyph-name="wcircumflex" unicode="&#x175;" horiz-adv-x="818" 
d="M469 590l-60 113l-60 -113h-90l125 160h50l125 -160h-90zM269 0h-89l-166 525h95l119 -405l141 395h80l140 -395l120 405h95l-166 -525h-89l-140 400z" />
    <glyph glyph-name="Ycircumflex" unicode="&#x176;" horiz-adv-x="588" 
d="M351 760l-60 113l-60 -113h-90l125 160h50l125 -160h-90zM249 0v245l-240 455h100l185 -362l185 362h100l-240 -455v-245h-90z" />
    <glyph glyph-name="ycircumflex" unicode="&#x177;" horiz-adv-x="504" 
d="M312 590l-60 113l-60 -113h-90l125 160h50l125 -160h-90zM490 525l-222 -601q-23 -61 -66.5 -92.5t-117.5 -31.5v80q44 2 69.5 17.5t38.5 49.5l17 47l-195 531h95l143 -410l143 410h95z" />
    <glyph glyph-name="Ydieresis" unicode="&#x178;" horiz-adv-x="588" 
d="M242 812q0 -52 -50 -52t-50 52t50 52t50 -52zM442 812q0 -52 -50 -52t-50 52t50 52t50 -52zM249 0v245l-240 455h100l185 -362l185 362h100l-240 -455v-245h-90z" />
    <glyph glyph-name="Zacute" unicode="&#x179;" horiz-adv-x="534" 
d="M217 760l70 160h90l-110 -160h-50zM402 620h-365v80h465v-80l-380 -540h390v-80h-490v80z" />
    <glyph glyph-name="zacute" unicode="&#x17a;" horiz-adv-x="482" 
d="M204 590l70 160h90l-110 -160h-50zM441 525v-75l-302 -375h307v-75h-410v75l302 375h-292v75h395z" />
    <glyph glyph-name="Zdotaccent" unicode="&#x17b;" horiz-adv-x="534" 
d="M317 812q0 -52 -50 -52t-50 52t50 52t50 -52zM402 620h-365v80h465v-80l-380 -540h390v-80h-490v80z" />
    <glyph glyph-name="zdotaccent" unicode="&#x17c;" horiz-adv-x="482" 
d="M293 648q0 -52 -50 -52t-50 52t50 52t50 -52zM441 525v-75l-302 -375h307v-75h-410v75l302 375h-292v75h395z" />
    <glyph glyph-name="Zcaron" unicode="&#x17d;" horiz-adv-x="534" 
d="M252 760l-125 160h90l60 -113l60 113h90l-125 -160h-50zM402 620h-365v80h465v-80l-380 -540h390v-80h-490v80z" />
    <glyph glyph-name="zcaron" unicode="&#x17e;" horiz-adv-x="482" 
d="M217 590l-125 160h90l60 -113l60 113h90l-125 -160h-50zM441 525v-75l-302 -375h307v-75h-410v75l302 375h-292v75h395z" />
    <glyph glyph-name="longs" unicode="&#x17f;" horiz-adv-x="341" 
d="M97 525v52q0 70 36.5 106.5t103.5 36.5q49 0 90 -15v-83q-40 18 -87 18q-28 0 -43 -17t-15 -61v-562h-85v450h-75v75h75z" />
    <glyph glyph-name="florin" unicode="&#x192;" horiz-adv-x="444" 
d="M379 450h-131l-62 -450l-9 -62q-21 -143 -163 -143l11 80q28 0 45.5 17t23.5 61l7 47l62 450h-74l10 75h75l8 52q10 70 51 106.5t109 36.5q49 0 88 -15l-12 -83q-38 18 -85 18q-28 0 -45.5 -17t-23.5 -61l-5 -37h130z" />
    <glyph glyph-name="Aringacute" unicode="&#x1fa;" horiz-adv-x="645" 
d="M295 995l70 160h90l-110 -160h-50zM202 856q0 49 35.5 84t85.5 35q49 0 84 -34.5t35 -84.5t-35 -85.5t-84 -35.5t-85 35.5t-36 85.5zM271 856q0 -21 15.5 -36.5t36.5 -15.5t35 15.5t14 36.5t-14 35t-35 14t-36.5 -14t-15.5 -35zM172 180l-67 -180h-100l273 700h89
l273 -700h-100l-68 180h-300zM442 260l-120 321l-120 -321h240z" />
    <glyph glyph-name="aringacute" unicode="&#x1fb;" horiz-adv-x="542" 
d="M252 849l70 160h90l-110 -160h-50zM159 696q0 49 35.5 84t85.5 35t84.5 -34.5t34.5 -84.5t-35 -85.5t-84 -35.5q-50 0 -85.5 35.5t-35.5 85.5zM228 696q0 -21 15.5 -36.5t36.5 -15.5t35 15.5t14 36.5t-14 35t-35 14t-36.5 -14t-15.5 -35zM44 144q0 83 62 122t158 39
q81 0 135 -34v79q0 62 -30.5 83.5t-85.5 21.5q-124 0 -124 -75h-90q0 80 57.5 117.5t153.5 37.5q99 0 151.5 -44t52.5 -151v-340h-65l-12 60q-56 -70 -164 -70q-88 0 -143.5 37.5t-55.5 116.5zM277 235q-143 0 -143 -87q0 -78 122 -78q98 0 143 52v86q-46 27 -122 27z" />
    <glyph glyph-name="AEacute" unicode="&#x1fc;" horiz-adv-x="900" 
d="M465 760l70 160h90l-110 -160h-50zM168 180l-68 -180h-95l273 700h617v-80h-365v-230h325v-80h-325v-230h365v-80h-455v180h-272zM440 260v360h-104l-137 -360h241z" />
    <glyph glyph-name="aeacute" unicode="&#x1fd;" horiz-adv-x="913" 
d="M433 590l70 160h90l-110 -160h-50zM44 144q0 83 62 122t158 39q81 0 135 -34q0 12 7 68q8 62 -30.5 89t-99.5 27q-50 0 -83.5 -18t-33.5 -57h-90q0 80 57.5 117.5t153.5 37.5q138 0 177 -83q67 83 182 83q107 0 168.5 -73t61.5 -199v-38h-383q9 -72 49.5 -113.5
t103.5 -41.5q88 0 122 75h90q-25 -74 -79.5 -114.5t-132.5 -40.5q-130 0 -195 101q-60 -101 -200 -101q-90 0 -145 38t-55 116zM639 455q-63 0 -103.5 -41.5t-49.5 -113.5h291q-7 73 -42 114t-96 41zM278 235q-144 0 -144 -88q0 -77 116 -77q109 0 166 82q-8 21 -13 53
q-46 30 -125 30z" />
    <glyph glyph-name="Oslashacute" unicode="&#x1fe;" horiz-adv-x="758" 
d="M329 760l70 160h90l-110 -160h-50zM379 710q99 0 180 -50l42 60l49 -30l-46 -65q110 -102 110 -275q0 -163 -95 -261.5t-240 -98.5q-102 0 -182 51l-44 -63l-49 30l47 68q-107 102 -107 274q0 163 95 261.5t240 98.5zM378 625q-98 0 -168.5 -74.5t-70.5 -200.5
q0 -121 67 -196l301 431q-58 40 -129 40zM379 75q98 0 169 74.5t71 200.5q0 121 -69 197l-301 -432q58 -40 130 -40z" />
    <glyph glyph-name="oslashacute" unicode="&#x1ff;" horiz-adv-x="562" 
d="M231 590l70 160h90l-110 -160h-50zM281 535q86 0 149 -49l35 49l49 -30l-43 -60q55 -72 55 -182q0 -124 -68.5 -198.5t-176.5 -74.5q-65 0 -119 28l-41 -57l-49 30l44 61q-80 77 -80 211q0 124 68 198t177 74zM281 455q-71 0 -113 -52t-42 -140q0 -87 42 -140l212 294
q-40 38 -99 38zM280 70q71 0 113.5 52.5t42.5 140.5q0 61 -21 105l-204 -282q31 -16 69 -16z" />
    <glyph glyph-name="Scommaaccent" unicode="&#x218;" horiz-adv-x="612" 
d="M473 186q0 23 -7 42t-23 32.5t-30.5 23t-42.5 18l-44 13t-49 11.5q-39 9 -62 15.5t-56.5 22t-52.5 34t-33 49.5t-14 71q0 95 67.5 143.5t175.5 48.5q109 0 177.5 -48t68.5 -137h-90q0 51 -42.5 75.5t-115.5 24.5q-151 0 -151 -100q0 -15 3.5 -28.5t11.5 -24t15.5 -18.5
t22.5 -15.5l24.5 -12t29 -10l29 -8t32.5 -7.5t31 -7q46 -11 78.5 -23t66.5 -34.5t52 -59t18 -85.5q0 -101 -72 -151.5t-183 -50.5q-110 0 -184.5 47.5t-74.5 137.5h90q0 -50 46.5 -75t121.5 -25q166 0 166 111zM362 -115v-5q0 -119 -106 -175l-9 51q43 28 46 75
q-46 5 -46 54q0 55 57 55q58 0 58 -55z" />
    <glyph glyph-name="scommaaccent" unicode="&#x219;" horiz-adv-x="518" 
d="M389 145q0 15 -4.5 27t-15.5 20.5t-20.5 14t-29 10.5t-30.5 7t-35.5 5.5t-34.5 5.5q-35 6 -59.5 13.5t-51 23.5t-40.5 44t-14 68q0 78 53.5 114.5t146.5 36.5q94 0 149.5 -37.5t55.5 -117.5h-90q0 75 -114 75q-116 0 -116 -71q0 -21 11 -35t31 -21.5t42.5 -12t50.5 -8.5
q7 -1 10 -1q40 -6 66 -13t58.5 -23.5t49 -48t16.5 -76.5q0 -74 -61 -114.5t-158 -40.5q-92 0 -151.5 38t-59.5 117h90q0 -39 34.5 -57t87.5 -18q57 0 95 19.5t38 55.5zM317 -124q0 -62 -31.5 -106t-74.5 -65l-9 51q43 28 46 75q-46 5 -46 54q0 55 59 55q30 0 43 -14.5
t13 -49.5z" />
    <glyph glyph-name="uni021A" unicode="&#x21a;" horiz-adv-x="548" 
d="M319 620v-620h-90v620h-220v80h530v-80h-220zM331 -115v-5q0 -119 -106 -175l-9 51q43 28 46 75q-46 5 -46 54q0 55 57 55q58 0 58 -55z" />
    <glyph glyph-name="uni021B" unicode="&#x21b;" horiz-adv-x="349" 
d="M182 525h130v-75h-130v-302q0 -44 15 -61t43 -17q47 0 87 18v-83q-41 -15 -90 -15q-67 0 -103.5 36.5t-36.5 106.5v317h-75v75h75v100l85 15v-115zM298 -124q0 -62 -31.5 -106t-74.5 -65l-9 51q43 28 46 75q-46 5 -46 54q0 55 59 55q30 0 43 -14.5t13 -49.5z" />
    <glyph glyph-name="circumflex" unicode="&#x2c6;" horiz-adv-x="331" 
d="M219 750l-60 113l-60 -113h-90l125 160h50l125 -160h-90z" />
    <glyph glyph-name="caron" unicode="&#x2c7;" horiz-adv-x="331" 
d="M134 750l-125 160h90l60 -113l60 113h90l-125 -160h-50z" />
    <glyph glyph-name="uni02C9" unicode="&#x2c9;" horiz-adv-x="308" 
d="M299 825v-60h-290v60h290z" />
    <glyph glyph-name="breve" unicode="&#x2d8;" horiz-adv-x="308" 
d="M244 874h55q0 -65 -40.5 -94.5t-104.5 -29.5t-104.5 29.5t-40.5 94.5h55q0 -28 26 -43.5t64 -15.5t64 15.5t26 43.5z" />
    <glyph glyph-name="dotaccent" unicode="&#x2d9;" horiz-adv-x="123" 
d="M111 802q0 -52 -50 -52t-50 52t50 52t50 -52z" />
    <glyph glyph-name="ring" unicode="&#x2da;" horiz-adv-x="258" 
d="M9 801q0 49 35.5 84t85.5 35t84.5 -35t34.5 -84q0 -50 -35 -85.5t-84 -35.5q-50 0 -85.5 36t-35.5 85zM78 801q0 -21 15.5 -36.5t36.5 -15.5t35 15.5t14 36.5t-14 35t-35 14t-36.5 -14t-15.5 -35z" />
    <glyph glyph-name="ogonek" unicode="&#x2db;" horiz-adv-x="216" 
d="M152 -156l20 -38q-28 -21 -66 -21q-39 0 -67 18.5t-28 63.5q0 72 112 133h50q-55 -35 -74.5 -62.5t-19.5 -56.5q0 -46 40 -46q19 0 33 9z" />
    <glyph glyph-name="tilde" unicode="&#x2dc;" horiz-adv-x="388" 
d="M275 820q39 0 39 44h65q0 -54 -32 -84t-77 -30q-31 0 -82.5 22t-74.5 22q-39 0 -39 -44h-65q0 54 32 84t77 30q31 0 82.5 -22t74.5 -22z" />
    <glyph glyph-name="hungarumlaut" unicode="&#x2dd;" horiz-adv-x="386" 
d="M9 750l70 160h90l-110 -160h-50zM204 750l70 160h90l-110 -160h-50z" />
    <glyph glyph-name="gravecomb" unicode="&#x300;" horiz-adv-x="0" 
d="M99 910l70 -160h-50l-110 160h90z" />
    <glyph glyph-name="acutecomb" unicode="&#x301;" horiz-adv-x="0" 
d="M9 750l70 160h90l-110 -160h-50z" />
    <glyph glyph-name="uni0302" unicode="&#x302;" horiz-adv-x="0" 
d="M210 590l-60 113l-60 -113h-90l125 160h50l125 -160h-90z" />
    <glyph glyph-name="tildecomb" unicode="&#x303;" horiz-adv-x="0" 
d="M266 660q39 0 39 44h65q0 -54 -32 -84t-77 -30q-31 0 -82.5 22t-74.5 22q-39 0 -39 -44h-65q0 54 32 84t77 30q31 0 82.5 -22t74.5 -22z" />
    <glyph glyph-name="uni0304" unicode="&#x304;" horiz-adv-x="0" 
d="M290 650v-60h-290v60h290z" />
    <glyph glyph-name="uni0306" unicode="&#x306;" horiz-adv-x="0" 
d="M244 874h55q0 -65 -40.5 -94.5t-104.5 -29.5t-104.5 29.5t-40.5 94.5h55q0 -28 26 -43.5t64 -15.5t64 15.5t26 43.5z" />
    <glyph glyph-name="uni0307" unicode="&#x307;" horiz-adv-x="0" 
d="M100 648q0 -52 -50 -52t-50 52t50 52t50 -52z" />
    <glyph glyph-name="uni0308" unicode="&#x308;" horiz-adv-x="0" 
d="M100 648q0 -52 -50 -52t-50 52t50 52t50 -52zM300 648q0 -52 -50 -52t-50 52t50 52t50 -52z" />
    <glyph glyph-name="uni030A" unicode="&#x30a;" horiz-adv-x="0" 
d="M0 696q0 49 35.5 84t85.5 35q49 0 84 -34.5t35 -84.5t-35 -85.5t-84 -35.5t-85 35.5t-36 85.5zM69 696q0 -21 15.5 -36.5t36.5 -15.5t35 15.5t14 36.5t-14 35t-35 14t-36.5 -14t-15.5 -35z" />
    <glyph glyph-name="uni030B" unicode="&#x30b;" horiz-adv-x="0" 
d="M0 590l70 160h90l-110 -160h-50zM195 590l70 160h90l-110 -160h-50z" />
    <glyph glyph-name="uni030C" unicode="&#x30c;" horiz-adv-x="0" 
d="M125 590l-125 160h90l60 -113l60 113h90l-125 -160h-50z" />
    <glyph glyph-name="uni0312" unicode="&#x312;" horiz-adv-x="0" 
d="M22 654q0 62 31.5 106t74.5 65l9 -51q-42 -28 -47 -75q47 -5 47 -55q0 -54 -59 -54q-30 0 -43 14.5t-13 49.5z" />
    <glyph glyph-name="uni0315" unicode="&#x315;" horiz-adv-x="0" 
d="M137 711q0 -62 -31.5 -106t-74.5 -65l-9 51q43 28 46 74q-46 5 -46 55q0 55 59 55q30 0 43 -14.5t13 -49.5z" />
    <glyph glyph-name="uni0326" unicode="&#x326;" horiz-adv-x="0" 
d="M174 -124q0 -62 -31.5 -106t-74.5 -65l-9 51q43 28 46 75q-46 5 -46 54q0 55 59 55q30 0 43 -14.5t13 -49.5z" />
    <glyph glyph-name="uni0327" unicode="&#x327;" horiz-adv-x="0" 
d="M101 5l-12 -73q45 11 83.5 -7t38.5 -60t-40 -67.5t-93 -25.5q-45 0 -78 19l8 46q31 -15 62 -15q30 0 50.5 11t20.5 33q0 16 -10.5 23.5t-30.5 6.5t-36 -4.5t-39 -9.5l21 123h55z" />
    <glyph glyph-name="uni0328" unicode="&#x328;" horiz-adv-x="0" 
d="M141 -156l20 -38q-28 -21 -66 -21q-39 0 -67 18.5t-28 63.5q0 72 112 133h50q-55 -35 -74.5 -62.5t-19.5 -56.5q0 -46 40 -46q20 0 33 9z" />
    <glyph glyph-name="uni0344" unicode="&#x344;" horiz-adv-x="0" 
d="M119 750l70 160h90l-110 -160h-50zM109 802q0 -52 -50 -52t-50 52t50 52t50 -52zM355 802q0 -52 -50 -52t-50 52t50 52t50 -52z" />
    <glyph glyph-name="uni0374" unicode="&#x374;" horiz-adv-x="187" 
d="M84 775l85 5q-20 -98 -82 -240l-51 5q33 95 48 230z" />
    <glyph glyph-name="uni0375" unicode="&#x375;" horiz-adv-x="187" 
d="M103 -80l-85 -5q20 98 82 240l51 -5q-33 -95 -48 -230z" />
    <glyph glyph-name="uni037E" unicode="&#x37e;" horiz-adv-x="159" 
d="M137 425q0 -55 -58 -55q-57 0 -57 55t57 55q58 0 58 -55zM137 36q0 -62 -31.5 -106t-74.5 -65l-9 51q43 28 46 75q-46 5 -46 54q0 55 59 55q30 0 43 -14.5t13 -49.5z" />
    <glyph glyph-name="tonos" unicode="&#x384;" horiz-adv-x="189" 
d="M9 750l34 160h105l-74 -160h-65z" />
    <glyph glyph-name="dieresistonos" unicode="&#x385;" horiz-adv-x="364" 
d="M125 750l70 160h90l-110 -160h-50zM109 802q0 -52 -50 -52t-50 52t50 52t50 -52zM355 802q0 -52 -50 -52t-50 52t50 52t50 -52z" />
    <glyph glyph-name="Alphatonos" unicode="&#x386;" horiz-adv-x="645" 
d="M57 560l70 160h90l-110 -160h-50zM172 180l-67 -180h-100l273 700h89l273 -700h-100l-68 180h-300zM442 260l-120 321l-120 -321h240z" />
    <glyph glyph-name="anoteleia" unicode="&#x387;" horiz-adv-x="125" 
d="M122 351q0 -55 -58 -55q-57 0 -57 55t57 55q58 0 58 -55z" />
    <glyph glyph-name="Epsilontonos" unicode="&#x388;" horiz-adv-x="712" 
d="M9 560l70 160h90l-110 -160h-50zM659 700v-80h-365v-230h325v-80h-325v-230h365v-80h-455v700h455z" />
    <glyph glyph-name="Etatonos" unicode="&#x389;" horiz-adv-x="830" 
d="M9 560l70 160h90l-110 -160h-50zM674 0v310h-380v-310h-90v700h90v-310h380v310h90v-700h-90z" />
    <glyph glyph-name="Iotatonos" unicode="&#x38a;" horiz-adv-x="360" 
d="M9 560l70 160h90l-110 -160h-50zM204 0v700h90v-700h-90z" />
    <glyph glyph-name="Omicrontonos" unicode="&#x38c;" horiz-adv-x="849" 
d="M5 560l70 160h90l-110 -160h-50zM470 -10q-145 0 -240 98.5t-95 261.5t95 261.5t240 98.5t240 -98.5t95 -261.5t-95 -261.5t-240 -98.5zM470 625q-98 0 -169 -74.5t-71 -200.5t71 -200.5t169 -74.5t169 74.5t71 200.5t-71 200.5t-169 74.5z" />
    <glyph glyph-name="Upsilontonos" unicode="&#x38e;" horiz-adv-x="784" 
d="M5 560l70 160h90l-110 -160h-50zM445 0v245l-240 455h95l190 -368l190 368h95l-240 -455v-245h-90z" />
    <glyph glyph-name="Omegatonos" unicode="&#x38f;" horiz-adv-x="867" 
d="M5 560l70 160h90l-110 -160h-50zM728 385q0 110 -65 175t-179 65q-115 0 -179.5 -65t-64.5 -178q0 -187 180 -307v-75h-270v80h153q-82 62 -120 135t-38 168q0 157 94.5 242t244.5 85t244.5 -85t94.5 -240q0 -96 -38 -169.5t-120 -135.5h153v-80h-270v75q180 121 180 310
z" />
    <glyph glyph-name="iotadieresistonos" unicode="&#x390;" horiz-adv-x="337" 
d="M109 590l14 160h89l-49 -160h-54zM84 648q0 -52 -50 -52t-50 52t50 52t50 -52zM314 648q0 -52 -50 -52t-50 52t50 52t50 -52zM178 525v-377q0 -44 15 -61t43 -17q47 0 87 18v-83q-41 -15 -90 -15q-67 0 -103.5 36.5t-36.5 106.5v392h85z" />
    <glyph glyph-name="Alpha" unicode="&#x391;" horiz-adv-x="645" 
d="M172 180l-67 -180h-100l273 700h89l273 -700h-100l-68 180h-300zM442 260l-120 321l-120 -321h240z" />
    <glyph glyph-name="Beta" unicode="&#x392;" horiz-adv-x="655" 
d="M66 700h266q55 0 95.5 -7.5t76.5 -26t54.5 -55.5t18.5 -91q0 -61 -28 -99.5t-93 -62.5q76 -16 113 -56.5t37 -112.5q0 -100 -67 -144.5t-178 -44.5h-295v700zM156 390h155q80 0 125.5 25.5t45.5 96.5q0 66 -40 87t-120 21h-166v-230zM156 80h195q79 0 119.5 23t40.5 89
q0 68 -41 93t-110 25h-204v-230z" />
    <glyph glyph-name="Gamma" unicode="&#x393;" horiz-adv-x="550" 
d="M66 0v700h440v-80h-350v-620h-90z" />
    <glyph glyph-name="uni0394" unicode="&#x394;" horiz-adv-x="645" 
d="M5 0l273 700h89l273 -700h-635zM510 80l-188 501l-187 -501h375z" />
    <glyph glyph-name="Epsilon" unicode="&#x395;" horiz-adv-x="574" 
d="M156 620v-230h325v-80h-325v-230h365v-80h-455v700h455v-80h-365z" />
    <glyph glyph-name="Zeta" unicode="&#x396;" horiz-adv-x="514" 
d="M382 620h-345v80h445v-80l-360 -540h370v-80h-470v80z" />
    <glyph glyph-name="Eta" unicode="&#x397;" horiz-adv-x="692" 
d="M536 0v310h-380v-310h-90v700h90v-310h380v310h90v-700h-90z" />
    <glyph glyph-name="Theta" unicode="&#x398;" horiz-adv-x="758" 
d="M379 -10q-145 0 -240 98.5t-95 261.5t95 261.5t240 98.5t240 -98.5t95 -261.5t-95 -261.5t-240 -98.5zM379 75q98 0 169 74.5t71 200.5t-71 200.5t-169 74.5t-169 -74.5t-71 -200.5t71 -200.5t169 -74.5zM509 390v-80h-260v80h260z" />
    <glyph glyph-name="Iota" unicode="&#x399;" horiz-adv-x="222" 
d="M66 0v700h90v-700h-90z" />
    <glyph glyph-name="Kappa" unicode="&#x39a;" horiz-adv-x="619" 
d="M459 700h112l-283 -313l331 -387h-111l-281 321l-71 -79v-242h-90v700h90v-334z" />
    <glyph glyph-name="Lambda" unicode="&#x39b;" horiz-adv-x="653" 
d="M104 0h-95l273 700h89l273 -700h-95l-223 583z" />
    <glyph glyph-name="Mu" unicode="&#x39c;" horiz-adv-x="832" 
d="M156 0h-90v700h105l244 -564l246 564h105v-700h-90v538l-228 -523h-65l-227 522v-537z" />
    <glyph glyph-name="Nu" unicode="&#x39d;" horiz-adv-x="677" 
d="M506 0l-350 568v-568h-90v700h105l350 -582v582h90v-700h-105z" />
    <glyph glyph-name="Xi" unicode="&#x39e;" horiz-adv-x="579" 
d="M517 700v-80h-455v80h455zM430 390v-80h-278v80h278zM517 80v-80h-455v80h455z" />
    <glyph glyph-name="Omicron" unicode="&#x39f;" horiz-adv-x="758" 
d="M379 -10q-145 0 -240 98.5t-95 261.5t95 261.5t240 98.5t240 -98.5t95 -261.5t-95 -261.5t-240 -98.5zM379 625q-98 0 -169 -74.5t-71 -200.5t71 -200.5t169 -74.5t169 74.5t71 200.5t-71 200.5t-169 74.5z" />
    <glyph glyph-name="Pi" unicode="&#x3a0;" horiz-adv-x="692" 
d="M536 0v620h-380v-620h-90v700h560v-700h-90z" />
    <glyph glyph-name="Rho" unicode="&#x3a1;" horiz-adv-x="626" 
d="M156 0h-90v700h275q245 0 245 -220t-245 -220h-185v-260zM156 340h175q79 0 119.5 29t40.5 111t-40.5 111t-119.5 29h-175v-280z" />
    <glyph glyph-name="Sigma" unicode="&#x3a3;" horiz-adv-x="576" 
d="M518 700v-80h-355l172 -271l-182 -269h370v-80h-470v80l182 269l-172 271v80h455z" />
    <glyph glyph-name="Tau" unicode="&#x3a4;" horiz-adv-x="548" 
d="M319 620v-620h-90v620h-220v80h530v-80h-220z" />
    <glyph glyph-name="Upsilon" unicode="&#x3a5;" horiz-adv-x="588" 
d="M249 0v245l-240 455h100l185 -362l185 362h100l-240 -455v-245h-90z" />
    <glyph glyph-name="Phi" unicode="&#x3a6;" horiz-adv-x="759" 
d="M424 710v-86q66 -4 116.5 -18.5t91 -45t62 -83.5t21.5 -127q0 -143 -76.5 -205t-214.5 -69v-86h-90v86q-66 3 -116.5 18t-90.5 45.5t-61.5 83.5t-21.5 127t21 127t62 83.5t91 45t116 18.5v86h90zM138 350q0 -56 15 -93.5t44 -57t61 -28t76 -10.5v378q-44 -2 -76 -10.5
t-61 -28t-44 -57.5t-15 -93zM620 350q0 56 -15 93.5t-44 57t-61 28t-76 10.5v-378q44 2 76 10.5t61 28t44 57t15 93.5z" />
    <glyph glyph-name="Chi" unicode="&#x3a7;" horiz-adv-x="625" 
d="M311 419l191 281h104l-236 -341l246 -359h-105l-198 296l-202 -296h-102l245 356l-235 344h105z" />
    <glyph glyph-name="Psi" unicode="&#x3a8;" horiz-adv-x="803" 
d="M357 700h90v-445h35q80 0 122.5 30t42.5 111v304h90v-304q0 -221 -245 -221h-45v-175h-90v175h-46q-245 0 -245 221v304h90v-304q0 -81 42.5 -111t122.5 -30h36v445z" />
    <glyph glyph-name="uni03A9" unicode="&#x3a9;" horiz-adv-x="766" 
d="M722 383q0 -95 -38 -168t-120 -135h153v-80h-270v75q180 121 180 307q0 113 -64.5 178t-179.5 65t-179.5 -65t-64.5 -178q0 -186 180 -307v-75h-270v80h153q-82 62 -120 135t-38 168q0 157 94.5 242t244.5 85t244.5 -85t94.5 -242z" />
    <glyph glyph-name="Iotadieresis" unicode="&#x3aa;" horiz-adv-x="234" 
d="M67 802q0 -52 -50 -52t-50 52t50 52t50 -52zM267 802q0 -52 -50 -52t-50 52t50 52t50 -52zM72 0v700h90v-700h-90z" />
    <glyph glyph-name="Upsilondieresis" unicode="&#x3ab;" horiz-adv-x="588" 
d="M242 812q0 -52 -50 -52t-50 52t50 52t50 -52zM442 812q0 -52 -50 -52t-50 52t50 52t50 -52zM249 0v245l-240 455h100l185 -362l185 362h100l-240 -455v-245h-90z" />
    <glyph glyph-name="alphatonos" unicode="&#x3ac;" horiz-adv-x="597" 
d="M222 590l70 160h90l-110 -160h-50zM266 -10q-102 0 -162 74t-60 199t60 198.5t162 73.5q101 0 158 -82l15 72h65v-377q0 -46 21 -62t54 -16v-80q-122 0 -152 87q-56 -87 -161 -87zM287 70q137 0 137 193q0 192 -137 192q-73 0 -113 -51.5t-40 -140.5t40 -141t113 -52z
" />
    <glyph glyph-name="epsilontonos" unicode="&#x3ad;" horiz-adv-x="524" 
d="M232 590l70 160h90l-110 -160h-50zM470 380h-85q-8 40 -37 57.5t-88 17.5q-58 0 -83.5 -17t-25.5 -56q0 -82 97 -82h40v-75h-40q-114 0 -114 -77q0 -42 32 -60t96 -18q63 0 93 17t40 58h85q-23 -155 -214 -155q-42 0 -78.5 7.5t-70 23.5t-53.5 48t-20 76q0 47 23 80.5
t69 45.5q-75 40 -75 117q0 41 17.5 71t48 46t64.5 23t73 7q189 0 206 -155z" />
    <glyph glyph-name="etatonos" unicode="&#x3ae;" 
d="M245 590l70 160h90l-110 -160h-50zM291 455q-99 0 -148 -67v-388h-85v525h65l16 -81q64 91 174 91q195 0 195 -250v-480h-85v480q0 89 -31 129.5t-101 40.5z" />
    <glyph glyph-name="iotatonos" unicode="&#x3af;" horiz-adv-x="297" 
d="M53 590l70 160h90l-110 -160h-50zM138 525v-377q0 -44 15 -61t43 -17q47 0 87 18v-83q-41 -15 -90 -15q-67 0 -103.5 36.5t-36.5 106.5v392h85z" />
    <glyph glyph-name="upsilondieresistonos" unicode="&#x3b0;" horiz-adv-x="576" 
d="M227 590l14 160h89l-49 -160h-54zM202 648q0 -52 -50 -52t-50 52t50 52t50 -52zM432 648q0 -52 -50 -52t-50 52t50 52t50 -52zM299 70q71 0 104.5 45.5t33.5 151.5q0 116 -49 258h90q49 -118 49 -263q0 -272 -225 -272q-103 0 -162.5 57.5t-59.5 177.5v147q0 44 -15 61
t-43 17v75q70 0 106.5 -36.5t36.5 -106.5v-157q0 -155 134 -155z" />
    <glyph glyph-name="alpha" unicode="&#x3b1;" horiz-adv-x="597" 
d="M266 -10q-102 0 -162 74t-60 199t60 198.5t162 73.5q101 0 158 -82l15 72h65v-377q0 -46 21 -62t54 -16v-80q-122 0 -152 87q-56 -87 -161 -87zM287 70q137 0 137 193q0 192 -137 192q-73 0 -113 -51.5t-40 -140.5t40 -141t113 -52z" />
    <glyph glyph-name="beta" unicode="&#x3b2;" horiz-adv-x="567" 
d="M304 -10q-58 0 -95 20t-67 61l-9 -266h-75v666q0 249 207 249q96 0 155 -49t59 -137q0 -111 -116 -161q160 -34 160 -181q0 -101 -63.5 -151.5t-155.5 -50.5zM288 70q68 0 106.5 30.5t38.5 93.5q0 45 -19.5 74t-54 41.5t-67 16t-74.5 1.5v75q71 -4 121 28.5t50 100.5
q0 51 -30 80t-89 29q-67 0 -97 -41.5t-30 -127.5v-333q49 -68 145 -68z" />
    <glyph glyph-name="gamma" unicode="&#x3b3;" horiz-adv-x="529" 
d="M326 -195h-90q0 61 -3 122t-11 138.5t-24.5 142t-40.5 121t-62 89t-86 32.5v75q111 0 187 -101.5t108 -305.5q46 91 80 199t46 208h90q-14 -129 -67 -269t-135 -248q8 -98 8 -203z" />
    <glyph glyph-name="delta" unicode="&#x3b4;" horiz-adv-x="578" 
d="M289 -10q-108 0 -176.5 74.5t-68.5 194.5q0 86 36.5 130t106.5 72q-53 39 -53 111q0 68 50.5 103t145.5 35q68 0 139 -18v-85q-65 23 -141 23q-52 0 -78 -13t-26 -46q0 -30 23 -50t57.5 -29t74.5 -25t74.5 -36.5t57.5 -65t23 -109.5q0 -117 -68.5 -191.5t-176.5 -74.5z
M289 70q70 0 112.5 52.5t42.5 133.5q0 62 -32.5 93.5t-122.5 62.5q-91 -30 -123 -63t-32 -92q0 -81 42.5 -134t112.5 -53z" />
    <glyph glyph-name="epsilon" unicode="&#x3b5;" horiz-adv-x="516" 
d="M462 380h-85q-8 40 -37 57.5t-88 17.5q-58 0 -83.5 -17t-25.5 -56q0 -82 97 -82h40v-75h-40q-114 0 -114 -77q0 -42 32 -60t96 -18q63 0 93 17t40 58h85q-23 -155 -214 -155q-42 0 -78.5 7.5t-70 23.5t-53.5 48t-20 76q0 47 23 80.5t69 45.5q-75 40 -75 117q0 41 17.5 71
t48 46t64.5 23t73 7q189 0 206 -155z" />
    <glyph glyph-name="zeta" unicode="&#x3b6;" horiz-adv-x="523" 
d="M434 700v-75q-133 -85 -216.5 -202t-83.5 -211q0 -58 35.5 -89.5t86.5 -42.5l102 -22.5t86 -43t34 -88.5q0 -28 -12 -52.5t-42 -68.5h-70q44 84 44 117q0 31 -26 49.5t-65.5 25t-85.5 18.5t-85.5 28.5t-65.5 56t-26 99.5q0 109 77.5 230.5t201.5 195.5h-239v75h350z" />
    <glyph glyph-name="eta" unicode="&#x3b7;" 
d="M291 455q-99 0 -148 -67v-388h-85v525h65l16 -81q64 91 174 91q195 0 195 -250v-480h-85v480q0 89 -31 129.5t-101 40.5z" />
    <glyph glyph-name="theta" unicode="&#x3b8;" horiz-adv-x="588" 
d="M294 -10q-136 0 -193 90t-57 265q0 177 57.5 271t192.5 94t192.5 -94t57.5 -271q0 -175 -57 -265t-193 -90zM294 630q-81 0 -117.5 -61t-41.5 -179h318q-5 118 -41.5 179t-117.5 61zM294 70q83 0 119 59.5t40 180.5h-319q4 -121 40 -180.5t120 -59.5z" />
    <glyph glyph-name="iota" unicode="&#x3b9;" horiz-adv-x="297" 
d="M138 525v-377q0 -44 15 -61t43 -17q47 0 87 18v-83q-41 -15 -90 -15q-67 0 -103.5 36.5t-36.5 106.5v392h85z" />
    <glyph glyph-name="kappa" unicode="&#x3ba;" horiz-adv-x="517" 
d="M528 0h-105l-195 251l-85 -89v-162h-85v525h85v-249l114 116q83 86 122 109.5t92 23.5v-75q-31 0 -51.5 -11.5t-55.5 -46.5l-76 -79z" />
    <glyph glyph-name="lambda" unicode="&#x3bb;" horiz-adv-x="533" 
d="M271 597l170 -460q8 -21 14.5 -33t24.5 -23t44 -11v-80q-40 0 -67.5 7.5t-45.5 26t-28 37.5t-23 53l-109 295l-150 -409h-90l198 525l-19 49q-26 66 -122 66v80q155 0 203 -123z" />
    <glyph glyph-name="uni03BC" unicode="&#x3bc;" 
d="M275 70q99 0 148 67v388h85v-525h-65l-16 80q-64 -90 -166 -90q-87 0 -118 76v-261h-85v720h85v-294q2 -84 33 -122.5t99 -38.5z" />
    <glyph glyph-name="nu" unicode="&#x3bd;" horiz-adv-x="524" 
d="M175 392l113 -300q122 256 140 433h91q-23 -219 -194 -525h-82l-158 392q-14 36 -29 47t-47 11v75q62 0 99.5 -24.5t66.5 -108.5z" />
    <glyph glyph-name="xi" unicode="&#x3be;" horiz-adv-x="523" 
d="M88 493q0 88 119 132h-109v75h370v-70q-139 7 -214.5 -30.5t-75.5 -104.5q0 -54 47.5 -75.5t123.5 -17.5v-75q-77 6 -146 -29t-69 -105q0 -46 35.5 -72.5t86.5 -38l102 -24t86 -45t34 -87.5q0 -28 -12 -52.5t-42 -68.5h-70q44 84 44 116q0 30 -26 49t-65.5 27t-85.5 20.5
t-85.5 28t-65.5 51t-26 88.5q0 69 42 118t118 65q-56 9 -86 44t-30 81z" />
    <glyph glyph-name="omicron" unicode="&#x3bf;" horiz-adv-x="562" 
d="M281 -10q-108 0 -176.5 74.5t-68.5 198.5t68 198t177 74t177 -74t68 -198t-68.5 -198.5t-176.5 -74.5zM281 455q-71 0 -113 -52t-42 -140t42.5 -140.5t112.5 -52.5t112.5 52.5t42.5 140.5t-42 140t-113 52z" />
    <glyph glyph-name="pi" unicode="&#x3c0;" horiz-adv-x="662" 
d="M551 445v-297q0 -46 21 -62t54 -16v-80q-74 0 -117 35t-43 108v312h-270v-445h-85v445h-75v80h580v-80h-65z" />
    <glyph glyph-name="rho" unicode="&#x3c1;" horiz-adv-x="562" 
d="M297 -10q-95 0 -154 74v-259h-85v495q0 120 60.5 177.5t161.5 57.5q116 0 177 -71.5t61 -197.5q0 -128 -59.5 -202t-161.5 -74zM275 455q-59 0 -95.5 -36.5t-36.5 -118.5v-169q50 -61 134 -61q71 0 111 52t40 141t-40 140.5t-113 51.5z" />
    <glyph glyph-name="sigmafinal" unicode="&#x3c2;" horiz-adv-x="540" 
d="M289 535q79 0 134.5 -40.5t80.5 -114.5h-90q-16 36 -49 55.5t-75 19.5q-71 0 -113.5 -52t-42.5 -135q0 -53 19 -89.5t49.5 -54.5t67 -30t73 -22.5t67 -25t49.5 -43.5t19 -73q0 -31 -10.5 -54t-43.5 -71h-70q44 83 44 118q0 29 -19.5 47t-50.5 28t-69 19t-76 24.5t-69 40
t-50.5 70.5t-19.5 110q0 125 68 199t177 74z" />
    <glyph glyph-name="sigma" unicode="&#x3c3;" horiz-adv-x="565" 
d="M281 -10q-108 0 -176.5 74.5t-68.5 195.5q0 124 72 194.5t183 70.5h260v-75h-102q77 -59 77 -187q0 -124 -68.5 -198.5t-176.5 -74.5zM281 455q-71 0 -113 -52t-42 -140t42.5 -140.5t112.5 -52.5t112.5 52.5t42.5 140.5t-42 140t-113 52z" />
    <glyph glyph-name="tau" unicode="&#x3c4;" horiz-adv-x="446" 
d="M248 450v-302q0 -44 15 -61t43 -17q47 0 87 18v-83q-41 -15 -90 -15q-67 0 -103.5 36.5t-36.5 106.5v317h-145v75h410v-75h-180z" />
    <glyph glyph-name="upsilon" unicode="&#x3c5;" horiz-adv-x="576" 
d="M299 70q71 0 104.5 45.5t33.5 151.5q0 116 -49 258h90q49 -118 49 -263q0 -272 -225 -272q-103 0 -162.5 57.5t-59.5 177.5v147q0 44 -15 61t-43 17v75q70 0 106.5 -36.5t36.5 -106.5v-157q0 -155 134 -155z" />
    <glyph glyph-name="phi" unicode="&#x3c6;" horiz-adv-x="704" 
d="M310 -195v185q-111 0 -188.5 75t-77.5 197t77.5 197.5t188.5 75.5v140h85v-140q111 0 188 -76t77 -198t-77 -196.5t-188 -74.5v-185h-85zM134 262q0 -82 52 -135t124 -57v385q-71 -4 -123.5 -57.5t-52.5 -135.5zM570 261q0 82 -52 135.5t-123 58.5v-385q71 4 123 57
t52 134z" />
    <glyph glyph-name="chi" unicode="&#x3c7;" horiz-adv-x="563" 
d="M231 171l-121 230q-15 29 -28 39t-32 10h-22v75h46q41 0 63 -12t40 -47l109 -206l158 265h100l-210 -351l136 -250q16 -30 28.5 -39.5t31.5 -9.5h22v-75h-46q-41 0 -63 12t-40 47l-123 226l-162 -280h-100z" />
    <glyph glyph-name="psi" unicode="&#x3c8;" horiz-adv-x="728" 
d="M321 -195v185q-76 0 -132.5 20.5t-93.5 72.5t-37 132v310h85v-310q0 -79 47 -111t131 -34v605h85v-605q83 2 131 34t48 111v310h85v-310q0 -61 -21 -105.5t-58 -70t-83 -37.5t-102 -12v-185h-85z" />
    <glyph glyph-name="omega" unicode="&#x3c9;" horiz-adv-x="863" 
d="M602 70q63 0 95 47t32 150q0 117 -49 258h90q49 -118 49 -262q0 -273 -214 -273q-126 0 -174 98q-48 -98 -173 -98q-214 0 -214 273q0 144 49 262h90q-49 -141 -49 -258q0 -103 32 -150t95 -47q60 0 94 40.5t34 124.5v154h85v-154q0 -84 34 -124.5t94 -40.5z" />
    <glyph glyph-name="iotadieresis" unicode="&#x3ca;" horiz-adv-x="336" 
d="M84 648q0 -52 -50 -52t-50 52t50 52t50 -52zM284 648q0 -52 -50 -52t-50 52t50 52t50 -52zM177 525v-377q0 -44 15 -61t43 -17q47 0 87 18v-83q-41 -15 -90 -15q-67 0 -103.5 36.5t-36.5 106.5v392h85z" />
    <glyph glyph-name="upsilondieresis" unicode="&#x3cb;" horiz-adv-x="576" 
d="M227 648q0 -52 -50 -52t-50 52t50 52t50 -52zM427 648q0 -52 -50 -52t-50 52t50 52t50 -52zM299 70q71 0 104.5 45.5t33.5 151.5q0 116 -49 258h90q49 -118 49 -263q0 -272 -225 -272q-103 0 -162.5 57.5t-59.5 177.5v147q0 44 -15 61t-43 17v75q70 0 106.5 -36.5
t36.5 -106.5v-157q0 -155 134 -155z" />
    <glyph glyph-name="omicrontonos" unicode="&#x3cc;" horiz-adv-x="562" 
d="M231 590l70 160h90l-110 -160h-50zM281 -10q-108 0 -176.5 74.5t-68.5 198.5t68 198t177 74t177 -74t68 -198t-68.5 -198.5t-176.5 -74.5zM281 455q-71 0 -113 -52t-42 -140t42.5 -140.5t112.5 -52.5t112.5 52.5t42.5 140.5t-42 140t-113 52z" />
    <glyph glyph-name="upsilontonos" unicode="&#x3cd;" horiz-adv-x="576" 
d="M225 590l70 160h90l-110 -160h-50zM299 70q71 0 104.5 45.5t33.5 151.5q0 116 -49 258h90q49 -118 49 -263q0 -272 -225 -272q-103 0 -162.5 57.5t-59.5 177.5v147q0 44 -15 61t-43 17v75q70 0 106.5 -36.5t36.5 -106.5v-157q0 -155 134 -155z" />
    <glyph glyph-name="omegatonos" unicode="&#x3ce;" horiz-adv-x="863" 
d="M389 590l70 160h90l-110 -160h-50zM602 70q63 0 95 47t32 150q0 117 -49 258h90q49 -118 49 -262q0 -273 -214 -273q-126 0 -174 98q-48 -98 -173 -98q-214 0 -214 273q0 144 49 262h90q-49 -141 -49 -258q0 -103 32 -150t95 -47q60 0 94 40.5t34 124.5v154h85v-154
q0 -84 34 -124.5t94 -40.5z" />
    <glyph glyph-name="uni0400" unicode="&#x400;" horiz-adv-x="574" 
d="M278 920l70 -160h-50l-110 160h90zM156 620v-230h325v-80h-325v-230h365v-80h-455v700h455v-80h-365z" />
    <glyph glyph-name="uni0401" unicode="&#x401;" horiz-adv-x="574" 
d="M236 802q0 -52 -50 -52t-50 52t50 52t50 -52zM436 802q0 -52 -50 -52t-50 52t50 52t50 -52zM521 700v-80h-365v-230h325v-80h-325v-230h365v-80h-455v700h455z" />
    <glyph glyph-name="uni0402" unicode="&#x402;" horiz-adv-x="768" 
d="M319 0h-90v620h-220v80h530v-80h-220v-230h159q119 0 182.5 -53.5t63.5 -148.5q0 -99 -67 -143.5t-178 -44.5h-70v80h60q79 0 119.5 23t40.5 89q0 68 -41 93t-110 25h-159v-310z" />
    <glyph glyph-name="uni0403" unicode="&#x403;" horiz-adv-x="506" 
d="M244 760l70 160h90l-110 -160h-50zM66 0v700h440v-80h-350v-620h-90z" />
    <glyph glyph-name="uni0404" unicode="&#x404;" horiz-adv-x="709" 
d="M379 710q98 0 175 -48.5t111 -136.5h-99q-56 100 -178 100q-98 0 -166 -61.5t-81 -173.5h348v-80h-348q13 -112 81 -173.5t166 -61.5q121 0 177 100h99q-34 -88 -110.5 -136.5t-174.5 -48.5q-145 0 -240 98.5t-95 261.5t95 261.5t240 98.5z" />
    <glyph glyph-name="uni0405" unicode="&#x405;" horiz-adv-x="594" 
d="M473 191q0 27 -10 47.5t-23.5 32t-39.5 21.5t-43.5 14t-51.5 10q-41 7 -66 12.5t-63.5 21t-60.5 34.5t-39 53.5t-17 79.5q0 96 67.5 144.5t175.5 48.5q109 0 177.5 -48t68.5 -137h-90q0 100 -159 100q-150 0 -150 -104q0 -25 9 -44t21.5 -30.5t37.5 -21t44.5 -14.5
t54.5 -12q46 -9 72 -16t64 -23t59 -35.5t36.5 -53t15.5 -77.5q0 -103 -72 -153.5t-183 -50.5t-187.5 48t-76.5 137h90q0 -50 48.5 -75t125.5 -25q165 0 165 116z" />
    <glyph glyph-name="uni0406" unicode="&#x406;" horiz-adv-x="222" 
d="M66 0v700h90v-700h-90z" />
    <glyph glyph-name="uni0407" unicode="&#x407;" horiz-adv-x="234" 
d="M67 812q0 -52 -50 -52t-50 52t50 52t50 -52zM267 812q0 -52 -50 -52t-50 52t50 52t50 -52zM72 0v700h90v-700h-90z" />
    <glyph glyph-name="uni0408" unicode="&#x408;" horiz-adv-x="370" 
d="M14 135h90q0 -30 14 -47.5t39 -17.5q26 0 41.5 17.5t15.5 47.5v565h90v-565q0 -70 -38.5 -107.5t-108.5 -37.5t-106.5 37t-36.5 108z" />
    <glyph glyph-name="uni0409" unicode="&#x409;" horiz-adv-x="1048" 
d="M489 620h-180q-15 -200 -26 -270q-58 -360 -274 -360v80q137 21 181 260q19 108 29 370h360v-310h174q119 0 182.5 -53.5t63.5 -148.5q0 -99 -67 -143.5t-178 -44.5h-265v620zM579 80h165q79 0 119.5 23t40.5 89q0 68 -41 93t-110 25h-174v-230z" />
    <glyph glyph-name="uni040A" unicode="&#x40a;" horiz-adv-x="1030" 
d="M156 310v-310h-90v700h90v-310h315v310h90v-310h174q119 0 182.5 -53.5t63.5 -148.5q0 -99 -67 -143.5t-178 -44.5h-265v310h-315zM561 80h165q79 0 119.5 23t40.5 89q0 68 -41 93t-110 25h-174v-230z" />
    <glyph glyph-name="uni040B" unicode="&#x40b;" horiz-adv-x="737" 
d="M319 620v-194q60 24 147 24q113 0 163 -60t50 -190v-200h-85v200q0 102 -36 136t-111 34q-78 0 -128 -17v-353h-90v620h-220v80h550v-80h-240z" />
    <glyph glyph-name="uni040C" unicode="&#x40c;" horiz-adv-x="619" 
d="M260 760l70 160h90l-110 -160h-50zM156 390h134q54 0 86 17t43.5 44.5t16 60.5t9.5 66t18 60.5t47 44.5t91 17v-80q-36 0 -53.5 -21t-22 -54l-9.5 -69t-25 -71.5t-58 -54.5q38 -20 58 -57t25 -74l9.5 -71.5t22 -56t53.5 -21.5v-80q-57 0 -91 17.5t-47 46t-18 62.5
t-9.5 68t-16 62.5t-43.5 46t-86 17.5h-134v-310h-90v700h90v-310z" />
    <glyph glyph-name="uni040D" unicode="&#x40d;" horiz-adv-x="677" 
d="M316 920l70 -160h-50l-110 160h90zM156 700v-582l350 582h105v-700h-90v568l-350 -568h-105v700h90z" />
    <glyph glyph-name="uni040E" unicode="&#x40e;" horiz-adv-x="569" 
d="M376 884h55q0 -65 -40.5 -94.5t-104.5 -29.5t-104.5 29.5t-40.5 94.5h55q0 -28 26 -43.5t64 -15.5t64 15.5t26 43.5zM9 700h96l179 -413l180 413h96l-228 -511l-35 -76q-28 -61 -77.5 -92t-131.5 -31v80q48 2 76.5 17t46.5 49l26 53z" />
    <glyph glyph-name="uni040F" unicode="&#x40f;" horiz-adv-x="692" 
d="M391 0v-195h-90v195h-235v700h90v-620h380v620h90v-700h-235z" />
    <glyph glyph-name="uni0410" unicode="&#x410;" horiz-adv-x="653" 
d="M176 180l-67 -180h-100l273 700h89l273 -700h-100l-68 180h-300zM446 260l-120 321l-120 -321h240z" />
    <glyph glyph-name="uni0411" unicode="&#x411;" horiz-adv-x="655" 
d="M66 700h445v-80h-355v-230h204q119 0 182.5 -53.5t63.5 -148.5q0 -99 -67 -143.5t-178 -44.5h-295v700zM156 80h195q79 0 119.5 23t40.5 89q0 68 -41 93t-110 25h-204v-230z" />
    <glyph glyph-name="uni0412" unicode="&#x412;" horiz-adv-x="655" 
d="M66 700h266q55 0 95.5 -7.5t76.5 -26t54.5 -55.5t18.5 -91q0 -61 -28 -99.5t-93 -62.5q76 -16 113 -56.5t37 -112.5q0 -100 -67 -144.5t-178 -44.5h-295v700zM156 390h155q80 0 125.5 25.5t45.5 96.5q0 66 -40 87t-120 21h-166v-230zM156 80h195q79 0 119.5 23t40.5 89
q0 68 -41 93t-110 25h-204v-230z" />
    <glyph glyph-name="uni0413" unicode="&#x413;" horiz-adv-x="515" 
d="M66 0v700h440v-80h-350v-620h-90z" />
    <glyph glyph-name="uni0414" unicode="&#x414;" horiz-adv-x="731" 
d="M18 -195v275h90q115 226 132 620h393v-620h80v-275h-80l-7 195h-521l-7 -195h-80zM543 620h-219q-30 -337 -118 -540h337v540z" />
    <glyph glyph-name="uni0415" unicode="&#x415;" horiz-adv-x="574" 
d="M156 620v-230h325v-80h-325v-230h365v-80h-455v700h455v-80h-365z" />
    <glyph glyph-name="uni0416" unicode="&#x416;" horiz-adv-x="847" 
d="M469 390h40q54 0 86 17t43.5 44.5t16 60.5t9.5 66t18 60.5t47 44.5t91 17v-80q-36 0 -53.5 -21t-22 -54l-9.5 -69t-25 -71.5t-58 -54.5q38 -20 58 -57t25 -74l9.5 -71.5t22 -56t53.5 -21.5v-80q-57 0 -91 17.5t-47 46t-18 62.5t-9.5 68t-16 62.5t-43.5 46t-86 17.5h-40
v-310h-90v310h-41q-54 0 -86 -17.5t-43.5 -46t-16 -62.5t-9.5 -68t-18 -62.5t-47 -46t-91 -17.5v80q36 0 53 21.5t22 56t9.5 71.5t24.5 74t58 57q-38 19 -57.5 54.5t-24.5 71.5l-9.5 69t-22 54t-53.5 21v80q57 0 91 -17t47 -44.5t18 -60.5t9.5 -66t16 -60.5t43.5 -44.5
t86 -17h41v310h90v-310z" />
    <glyph glyph-name="uni0417" unicode="&#x417;" horiz-adv-x="569" 
d="M286 631q-115 0 -137 -106h-88q11 89 70 137t154 48q96 0 160 -47t64 -137q0 -55 -25 -100t-69 -65q118 -41 118 -160q0 -105 -74 -158t-182 -53q-104 0 -167 49t-74 136h88q22 -106 151 -106q71 0 117 34.5t46 95.5q0 63 -47 89t-116 26h-80v76h80q57 0 98 36t41 97
q0 51 -32.5 79.5t-95.5 28.5z" />
    <glyph glyph-name="uni0418" unicode="&#x418;" horiz-adv-x="677" 
d="M156 700v-582l350 582h105v-700h-90v568l-350 -568h-105v700h90z" />
    <glyph glyph-name="uni0419" unicode="&#x419;" horiz-adv-x="677" 
d="M438 874h55q0 -65 -40.5 -94.5t-104.5 -29.5t-104.5 29.5t-40.5 94.5h55q0 -28 26 -43.5t64 -15.5t64 15.5t26 43.5zM156 700v-582l350 582h105v-700h-90v568l-350 -568h-105v700h90z" />
    <glyph glyph-name="uni041A" unicode="&#x41a;" horiz-adv-x="619" 
d="M156 390h134q54 0 86 17t43.5 44.5t16 60.5t9.5 66t18 60.5t47 44.5t91 17v-80q-36 0 -53.5 -21t-22 -54l-9.5 -69t-25 -71.5t-58 -54.5q38 -20 58 -57t25 -74l9.5 -71.5t22 -56t53.5 -21.5v-80q-57 0 -91 17.5t-47 46t-18 62.5t-9.5 68t-16 62.5t-43.5 46t-86 17.5h-134
v-310h-90v700h90v-310z" />
    <glyph glyph-name="uni041B" unicode="&#x41b;" horiz-adv-x="705" 
d="M549 0v620h-240q-15 -200 -26 -270q-58 -360 -274 -360v80q137 21 181 260q19 108 29 370h420v-700h-90z" />
    <glyph glyph-name="uni041C" unicode="&#x41c;" horiz-adv-x="812" 
d="M156 0h-90v700h90l249 -566l251 566h90v-700h-90v506l-218 -491h-65l-217 490v-505z" />
    <glyph glyph-name="uni041D" unicode="&#x41d;" horiz-adv-x="692" 
d="M536 0v310h-380v-310h-90v700h90v-310h380v310h90v-700h-90z" />
    <glyph glyph-name="uni041E" unicode="&#x41e;" horiz-adv-x="758" 
d="M379 -10q-145 0 -240 98.5t-95 261.5t95 261.5t240 98.5t240 -98.5t95 -261.5t-95 -261.5t-240 -98.5zM379 625q-98 0 -169 -74.5t-71 -200.5t71 -200.5t169 -74.5t169 74.5t71 200.5t-71 200.5t-169 74.5z" />
    <glyph glyph-name="uni041F" unicode="&#x41f;" horiz-adv-x="692" 
d="M536 0v620h-380v-620h-90v700h560v-700h-90z" />
    <glyph glyph-name="uni0420" unicode="&#x420;" horiz-adv-x="626" 
d="M156 0h-90v700h275q245 0 245 -220t-245 -220h-185v-260zM156 340h175q79 0 119.5 29t40.5 111t-40.5 111t-119.5 29h-175v-280z" />
    <glyph glyph-name="uni0421" unicode="&#x421;" horiz-adv-x="708" 
d="M378 710q98 0 175 -48.5t111 -136.5h-99q-56 100 -178 100q-107 0 -177.5 -74t-70.5 -201t70.5 -201t177.5 -74q121 0 177 100h99q-34 -88 -110.5 -136.5t-174.5 -48.5q-145 0 -239.5 98.5t-94.5 261.5t94.5 261.5t239.5 98.5z" />
    <glyph glyph-name="uni0422" unicode="&#x422;" horiz-adv-x="548" 
d="M319 620v-620h-90v620h-220v80h530v-80h-220z" />
    <glyph glyph-name="uni0423" unicode="&#x423;" horiz-adv-x="569" 
d="M9 700h96l179 -413l180 413h96l-263 -587q-28 -61 -77.5 -92t-131.5 -31v80q48 2 76.5 17t46.5 49l26 53z" />
    <glyph glyph-name="uni0424" unicode="&#x424;" horiz-adv-x="759" 
d="M424 710v-86q66 -4 116.5 -18.5t91 -45t62 -83.5t21.5 -127q0 -143 -76.5 -205t-214.5 -69v-86h-90v86q-66 3 -116.5 18t-90.5 45.5t-61.5 83.5t-21.5 127t21 127t62 83.5t91 45t116 18.5v86h90zM138 350q0 -56 15 -93.5t44 -57t61 -28t76 -10.5v378q-44 -2 -76 -10.5
t-61 -28t-44 -57.5t-15 -93zM620 350q0 56 -15 93.5t-44 57t-61 28t-76 10.5v-378q44 2 76 10.5t61 28t44 57t15 93.5z" />
    <glyph glyph-name="uni0425" unicode="&#x425;" horiz-adv-x="625" 
d="M312 423l194 277h100l-234 -334l244 -366h-100l-204 307l-203 -307h-100l244 367l-234 333h100z" />
    <glyph glyph-name="uni0426" unicode="&#x426;" horiz-adv-x="733" 
d="M626 -195l-7 195h-553v700h90v-620h380v620h90v-620h80v-275h-80z" />
    <glyph glyph-name="uni0427" unicode="&#x427;" horiz-adv-x="606" 
d="M263 275q-114 0 -168.5 60t-54.5 188v177h90v-177q0 -94 35.5 -126t114.5 -32q101 0 170 17v318h90v-700h-90v301q-92 -26 -187 -26z" />
    <glyph glyph-name="uni0428" unicode="&#x428;" horiz-adv-x="952" 
d="M66 0v700h90v-620h275v620h90v-620h275v620h90v-700h-820z" />
    <glyph glyph-name="uni0429" unicode="&#x429;" horiz-adv-x="993" 
d="M66 0v700h90v-620h275v620h90v-620h275v620h90v-620h80v-275h-80l-7 195h-813z" />
    <glyph glyph-name="uni042A" unicode="&#x42a;" horiz-adv-x="758" 
d="M259 700v-310h204q119 0 182.5 -53.5t63.5 -148.5q0 -99 -67 -143.5t-178 -44.5h-295v620h-160v80h250zM259 80h195q79 0 119.5 23t40.5 89q0 68 -41 93t-110 25h-204v-230z" />
    <glyph glyph-name="uni042B" unicode="&#x42b;" horiz-adv-x="823" 
d="M156 700v-310h174q119 0 182.5 -53.5t63.5 -148.5q0 -99 -67 -143.5t-178 -44.5h-265v700h90zM667 0v700h90v-700h-90zM156 80h165q79 0 119.5 23t40.5 89q0 68 -41 93t-110 25h-174v-230z" />
    <glyph glyph-name="uni042C" unicode="&#x42c;" horiz-adv-x="655" 
d="M156 700v-310h204q119 0 182.5 -53.5t63.5 -148.5q0 -99 -67 -143.5t-178 -44.5h-295v700h90zM156 80h195q79 0 119.5 23t40.5 89q0 68 -41 93t-110 25h-204v-230z" />
    <glyph glyph-name="uni042D" unicode="&#x42d;" horiz-adv-x="709" 
d="M330 710q145 0 240 -98.5t95 -261.5t-95 -261.5t-240 -98.5q-98 0 -174.5 48.5t-110.5 136.5h99q56 -100 177 -100q98 0 165.5 61.5t80.5 173.5h-347v80h347q-13 112 -80.5 173.5t-165.5 61.5q-122 0 -178 -100h-99q34 88 111 136.5t175 48.5z" />
    <glyph glyph-name="uni042E" unicode="&#x42e;" horiz-adv-x="935" 
d="M156 390h116q11 148 93.5 234t215.5 86q142 0 226 -97.5t84 -262.5t-84 -262.5t-226 -97.5q-133 0 -215.5 85.5t-93.5 234.5h-116v-310h-90v700h90v-310zM581 625q-95 0 -155 -73.5t-60 -201.5t60 -201.5t155 -73.5t155 73.5t60 201.5t-60 201.5t-155 73.5z" />
    <glyph glyph-name="uni042F" unicode="&#x42f;" horiz-adv-x="628" 
d="M472 260h-134q-54 0 -86 -15t-43.5 -38.5t-16 -52.5t-9.5 -58t-18 -52.5t-47 -38.5t-91 -15v80q34 0 51 15.5t22.5 41.5t9 54t17 58.5t40.5 49.5q-125 36 -125 191q0 220 245 220h275v-700h-90v260zM472 620h-175q-79 0 -119.5 -29t-40.5 -111t40.5 -111t119.5 -29h175
v280z" />
    <glyph glyph-name="uni0430" unicode="&#x430;" horiz-adv-x="542" 
d="M44 144q0 83 62 122t158 39q81 0 135 -34v79q0 62 -30.5 83.5t-85.5 21.5q-124 0 -124 -75h-90q0 80 57.5 117.5t153.5 37.5q99 0 151.5 -44t52.5 -151v-340h-65l-12 60q-56 -70 -164 -70q-88 0 -143.5 37.5t-55.5 116.5zM277 235q-143 0 -143 -87q0 -78 122 -78
q98 0 143 52v86q-46 27 -122 27z" />
    <glyph glyph-name="uni0431" unicode="&#x431;" horiz-adv-x="578" 
d="M281 -10q-111 0 -174 70t-63 238q0 93 20.5 160t54 100.5t73.5 53t79.5 26.5l73 13t54 19.5t20.5 39.5h80q0 -51 -17 -80t-45 -39t-62.5 -13t-72 -8.5t-71 -19t-62 -51.5t-42.5 -99q23 48 62.5 71.5t103.5 23.5q108 0 174.5 -63.5t66.5 -185.5t-68 -189t-185 -67z
M289 415q-73 0 -114 -41t-41 -126q0 -86 41.5 -132t113.5 -46t113.5 46t41.5 132q0 85 -41 126t-114 41z" />
    <glyph glyph-name="uni0432" unicode="&#x432;" horiz-adv-x="549" 
d="M58 525h229q109 0 158.5 -35.5t49.5 -112.5q0 -82 -61 -112q71 -30 71 -118q0 -76 -49.5 -111.5t-158.5 -35.5h-239v525zM405 375q0 41 -27 58t-101 17h-134v-150h134q74 0 101 17t27 58zM415 150q0 41 -27 58t-101 17h-144v-150h144q74 0 101 17t27 58z" />
    <glyph glyph-name="uni0433" unicode="&#x433;" horiz-adv-x="432" 
d="M423 525v-75h-280v-450h-85v525h365z" />
    <glyph glyph-name="uni0434" unicode="&#x434;" horiz-adv-x="582" 
d="M485 -150l-7 150h-379l-6 -150h-75v225h30q68 86 88.5 195t20.5 255h328v-450h75v-225h-75zM400 450h-158q0 -216 -93 -375h251v375z" />
    <glyph glyph-name="uni0435" unicode="&#x435;" horiz-adv-x="563" 
d="M289 70q88 0 122 75h90q-25 -74 -79.5 -114.5t-132.5 -40.5q-108 0 -176.5 74.5t-68.5 198.5t68 198t177 74q107 0 168.5 -73t61.5 -199v-38h-383q9 -72 49.5 -113.5t103.5 -41.5zM289 455q-63 0 -103.5 -41.5t-49.5 -113.5h291q-7 73 -42 114t-96 41z" />
    <glyph glyph-name="uni0436" unicode="&#x436;" horiz-adv-x="770" 
d="M428 525v-225h68q44 0 63.5 23t24 56t12.5 66.5t43.5 56.5t103.5 23v-75q-41 0 -59 -26.5t-18.5 -59t-14.5 -64t-48 -38.5q28 -6 41.5 -29t17 -50.5t8 -54.5t22 -45t51.5 -18v-75q-50 0 -82.5 13t-46 33.5t-20.5 46t-10.5 50.5t-10 45.5t-25.5 33.5t-52 13h-68v-225h-85
v225h-69q-33 0 -52 -13t-25.5 -33.5t-10 -45.5t-10.5 -50.5t-20.5 -46t-46 -33.5t-82.5 -13v75q34 0 51 18t21.5 45t8 54.5t17.5 50.5t42 29q-28 6 -42 28t-17.5 48t-8 52t-21.5 43t-51 17v75q68 0 103.5 -23t43.5 -56.5t12.5 -66.5t24 -56t63.5 -23h69v225h85z" />
    <glyph glyph-name="uni0437" unicode="&#x437;" horiz-adv-x="524" 
d="M139 380h-85q17 155 206 155q39 0 73 -7t64.5 -23t48 -46t17.5 -71q0 -77 -75 -117q46 -12 69 -45.5t23 -80.5q0 -44 -20 -76t-53.5 -48t-70 -23.5t-78.5 -7.5q-191 0 -214 155h85q10 -41 40 -58t93 -17q64 0 96 18t32 60q0 77 -114 77h-40v75h40q97 0 97 82
q0 39 -25.5 56t-83.5 17q-59 0 -88 -17.5t-37 -57.5z" />
    <glyph glyph-name="uni0438" unicode="&#x438;" 
d="M423 405l-270 -405h-95v525h85v-405l270 405h95v-525h-85v405z" />
    <glyph glyph-name="uni0439" unicode="&#x439;" 
d="M372 714h55q0 -65 -40.5 -94.5t-104.5 -29.5t-104.5 29.5t-40.5 94.5h55q0 -28 26 -43.5t64 -15.5t64 15.5t26 43.5zM423 405l-270 -405h-95v525h85v-405l270 405h95v-525h-85v405z" />
    <glyph glyph-name="uni043A" unicode="&#x43a;" horiz-adv-x="545" 
d="M143 525v-225h128q44 0 63.5 23t24 56t12.5 66.5t43.5 56.5t103.5 23v-75q-41 0 -59 -26.5t-18.5 -59t-14.5 -64t-48 -38.5q28 -6 41.5 -29t17 -50.5t8 -54.5t22 -45t51.5 -18v-75q-50 0 -82.5 13t-46 33.5t-20.5 46t-10.5 50.5t-10 45.5t-25.5 33.5t-52 13h-128v-225
h-85v525h85z" />
    <glyph glyph-name="uni043B" unicode="&#x43b;" horiz-adv-x="567" 
d="M424 450h-200q0 -76 -4 -135t-17.5 -123t-36 -106t-62.5 -69t-95 -27v75q23 4 41 14t31.5 30t23 39t16 54.5t10.5 62.5t6.5 78t4 84.5t2.5 97.5h365v-525h-85v450z" />
    <glyph glyph-name="uni043C" unicode="&#x43c;" horiz-adv-x="684" 
d="M143 0h-85v525h99l185 -418l184 418h100v-525h-85v387l-169 -377h-60l-169 375v-385z" />
    <glyph glyph-name="uni043D" unicode="&#x43d;" 
d="M423 225h-280v-225h-85v525h85v-225h280v225h85v-525h-85v225z" />
    <glyph glyph-name="uni043E" unicode="&#x43e;" horiz-adv-x="562" 
d="M281 -10q-108 0 -176.5 74.5t-68.5 198.5t68 198t177 74t177 -74t68 -198t-68.5 -198.5t-176.5 -74.5zM281 455q-71 0 -113 -52t-42 -140t42.5 -140.5t112.5 -52.5t112.5 52.5t42.5 140.5t-42 140t-113 52z" />
    <glyph glyph-name="uni043F" unicode="&#x43f;" 
d="M423 450h-280v-450h-85v525h450v-525h-85v450z" />
    <glyph glyph-name="uni0440" unicode="&#x440;" horiz-adv-x="562" 
d="M297 535q101 0 161 -73.5t60 -198.5t-60 -199t-161 -74q-95 0 -154 77v-262h-85v720h65l15 -75q59 85 159 85zM277 455q-87 0 -134 -66v-254q47 -65 134 -65q71 0 111 52.5t40 140.5t-40 140t-111 52z" />
    <glyph glyph-name="uni0441" unicode="&#x441;" horiz-adv-x="532" 
d="M281 70q91 0 125 75h90q-25 -74 -80.5 -114.5t-134.5 -40.5q-108 0 -176.5 74.5t-68.5 198.5t68 198t177 74q79 0 134.5 -40.5t80.5 -114.5h-90q-34 75 -125 75q-71 0 -113 -52t-42 -140t42.5 -140.5t112.5 -52.5z" />
    <glyph glyph-name="uni0442" unicode="&#x442;" horiz-adv-x="463" 
d="M454 525v-80h-180v-445h-85v445h-180v80h445z" />
    <glyph glyph-name="uni0443" unicode="&#x443;" horiz-adv-x="504" 
d="M490 525l-222 -601q-23 -61 -65.5 -92t-118.5 -31v80q45 2 70 17t38 49l17 47l-195 531h95l143 -410l143 410h95z" />
    <glyph glyph-name="uni0444" unicode="&#x444;" horiz-adv-x="688" 
d="M302 -195v185q-111 0 -188.5 75t-77.5 197t77.5 197.5t188.5 75.5v175h85v-175q111 0 188 -76t77 -198t-77 -196.5t-188 -74.5v-185h-85zM126 262q0 -82 52 -135t124 -57v385q-71 -4 -123.5 -57.5t-52.5 -135.5zM562 261q0 82 -52 135.5t-123 58.5v-385q71 4 123 57
t52 134z" />
    <glyph glyph-name="uni0445" unicode="&#x445;" horiz-adv-x="513" 
d="M390 0l-136 207l-140 -207h-100l191 278l-183 247h100l136 -184l141 184h100l-192 -253l183 -272h-100z" />
    <glyph glyph-name="uni0446" unicode="&#x446;" horiz-adv-x="605" 
d="M143 525v-450h280v450h85v-450h75v-225h-75l-7 150h-443v525h85z" />
    <glyph glyph-name="uni0447" unicode="&#x447;" 
d="M423 0v207q-76 -32 -160 -32q-106 0 -155.5 61.5t-49.5 188.5v100h85v-100q0 -105 29 -137.5t105 -32.5q78 0 146 24v246h85v-525h-85z" />
    <glyph glyph-name="uni0448" unicode="&#x448;" horiz-adv-x="811" 
d="M58 0v525h85v-450h220v450h85v-450h220v450h85v-525h-695z" />
    <glyph glyph-name="uni0449" unicode="&#x449;" horiz-adv-x="850" 
d="M143 525v-450h220v450h85v-450h220v450h85v-450h75v-225h-75l-7 150h-688v525h85z" />
    <glyph glyph-name="uni044A" unicode="&#x44a;" horiz-adv-x="628" 
d="M584 150q0 -78 -49 -114t-159 -36h-242v450h-120v75h205v-225h157q110 0 159 -36t49 -114zM494 150q0 41 -27 58t-101 17h-147v-150h147q74 0 101 17t27 58z" />
    <glyph glyph-name="uni044B" unicode="&#x44b;" horiz-adv-x="707" 
d="M483 150q0 -78 -49 -114t-159 -36h-217v525h85v-225h132q110 0 159 -36t49 -114zM564 0v525h85v-525h-85zM393 150q0 41 -27 58t-101 17h-122v-150h122q74 0 101 17t27 58z" />
    <glyph glyph-name="uni044C" unicode="&#x44c;" horiz-adv-x="552" 
d="M508 150q0 -78 -49 -114t-159 -36h-242v525h85v-225h157q110 0 159 -36t49 -114zM418 150q0 41 -27 58t-101 17h-147v-150h147q74 0 101 17t27 58z" />
    <glyph glyph-name="uni044D" unicode="&#x44d;" horiz-adv-x="532" 
d="M251 70q62 0 102.5 41.5t49.5 113.5h-259v75h259q-8 71 -49 113t-103 42q-91 0 -125 -75h-90q25 74 80.5 114.5t134.5 40.5q109 0 177 -74t68 -198t-68.5 -198.5t-176.5 -74.5q-79 0 -134.5 40.5t-80.5 114.5h90q34 -75 125 -75z" />
    <glyph glyph-name="uni044E" unicode="&#x44e;" horiz-adv-x="739" 
d="M473 -10q-98 0 -158.5 62.5t-70.5 172.5h-101v-225h-85v525h85v-225h101q9 109 69.5 172t159.5 63q107 0 168.5 -73t61.5 -199t-61.5 -199.5t-168.5 -73.5zM473 455q-69 0 -104.5 -51t-35.5 -141t35.5 -141.5t104.5 -51.5t104.5 51.5t35.5 141.5t-35.5 141t-104.5 51z
" />
    <glyph glyph-name="uni044F" unicode="&#x44f;" horiz-adv-x="558" 
d="M60 372q0 78 50 115.5t158 37.5h232v-525h-85v210h-137q-33 0 -52 -12t-25.5 -31.5t-10 -43t-10.5 -47t-20.5 -43t-46 -31.5t-82.5 -12v75q38 0 56 22.5t19 51t11 59.5t34 43q-91 30 -91 131zM150 370q0 -43 28 -64t100 -21h137v165h-137q-73 0 -100.5 -19t-27.5 -61z
" />
    <glyph glyph-name="uni0450" unicode="&#x450;" horiz-adv-x="547" 
d="M261 750l70 -160h-50l-110 160h90zM281 -10q-108 0 -176.5 74.5t-68.5 198.5t68 198t177 74q107 0 168.5 -73t61.5 -199v-38h-383q9 -72 49.5 -113.5t103.5 -41.5q88 0 122 75h90q-25 -74 -79.5 -114.5t-132.5 -40.5zM281 455q-63 0 -103.5 -41.5t-49.5 -113.5h291
q-7 73 -42 114t-96 41z" />
    <glyph glyph-name="uni0451" unicode="&#x451;" horiz-adv-x="547" 
d="M226 648q0 -52 -50 -52t-50 52t50 52t50 -52zM426 648q0 -52 -50 -52t-50 52t50 52t50 -52zM281 -10q-108 0 -176.5 74.5t-68.5 198.5t68 198t177 74q107 0 168.5 -73t61.5 -199v-38h-383q9 -72 49.5 -113.5t103.5 -41.5q88 0 122 75h90q-25 -74 -79.5 -114.5
t-132.5 -40.5zM281 455q-63 0 -103.5 -41.5t-49.5 -113.5h291q-7 73 -42 114t-96 41z" />
    <glyph glyph-name="uni0452" unicode="&#x452;" horiz-adv-x="582" 
d="M329 535q195 0 195 -250v-342q0 -73 -43 -108t-117 -35v80q33 0 54 16t21 62v327q0 89 -31 129.5t-101 40.5q-99 0 -148 -67v-388h-85v585h-65v60h65v75h85v-75h140v-60h-140v-135q65 85 170 85z" />
    <glyph glyph-name="uni0453" unicode="&#x453;" horiz-adv-x="432" 
d="M188 590l70 160h90l-110 -160h-50zM423 525v-75h-280v-450h-85v525h365z" />
    <glyph glyph-name="uni0454" unicode="&#x454;" horiz-adv-x="532" 
d="M281 70q91 0 125 75h90q-25 -74 -80.5 -114.5t-134.5 -40.5q-108 0 -176.5 74.5t-68.5 198.5t68 198t177 74q79 0 134.5 -40.5t80.5 -114.5h-90q-34 75 -125 75q-63 0 -103.5 -41.5t-49.5 -113.5h260v-75h-260q9 -72 49.5 -113.5t103.5 -41.5z" />
    <glyph glyph-name="uni0455" unicode="&#x455;" horiz-adv-x="518" 
d="M134 384q0 -49 74 -66q18 -4 76 -12q37 -5 64 -12.5t59 -23.5t49.5 -46.5t17.5 -72.5q0 -80 -60.5 -120.5t-157.5 -40.5q-93 0 -152.5 38t-59.5 117h90q0 -39 34.5 -57t88.5 -18q57 0 94.5 19t37.5 59q0 11 -3 20.5t-9.5 16.5t-13 12.5t-19 10.5t-21 8t-25 6t-25.5 4.5
l-27.5 4.5t-26.5 4q-34 6 -57.5 13t-52.5 22.5t-44.5 44t-15.5 69.5q0 77 55.5 114t150.5 37t152 -37.5t57 -117.5h-90q0 75 -119 75q-55 0 -88 -17.5t-33 -53.5z" />
    <glyph glyph-name="uni0456" unicode="&#x456;" horiz-adv-x="198" 
d="M149 648q0 -52 -50 -52t-50 52t50 52t50 -52zM56 0v525h85v-525h-85z" />
    <glyph glyph-name="uni0457" unicode="&#x457;" horiz-adv-x="268" 
d="M84 648q0 -52 -50 -52t-50 52t50 52t50 -52zM284 648q0 -52 -50 -52t-50 52t50 52t50 -52zM91 0v525h85v-525h-85z" />
    <glyph glyph-name="uni0458" unicode="&#x458;" horiz-adv-x="199" 
d="M146 648q0 -52 -50 -52t-50 52t50 52t50 -52zM139 525v-582q0 -73 -43.5 -108t-117.5 -35v80q33 0 54.5 16t21.5 62v567h85z" />
    <glyph glyph-name="uni0459" unicode="&#x459;" horiz-adv-x="823" 
d="M774 150q0 -78 -49 -114t-159 -36h-217v450h-125q0 -76 -4 -135t-17.5 -123t-36 -106t-62.5 -69t-95 -27v83q23 4 41 13.5t31.5 29t23 38t16 53.5t10.5 61t6.5 76t4 83.5t2.5 97.5h290v-225h132q110 0 159 -36t49 -114zM684 150q0 41 -27 58t-101 17h-122v-150h122
q74 0 101 17t27 58z" />
    <glyph glyph-name="uni045A" unicode="&#x45a;" horiz-adv-x="877" 
d="M828 150q0 -78 -49 -114t-159 -36h-217v225h-260v-225h-85v525h85v-225h260v225h85v-225h132q110 0 159 -36t49 -114zM738 150q0 41 -27 58t-101 17h-122v-150h122q74 0 101 17t27 58z" />
    <glyph glyph-name="uni045B" unicode="&#x45b;" horiz-adv-x="582" 
d="M329 535q195 0 195 -250v-285h-85v285q0 89 -31 129.5t-101 40.5q-99 0 -148 -67v-388h-85v585h-65v60h65v75h85v-75h140v-60h-140v-135q65 85 170 85z" />
    <glyph glyph-name="uni045C" unicode="&#x45c;" horiz-adv-x="545" 
d="M234 590l70 160h90l-110 -160h-50zM143 525v-225h128q44 0 63.5 23t24 56t12.5 66.5t43.5 56.5t103.5 23v-75q-41 0 -59 -26.5t-18.5 -59t-14.5 -64t-48 -38.5q28 -6 41.5 -29t17 -50.5t8 -54.5t22 -45t51.5 -18v-75q-50 0 -82.5 13t-46 33.5t-20.5 46t-10.5 50.5
t-10 45.5t-25.5 33.5t-52 13h-128v-225h-85v525h85z" />
    <glyph glyph-name="uni045D" unicode="&#x45d;" 
d="M256 750l70 -160h-50l-110 160h90zM423 405l-270 -405h-95v525h85v-405l270 405h95v-525h-85v405z" />
    <glyph glyph-name="uni045E" unicode="&#x45e;" horiz-adv-x="504" 
d="M341 714h55q0 -65 -40.5 -94.5t-104.5 -29.5t-104.5 29.5t-40.5 94.5h55q0 -28 26 -43.5t64 -15.5t64 15.5t26 43.5zM297 0l-29 -76q-23 -61 -65.5 -92t-118.5 -31v80q45 2 70 17t38 49l17 47l-195 531h95l143 -410l143 410h95z" />
    <glyph glyph-name="uni045F" unicode="&#x45f;" 
d="M143 525v-450h280v450h85v-525h-182v-150h-85v150h-183v525h85z" />
    <glyph glyph-name="uni0462" unicode="&#x462;" horiz-adv-x="718" 
d="M129 605v95h90v-95h130v-80h-130v-135h204q119 0 182.5 -53.5t63.5 -148.5q0 -99 -67 -143.5t-178 -44.5h-295v525h-120v80h120zM219 80h195q79 0 119.5 23t40.5 89q0 68 -41 93t-110 25h-204v-230z" />
    <glyph glyph-name="uni0463" unicode="&#x463;" horiz-adv-x="608" 
d="M564 150q0 -78 -49 -114t-159 -36h-242v450h-105v75h105v195h85v-195h114v-75h-114v-150h157q110 0 159 -36t49 -114zM474 150q0 41 -27 58t-101 17h-147v-150h147q74 0 101 17t27 58z" />
    <glyph glyph-name="uni0472" unicode="&#x472;" horiz-adv-x="758" 
d="M379 -10q-145 0 -240 98.5t-95 261.5t95 261.5t240 98.5t240 -98.5t95 -261.5t-95 -261.5t-240 -98.5zM379 625q-90 0 -158 -63.5t-80 -171.5h475q-12 108 -80 171.5t-157 63.5zM379 75q89 0 157 63.5t80 171.5h-475q12 -109 80.5 -172t157.5 -63z" />
    <glyph glyph-name="uni0473" unicode="&#x473;" horiz-adv-x="562" 
d="M281 -10q-108 0 -176.5 74.5t-68.5 198.5t68 198t177 74t177 -74t68 -198t-68.5 -198.5t-176.5 -74.5zM281 455q-63 0 -103.5 -41.5t-49.5 -113.5h305q-8 71 -49 113t-103 42zM281 70q62 0 102.5 41.5t49.5 113.5h-305q9 -72 49.5 -113.5t103.5 -41.5z" />
    <glyph glyph-name="uni0474" unicode="&#x474;" horiz-adv-x="617" 
d="M292 128l145 442q12 36 27.5 61t30.5 38t35.5 20.5t36.5 9t41 1.5v-75q-33 0 -47.5 -10t-28.5 -45l-198 -570h-84l-241 700h95z" />
    <glyph glyph-name="uni0475" unicode="&#x475;" horiz-adv-x="524" 
d="M202 0l-193 525h90l144 -415l107 282q29 84 66.5 108.5t99.5 24.5v-75q-32 0 -47 -11t-29 -47l-158 -392h-80z" />
    <glyph glyph-name="uni0490" unicode="&#x490;" horiz-adv-x="515" 
d="M66 0v700h350v100h90v-180h-350v-620h-90z" />
    <glyph glyph-name="uni0491" unicode="&#x491;" horiz-adv-x="447" 
d="M143 445v-445h-85v525h295v101h85v-181h-295z" />
    <glyph glyph-name="Wgrave" unicode="&#x1e80;" horiz-adv-x="937" 
d="M442 920l70 -160h-50l-110 160h90zM425 689h87l168 -553l148 564h100l-199 -700h-90l-171 549l-170 -549h-90l-199 700h100l147 -564z" />
    <glyph glyph-name="wgrave" unicode="&#x1e81;" horiz-adv-x="818" 
d="M379 750l70 -160h-50l-110 160h90zM269 0h-89l-166 525h95l119 -405l141 395h80l140 -395l120 405h95l-166 -525h-89l-140 400z" />
    <glyph glyph-name="Wacute" unicode="&#x1e82;" horiz-adv-x="937" 
d="M425 760l70 160h90l-110 -160h-50zM425 689h87l168 -553l148 564h100l-199 -700h-90l-171 549l-170 -549h-90l-199 700h100l147 -564z" />
    <glyph glyph-name="wacute" unicode="&#x1e83;" horiz-adv-x="818" 
d="M369 590l70 160h90l-110 -160h-50zM269 0h-89l-166 525h95l119 -405l141 395h80l140 -395l120 405h95l-166 -525h-89l-140 400z" />
    <glyph glyph-name="Wdieresis" unicode="&#x1e84;" horiz-adv-x="937" 
d="M418 812q0 -52 -50 -52t-50 52t50 52t50 -52zM618 812q0 -52 -50 -52t-50 52t50 52t50 -52zM298 0h-90l-199 700h100l147 -564l169 553h87l168 -553l148 564h100l-199 -700h-90l-171 549z" />
    <glyph glyph-name="wdieresis" unicode="&#x1e85;" horiz-adv-x="818" 
d="M359 648q0 -52 -50 -52t-50 52t50 52t50 -52zM559 648q0 -52 -50 -52t-50 52t50 52t50 -52zM109 525l119 -405l141 395h80l140 -395l120 405h95l-166 -525h-89l-140 400l-140 -400h-89l-166 525h95z" />
    <glyph glyph-name="Ygrave" unicode="&#x1ef2;" horiz-adv-x="588" 
d="M259 920l70 -160h-50l-110 160h90zM249 0v245l-240 455h100l185 -362l185 362h100l-240 -455v-245h-90z" />
    <glyph glyph-name="ygrave" unicode="&#x1ef3;" horiz-adv-x="504" 
d="M226 750l70 -160h-50l-110 160h90zM490 525l-222 -601q-23 -61 -66.5 -92.5t-117.5 -31.5v80q44 2 69.5 17.5t38.5 49.5l17 47l-195 531h95l143 -410l143 410h95z" />
    <glyph glyph-name="endash" unicode="&#x2013;" horiz-adv-x="518" 
d="M509 355v-60h-500v60h500z" />
    <glyph glyph-name="emdash" unicode="&#x2014;" horiz-adv-x="910" 
d="M905 355v-60h-900v60h900z" />
    <glyph glyph-name="uni2015" unicode="&#x2015;" horiz-adv-x="778" 
d="M769 355v-60h-760v60h760z" />
    <glyph glyph-name="quoteleft" unicode="&#x2018;" horiz-adv-x="146" 
d="M22 654q0 62 31.5 106t74.5 65l9 -51q-42 -28 -47 -75q47 -5 47 -55q0 -54 -59 -54q-30 0 -43 14.5t-13 49.5z" />
    <glyph glyph-name="quoteright" unicode="&#x2019;" horiz-adv-x="159" 
d="M137 711q0 -62 -31.5 -106t-74.5 -65l-9 51q43 28 46 74q-46 5 -46 55q0 55 59 55q30 0 43 -14.5t13 -49.5z" />
    <glyph glyph-name="quotesinglbase" unicode="&#x201a;" horiz-adv-x="159" 
d="M137 36q0 -62 -31.5 -106t-74.5 -65l-9 51q43 28 46 75q-46 5 -46 54q0 55 59 55q30 0 43 -14.5t13 -49.5z" />
    <glyph glyph-name="quotedblleft" unicode="&#x201c;" horiz-adv-x="306" 
d="M22 654q0 62 31.5 106t74.5 65l9 -51q-42 -28 -47 -75q47 -5 47 -55q0 -54 -59 -54q-30 0 -43 14.5t-13 49.5zM182 654q0 62 31.5 106t74.5 65l9 -51q-42 -28 -47 -75q47 -5 47 -55q0 -54 -59 -54q-30 0 -43 14.5t-13 49.5z" />
    <glyph glyph-name="quotedblright" unicode="&#x201d;" horiz-adv-x="319" 
d="M137 720v-6q0 -121 -106 -174l-9 51q43 28 46 74q-46 5 -46 55q0 55 57 55q58 0 58 -55zM297 711q0 -62 -31.5 -106t-74.5 -65l-9 51q43 28 46 74q-46 5 -46 55q0 55 59 55q30 0 43 -14.5t13 -49.5z" />
    <glyph glyph-name="quotedblbase" unicode="&#x201e;" horiz-adv-x="319" 
d="M137 45v-6q0 -118 -106 -174l-9 51q43 28 46 75q-46 5 -46 54q0 55 57 55q58 0 58 -55zM297 36q0 -62 -31.5 -106t-74.5 -65l-9 51q43 28 46 75q-46 5 -46 54q0 55 59 55q30 0 43 -14.5t13 -49.5z" />
    <glyph glyph-name="dagger" unicode="&#x2020;" horiz-adv-x="406" 
d="M160 525v255h85v-255h143v-80h-143v-495h-85v495h-142v80h142z" />
    <glyph glyph-name="daggerdbl" unicode="&#x2021;" horiz-adv-x="406" 
d="M160 525v255h85v-255h143v-80h-143v-140h143v-80h-143v-275h-85v275h-142v80h142v140h-142v80h142z" />
    <glyph glyph-name="bullet" unicode="&#x2022;" horiz-adv-x="276" 
d="M260 367q0 -116 -122 -116t-122 116t122 116t122 -116z" />
    <glyph glyph-name="onedotenleader" unicode="&#x2024;" horiz-adv-x="159" 
d="M137 45q0 -55 -58 -55q-57 0 -57 55t57 55q58 0 58 -55z" />
    <glyph glyph-name="twodotenleader" unicode="&#x2025;" horiz-adv-x="324" 
d="M137 45q0 -55 -58 -55q-57 0 -57 55t57 55q58 0 58 -55zM302 45q0 -55 -58 -55q-57 0 -57 55t57 55q58 0 58 -55z" />
    <glyph glyph-name="ellipsis" unicode="&#x2026;" horiz-adv-x="489" 
d="M137 45q0 -55 -58 -55q-57 0 -57 55t57 55q58 0 58 -55zM302 45q0 -55 -58 -55q-57 0 -57 55t57 55q58 0 58 -55zM467 45q0 -55 -58 -55q-57 0 -57 55t57 55q58 0 58 -55z" />
    <glyph glyph-name="perthousand" unicode="&#x2030;" horiz-adv-x="1231" 
d="M266 0l240 720h90l-235 -720h-95zM197 710q68 0 110 -45.5t42 -124.5q0 -78 -42 -124t-110 -46t-110.5 46t-42.5 124t42.5 124t110.5 46zM197 446q40 0 53.5 24t13.5 70t-13 70t-54 24t-55 -24t-14 -70q0 -45 14 -69.5t55 -24.5zM670 330q68 0 110 -45.5t42 -124.5
q0 -78 -42 -124t-110 -46t-110.5 46t-42.5 124t42.5 124t110.5 46zM1035 330q68 0 110 -45.5t42 -124.5q0 -78 -42 -124t-110 -46t-110.5 46t-42.5 124t42.5 124t110.5 46zM670 66q40 0 53.5 24t13.5 70t-13 70t-54 24t-55 -24t-14 -70q0 -45 14 -69.5t55 -24.5zM1035 66
q40 0 53.5 24t13.5 70t-13 70t-54 24t-55 -24t-14 -70q0 -45 14 -69.5t55 -24.5z" />
    <glyph glyph-name="guilsinglleft" unicode="&#x2039;" horiz-adv-x="168" 
d="M150 474v-85l-91 -74l91 -73v-85l-132 125v67z" />
    <glyph glyph-name="guilsinglright" unicode="&#x203a;" horiz-adv-x="168" 
d="M18 157v85l90 73l-90 74v85l132 -125v-67z" />
    <glyph glyph-name="uni203D" unicode="&#x203d;" horiz-adv-x="496" 
d="M465 527q0 -52 -19 -91t-46.5 -63.5l-54.5 -48.5t-46 -61.5t-19 -87.5h-88l-10 305v131q-57 -20 -61 -86h-90q7 97 65.5 136t155.5 39q213 0 213 -173zM272 480l-4 -127l27.5 26.5t31 31.5t23.5 30t19.5 39t5.5 43q0 90 -103 96v-139zM293 45q0 -55 -58 -55q-57 0 -57 55
t57 55q58 0 58 -55z" />
    <glyph glyph-name="fraction" unicode="&#x2044;" horiz-adv-x="320" 
d="M-5 0l240 720h90l-235 -720h-95z" />
    <glyph glyph-name="zerosuperior" unicode="&#x2070;" horiz-adv-x="372" 
d="M186 424q-81 0 -115.5 52.5t-34.5 157.5q0 106 34.5 161t115.5 55t115.5 -55t34.5 -161q0 -105 -34.5 -157.5t-115.5 -52.5zM186 795q-49 0 -67 -38.5t-18 -122.5q0 -83 17.5 -119t67.5 -36t67.5 36t17.5 119q0 84 -18 122.5t-67 38.5z" />
    <glyph glyph-name="foursuperior" unicode="&#x2074;" horiz-adv-x="355" 
d="M273 579h46v-55h-46v-93h-62v93h-184v58l190 263h56v-266zM211 750l-117 -171h117v171z" />
    <glyph glyph-name="fivesuperior" unicode="&#x2075;" horiz-adv-x="352" 
d="M188 701q58 0 93 -36t35 -98q0 -65 -40 -103.5t-113 -38.5q-121 0 -127 105h62q4 -50 68 -50q85 0 85 86q0 80 -75 80q-53 0 -74 -35h-55l23 234h219v-55h-169l-11 -120q33 31 79 31z" />
    <glyph glyph-name="sixsuperior" unicode="&#x2076;" horiz-adv-x="360" 
d="M193 700q61 0 96 -36t35 -100q0 -65 -36.5 -102.5t-104.5 -37.5q-82 0 -114.5 54.5t-32.5 158.5q0 108 34.5 160.5t118.5 52.5q122 0 128 -105h-65q-2 50 -64 50q-49 0 -67.5 -32.5t-20.5 -107.5q28 45 93 45zM186 645q-38 0 -59 -18.5t-21 -54.5q0 -45 20.5 -69
t59.5 -24q73 0 73 86q0 80 -73 80z" />
    <glyph glyph-name="sevensuperior" unicode="&#x2077;" horiz-adv-x="319" 
d="M301 845v-50q-129 -137 -162 -364h-65q27 207 155 359h-211v55h283z" />
    <glyph glyph-name="eightsuperior" unicode="&#x2078;" horiz-adv-x="346" 
d="M49 743q0 53 33.5 80t90.5 27t90.5 -27t33.5 -80q0 -69 -56 -92q74 -32 74 -107q0 -59 -37.5 -89.5t-104.5 -30.5t-104.5 30.5t-37.5 89.5q0 75 74 107q-56 23 -56 92zM234 736q0 59 -61 59t-61 -59q0 -63 61 -63t61 63zM96 549q0 -70 77 -70t77 70t-77 70t-77 -70z" />
    <glyph glyph-name="ninesuperior" unicode="&#x2079;" horiz-adv-x="360" 
d="M167 574q-61 0 -96 36t-35 100q0 65 36.5 102.5t104.5 37.5q82 0 114.5 -54.5t32.5 -158.5q0 -108 -34.5 -160.5t-118.5 -52.5q-122 0 -128 105h65q2 -50 64 -50q48 0 66.5 31.5t21.5 104.5q-31 -41 -93 -41zM173 629q84 0 84 80q0 41 -22 63.5t-62 22.5q-76 0 -76 -86
q0 -80 76 -80z" />
    <glyph glyph-name="uni207A" unicode="&#x207a;" horiz-adv-x="267" 
d="M105 625v88h55v-88h89v-55h-89v-88h-55v88h-87v55h87z" />
    <glyph glyph-name="uni207B" unicode="&#x207b;" horiz-adv-x="267" 
d="M249 625v-55h-231v55h231z" />
    <glyph glyph-name="uni207C" unicode="&#x207c;" horiz-adv-x="267" 
d="M249 680v-55h-231v55h231zM249 570v-55h-231v55h231z" />
    <glyph glyph-name="parenleftsuperior" unicode="&#x207d;" horiz-adv-x="174" 
d="M147 413l-43 -19q-68 123 -68 247t68 247l43 -19q-46 -114 -46 -228t46 -228z" />
    <glyph glyph-name="parenrightsuperior" unicode="&#x207e;" horiz-adv-x="174" 
d="M70 394l-43 19q46 114 46 228t-46 228l43 19q68 -123 68 -247t-68 -247z" />
    <glyph glyph-name="nsuperior" unicode="&#x207f;" horiz-adv-x="342" 
d="M180 695q-60 0 -88 -36v-228h-61v313h49l9 -49q41 55 107 55q115 0 115 -150v-169h-61v169q0 53 -15 74t-55 21z" />
    <glyph glyph-name="zeroinferior" unicode="&#x2080;" horiz-adv-x="372" 
d="M186 -200q-81 0 -115.5 52.5t-34.5 157.5q0 106 34.5 161t115.5 55t115.5 -55t34.5 -161q0 -105 -34.5 -157.5t-115.5 -52.5zM186 171q-49 0 -67 -38.5t-18 -122.5q0 -83 17.5 -119t67.5 -36t67.5 36t17.5 119q0 84 -18 122.5t-67 38.5z" />
    <glyph glyph-name="oneinferior" unicode="&#x2081;" horiz-adv-x="224" 
d="M113 -195v329l-45 -50l-41 40l86 95h62v-414h-62z" />
    <glyph glyph-name="twoinferior" unicode="&#x2082;" horiz-adv-x="339" 
d="M303 -140v-55h-267v55q114 99 157 151.5t43 101.5q0 31 -15.5 43.5t-48.5 12.5q-65 0 -69 -50h-62q7 105 132 105q128 0 128 -103q0 -26 -9 -52.5t-18 -44.5t-34 -46.5t-34.5 -38.5t-43.5 -42t-39 -37h180z" />
    <glyph glyph-name="threeinferior" unicode="&#x2083;" horiz-adv-x="352" 
d="M134 48h39q30 0 46 19.5t16 49.5q0 54 -64 54q-65 0 -69 -50h-62q8 105 132 105q128 0 128 -104q0 -78 -55 -100q71 -21 71 -98q0 -60 -40 -92t-110 -32q-123 0 -130 105h65q3 -30 20 -40t44 -10q86 0 86 72q0 66 -78 66h-39v55z" />
    <glyph glyph-name="fourinferior" unicode="&#x2084;" horiz-adv-x="355" 
d="M273 -47h46v-55h-46v-93h-62v93h-184v58l190 263h56v-266zM211 124l-117 -171h117v171z" />
    <glyph glyph-name="fiveinferior" unicode="&#x2085;" horiz-adv-x="352" 
d="M188 76q58 0 93 -36t35 -98q0 -65 -40 -103.5t-113 -38.5q-121 0 -127 105h62q4 -50 68 -50q85 0 85 86q0 80 -75 80q-53 0 -74 -35h-55l23 234h219v-55h-169l-11 -120q33 31 79 31z" />
    <glyph glyph-name="sixinferior" unicode="&#x2086;" horiz-adv-x="360" 
d="M193 76q61 0 96 -36t35 -100q0 -65 -36.5 -102.5t-104.5 -37.5q-82 0 -114.5 54.5t-32.5 158.5q0 108 34.5 160.5t118.5 52.5q122 0 128 -105h-65q-2 50 -64 50q-49 0 -67.5 -32.5t-20.5 -107.5q28 45 93 45zM186 21q-80 0 -80 -80q0 -40 21 -63t59 -23q73 0 73 86
q0 80 -73 80z" />
    <glyph glyph-name="seveninferior" unicode="&#x2087;" horiz-adv-x="319" 
d="M301 219v-50q-129 -137 -162 -364h-65q27 207 155 359h-211v55h283z" />
    <glyph glyph-name="eightinferior" unicode="&#x2088;" horiz-adv-x="346" 
d="M49 119q0 53 33.5 80t90.5 27t90.5 -27t33.5 -80q0 -69 -56 -92q74 -32 74 -107q0 -59 -37.5 -89.5t-104.5 -30.5t-104.5 30.5t-37.5 89.5q0 75 74 107q-56 23 -56 92zM234 112q0 59 -61 59t-61 -59q0 -63 61 -63t61 63zM96 -75q0 -70 77 -70t77 70t-77 70t-77 -70z" />
    <glyph glyph-name="nineinferior" unicode="&#x2089;" horiz-adv-x="360" 
d="M167 -50q-61 0 -96 36t-35 100q0 65 36.5 102.5t104.5 37.5q82 0 114.5 -54.5t32.5 -158.5q0 -108 -34.5 -160.5t-118.5 -52.5q-122 0 -128 105h65q2 -50 64 -50q48 0 66.5 31.5t21.5 105.5q-30 -42 -93 -42zM173 5q84 0 84 80q0 41 -22 63.5t-62 22.5q-76 0 -76 -86
q0 -80 76 -80z" />
    <glyph glyph-name="uni208A" unicode="&#x208a;" horiz-adv-x="267" 
d="M105 0v88h55v-88h89v-55h-89v-88h-55v88h-87v55h87z" />
    <glyph glyph-name="uni208B" unicode="&#x208b;" horiz-adv-x="267" 
d="M249 0v-60h-231v60h231z" />
    <glyph glyph-name="uni208C" unicode="&#x208c;" horiz-adv-x="267" 
d="M249 55v-55h-231v55h231zM249 -55v-55h-231v55h231z" />
    <glyph glyph-name="uni208D" unicode="&#x208d;" horiz-adv-x="174" 
d="M147 -242l-43 -19q-68 123 -68 247t68 247l43 -19q-46 -114 -46 -228t46 -228z" />
    <glyph glyph-name="uni208E" unicode="&#x208e;" horiz-adv-x="174" 
d="M70 -261l-43 19q46 114 46 228t-46 228l43 19q68 -123 68 -247t-68 -247z" />
    <glyph glyph-name="franc" unicode="&#x20a3;" horiz-adv-x="575" 
d="M84 210v490h455v-80h-365v-230h325v-80h-325v-100h85v-60h-85v-150h-90v150h-70v60h70z" />
    <glyph glyph-name="lira" unicode="&#x20a4;" horiz-adv-x="587" 
d="M406 567v-65l-185 -55v-50l185 55v-65l-185 -55v-247q48 0 89 12t76 37.5t56.5 70.5t23.5 105h85q-4 -153 -94.5 -231.5t-235.5 -78.5h-90v306l-95 -28v65l95 28v50l-95 -28v65l95 28v214h90v-188z" />
    <glyph glyph-name="peseta" unicode="&#x20a7;" horiz-adv-x="1501" 
d="M156 0h-90v700h275q245 0 245 -220t-245 -220h-185v-260zM816 450v-302q0 -44 15 -61t43 -17q47 0 87 18v-83q-41 -15 -90 -15q-67 0 -103.5 36.5t-36.5 106.5v317h-75v75h75v100l85 15v-115h130v-75h-130zM156 340h175q79 0 119.5 29t40.5 111t-40.5 111t-119.5 29h-175
v-280zM1121 384q0 -49 74 -66q18 -4 76 -12q37 -5 64 -12.5t59 -23.5t49.5 -46.5t17.5 -72.5q0 -80 -60.5 -120.5t-157.5 -40.5q-93 0 -152.5 38t-59.5 117h90q0 -39 34.5 -57t88.5 -18q57 0 94.5 19t37.5 59q0 11 -3 20.5t-9.5 16.5t-13 12.5t-19 10.5t-21 8t-25 6
t-25.5 4.5l-27.5 4.5t-26.5 4q-34 6 -57.5 13t-52.5 22.5t-44.5 44t-15.5 69.5q0 77 55.5 114t150.5 37t152 -37.5t57 -117.5h-90q0 75 -119 75q-55 0 -88 -17.5t-33 -53.5z" />
    <glyph glyph-name="Euro" unicode="&#x20ac;" horiz-adv-x="603" 
d="M44 460h62q18 125 76.5 187.5t172.5 62.5q89 0 146.5 -38t57.5 -117h-90q0 39 -33 57t-81 18q-71 0 -106.5 -41t-47.5 -129h248v-60h-254q-1 -19 -1 -60q0 -38 1 -55h254v-60h-248q12 -81 46.5 -118t105.5 -37q50 0 83 18t33 57h90q0 -79 -57.5 -117t-149.5 -38
q-114 0 -172 58t-74 177h-62v60h56q-1 17 -1 55q0 40 1 60h-56v60z" />
    <glyph glyph-name="uni2105" unicode="&#x2105;" horiz-adv-x="866" 
d="M266 0l240 720h90l-235 -720h-95zM197 710q58 0 100 -32.5t47 -87.5h-81q-4 44 -63 44q-43 0 -57.5 -23.5t-14.5 -70.5t14.5 -70.5t57.5 -23.5q59 0 63 44h81q-5 -55 -47 -87.5t-100 -32.5q-68 0 -110.5 46t-42.5 124t42.5 124t110.5 46zM670 330q68 0 110 -45.5
t42 -124.5q0 -78 -42 -124t-110 -46t-110.5 46t-42.5 124t42.5 124t110.5 46zM670 66q40 0 53.5 24t13.5 70t-13 70t-54 24t-55 -24t-14 -70q0 -45 14 -69.5t55 -24.5z" />
    <glyph glyph-name="uni2113" unicode="&#x2113;" horiz-adv-x="394" 
d="M307 88v-83q-41 -15 -90 -15q-67 0 -103.5 36.5t-36.5 106.5v93q-16 -1 -50 -1v80q34 0 50 1v117q0 70 6 119.5t21.5 92t47 64t77.5 21.5q66 -1 102 -56.5t36 -146.5q0 -107 -52 -179.5t-153 -97.5v-92q0 -44 15 -61t43 -17q47 0 87 18zM162 423v-102q62 19 91 66.5
t29 132.5q0 120 -54 120q-38 0 -52 -56t-14 -161z" />
    <glyph glyph-name="uni2116" unicode="&#x2116;" horiz-adv-x="1048" 
d="M836 320q-77 0 -126 53.5t-49 141.5q0 89 48.5 142t126.5 53t127 -53t49 -142q0 -88 -49 -141.5t-127 -53.5zM506 0l-350 568v-568h-90v700h105l350 -582v582h90v-700h-105zM836 635q-90 0 -90 -120t90 -120q91 0 91 120t-91 120zM981 255v-70h-289v70h289z" />
    <glyph glyph-name="uni2117" unicode="&#x2117;" horiz-adv-x="758" 
d="M14 355q0 151 107 258t258 107t258 -107t107 -258t-107 -258t-258 -107t-258 107t-107 258zM39 355q0 -140 100 -240t240 -100t240 100t100 240t-100 240t-240 100t-240 -100t-100 -240zM282 131h-58v449h177q157 0 157 -141t-157 -141h-119v-167zM282 348h113
q50 0 76 19.5t26 71.5t-26 70.5t-76 18.5h-113v-180z" />
    <glyph glyph-name="trademark" unicode="&#x2122;" horiz-adv-x="850" 
d="M200 665v-365h-65v365h-126v55h318v-55h-127zM432 300h-65v420h65l149 -329l151 329h65v-420h-65v289l-126 -280h-49l-125 280v-289z" />
    <glyph glyph-name="Omega" unicode="&#x2126;" horiz-adv-x="766" 
d="M722 383q0 -95 -38 -168t-120 -135h153v-80h-270v75q180 121 180 307q0 113 -64.5 178t-179.5 65t-179.5 -65t-64.5 -178q0 -186 180 -307v-75h-270v80h153q-82 62 -120 135t-38 168q0 157 94.5 242t244.5 85t244.5 -85t94.5 -242z" />
    <glyph glyph-name="estimated" unicode="&#x212e;" horiz-adv-x="711" 
d="M553 173l56 -55q-42 -61 -108 -94.5t-146 -33.5q-141 0 -230 97t-89 258q0 162 89 258.5t230 96.5t230.5 -97t89.5 -258v-35h-509v-139q58 -96 191 -96q67 0 112.5 24.5t83.5 73.5zM357 615q-133 0 -191 -96v-129h374v144q-61 81 -183 81z" />
    <glyph glyph-name="uni2153" unicode="&#x2153;" horiz-adv-x="703" 
d="M149 0l240 720h65l-235 -720h-70zM113 286v329l-45 -50l-41 40l86 95h62v-414h-62zM485 241h39q30 0 46 19.5t16 49.5q0 54 -64 54q-65 0 -69 -50h-62q7 105 132 105q128 0 128 -104q0 -78 -55 -100q71 -21 71 -98q0 -60 -40 -92t-110 -32q-123 0 -130 105h65
q3 -30 20 -40t44 -10q86 0 86 72q0 66 -78 66h-39v55z" />
    <glyph glyph-name="uni2154" unicode="&#x2154;" horiz-adv-x="802" 
d="M248 0l240 720h65l-235 -720h-70zM36 286v55q114 99 157 151.5t43 101.5q0 31 -15.5 43.5t-48.5 12.5q-65 0 -69 -50h-62q7 105 132 105q128 0 128 -103q0 -26 -9 -52.5t-18 -44.5t-34 -46.5t-34.5 -38.5t-43.5 -42t-39 -37h180v-55h-267zM584 241h39q30 0 46 19.5
t16 49.5q0 54 -64 54q-65 0 -69 -50h-62q8 105 132 105q128 0 128 -104q0 -78 -55 -100q71 -21 71 -98q0 -60 -40 -92t-110 -32q-123 0 -130 105h65q3 -30 20 -40t44 -10q86 0 86 72q0 66 -78 66h-39v55z" />
    <glyph glyph-name="oneeighth" unicode="&#x215b;" horiz-adv-x="703" 
d="M149 0l240 720h65l-235 -720h-70zM113 286v329l-45 -50l-41 40l86 95h62v-414h-62zM401 313q0 53 33.5 80t90.5 27t90.5 -27t33.5 -80q0 -69 -56 -92q74 -32 74 -107q0 -59 -37.5 -89.5t-104.5 -30.5t-104.5 30.5t-37.5 89.5q0 75 74 107q-56 23 -56 92zM586 306
q0 59 -61 59t-61 -59q0 -63 61 -63t61 63zM448 119q0 -70 77 -70t77 70t-77 70t-77 -70z" />
    <glyph glyph-name="threeeighths" unicode="&#x215c;" horiz-adv-x="810" 
d="M256 0l240 720h65l-235 -720h-70zM134 528h39q30 0 46 19.5t16 49.5q0 54 -64 54q-65 0 -69 -50h-62q8 105 132 105q128 0 128 -104q0 -78 -55 -100q71 -21 71 -98q0 -60 -40 -92t-110 -32q-123 0 -130 105h65q3 -30 20 -40t44 -10q86 0 86 72q0 66 -78 66h-39v55z
M508 313q0 53 33.5 80t90.5 27t90.5 -27t33.5 -80q0 -69 -56 -92q74 -32 74 -107q0 -59 -37.5 -89.5t-104.5 -30.5t-104.5 30.5t-37.5 89.5q0 75 74 107q-56 23 -56 92zM693 306q0 59 -61 59t-61 -59q0 -63 61 -63t61 63zM555 119q0 -70 77 -70t77 70t-77 70t-77 -70z" />
    <glyph glyph-name="fiveeighths" unicode="&#x215d;" horiz-adv-x="803" 
d="M249 0l240 720h65l-235 -720h-70zM188 556q58 0 93 -36t35 -98q0 -65 -40 -103.5t-113 -38.5q-121 0 -127 105h62q4 -50 68 -50q85 0 85 86q0 80 -75 80q-53 0 -74 -35h-55l23 234h219v-55h-169l-11 -120q33 31 79 31zM501 313q0 53 33.5 80t90.5 27t90.5 -27t33.5 -80
q0 -69 -56 -92q74 -32 74 -107q0 -59 -37.5 -89.5t-104.5 -30.5t-104.5 30.5t-37.5 89.5q0 75 74 107q-56 23 -56 92zM686 306q0 59 -61 59t-61 -59q0 -63 61 -63t61 63zM548 119q0 -70 77 -70t77 70t-77 70t-77 -70z" />
    <glyph glyph-name="seveneighths" unicode="&#x215e;" horiz-adv-x="706" 
d="M152 0l240 720h65l-235 -720h-70zM301 700v-50q-129 -137 -162 -364h-65q27 207 155 359h-211v55h283zM404 313q0 53 33.5 80t90.5 27t90.5 -27t33.5 -80q0 -69 -56 -92q74 -32 74 -107q0 -59 -37.5 -89.5t-104.5 -30.5t-104.5 30.5t-37.5 89.5q0 75 74 107
q-56 23 -56 92zM589 306q0 59 -61 59t-61 -59q0 -63 61 -63t61 63zM451 119q0 -70 77 -70t77 70t-77 70t-77 -70z" />
    <glyph glyph-name="partialdiff" unicode="&#x2202;" horiz-adv-x="568" 
d="M262 450q111 0 171 -70q-1 37 -5 66t-11.5 60.5t-21.5 54t-34 41.5t-49.5 28.5t-67.5 9.5q-73 0 -159 -31l-27 74q109 37 192 37q67 1 118 -22.5t80 -60.5t46.5 -90t23.5 -102.5t6 -108.5q0 -80 -11.5 -140t-38.5 -108t-76 -73t-119 -25q-113 0 -174 63t-61 171
q0 106 58 166t160 60zM275 370q-70 0 -105.5 -39.5t-35.5 -108.5q0 -66 33.5 -109t104.5 -43q84 1 119 55.5t41 163.5q-20 38 -63 59.5t-94 21.5z" />
    <glyph glyph-name="Delta" unicode="&#x2206;" horiz-adv-x="653" 
d="M9 0l273 700h89l273 -700h-635zM518 80l-192 503l-192 -503h384z" />
    <glyph glyph-name="product" unicode="&#x220f;" horiz-adv-x="597" 
d="M446 -195v815h-290v-815h-90v895h465v-895h-85z" />
    <glyph glyph-name="summation" unicode="&#x2211;" horiz-adv-x="597" 
d="M531 700v-80h-365l242 -370l-242 -365h365v-80h-465v80l242 365l-242 370v80h465z" />
    <glyph glyph-name="minus" unicode="&#x2212;" horiz-adv-x="436" 
d="M418 365v-80h-400v80h400z" />
    <glyph glyph-name="uni2215" unicode="&#x2215;" horiz-adv-x="319" 
d="M-5 0l240 720h90l-235 -720h-95z" />
    <glyph glyph-name="uni2219" unicode="&#x2219;" horiz-adv-x="169" 
d="M142 367q0 -55 -58 -55q-57 0 -57 55t57 55q58 0 58 -55z" />
    <glyph glyph-name="radical" unicode="&#x221a;" horiz-adv-x="574" 
d="M170 455l122 -347l174 692h90l-201 -810h-109l-140 385h-79v80h143z" />
    <glyph glyph-name="infinity" unicode="&#x221e;" horiz-adv-x="776" 
d="M388 207q-3 -3 -23.5 -21.5t-26 -23l-23.5 -19t-28 -19l-26.5 -12.5t-32 -10.5t-32.5 -2.5q-66 0 -109 43.5t-43 109.5q0 65 42 110.5t108 45.5q38 0 75.5 -19t58.5 -37.5t60 -57.5q39 39 60 57.5t58.5 37.5t75.5 19q66 0 108 -45.5t42 -110.5q0 -66 -43 -109.5
t-109 -43.5q-17 0 -32.5 2.5t-32 10.5l-26.5 12.5t-28 19l-23.5 19t-26 23t-23.5 21.5zM345 251q-85 78 -149 78q-62 0 -62 -77q0 -73 64 -73q75 0 147 72zM431 251q72 -72 147 -72q64 0 64 73q0 77 -62 77q-64 0 -149 -78z" />
    <glyph glyph-name="integral" unicode="&#x222b;" horiz-adv-x="403" 
d="M389 875v-83q-40 18 -87 18q-28 0 -43 -17t-15 -61v-789q0 -70 -36.5 -106.5t-103.5 -36.5q-49 0 -90 15v83q40 -18 87 -18q28 0 43 17t15 61v789q0 70 36.5 106.5t103.5 36.5q49 0 90 -15z" />
    <glyph glyph-name="approxequal" unicode="&#x2248;" horiz-adv-x="424" 
d="M293 436q40 0 39 44h65q0 -54 -32 -84t-77 -30q-31 0 -82.5 22t-74.5 22q-40 0 -39 -44h-65q0 54 32 84t77 30q31 0 82.5 -22t74.5 -22zM293 261q40 0 39 44h65q0 -54 -32 -84t-77 -30q-31 0 -82.5 22t-74.5 22q-40 0 -39 -44h-65q0 54 32 84t77 30q31 0 82.5 -22
t74.5 -22z" />
    <glyph glyph-name="notequal" unicode="&#x2260;" horiz-adv-x="476" 
d="M215 455l31 91h90l-30 -91h152v-80h-177l-31 -95h208v-80h-233l-11 -35h-95l11 35h-112v80h139l32 95h-171v80h197z" />
    <glyph glyph-name="lessequal" unicode="&#x2264;" horiz-adv-x="411" 
d="M393 528v-100l-293 -110l293 -110v-100l-375 174v72zM393 80v-80h-375v80h375z" />
    <glyph glyph-name="greaterequal" unicode="&#x2265;" horiz-adv-x="411" 
d="M18 108v100l292 110l-292 110v100l375 -174v-72zM18 0v80h375v-80h-375z" />
    <glyph glyph-name="lozenge" unicode="&#x25ca;" horiz-adv-x="452" 
d="M263 750l172 -396l-172 -395h-79l-172 395l172 396h79zM223 663l-126 -309l126 -309l127 309z" />
    <glyph glyph-name="_0008" horiz-adv-x="0" 
 />
    <glyph glyph-name="litre" horiz-adv-x="394" 
d="M307 88v-83q-41 -15 -90 -15q-67 0 -103.5 36.5t-36.5 106.5v93q-16 -1 -50 -1v80q34 0 50 1v117q0 70 6 119.5t21.5 92t47 64t77.5 21.5q66 -1 102 -56.5t36 -146.5q0 -107 -52 -179.5t-153 -97.5v-92q0 -44 15 -61t43 -17q47 0 87 18zM162 423v-102q62 19 91 66.5
t29 132.5q0 120 -54 120q-38 0 -52 -56t-14 -161z" />
    <glyph glyph-name="quotedblright.alt" horiz-adv-x="331" 
d="M84 775l85 5q-20 -98 -82 -240l-51 5q33 95 48 230zM228 775l85 5q-20 -98 -82 -240l-51 5q33 95 48 230z" />
    <glyph glyph-name="quotedbl.left" horiz-adv-x="331" 
d="M121 545l-85 -5q20 98 82 240l51 -5q-33 -95 -48 -230zM265 545l-85 -5q20 98 82 240l51 -5q-33 -95 -48 -230z" />
    </font>
</defs>
</svg>
