


<svg  id="cheboksary" xmlns="http://www.w3.org/2000/svg"
     viewBox="0 0 1437.2 770.75"><defs>
    <style>.cls-1{fill:#7c2d0c;}</style></defs>
    <title>cheboksary</title><path class="cheboksary" d="M278.08,404.41c.07.08.24.28.31.38v0c.2,1.61-.14,2.64-1,3.06-.69.32-1.58.76-2.49,1.21l-.16.08c-1.38.68-3.27,1.62-3.66,1.74l-.15,0-.16.06a5.73,5.73,0,0,1-.06-.68,2.66,2.66,0,0,0-.77-2.16,1.33,1.33,0,0,0-.8-.25,1.69,1.69,0,0,0-.52.08l-.73.22-.1,0a6.56,6.56,0,0,1-2,.43c-.39,0-.85,0-1.38,0,0-.31,0-.6,0-.84a16.86,16.86,0,0,0-2.46-5.9l0,0a27.16,27.16,0,0,0,1.14-4.48,8.15,8.15,0,0,0-.82-2.42l0-.06a3.27,3.27,0,0,1,1-.32c.28,0,.69-.07,1.16-.1A15.39,15.39,0,0,0,268,394a2.23,2.23,0,0,1,.43-.1c.8-.1,1.31-.37,2.27-1.7,1.23-1.7,1.87-2.2,2.68-2.57a6,6,0,0,1,.68-.26,3.61,3.61,0,0,0,2.54-2c.11-.27.22-.54.36-.85a18.36,18.36,0,0,0,.8-2.11c2.23.29,4.62.64,5,.76a8.36,8.36,0,0,0,1.3.2c.7.09,2.82.33,3.11.72.17.22.35.42.52.6.51.54.59.63.27,1.28a7.22,7.22,0,0,0-.33,5.7,12.77,12.77,0,0,0,2.61,3.21c.27.27.5.49.63.65a14,14,0,0,1,1.12,2.06c-2.07-.29-5.37-.73-6.25-.73h-.91c-1.62,0-3.83-.1-4.93.42-1.84.88-2.81,1.89-2.88,3A3.2,3.2,0,0,0,278.08,404.41Z"/></svg>