


<svg id="map" xmlns="http://www.w3.org/2000/svg"
     viewBox="0 0 1437.2 770.75"><defs>
    <style>.cls-1{fill:#acb9bf;}</style></defs>
    <title>chita</title><path class="cls-1" d="M1045.78,616.77c-1,1.07-4.13,4-5.28,4.57a33,33,0,0,0-5,3.79c-.79.66-1.47,1.23-1.83,1.49l-.13.1c-1.45,1-3.89,2.81-4.16,5.21a4.06,4.06,0,0,1-.4,1.17,2.85,2.85,0,0,0-.26,2.46,3.52,3.52,0,0,0,2.37,1.61c.77.23,1.52.42,2.23.61a17.76,17.76,0,0,1,3.43,1.1,17.26,17.26,0,0,1,1.78,5.22c0,.57,0,1.51,0,2.59v.09c0,1.5,0,3.56,0,4.29a29.47,29.47,0,0,1-2,5.85,24.8,24.8,0,0,0-1.36,5.05c-.06.29-.1.51-.1.54h0c-.25,1.19-3.45,18.37-1.9,20.39.37.48.72.9,1.12,1.35a9.54,9.54,0,0,1,1.54,2.13,8.51,8.51,0,0,1,.87,3.91,5.66,5.66,0,0,1-.82,2.84c-.26.11-.85.33-1.42.54a31.12,31.12,0,0,0-4,1.64,8.43,8.43,0,0,1-1,.44,7.12,7.12,0,0,0-4,3.08,19,19,0,0,0-2.11,5.9c0,.39-.05.73-.06,1.06a3.42,3.42,0,0,1-.21,1.37c-.1.2-.57.32-1.24.14-.3-.08-.55-.13-.79-.18a4,4,0,0,1-2.15-1.07c-1.7-1.35-5.64-3.94-5.9-4.1-.52-.31-8-2.87-10.68-2.87a18.41,18.41,0,0,0-7.3,1.8c-.33.19-.67.42-1.09.7a6.6,6.6,0,0,1-2.69,1.3,5.88,5.88,0,0,1-4.15-.85c-.38-.24-.74-.51-1.11-.78a12.7,12.7,0,0,0-4.59-2.4c-2.9-.74-7.85,1.63-8.68,2.79l-.2.28a5.18,5.18,0,0,1-2.52,2.19c-.43.16-.88.3-1.34.44a7.38,7.38,0,0,0-4.58,3,16.42,16.42,0,0,0-2.08,5.42l0,.18c-.06.25-.12.5-.19.75a6.55,6.55,0,0,1-2.53,3.8l-.53.27a26.43,26.43,0,0,1-6.24,2.52,13.73,13.73,0,0,1-2.17.14,8.82,8.82,0,0,0-5.18,1.21,19.14,19.14,0,0,0-3.1,2.69,16.93,16.93,0,0,1-1.89,1.74c-1.37,1-2.83,1.95-4.25,1.95a15.29,15.29,0,0,1-4-.71l-.74-.19a7.25,7.25,0,0,0-5.37.89,6.29,6.29,0,0,1-3.2,1.16,12.77,12.77,0,0,1-1.15-.66,8.31,8.31,0,0,0-3.7-1.51,35.64,35.64,0,0,0-5.56.56H912l-1,.14c-1.95.25-4.32.14-4.89-.22-.31-.21-1.45-1.26-2.46-2.19-3-2.75-5.38-4.89-6.76-5.43-.17-2.22-.26-3.74-.26-4.53a8.1,8.1,0,0,1,.82-3.68,4.24,4.24,0,0,0,.2-.49,5.28,5.28,0,0,1,1.27-.4,15.13,15.13,0,0,0,3.47-1.2,6.71,6.71,0,0,0,4-4.77,1.33,1.33,0,0,0-.27-1.48c-.68-.64-1.74-.22-3.36.41-.58.23-1.17.46-1.78.66-1.26.4-1.29.33-1.52-.17a6.58,6.58,0,0,0-.37-.68c-.14-.23.45-1,.81-1.49a9.77,9.77,0,0,0,.88-1.32,2.87,2.87,0,0,0,.17-2.38,1.82,1.82,0,0,1-.12-.58,5.91,5.91,0,0,1,2.13-2.43,2.1,2.1,0,0,0,.89-1.89,2,2,0,0,0-1.06-1.65l-.09-.05a2.4,2.4,0,0,1-1.53-1.87,1.54,1.54,0,0,0,.42,0,1.82,1.82,0,0,0,1.27-.73,2,2,0,0,0,.18-1.55c.21,0,.51-.07.7-.09a9.94,9.94,0,0,0,1-.14c.38-.07,1.18-.16,2.15-.28a29.65,29.65,0,0,0,6-1,10.82,10.82,0,0,0,2.61-2.48,16.21,16.21,0,0,1,2.82-2.78,4.68,4.68,0,0,1,4.47-.62c1.77.47,4,.68,4.87-.12a32.53,32.53,0,0,0,2.76-3.47c.54-.77,3.05-2,4.13-2.53l.5-.25c1.1-.55,1.7-2,2.24-3.21a9,9,0,0,1,.54-1.14c.48-.7,2-1.18,3.11-1.53a14.54,14.54,0,0,1,1.69-.36c1.3-.22,2.42-.41,3-1.09a7.46,7.46,0,0,0,1-1.77c.2-.43.42-.92.71-1.45.4-.74,2.85-.75,3.65-.75h.56a4,4,0,0,0,3.26-1.94c.5-.68,1-.7,2-.67l.51,0a7,7,0,0,0,3.65-1.14c1-.56,1.71-2.29,2.46-4.12a13.31,13.31,0,0,1,1.05-2.23,17.81,17.81,0,0,0,1.82-4c.15-.41.27-.74.35-.92.51-1.1-.23-3.45-1.1-4.17-.3-.24-1.22-.79-3.26-2-1.74-1-3.7-2.17-4.35-2.65s-.68-.93-.48-1.81l0-.15a7,7,0,0,1,3-3,32.2,32.2,0,0,0,3.8-2.49c.66-.47,1.34-1,2-1.41,2-1.32,3.68-4.81,4.25-6,.06-.12.09-.2.11-.24s.17-.29.35-.63c.58-1.06,1.93-3.54,2.64-4.59.42-.62,3-1.77,7.7-3a5.68,5.68,0,0,0,3.72-3c.31-.61.34-2.2.31-5.31v-.9c0-.93-.1-4.06-1.38-5.09a54.45,54.45,0,0,0-5.86-3.07,7.52,7.52,0,0,0-2.65-.24,13.88,13.88,0,0,1-2-.08c-.43-.31-2.1-3.43-3.28-6.32-1-2.49-6.81-18.46-6.91-19.47a4.5,4.5,0,0,1,.56-1.5c.58-.11,1.72-.34,2.54-.55s1.93-.64,3.16-1.1c.62-.24,1.26-.48,1.85-.69l.49-.18c1.62-.58,3.46-1.23,5.13-1.79,1.15-.38,1.85-.64,2.4-.84l.89-.31c1.46-.49,1-2.07.75-3.1a36.58,36.58,0,0,0-2-4.52,1.67,1.67,0,0,0-1.6-.73,3.37,3.37,0,0,1-1.2-.2c-.16-.06-.25-.1,0-1.05a3.34,3.34,0,0,0,.14-1c-.06-1.11-1.36-2.7-1.76-3.16a12.45,12.45,0,0,1-1.55-2.78c-.13-.31.75-1,1.21-1.33.21-.16.41-.3.58-.45a2.92,2.92,0,0,0,1-2.63v-.3a15.93,15.93,0,0,0-.46-2.61,20.77,20.77,0,0,1-.49-2.77,4,4,0,0,1,1.83-2.43,4.92,4.92,0,0,1,2.55-.22c.29,0,.55,0,.75,0a5,5,0,0,1,2.34,1.19,4,4,0,0,0,2.6,1.63c.76,0,1.5-.8,2.29-2.52a4.26,4.26,0,0,1,2.28.86c1,1,1.12,4.17,1.16,5.37,0,.52,0,1,0,1.36,0,1.39,0,2.58,1.39,3a4.72,4.72,0,0,0,3.85-.19c.33-.13.62-.27.89-.4s.49-.22.66-.28a2.07,2.07,0,0,1,.13.43,7.33,7.33,0,0,1,0,2.06,6.43,6.43,0,0,0,.65,4.12c1.37,2.16,3.12,3.34,5.08,3.42a2.26,2.26,0,0,1,1,1l.12.32a1.91,1.91,0,0,1,0,1.87,8.79,8.79,0,0,1-.6,1,3.1,3.1,0,0,0-.84,2.51,1.92,1.92,0,0,0,1.21,1.2,24.42,24.42,0,0,0,5.11,1.1,17.52,17.52,0,0,1,1.76.3,3.79,3.79,0,0,1,1.93,1.45.47.47,0,0,1,0,.43,3.36,3.36,0,0,1-.9,1.09,2.42,2.42,0,0,0-1.05,1.95v.12c0,1.16,0,3.11,2.16,3.49a5.3,5.3,0,0,0,4.2-1.13,2.87,2.87,0,0,0,.88-1.27c.32-.69.52-1.15,1.43-1.27,3.33-.44,4,0,4.06,0,.44.5.83.92.88,2.71,0,1.27.75,6.1,2.54,6.44a3.14,3.14,0,0,0,3.28-1.5,6.31,6.31,0,0,0,.49-1.45,9.08,9.08,0,0,1,.41-1.37h0a2.78,2.78,0,0,1,1.62.62c.3.56,2.38,6.23,2.26,7.23a29.47,29.47,0,0,1-1.79,5.35c-.12.24-.28.51-.46.82-.56.95-1.09,1.84-.87,2.65a1.29,1.29,0,0,0,.64.79,4.89,4.89,0,0,0,3.7,0,4.78,4.78,0,0,1,2.73-.24c.2.26.41.6.66,1a11.06,11.06,0,0,0,1.28,1.74c.19.19.61.65.52.82a5.91,5.91,0,0,1-.57.58,7.59,7.59,0,0,0-2.48,3.67c-.07.33-.15.68-.26,1.11-.44,1.87-1,4,.12,5.46a4,4,0,0,0,3.8,1.77l.56,0c1.09,0,1.73,0,2.25.83a40.19,40.19,0,0,1,2,6.33A17.54,17.54,0,0,0,1045.78,616.77Z"/></svg>