


<svg id="eburg" xmlns="http://www.w3.org/2000/svg" viewBox="0 0 1437.2 770.75"><title>eburg</title>
    <path fill="#7c2d0c" d="M467.21,471.4h0l-.35-.36a7.36,7.36,0,0,0-1.08,1.17c-.42.65-.43,2,0,4.55l0,.12a4.28,4.28,0,0,1-.57,2.29,5.31,5.31,0,0,1-2.29.4,12.14,12.14,0,0,0-1.43.12,13.11,13.11,0,0,0-1.53.38,8.91,8.91,0,0,1-3.38.53c-.63-.11-1.48-.34-2.42-.59a19.52,19.52,0,0,0-3.81-.78c-1.86,0-3.64,2.8-3.79,5.09-.11,1.74-2.14,6.64-2.46,7.14s-.89,1.26-1.32,1.85a18.11,18.11,0,0,0-2.48-.22,53.79,53.79,0,0,0-5.84.51,9.76,9.76,0,0,0-2.32.71,4.89,4.89,0,0,1-1.67.47c-.74,0-2.78-1.68-3.75-2.77a63.59,63.59,0,0,0-5.48-4.48,6.18,6.18,0,0,0-4-1.44H417a13.81,13.81,0,0,0-4.64,1.35l-2.34,1c-.38-.52-.86-1.1-1.33-1.67a23,23,0,0,1-2.09-2.79c-1.05-1.92-2.5-2.78-3.46-2.78a6.08,6.08,0,0,0-1.66.38l-.61.19-.3-.4a5.88,5.88,0,0,0-1.82-1.83c-1.49-.79-5.39-3.06-6.24-4l-1-1.21c-1.48-1.82-2.25-2.71-2.82-3a12.47,12.47,0,0,0-5.53-.26c-.94-.81-3.72-3.19-4.73-4.2a30.44,30.44,0,0,0-6.37-4.29,3.63,3.63,0,0,1-1.76-2.36,14,14,0,0,0-1.07-2.79,5,5,0,0,0,2-1.41,22.4,22.4,0,0,0,2.31-4.1c.23-.49.44-.93.62-1.26a6.48,6.48,0,0,1,1.25-1.92,1.36,1.36,0,0,1,1.11.54c.3.61,1.94,3.09,3.78,3.09,1.44,0,3.41,0,4.36-1.23l.33-.43a18.72,18.72,0,0,0,2.07-3,9.9,9.9,0,0,0,.48-2.09,10.6,10.6,0,0,1,.64-2.63,6.52,6.52,0,0,1,2.36-1.58h.4c.6,0,1.23,0,1.35.28s.17.41.27.7c.47,1.23.95,2.51,1.77,3a6,6,0,0,0,4.05.36c1-.32,3.24-1.56,3.66-3.12a38,38,0,0,0,.67-4.13l.05-.46c.13-.95.56-1,.75-1,1.59-.07,6.92-.35,8.26-1.09l.48-.26a2.83,2.83,0,0,0,2-2.55c.07-1.19.33-3.84.45-5.07.05-.46,1-1.45,1.49-1.93l.23-.25a3.29,3.29,0,0,0,.37-3.83,4.91,4.91,0,0,0-.9-1.19c-.66-.7-1-1.14-.81-1.82.09-.28.16-.55.23-.79.33-1.17.45-1.6,1.57-2.23a16.63,16.63,0,0,0,3-2.54,16.57,16.57,0,0,1,1.34-1.24c.14,0,.33,0,.57,0a7.3,7.3,0,0,0,2.87-.37c1-.38,3.53-2.52,7.46-6.1.69-.63,1.34-1.23,1.51-1.35a60.59,60.59,0,0,0,4.81-4.14,3.83,3.83,0,0,0,1.06-3.84l0-.12c-.06-.34.56-1.11.93-1.57.14-.19.29-.37.41-.54a5,5,0,0,0,.8-2.17,4.14,4.14,0,0,1,.09-.42,7.58,7.58,0,0,1,1.59-1.38,15.4,15.4,0,0,0,3.21-3.31,41.24,41.24,0,0,0,1.6-4.19c.62-.14,1.42-.34,2.22-.56.46,1.11,1.3,3.16,1.65,4a28.92,28.92,0,0,0,2.38,4.25c.52.82,1.91,1.22,3.4,1.65a10.6,10.6,0,0,1,1.41.46,7.27,7.27,0,0,1,.9,1.55,20,20,0,0,0,1.3,2.29,39.45,39.45,0,0,0,3.78,4.8c.45.47,1.13,2.72,1.8,10.75.05.53.08.9.1,1a11,11,0,0,1-3.9,4.38,2.53,2.53,0,0,0-1.39,1.66,2.22,2.22,0,0,0,.78,1.78,2.23,2.23,0,0,1,.57.85,5.76,5.76,0,0,1-.33,2.46,12.37,12.37,0,0,0-.46,2.35,4,4,0,0,0,1.49,3.19,9.14,9.14,0,0,1,1.06,1.27c.55.82.29,1.48-.54,3.25-.26.56-.56,1.18-.85,1.91a26.87,26.87,0,0,1-2.05,4,19.45,19.45,0,0,0-1.23,2.27,2.71,2.71,0,0,0,.06,2.42,4.16,4.16,0,0,0,2.6,2,12.49,12.49,0,0,1,3.84,2.77c.72.79,1.41,4.7.77,6.46a12.47,12.47,0,0,0-.74,4.44l0,.53c-.11,3.26.07,5.25.58,6.27.18.37.37.67.53,1,.37.63.53.92.49,1.33s-.9,1.15-1.31,1.54h0Z"/></svg>