<?xml version="1.0" encoding="utf-8"?>
<!-- Generator: Adobe Illustrator 23.0.0, SVG Export Plug-In . SVG Version: 6.00 Build 0)  -->
<svg version="1.1" id="Слой_2" xmlns="http://www.w3.org/2000/svg" xmlns:xlink="http://www.w3.org/1999/xlink" x="0px" y="0px"
	 viewBox="0 0 1437.2 770.8" style="enable-background:new 0 0 1437.2 770.8;" xml:space="preserve">
<style type="text/css">
	.st0{fill:#2D261B;}
</style>
<image style="overflow:visible;enable-background:new    ;" width="17" height="14" id="Vector_Smart_Object_copy_11" xlink:href="DB888D1F.png"  transform="matrix(1.2353 0 0 1.2353 704.6456 568.8375)">
</image>
<g>
	<g>
		<path class="st0" d="M662.1,591.9h2.1v4.8h2.9l4.4,7h-2.2l-3.4-5.3h-1.6v5.3h-2.1V591.9z M665.6,597l1.8-3.2
			c0.9-1.7,1.7-2.2,2.9-2.2c0.3,0,0.6,0,0.8,0.1l-0.3,1.9c-0.2-0.1-0.4-0.1-0.5-0.1c-0.5,0-0.8,0.2-1.4,1.3l-1.4,2.6L665.6,597z"/>
		<path class="st0" d="M672.9,591.9h3.7c2.6,0,4.6,0.9,4.6,3.6c0,2.6-1.9,3.8-4.5,3.8H675v4.3h-2.1V591.9z M676.5,597.6
			c1.8,0,2.6-0.7,2.6-2.1c0-1.5-0.9-2-2.7-2H675v4.1H676.5z"/>
		<path class="st0" d="M685.7,591.9h2.4l3.8,11.8h-2.2l-1.8-6.3c-0.4-1.2-0.7-2.6-1.1-3.9h-0.1c-0.3,1.3-0.7,2.6-1,3.9l-1.8,6.3
			h-2.1L685.7,591.9z M684.1,598.8h5.5v1.6h-5.5V598.8z"/>
		<path class="st0" d="M692.8,597.8c0-3.9,2.4-6.1,5.4-6.1c1.5,0,2.7,0.7,3.4,1.5l-1.1,1.3c-0.6-0.6-1.3-1-2.2-1
			c-1.9,0-3.3,1.6-3.3,4.3c0,2.7,1.3,4.3,3.2,4.3c1,0,1.9-0.5,2.5-1.2l1.1,1.3c-1,1.1-2.2,1.7-3.7,1.7
			C695.2,603.8,692.8,601.7,692.8,597.8z"/>
		<path class="st0" d="M703.8,591.9h2.1v4.7h4.8v-4.7h2.1v11.8h-2.1v-5.2h-4.8v5.2h-2.1V591.9z"/>
		<path class="st0" d="M715.1,597.7c0-3.8,2.1-6.1,5.2-6.1c3.1,0,5.2,2.3,5.2,6.1c0,3.8-2.1,6.2-5.2,6.2
			C717.2,603.8,715.1,601.5,715.1,597.7z M723.3,597.7c0-2.6-1.2-4.2-3-4.2c-1.9,0-3,1.6-3,4.2s1.2,4.3,3,4.3
			C722.1,602,723.3,600.3,723.3,597.7z"/>
		<path class="st0" d="M730.7,597.4l1.5,1l-3.1,5.2h-2.4L730.7,597.4z M733.6,599h-2c-2.3,0-4.2-1.1-4.2-3.7c0-2.6,1.9-3.5,4.3-3.5
			h4v11.8h-2.1V599z M733.6,597.4v-3.8h-1.7c-1.6,0-2.5,0.5-2.5,1.8c0,1.3,0.9,2,2.5,2H733.6z"/>
		<path class="st0" d="M738.7,591.9h3.7c2.6,0,4.6,0.9,4.6,3.6c0,2.6-1.9,3.8-4.5,3.8h-1.7v4.3h-2.1V591.9z M742.3,597.6
			c1.8,0,2.6-0.7,2.6-2.1c0-1.5-0.9-2-2.7-2h-1.4v4.1H742.3z"/>
		<path class="st0" d="M748.5,597.8c0-3.9,2.4-6.1,5.4-6.1c1.5,0,2.7,0.7,3.4,1.5l-1.1,1.3c-0.6-0.6-1.3-1-2.2-1
			c-1.9,0-3.3,1.6-3.3,4.3c0,2.7,1.3,4.3,3.2,4.3c1,0,1.9-0.5,2.5-1.2l1.1,1.3c-1,1.1-2.2,1.7-3.7,1.7
			C750.9,603.8,748.5,601.7,748.5,597.8z"/>
		<path class="st0" d="M759.5,591.9h2.1v4.8h2.9l4.4,7h-2.2l-3.4-5.3h-1.6v5.3h-2.1V591.9z M763,597l1.8-3.2
			c0.9-1.7,1.7-2.2,2.9-2.2c0.3,0,0.6,0,0.8,0.1l-0.3,1.9c-0.2-0.1-0.4-0.1-0.5-0.1c-0.5,0-0.8,0.2-1.4,1.3l-1.4,2.6L763,597z"/>
	</g>
</g>
</svg>
