<svg id="map" xmlns="http://www.w3.org/2000/svg" viewBox="0 0 1437.2 770.75"><defs><style>.cls-1{fill:#acb9bf;}</style></defs><title>novosib</title><path class="cls-1" d="M537.89,603.4a5.52,5.52,0,0,0-1.22-.5l-.47-.16c-.05-.54-.06-1.14-.08-1.78a17.1,17.1,0,0,0-.09-1.85,6,6,0,0,0-.25-1.06.24.24,0,0,0,0-.08c.8.06,2,.2,3.1.39l.31.06.07,0a3.29,3.29,0,0,0,2.66-.13,1.69,1.69,0,0,0,.71-1.19l0-.1.39-.15c1.65-.62,1.64-2.66,1.64-3.88v-.11a2.15,2.15,0,0,1,.21-.41,1.54,1.54,0,0,0,0-1.87,1.76,1.76,0,0,0-2.1-.18,7.11,7.11,0,0,0-2.25,1.48l-.08.07-.2.06a12.08,12.08,0,0,1-2.39.34,14.28,14.28,0,0,1-1.4-.32c-1.68-.43-2.3-.56-2.88-.27a4.57,4.57,0,0,0-.6.4,5.41,5.41,0,0,1-1.51.86,16.91,16.91,0,0,1-2.61-.07c-.21-3.4-.31-5.57-.26-6.12a8.07,8.07,0,0,0,0-1.1c0-1,0-1.32.5-1.58,1.12-.61,3.26-2.25,3.34-4.1.05-1.08-.76-3.13-1.83-5.72-.21-.49-.39-.94-.53-1.3s-.27-.66-.41-1c-.52-1.22-1-2.38-.62-3.1a5.76,5.76,0,0,1,1.35-1.26c1.05-.8,2.23-1.7,1.9-3a4.91,4.91,0,0,0-1.28-1.93c-.09-.09-.26-.28-.41-.46a6.28,6.28,0,0,1,1.13,0,2.67,2.67,0,0,0,2.83-1.49,9.74,9.74,0,0,0,1-2.28,3.34,3.34,0,0,1,.44-1,7.34,7.34,0,0,0,.75-.16,4.88,4.88,0,0,1,3.54.17c.54.27,1,.51,1.3.71a2.9,2.9,0,0,0,3.17.37,5.28,5.28,0,0,0,2.84-3.12,9.39,9.39,0,0,0,.1-4.39,6.36,6.36,0,0,0-.57-1.49l-.2-.41h0l.67-.16c1.5-.35,3.76-.88,4.21-3.46a25.08,25.08,0,0,0,0-5.17l9.13,2.2c.05,0,5.33,2.46,8.88,3.89,2.75,1.1,5.33,3.88,6.3,4.93.43.45.5.54.67.58a48.86,48.86,0,0,1,5.75,3.71c.89.78,2.05,4.86,2.6,7.5a.77.77,0,0,0,.16.34,7.67,7.67,0,0,0,3.85,2.55,5.85,5.85,0,0,0,3.65-.42,18.68,18.68,0,0,1,3.06-.84c.77-.13,1.46-.25,1.74-.27a4.1,4.1,0,0,0,.81,1.19c1,1,1.47,3.64,1.47,5.73s1.3,3.45,3.67,4.14a2.36,2.36,0,0,0,2.72-.67,1.51,1.51,0,0,1,.82-.52,11.22,11.22,0,0,1,3.24.07c.67.08,1.37.15,2,.17a6.39,6.39,0,0,0,4.2-2c.29-.25.58-.5.89-.73a1.31,1.31,0,0,1,.15-.12,5.92,5.92,0,0,0,.38.87c.56,1,.91,1.73.24,2.75-.41.64-2.06,3.41-1.94,4.4,0,.11.08.4.18.81a19.46,19.46,0,0,1,.7,4.55,3.74,3.74,0,0,1-.73,1.64c-.4.6-.94,1.43-.34,2.22.78,1,2.63,1,4,.42a4,4,0,0,0,1-.57h.11a3.21,3.21,0,0,0,2.59-1,13.74,13.74,0,0,1,2.39-2.13h0a11,11,0,0,1,2,.8c.45.21.87.4,1.24.54,0,.13-.08.31-.15.55a7.69,7.69,0,0,0-.36,1.59c-.2,1.86,1.53,3,2.7,3.41-.08.25-.23.65-.46,1.19-.11.25-.21.49-.3.71-.21.56-1,2.1-1.57,3.33s-1,2.12-1.15,2.44a27.56,27.56,0,0,0-1,4.81,13.41,13.41,0,0,0,1,4,8,8,0,0,1,.74,2.65,8,8,0,0,0-1.46,3.76,11,11,0,0,1-2.49,2.83,9.67,9.67,0,0,1-2.27,1.48,6.51,6.51,0,0,0-3.36.13,8.36,8.36,0,0,1-3.29.39,9.71,9.71,0,0,1-1-1,10.75,10.75,0,0,0-2.25-2c-1.69-.91-3.17.78-3.73,1.42a4,4,0,0,1-2.09,1.32l-.13,0a2.1,2.1,0,0,1-.22-.28,2.62,2.62,0,0,0-1.59-1.25c-1.8-.44-2.36,1.59-2.74,2.92-.09.35-.19.69-.29,1s-.1.24-.14.31l0,0-.34-.13a1.82,1.82,0,0,0-1.5.18,3.2,3.2,0,0,0-1.46,2.07,4.47,4.47,0,0,1-1.37,2,17,17,0,0,1-3.36,1.68,10.49,10.49,0,0,1-1.38-3.89,6,6,0,0,1,1.27-2.8c.22-.34.43-.66.6-.94.93-1.64-.63-4.11-1.17-4.48l-.21-.13c-6.21-4-6.89-4.87-6.94-4.94s-.06-.5.06-1a5.19,5.19,0,0,0,0-2.65,1.41,1.41,0,0,0-1-1.09c-.91-.25-1.76.55-2.67,1.39a6.76,6.76,0,0,1-1.2,1,12.71,12.71,0,0,1-4.07.83c-.39,0-1,0-1.68.05h-.14a20.49,20.49,0,0,0-4.43.32c-.41.15-2.86.82-4.18,1.17l-.27.08-1.66.45c-.72.21-1.65-.06-3.17-.49l-1.15-.33a6.66,6.66,0,0,0-4.31.1c-.26.08-.51.16-.79.22a18.48,18.48,0,0,0-2.5.93,13.85,13.85,0,0,1-3,1c-.64,0-.64,0-1.06-.63l-.26-.41c-.11-.16-.2-.3-.28-.44a2.46,2.46,0,0,0-2.47-1.49c-1.6,0-1.81,1.27-2,2.2,0,.2-.07.42-.11.64l-.63-1.63,0-.11C540.4,606.6,538.72,603.88,537.89,603.4Z"/></svg>