<svg id="map" xmlns="http://www.w3.org/2000/svg" viewBox="0 0 1437.2 770.75"><defs><style>.cls-1{fill:#acb9bf;}</style></defs><title>samara</title><path class="cls-1" d="M257.25,479.86a1.78,1.78,0,0,0-.51.59,4.67,4.67,0,0,0-.67-.14v-2.64c0-.79-1.36-6.64-1.95-9a15.24,15.24,0,0,1,0-5.74,4.44,4.44,0,0,0,.1-1.22c-.08-.57-.58-1-1.21-1.48a5.42,5.42,0,0,1-1.18-1.16c0-.21.45-.87.72-1.23a5.91,5.91,0,0,0,1-1.75,1.73,1.73,0,0,0-1.31-2.2,2,2,0,0,1-.58-.3,2.61,2.61,0,0,1,.67-1.31c.77-.7.32-2.06-.15-3.49l-.2-.61c-.1-.32-.35-1.07-.66-1.92.33-.13.58-.24.75-.32a3.75,3.75,0,0,0,1.34-1.94c.09-.35,0-.58-.52-1.87a17.33,17.33,0,0,1-1-2.68c-.07-.45.06-.67.36-1.21a10.13,10.13,0,0,0,.58-1.15,11.31,11.31,0,0,0,.55-1.85,3.48,3.48,0,0,1,.39-1.2,8,8,0,0,1,2-.92,10.14,10.14,0,0,0,1-.37,1.52,1.52,0,0,1,1.42.73c.14.23.25.44.34.62.28.56.66,1.33,1.69,1.25.73-.06,1.37-.81,2.33-2,.28-.34.56-.7.74-.89a6.56,6.56,0,0,1,2.73,1.53c1,.81,1.58,1.55,1.43,2a18.59,18.59,0,0,1-2.38,2.13c-2,1.61-2.67,2.2-2.67,2.89,0,1.19,1.54,2.22,2.33,2.48,1,.32,2-.69,3.47-2.26l.08-.08c.14-.15.26-.29.36-.38a3.26,3.26,0,0,1,1.31-.61,8.68,8.68,0,0,0,1.16-.45,1.35,1.35,0,0,1,1.47,0,8,8,0,0,1,.73,2.38c.05.24.09.47.14.68a1.77,1.77,0,0,0,2.27,1.44c.13,0,.26,0,.4,0,1,0,1.85-1.11,3-2.68.19-.26.36-.5.44-.58a14.58,14.58,0,0,1,3.67-2.36,9.72,9.72,0,0,0,3.88-3l.12.25a16.71,16.71,0,0,0,1.88,3.55c.73.83,2.28,1.05,3.94,1.29a16.76,16.76,0,0,1,2,.38l1,.28c.81.2.84.21,1.08.65a3.58,3.58,0,0,1,.38,1.16,3.64,3.64,0,0,0,.48,1.37,14.23,14.23,0,0,1,1.3,2.23,8.11,8.11,0,0,1-.38,3.41c-.48,1.13.41,1.71,1.05,2.13.19.13.41.27.64.44s.65.46.86.6c.37.23.37.24.42.34a8.84,8.84,0,0,1,.27,1.42c-.18.21-.32.34-.33.36a18.44,18.44,0,0,0-3,3.57c-.34.6-.55.72-1.56,1.31l-.33.19a12.17,12.17,0,0,1-2.82,1,14.23,14.23,0,0,0-1.4.43c-1.38.53-1.81,1.45-2.34,2.89-.19.5-.34,1-.49,1.46a18.46,18.46,0,0,1-1.12,2.9c-.84,1.69-1.74,1.53-2,1.48a5.36,5.36,0,0,1-1.26-.53,7.74,7.74,0,0,0-1.79-.73,10.62,10.62,0,0,0-4.4.61c-.42.19-.83.72-1.66,1.8a11.64,11.64,0,0,1-1.44,1.72,2.78,2.78,0,0,1-1.24.6c-.13-.16-.4-.53-.56-.76a10.14,10.14,0,0,0-1.45-1.74,1.29,1.29,0,0,0-1.34-.28c-.82.35-.91,1.44-1,2.5a8.35,8.35,0,0,1-.4,1.75c-.1.3-.2.62-.29,1-.16.62-1.82,1.93-2.59,2.33a33.35,33.35,0,0,1-6.58.59C258.44,479.41,257.68,479.58,257.25,479.86Z"/></svg>