<?xml version="1.0" encoding="utf-8"?>
<!-- Generator: Adobe Illustrator 23.0.0, SVG Export Plug-In . SVG Version: 6.00 Build 0)  -->
<svg version="1.1" id="Слой_2" xmlns="http://www.w3.org/2000/svg" xmlns:xlink="http://www.w3.org/1999/xlink" x="0px" y="0px"
	 viewBox="0 0 1437.2 770.8" style="enable-background:new 0 0 1437.2 770.8;" xml:space="preserve">
<style type="text/css">
	.st0{fill:#2D261B;}
</style>
<image style="overflow:visible;enable-background:new    ;" width="17" height="14" id="Vector_Smart_Object_copy_11" xlink:href="B1792249.png"  transform="matrix(1.2353 0 0 1.2353 317.3752 467.7839)">
</image>
<g>
	<g>
		<path class="st0" d="M311.7,502l0.4-1.8c0.2,0.1,0.4,0.1,0.8,0.1c0.6,0,1.1-0.2,1.3-0.7l0.2-0.5l-4-8.9h2.2l1.8,4.3l0.9,2.6h0.1
			l0.9-2.6l1.6-4.3h2.1l-3.7,9.4c-0.7,1.6-1.6,2.6-3.3,2.6C312.5,502.3,312.1,502.2,311.7,502z"/>
		<path class="st0" d="M320.9,496.1c0-3,2.1-4.5,5.5-4.5h0.9c3.4,0,5.5,1.5,5.5,4.5s-2.1,4.5-5.5,4.5h-0.9
			C323,500.6,320.9,499.1,320.9,496.1z M327.4,499.1c2.1,0,3.3-1,3.3-3s-1.2-2.9-3.3-2.9h-1.2c-2.1,0-3.3,1-3.3,2.9s1.2,3,3.3,3
			H327.4z M325.9,490h1.8v12.2h-1.8V490z"/>
		<path class="st0" d="M337.3,490.3h2.4l3.8,11.8h-2.2l-1.8-6.3c-0.4-1.2-0.7-2.6-1.1-3.9h-0.1c-0.3,1.3-0.7,2.6-1,3.9l-1.8,6.3
			h-2.1L337.3,490.3z M335.8,497.2h5.5v1.6h-5.5V497.2z"/>
	</g>
</g>
</svg>
