<svg id="map" xmlns="http://www.w3.org/2000/svg" viewBox="0 0 1437.2 770.75"><defs><style>.cls-1{fill:#acb9bf;}</style></defs><title>yfa</title><path class="cls-1" d="M377.19,479.47a1.35,1.35,0,0,0,.15.26,18.69,18.69,0,0,0,2.26,2.17c.83.64.83.78.83,1.73,0,.29-1.36.37-1.8.39l-.31,0a1.66,1.66,0,0,1-1.11-.33,4.3,4.3,0,0,0-1.28-.55c-1.5-.35-2.71,1-3.52,1.89l-.08.09a.68.68,0,0,1-.45.14,2.52,2.52,0,0,1-1.4-.42,5.08,5.08,0,0,1-.41-1,4.73,4.73,0,0,0-.9-1.76c-1.05-1-2.42.14-3.52,1.1l-.14.12a2.27,2.27,0,0,0-.76-1.38,2.53,2.53,0,0,0-2.15-.48,6,6,0,0,1-2.1.12c.33-.3.85-.7,1.07-.87a15.19,15.19,0,0,0,1.67-1.39,2.53,2.53,0,0,0,.87-2.13,3.05,3.05,0,0,0-1.52-2,8.39,8.39,0,0,1-1.19-1.26,9.55,9.55,0,0,0-2.59-2.4c-1.81-.85-5.62,1.82-6.38,2.91a37.08,37.08,0,0,0-2.35,5.05l-.36.85c-.48,1.13-1.25,6.55-.28,8.16a9.49,9.49,0,0,0,3.59,3.63c1.32.57,1.92.24,2.53-.53l.15-.19c.12-.13.39-.25,1.44,0a7.45,7.45,0,0,1,1,2.16,6.05,6.05,0,0,0,.58,1.4c.59.83,1.73,1,3.39.48.44-.13,1.63.47,2.34.84.42.21.81.41,1.15.54a9.09,9.09,0,0,0,4.18.2,4.61,4.61,0,0,0,1.35-.65,5.38,5.38,0,0,1,1.59-.75c.6-.11,1.24.95,1.34,1.43a2.51,2.51,0,0,1-1.18,1.89,8.51,8.51,0,0,1-1.71.87A5.37,5.37,0,0,0,369.2,501a3.83,3.83,0,0,0-.62,2.12,5.29,5.29,0,0,1-.35,1.71c-.09,0-.47-.25-1-1.1s-1.83-1.16-3.48-1.6a17.31,17.31,0,0,1-2.48-.77,4.4,4.4,0,0,0-4.2.13l-.12.06c-.66.32-1.11,1.39-2.14,5-.11.39-.19.69-.24.83a21.86,21.86,0,0,1-4,4.3c-1.65,1.23-2.26,2.85-2.66,4.91a4.45,4.45,0,0,1-1.55,2.43,1.35,1.35,0,0,0-.25.25c-.2.19-2.08,1.57-3.08,2.31l-1.55,1.15c-1.43,1.06-2.49,5.06-2.95,7.11-.43,0-1,0-1.54,0s-1.48,0-2.12,0a3.15,3.15,0,0,0-2.45,1.67l-.13.19a13.53,13.53,0,0,0-.89,1.72,13.73,13.73,0,0,1-.82,1.64,4.93,4.93,0,0,1-2.52.78,1.62,1.62,0,0,1-1.16-.47,7.84,7.84,0,0,1,0-1.44c.06-.83.09-1.33-.2-1.71a3.19,3.19,0,0,0-3.36-1.2,4.28,4.28,0,0,1-2.72,0l-1.17-.29a11.57,11.57,0,0,0-3-.51h0a4.85,4.85,0,0,1,.09-.55,5,5,0,0,0,.12-1,2.4,2.4,0,0,0-.8-2,1.74,1.74,0,0,0-1.5-.29,14.56,14.56,0,0,0-3.07,1.68l-.62.4a2.24,2.24,0,0,1-1,.19,8.53,8.53,0,0,1,0-1.58c.89-.76,4.08-3.35,4.63-3.64.84-.45,1.15-1.71.93-3.74a5.76,5.76,0,0,0-1.38-2.37c-.24-.32-.49-.65-.65-.89l.57-.33a8.1,8.1,0,0,0,1.05-.65,23,23,0,0,0,3.37-4.08,5.05,5.05,0,0,0,.43-3.7l0-.19a1.12,1.12,0,0,0-.56-.81c-1.18-.7-4.07.32-4.1.33-.8.3-1.63.53-2.75.85l-.82.23c-.56.16-.6.1-.87-.37a3.07,3.07,0,0,0-.37-.54,26.63,26.63,0,0,1-1.52-4.46c-.12-.38-.16-1,.82-1.52a3.54,3.54,0,0,0,1.11-3.79,8.28,8.28,0,0,1-.45-4.23,4.28,4.28,0,0,1,1.14-1.87c.14-.15.27-.29.36-.41.63-.8.94-4.61.89-5.6-.09-1.79-2.45-3.73-2.72-3.95A8.2,8.2,0,0,1,306.9,479s-.07-.5,1-2.55l.06-.11a38.32,38.32,0,0,0,1.16-4.36c.2-.84.51-2.12.56-2.27.15-.33,2.53-4.48,2.92-5l.13-.13a20.93,20.93,0,0,1,2.78-3c.19-.13.54-.31,1-.54l.1-.05c2-1.09,3.93-2.15,4.6-3.09l.28-.38c.75-1,1.6-2.18.89-3.6l-.1-.18a17.63,17.63,0,0,1-1.52-3.68v-.81a.92.92,0,0,1,.26,0,9,9,0,0,1,2.35.88c.66.31,1.35.64,2,.89,2.2.77,5.58-.22,6.24-.43.33-.11.73-.22,1.18-.35a12,12,0,0,0,3-1.06,2.31,2.31,0,0,0,1.08-1.53,7.2,7.2,0,0,1,.33-.92,6.6,6.6,0,0,0,.34-2.7,3,3,0,0,1,1.16-.59,8.49,8.49,0,0,0,2.89-.67,7.86,7.86,0,0,0,1.93-1.37,6.72,6.72,0,0,1,1.23-.95,4,4,0,0,0,1.47-1.37c1,1.15,2,2.35,2.3,2.71.51.68,3.08,3.85,3.25,4a4.79,4.79,0,0,0,2.39,1.15,3.17,3.17,0,0,0,1.22-.18,1.25,1.25,0,0,1,.74-.08,2.78,2.78,0,0,1,1.78,1.35,4,4,0,0,1,.5,1.13,3.25,3.25,0,0,0,1.08,1.77,18.53,18.53,0,0,0,3.45,1.73,10.75,10.75,0,0,1,.58,3.42l0,.46a1.51,1.51,0,0,0,.66,1.09,2.91,2.91,0,0,0,1.63.39,9.51,9.51,0,0,0,1.75-.2h0a9.55,9.55,0,0,1,1.12,2.75,5.21,5.21,0,0,0,2.74,3.46,29.6,29.6,0,0,1,5.82,3.94c1,1,3.4,3.06,4.67,4.14a5.92,5.92,0,0,0,.06,2.64,8.59,8.59,0,0,1,.13,1c0,.27,0,.56,0,.6a2.74,2.74,0,0,1-.48.18,20.28,20.28,0,0,1-3.29.54,1.36,1.36,0,0,0-1,.61A2.18,2.18,0,0,0,377.19,479.47Z"/></svg>