<?xml version="1.0" encoding="utf-8"?>
<!-- Generator: Adobe Illustrator 23.0.0, SVG Export Plug-In . SVG Version: 6.00 Build 0)  -->
<svg version="1.1" id="Слой_1" xmlns="http://www.w3.org/2000/svg" xmlns:xlink="http://www.w3.org/1999/xlink" x="0px" y="0px"
	 viewBox="0 0 1437.2 770.8" style="enable-background:new 0 0 1437.2 770.8;" xml:space="preserve">
<style type="text/css">
	.st0{fill:#FFFFFF;}
</style>
<image style="overflow:visible;enable-background:new    ;" width="18" height="15" id="Vector_Smart_Object_copy_11" xlink:href="E46C260A.png"  transform="matrix(1.1611 0 0 1.1611 268.2097 381.1022)">
</image>
<g>
	<g>
		<path class="st0" d="M234.5,410.9c-0.5,0.1-1.1,0.2-2,0.2c-2.7,0-4.4-1.1-4.4-4.1v-2.8h2v2.8c0,1.8,0.9,2.4,2.5,2.4
			c0.8,0,1.3-0.1,1.7-0.2v-5.1h2.1v11.8h-2.1V410.9z"/>
		<path class="st0" d="M239.5,404.1h7.1v1.8h-5v3h4.2v1.8h-4.2v3.5h5.2v1.8h-7.3V404.1z"/>
		<path class="st0" d="M249.2,404.1h7.7v1.8h-5.6v3h1.9c2.5,0,4.4,0.9,4.4,3.3c0,2.6-1.8,3.7-4.3,3.7h-4.1V404.1z M253.1,414.3
			c1.7,0,2.6-0.6,2.6-2c0-1.3-0.9-1.8-2.6-1.8h-1.7v3.8H253.1z"/>
		<path class="st0" d="M259.2,410c0-3.8,2.1-6.1,5.2-6.1c3.1,0,5.2,2.3,5.2,6.1c0,3.8-2.1,6.2-5.2,6.2
			C261.4,416.1,259.2,413.8,259.2,410z M267.5,410c0-2.6-1.2-4.2-3-4.2c-1.9,0-3,1.6-3,4.2s1.2,4.3,3,4.3
			C266.3,414.3,267.5,412.6,267.5,410z"/>
		<path class="st0" d="M272,404.1h2.1v4.8h2.9l4.4,7h-2.2l-3.4-5.3h-1.6v5.3H272V404.1z M275.5,409.3l1.8-3.2
			c0.9-1.7,1.7-2.2,2.9-2.2c0.3,0,0.6,0,0.8,0.1l-0.3,1.9c-0.2-0.1-0.4-0.1-0.5-0.1c-0.5,0-0.8,0.2-1.4,1.3l-1.4,2.6L275.5,409.3z"
			/>
		<path class="st0" d="M282.2,410c0-3.9,2.4-6.1,5.4-6.1c1.5,0,2.7,0.7,3.4,1.5l-1.1,1.3c-0.6-0.6-1.3-1-2.2-1
			c-1.9,0-3.3,1.6-3.3,4.3c0,2.7,1.3,4.3,3.2,4.3c1,0,1.9-0.5,2.5-1.2l1.1,1.3c-1,1.1-2.2,1.7-3.7,1.7
			C284.5,416.1,282.2,413.9,282.2,410z"/>
		<path class="st0" d="M295.5,404.1h2.4l3.8,11.8h-2.2l-1.8-6.3c-0.4-1.2-0.7-2.6-1.1-3.9h-0.1c-0.3,1.3-0.7,2.6-1,3.9l-1.8,6.3
			h-2.1L295.5,404.1z M293.9,411.1h5.5v1.6h-5.5V411.1z"/>
		<path class="st0" d="M303.2,404.1h3.7c2.6,0,4.6,0.9,4.6,3.6c0,2.6-1.9,3.8-4.5,3.8h-1.7v4.3h-2.1V404.1z M306.8,409.9
			c1.8,0,2.6-0.7,2.6-2.1c0-1.5-0.9-2-2.7-2h-1.4v4.1H306.8z"/>
		<path class="st0" d="M313.7,404.1h2.1v4.6h1.5c2.6,0,4.5,1,4.5,3.5c0,2.7-1.9,3.7-4.5,3.7h-3.6V404.1z M317.1,414.2
			c1.7,0,2.6-0.6,2.6-2c0-1.3-0.9-1.8-2.7-1.8h-1.3v3.9H317.1z M323.5,404.1h2.1v11.8h-2.1V404.1z"/>
	</g>
</g>
</svg>
