<?xml version="1.0" encoding="utf-8"?>
<!-- Generator: Adobe Illustrator 23.0.0, SVG Export Plug-In . SVG Version: 6.00 Build 0)  -->
<svg version="1.1" id="Слой_1" xmlns="http://www.w3.org/2000/svg" xmlns:xlink="http://www.w3.org/1999/xlink" x="0px" y="0px"
	 viewBox="0 0 1437.2 770.8" style="enable-background:new 0 0 1437.2 770.8;" xml:space="preserve">
<style type="text/css">
	.st0{fill:#FFFFFF;}
</style>
<image style="overflow:visible;enable-background:new    ;" width="18" height="15" id="Vector_Smart_Object_copy_11" xlink:href="B690ED8E.png"  transform="matrix(1.1611 0 0 1.1611 965.6302 637.107)">
</image>
<g>
	<g>
		<path class="st0" d="M961.5,665.9c-0.5,0.1-1.1,0.2-2,0.2c-2.7,0-4.4-1.1-4.4-4.1v-2.8h2v2.8c0,1.8,0.8,2.4,2.5,2.4
			c0.8,0,1.3-0.1,1.7-0.2v-5.1h2.1v11.8h-2.1V665.9z"/>
		<path class="st0" d="M966.5,659.1h2.1v5.1c0,1.3-0.2,2.8-0.3,4h0.1l1.2-2.5l3.7-6.6h2.2v11.8h-2.1v-5.2c0-1.3,0.2-2.7,0.3-4h-0.1
			l-1.2,2.5l-3.7,6.6h-2.2V659.1z"/>
		<path class="st0" d="M980.9,660.9h-3.4v-1.8h8.9v1.8H983v10h-2.1V660.9z"/>
		<path class="st0" d="M990.7,659.1h2.4l3.8,11.8h-2.2l-1.8-6.3c-0.4-1.2-0.7-2.6-1.1-3.9h-0.1c-0.3,1.3-0.7,2.6-1,3.9l-1.8,6.3
			h-2.1L990.7,659.1z M989.1,666.1h5.5v1.6h-5.5V666.1z"/>
	</g>
</g>
</svg>
