<?xml version="1.0" encoding="utf-8"?>
<!-- Generator: Adobe Illustrator 23.0.0, SVG Export Plug-In . SVG Version: 6.00 Build 0)  -->
<svg version="1.1" id="Слой_2" xmlns="http://www.w3.org/2000/svg" xmlns:xlink="http://www.w3.org/1999/xlink" x="0px" y="0px"
	 viewBox="0 0 1437.2 770.8" style="enable-background:new 0 0 1437.2 770.8;" xml:space="preserve">
<style type="text/css">
	.st0{fill:#FFFFFF;}
</style>
<image style="overflow:visible;enable-background:new    ;" width="17" height="14" id="Vector_Smart_Object_copy_11" xlink:href="E46C2609.png"  transform="matrix(1.2353 0 0 1.2353 402.1371 448.7829)">
</image>
<g>
	<g>
		<path class="st0" d="M351.3,470.2h7.1v1.8h-5v3h4.2v1.8h-4.2v3.5h5.2v1.8h-7.3V470.2z"/>
		<path class="st0" d="M361,470.2h2.1v4.8h2.9l4.4,7h-2.2l-3.4-5.3h-1.6v5.3H361V470.2z M364.5,475.4l1.8-3.2
			c0.9-1.7,1.7-2.2,2.9-2.2c0.3,0,0.6,0,0.8,0.1l-0.3,1.9c-0.2-0.1-0.4-0.1-0.5-0.1c-0.5,0-0.8,0.2-1.4,1.3l-1.4,2.6L364.5,475.4z"
			/>
		<path class="st0" d="M374.1,470.2h2.4l3.8,11.8h-2.2l-1.8-6.3c-0.4-1.2-0.7-2.6-1.1-3.9h-0.1c-0.3,1.3-0.7,2.6-1,3.9l-1.8,6.3
			h-2.1L374.1,470.2z M372.5,477.2h5.5v1.6h-5.5V477.2z"/>
		<path class="st0" d="M384.2,472h-3.4v-1.8h8.9v1.8h-3.4v10h-2.1V472z"/>
		<path class="st0" d="M391.7,470.2h7.1v1.8h-5v3h4.2v1.8h-4.2v3.5h5.2v1.8h-7.3V470.2z"/>
		<path class="st0" d="M401.4,470.2h3.7c2.6,0,4.6,0.9,4.6,3.6c0,2.6-1.9,3.8-4.5,3.8h-1.7v4.3h-2.1V470.2z M405,476
			c1.8,0,2.6-0.7,2.6-2.1c0-1.5-0.9-2-2.7-2h-1.4v4.1H405z"/>
		<path class="st0" d="M411.8,470.2h2.1v5.1c0,1.3-0.2,2.8-0.3,4h0.1l1.2-2.5l3.7-6.6h2.2V482h-2.1v-5.2c0-1.3,0.2-2.7,0.3-4H419
			l-1.2,2.5L414,482h-2.2V470.2z"/>
		<path class="st0" d="M423.8,470.2h2.1v4.7h4.8v-4.7h2.1V482h-2.1v-5.2h-4.8v5.2h-2.1V470.2z"/>
		<path class="st0" d="M435.8,470.2h7.7v1.8h-5.6v3h1.9c2.5,0,4.4,0.9,4.4,3.3c0,2.6-1.8,3.7-4.3,3.7h-4.1V470.2z M439.6,480.4
			c1.7,0,2.6-0.6,2.6-2c0-1.3-0.9-1.8-2.6-1.8h-1.7v3.8H439.6z"/>
		<path class="st0" d="M446.2,482l0.4-1.8c0.2,0.1,0.4,0.1,0.8,0.1c0.6,0,1.1-0.2,1.3-0.7l0.2-0.5l-4-8.9h2.2l1.8,4.3l0.9,2.6h0.1
			l0.9-2.6l1.6-4.3h2.1l-3.7,9.4c-0.7,1.6-1.6,2.6-3.3,2.6C446.9,482.2,446.5,482.2,446.2,482z"/>
		<path class="st0" d="M456,470.2h3.7c2.6,0,4.6,0.9,4.6,3.6c0,2.6-1.9,3.8-4.5,3.8h-1.7v4.3H456V470.2z M459.6,476
			c1.8,0,2.6-0.7,2.6-2.1c0-1.5-0.9-2-2.7-2h-1.4v4.1H459.6z"/>
		<path class="st0" d="M466.5,470.2h7.1v1.8h-5v10h-2.1V470.2z"/>
	</g>
</g>
</svg>
