<?xml version="1.0" encoding="utf-8"?>
<!-- Generator: Adobe Illustrator 23.0.0, SVG Export Plug-In . SVG Version: 6.00 Build 0)  -->
<svg version="1.1" id="Слой_2" xmlns="http://www.w3.org/2000/svg" xmlns:xlink="http://www.w3.org/1999/xlink" x="0px" y="0px"
	 viewBox="0 0 1437.2 770.8" style="enable-background:new 0 0 1437.2 770.8;" xml:space="preserve">
<style type="text/css">
	.st0{fill:#2D261B;}
</style>
<image style="overflow:visible;enable-background:new    ;" width="17" height="14" id="Vector_Smart_Object_copy_11" xlink:href="3F8023A0.png"  transform="matrix(1.2353 0 0 1.2353 352.5745 124.8534)">
</image>
<g>
	<g>
		<path class="st0" d="M323.8,147.7h2.1v4.8h2.9l4.4,7h-2.2l-3.4-5.3h-1.6v5.3h-2.1V147.7z M327.3,152.8l1.8-3.2
			c0.9-1.7,1.7-2.2,2.9-2.2c0.3,0,0.6,0,0.8,0.1l-0.3,1.9c-0.2-0.1-0.4-0.1-0.5-0.1c-0.5,0-0.8,0.2-1.4,1.3l-1.4,2.6L327.3,152.8z"
			/>
		<path class="st0" d="M334.6,147.7h2.1v5.1c0,1.3-0.2,2.8-0.3,4h0.1l1.2-2.5l3.7-6.6h2.2v11.8h-2.1v-5.2c0-1.3,0.2-2.7,0.3-4h-0.1
			l-1.2,2.5l-3.7,6.6h-2.2V147.7z"/>
		<path class="st0" d="M346.6,147.7h3.7c2.6,0,4.6,0.9,4.6,3.6c0,2.6-1.9,3.8-4.5,3.8h-1.7v4.3h-2.1V147.7z M350.2,153.4
			c1.8,0,2.6-0.7,2.6-2.1c0-1.5-0.9-2-2.7-2h-1.4v4.1H350.2z"/>
		<path class="st0" d="M356.4,153.5c0-3.8,2.1-6.1,5.2-6.1c3.1,0,5.2,2.3,5.2,6.1c0,3.8-2.1,6.2-5.2,6.2
			C358.6,159.6,356.4,157.3,356.4,153.5z M364.7,153.5c0-2.6-1.2-4.2-3-4.2c-1.9,0-3,1.6-3,4.2s1.2,4.3,3,4.3
			C363.5,157.8,364.7,156.1,364.7,153.5z"/>
		<path class="st0" d="M369.2,147.7h3.8c2.4,0,4.2,0.7,4.2,2.9c0,1.1-0.6,2.2-1.6,2.5v0.1c1.3,0.3,2.3,1.2,2.3,2.8
			c0,2.4-1.9,3.5-4.5,3.5h-4.1V147.7z M372.8,152.5c1.6,0,2.3-0.6,2.3-1.7c0-1.1-0.8-1.6-2.3-1.6h-1.5v3.2H372.8z M373.1,157.8
			c1.7,0,2.7-0.6,2.7-1.9c0-1.2-0.9-1.8-2.7-1.8h-1.8v3.7H373.1z"/>
		<path class="st0" d="M379.3,153.6c0-3.9,2.4-6.1,5.4-6.1c1.5,0,2.7,0.7,3.4,1.5l-1.1,1.3c-0.6-0.6-1.3-1-2.2-1
			c-1.9,0-3.3,1.6-3.3,4.3c0,2.7,1.3,4.3,3.2,4.3c1,0,1.9-0.5,2.5-1.2l1.1,1.3c-1,1.1-2.2,1.7-3.7,1.7
			C381.7,159.6,379.3,157.5,379.3,153.6z"/>
		<path class="st0" d="M390.3,147.7h2.1v4.8h2.9l4.4,7h-2.2l-3.4-5.3h-1.6v5.3h-2.1V147.7z M393.9,152.8l1.8-3.2
			c0.9-1.7,1.7-2.2,2.9-2.2c0.3,0,0.6,0,0.8,0.1l-0.3,1.9c-0.2-0.1-0.4-0.1-0.5-0.1c-0.5,0-0.8,0.2-1.4,1.3l-1.4,2.6L393.9,152.8z"
			/>
	</g>
</g>
</svg>
