<svg id="map" xmlns="http://www.w3.org/2000/svg" viewBox="0 0 1437.2 770.75"><defs><style>.cls-1{fill:#acb9bf;}</style></defs><title>kirovsk</title><path class="cls-1" d="M349.74,134.27a6.26,6.26,0,0,0,1.74-1.37,2.35,2.35,0,0,1,1-.74,5.53,5.53,0,0,1,3.16.28c1.45.46,7-.15,8.28-.78a15.54,15.54,0,0,0,4.25-3.48,18.57,18.57,0,0,0,1.63-4.43c0-.21.11-.8.19-1.53a51.71,51.71,0,0,1,.85-5.59c.11-.34.19-.71.28-1.09.27-1.24.44-1.74,1.21-2,.94-.34,3.44-1.27,4.57-.91.46.15.89.34,1.29.51.9.39,1.84.8,2.63.14a7,7,0,0,0,1.15-1.61c.26-.42.59-1,.8-1.22a1.74,1.74,0,0,1,1.48-.83c2.57,0,4.12,0,4.94-.13.06.13.12.28.17.4a7.78,7.78,0,0,0,.37.82c.44.83,1.71,1.71,3.62,2.87l.38.23c.11.07.6.51.93.81a19.49,19.49,0,0,0,3.64,2.77,4.36,4.36,0,0,0,3.79.07l.16-.06c.41-.13.91-.28,1.36-.39,0,2.25.22,3.39.78,4,.85.92,2.45,1,3.88,1h.06a4.19,4.19,0,0,1,1.49,1.21,20.94,20.94,0,0,1-.2,3.38c-.08.73-.12,1.12-.12,1.38a3.61,3.61,0,0,1-.15.92,3.48,3.48,0,0,1-.68-.19c-.1-.35-.21-1-.28-1.44l0-.08c0-.25-.08-.5-.12-.73-.14-.72-.52-2-1.49-2.37a1.48,1.48,0,0,0-1.45.2,7.49,7.49,0,0,0-1.84,3.37,5.15,5.15,0,0,0,.18,3.74,8.3,8.3,0,0,0,2,2c.26.21.55.44.7.58a.53.53,0,0,1-.12.32,5.8,5.8,0,0,1-2.11,1.11,9.26,9.26,0,0,0-.9.26,5.55,5.55,0,0,1-1.74.33c-1.71,0-2.95,0-3.1,1.23a1.32,1.32,0,0,0,1.07,1.44c.37.09,1.34.2,2.83.37l1.15.14.68.08c1.33.15,2.21.27,2.62.37a14.11,14.11,0,0,1,.54,1.41l.11.29a8.06,8.06,0,0,1,.24.84,8,8,0,0,0,1,2.44c.83,1.34,2.84,4.19,3.27,4.77a15.49,15.49,0,0,1,1,3.09,10.71,10.71,0,0,1-.35,3.13,13.33,13.33,0,0,0-.54,2.34l0,.19a5.1,5.1,0,0,1-.13.65c-.06.21-.17.59-.25,12.66,0,.33-.29,8-.29,8.23,0,.07,0,.2-.05.38V180a10,10,0,0,0-.07,4,12.77,12.77,0,0,1,.29,3.13c0,.3,0,1.53,0,3.84s-.06,7.38-.11,7.81a2.26,2.26,0,0,1-.68,1.32,10.1,10.1,0,0,0-3.28,4.15c-.12.34-.21.68-.32,1.06a4.73,4.73,0,0,1-.41,1.19c-.21.06-.46.11-.75.17a9.26,9.26,0,0,0-3.45,1.27l-.4.29a3.38,3.38,0,0,1-2.05,1c-.6,0-1.65.05-2.69.08-1.37,0-2.53.06-3,.09s-.68.07-1,.11a14.18,14.18,0,0,1-2.29.16,19,19,0,0,1-5.34-.59c-1.64-.78-2.22-1.09-2.28-1.13-.21-.2-5.09-5.24-5.59-5.74-.26-.63-1-2.47-1.68-4-.46-1.07-1.57-4.57-2.46-7.39l0-.12c-.56-1.78-1-3.19-1.22-3.75a27,27,0,0,0-1.34-2.76,18.56,18.56,0,0,1-1.09-2.25,19.59,19.59,0,0,1-.59-4.11s.45-3.48-.34-4.38a5.86,5.86,0,0,1-.58-1.48c.25-.33.76-.9,1.05-1.22a5.11,5.11,0,0,0,.7-.88,2.48,2.48,0,0,0-.09-2,2.32,2.32,0,0,0-1.59-1.29c-.48-.12-.52-.23-.58-.43a40,40,0,0,1-.78-4.39,23.52,23.52,0,0,1,.65-4.73c.64-1.6,1.24-3.42.92-4.74l-.06-.26c-.2-.88-.46-2-1.5-2.23a1.83,1.83,0,0,0-1.85.79,23.31,23.31,0,0,0-2.3,4.18l-.16.34a13,13,0,0,0-.64,2.51c-.11.46-.26,1.16-.39,1.71-1.25-.23-1.71-.12-2,0a13.74,13.74,0,0,1-3.08.56c-.79.08-2,.13-2.76.13a1.37,1.37,0,0,0-.05-.59,3.57,3.57,0,0,0-1.46-1.9,7.68,7.68,0,0,1,.54-1.9l.08-.23-.47-.17.47.16a10.13,10.13,0,0,1,2.5-2.09c.65-.39,1.21-.72-3-9.06l-5.07-9.25A8.89,8.89,0,0,0,349.74,134.27Z"/></svg>