<svg id="map" xmlns="http://www.w3.org/2000/svg" viewBox="0 0 1437.2 770.75"><defs><style>.cls-1{fill:#acb9bf;}</style></defs><title>krasnoyarsk</title><path class="cls-1" d="M670.51,268.42a1.2,1.2,0,0,1,1.21.26c.79.83,5.35,6,5.67,6.46a24.21,24.21,0,0,1,1.29,2.72,32.25,32.25,0,0,1,1,3.22,19.22,19.22,0,0,0,1,3.12.81.81,0,0,1,.07.29c.16,1.14.79,1.66,2.23,1.85.64.08,1.85.33,3,.57a30.06,30.06,0,0,0,4,.68,5.28,5.28,0,0,0,.55,0l0,.07.08.18a2.68,2.68,0,0,0-1.37,2.45,4,4,0,0,1-.1,1.16,4.35,4.35,0,0,1-2.44.73c-.26,0-.53-.1-.8-.16l-.06,0c-1-.21-3-.67-3.4,1.22a4.25,4.25,0,0,0,0,1.55c.1.82.11,1.24-.16,1.54a13.59,13.59,0,0,0-2.13,4.54l0,.13c-.12.35-.21.65-.29.83s-1.21,2.87-.49,4.28a1.62,1.62,0,0,0,1.08.85A4.14,4.14,0,0,0,684,306a30.05,30.05,0,0,0,1.94-2.46c-.3.64-.92,1.86-2.23,4.17l-.12.21a.77.77,0,0,1-.09.13l0,.07a4.2,4.2,0,0,0-1,3c.06.33,0,.39-.15.44a3.08,3.08,0,0,1-.35.16l-.07,0c-1,.46-2.34,1-2.49,2.24l0,.22a2.94,2.94,0,0,0,1.37,3.28,2.77,2.77,0,0,1,1.2,1.93c0,.23.15,1.22.23,2a20.25,20.25,0,0,0,.66,4.5,2.73,2.73,0,0,1,.16.47l.06.16c.6,1.94,1.26,3.72,2.63,4.3,1.14.48,3.92,1,5,.34l.12-.06a2.38,2.38,0,0,0,1.57-2.42,6.57,6.57,0,0,0-1-4.12,5.92,5.92,0,0,0-1.79-1.63,2.81,2.81,0,0,1-.72-.59,16.22,16.22,0,0,1-.71-3.71,12.3,12.3,0,0,1,.3-2.63c.07-.17.58-1,.93-1.52a18,18,0,0,0,2.22-4.06c.06-.25.15-.58.25-.93a14.86,14.86,0,0,0,.69-3.85c0-.58-.23-2-.46-3.69-.26-1.88-.58-4.22-.58-4.87a5,5,0,0,1,1.38-3.13c1.3-1.24,2.83-4.19,2.23-6.27a13.46,13.46,0,0,1-.34-1.79,6.17,6.17,0,0,0-.72-2.54,6.59,6.59,0,0,0-1.5-1.48,8,8,0,0,1-1.22-1.14,1.17,1.17,0,0,1-.07-1.41c.73-1.13.72-2.42,0-4.17a7.79,7.79,0,0,0-4-3.54c-.25-.11-.53-.21-.81-.32-.48-.18-1.28-.47-1.38-.72l-.21-.47a7,7,0,0,1-.76-2.28,14.65,14.65,0,0,1,1-4,15.18,15.18,0,0,0,.64-4.65,33.4,33.4,0,0,1-.15-4,7.68,7.68,0,0,0,0-.8c0-.64,0-.72.72-1.3.35-.28.66-.56,1-.83.92-.82,1.59-1.42,2.44-1.47a23.54,23.54,0,0,1,4.36.81,27.1,27.1,0,0,0,2.75.6l1.16.18h.07a33.09,33.09,0,0,0,5.63.54c1.6,0,4.17.19,6.44.36,1.77.13,3.31.24,4.09.24l1,0a5.2,5.2,0,0,0,2.81-.47,2.75,2.75,0,0,1,1.76-.43h.1l-.15.12-.3.24a3.46,3.46,0,0,0-1,3.87,4,4,0,0,0,4.36,1.44,10.12,10.12,0,0,0,4.11-1.6c.36-.24.82-.49,1.28-.74,1.55-.86,2.51-1.43,2.79-2.35l.09-.27a2.43,2.43,0,0,0-.5-2.89,9.29,9.29,0,0,1-1.32-1.36c0-.05,0-.1.07-.14a3.59,3.59,0,0,0,.46-1.58,3.9,3.9,0,0,0-.83-2.11l-.05-.08-.07-.1a3.07,3.07,0,0,1-.12-.92l.09-.11a4.86,4.86,0,0,0,1.12-2.53c.3-1.52.77-3.83-1.11-4.54a8,8,0,0,1-1.93-2.13,2.39,2.39,0,0,0,.22.23,3.67,3.67,0,0,0,3.76,1.2,12.72,12.72,0,0,0,2.84-1.62c.44-.28.84-.56,1.06-.67,1.53-.81,2-1.83,1.51-3.05a4,4,0,0,0-1.71-1.59,5.12,5.12,0,0,0,.63-.1c.41-.07.79-.11,1.17-.15a3.38,3.38,0,0,0,2.84-1.29,28.55,28.55,0,0,1,2.61-3.58,2.92,2.92,0,0,1,2-.2,7.39,7.39,0,0,0,4.73.27A9.68,9.68,0,0,0,751,223l.38-.27a4.46,4.46,0,0,1,1.34-.66,1.85,1.85,0,0,1,.26.12l.12.06a4.7,4.7,0,0,0,2.58.61,8,8,0,0,0,3-1.36,4,4,0,0,1,1.34.06,2.73,2.73,0,0,0,2.44-.2,7.51,7.51,0,0,1,.89-.35c.47-.13.88-.23,1.29-.32a13.15,13.15,0,0,0,1.91-.53l.51-.19c.89-.31,2.37-.83,2.08-2.33a2.21,2.21,0,0,0-1.72-1.78,5.93,5.93,0,0,0,2.14-.58l.09,0a.64.64,0,0,1,.15-.06,16,16,0,0,1,2.83-.42c.38.06,1.07.22,1.68.37l.88.2a14.33,14.33,0,0,0,1.88.15h.37l0,.07c-.15.19-.28.37-.38.51a2.42,2.42,0,0,0-.21,2.35,1.75,1.75,0,0,0,1.59.9,16,16,0,0,0,2.08-.22l.13,0,.43-.07a6.1,6.1,0,0,1,1.12.35l.37.13c1,.31,3.08-.51,3.73-.84a5,5,0,0,1,.89-.32,3,3,0,0,0,1.76-1.06,8.53,8.53,0,0,0,.7-1.42,9.63,9.63,0,0,1,.64-1.32,2.62,2.62,0,0,1,1.64-.65,7.31,7.31,0,0,1,2.67.5l.45.38a2.69,2.69,0,0,1,.9,1,8.82,8.82,0,0,0,.48,1.18,4.94,4.94,0,0,1,.37,1,6.34,6.34,0,0,1-.48,1.89c0,.07-.28.36-.42.53-.68.81-1.38,1.65-.93,2.61a1.51,1.51,0,0,0,1.46.85,3.05,3.05,0,0,0,3-2.25,23.33,23.33,0,0,0,.73-4.06l.11-.8a7.92,7.92,0,0,0-2.61-5.8,7.84,7.84,0,0,1-1.85-1.62l-.24-.55c1.26-.09,3.12-.2,4-.2a9,9,0,0,1,4.07.73l1.18.72a23.47,23.47,0,0,0,3.05,1.74l.2.08a2.36,2.36,0,0,0,2.17.11,1.61,1.61,0,0,0,.74-1.23c.07-.7-.17-2.67-1.2-3.34a8.33,8.33,0,0,0-1.24-.57,8.55,8.55,0,0,1-1-.45,2,2,0,0,0-.61-.29c-.05-1-.16-2.59-.24-3a3.22,3.22,0,0,0-1-1.58l-.21-.23a.59.59,0,0,1-.1-.16,3.69,3.69,0,0,1,.35-.19,2.56,2.56,0,0,0,1.62-1.88,4.35,4.35,0,0,0-.16-2l0-.1a1.08,1.08,0,0,1,.1-.86,3.28,3.28,0,0,1,.43-.33,2.16,2.16,0,0,0,1.12-1.94,10,10,0,0,1,.16-1.82h0a7.41,7.41,0,0,0,1.91-.21,4,4,0,0,0,3.08-2.28,9.85,9.85,0,0,0,.37-2h.09a3.27,3.27,0,0,0,2.69-1.69,4.9,4.9,0,0,0,.38-1c0-.12.14-.44.19-.55a2.57,2.57,0,0,1,1.37-.25,3.9,3.9,0,0,0,.87,0c.35,1.6.74,3.2,2.1,3.34a3.22,3.22,0,0,0,1-.1,2.26,2.26,0,0,1,1.41,0,2.31,2.31,0,0,1,1,1,5.68,5.68,0,0,0,.68.86l-.56.15a16.3,16.3,0,0,0-1.83.56l-.27.11-.1,0c-1.19.42-3.18,1.13-3.35,2.77a3.51,3.51,0,0,1-.13.58,1.89,1.89,0,0,0,1.18,2.53,8.15,8.15,0,0,0,3.36.17h0a1.94,1.94,0,0,0,1.83,1.85l.16,0c1.12.11,3.21.32,4.45-.49a6.86,6.86,0,0,1,2.71-.67,1.06,1.06,0,0,1,.45.25.38.38,0,0,1,0,.13,19.45,19.45,0,0,1-1.45,2.22,16.85,16.85,0,0,0-1.11,1.69,4.57,4.57,0,0,1-.26.45l0,.06c-.53.87-1.79,2.9-.14,4.1a7.58,7.58,0,0,0,4.32,1.35c1.06,0,3-.14,3.85-1.1a3.06,3.06,0,0,0,.47-3.65,6,6,0,0,0-.74-.88,2.35,2.35,0,0,1-.35-.42,5.17,5.17,0,0,1-.24-.68c.12-.06.16,0,.31.06l.41.32c.84.68,1.53,1.1,4.06,1.21,2.82.12,3.35,0,4.94-.58l.3-.11c.87-.3,1.3-.47,1.8-.67s.91-.36,1.83-.69a9.51,9.51,0,0,1,1.43-.41,3.26,3.26,0,0,0,1.12,2.28l.12.09c.46.35.46.35.48.5a3.62,3.62,0,0,1-.17.57,3.74,3.74,0,0,0-.33,1.74,2.48,2.48,0,0,0,1.71,1.88,3,3,0,0,0,3-.31,3.93,3.93,0,0,1,.94-.59c0,.14,0,.3,0,.49s0,.45,0,.71v.07c0,1.33-.12,2.83,1,3.55a2.92,2.92,0,0,0,2.38.48,2,2,0,0,0,1.31-1.24,3.79,3.79,0,0,0,.26-1.28,2.69,2.69,0,0,1,.16.69,10.07,10.07,0,0,1,0,1.52,3.44,3.44,0,0,0,.25,1.79,2.86,2.86,0,0,0,.86.87c.44.32.65.5.69.78.08.61.17,1.46.24,2.2a5.22,5.22,0,0,0-1.57-1c-.06,0-.06,0-.19-.2a3,3,0,0,0-1-1,2.35,2.35,0,0,0-2.57-.06,2.26,2.26,0,0,0-.73,2.54c.4,2,.72,2.32,2.47,3.57a12.89,12.89,0,0,0,4.66,2.1c.7.13.74.42.76.54a7.58,7.58,0,0,1,0,1.36c-.06.68-.13,1.54-.13,2.76a6.12,6.12,0,0,0,.36,2.15l-.39.36a7.38,7.38,0,0,1-3.21,1.58l-.2.05a2.86,2.86,0,0,0-2,2.52,4.27,4.27,0,0,0,.1.8c0,.13.07.39.09.56a9,9,0,0,1-1,.46,10.11,10.11,0,0,0-1,.47,3.52,3.52,0,0,0-2,3.09v.36a10.32,10.32,0,0,1-.07,1.09,1.81,1.81,0,0,1-.46,0,3,3,0,0,0-2.8,1.49,2.81,2.81,0,0,0-.42,1.44l-.06,0c-.49.17-.94.31-1.37.44-1.36.42-2.35.72-2.78,1.63a3.54,3.54,0,0,0-.34,2.68,3,3,0,0,0,.54.78c.3.37.87,1,.72,1.39a4.29,4.29,0,0,1-2,2.16c-1,.57-3.64,2.72-4.06,3.77a9.29,9.29,0,0,0-.34,1.15,7.15,7.15,0,0,1-.44,1.43c-.11.15-.2.29-.28.42v0a4.78,4.78,0,0,1-.66.09l-.7,0c-1.45.07-3.88.19-4.3,2.46-.11.54-.19,1.08-.27,1.59a15.79,15.79,0,0,1-.29,1.64,9.81,9.81,0,0,1-2.09,1.5l-.5.32-.21.12-.08,0c-.94.51-2.68,1.47-3.12,3a5.19,5.19,0,0,0-.12,2,2.05,2.05,0,0,1-.14,1.27,4.8,4.8,0,0,1-1.36,1.27,7.53,7.53,0,0,0-1.5,1.33,3.29,3.29,0,0,0-.87,3,2.39,2.39,0,0,0,1.14,1.78,2.34,2.34,0,0,0,2.07.05,2.79,2.79,0,0,1,.53-.1,3.93,3.93,0,0,0,3.33-2.1c.3-.65.68-1.65,1.09-2.72s1.06-2.79,1.26-3.07a3.84,3.84,0,0,0,.5-.9c.25.08.5.17.74.27a5.52,5.52,0,0,0,3.58.44c.37-.1.8-.19,1.27-.29,1.86-.38,2.94-.65,3.39-1.55a4.83,4.83,0,0,0,.34-1.75c0-.25.07-.69.12-1h.08c1-.16,3.47-.53,3.7-2.64a5,5,0,0,0-.14-1.94,1.5,1.5,0,0,1,0-.89,2.12,2.12,0,0,1,.22-.57,10.19,10.19,0,0,1,.71.8,4.68,4.68,0,0,0,2.83,2.06c1.46.2,2.41-.64,2.81-2.49l.05-.21a3.39,3.39,0,0,1,.55-1.29,5.82,5.82,0,0,0,.11,1.31,2.49,2.49,0,0,1,.06.42c0,.8.67,1.31,1.33,1.81a5.06,5.06,0,0,1,.82.72,6.24,6.24,0,0,1,.29,2.68c-1.33,2.55-1.33,3-1.33,3.15,0,.64,1.27,4.41,2.18,5.31a9.05,9.05,0,0,1,1.38,3.64c.31,1.38,2.17,2.78,3.24,3.58l.21.16c.14.12,1,.85,5,4.4l0,0a25.15,25.15,0,0,1,1.15,3.2c0,.33.09,1.24.13,2a34.79,34.79,0,0,0,.29,3.48c.27,1.34,3.72,5,4.67,5.3a3.33,3.33,0,0,1,.87,2.13c.09.72-1.24,1.83-2,2.49l-.39.32c-.25.21-.6.51-1,.87a37.2,37.2,0,0,1-3.18,2.59c-1,.47-3.79,4.66-4.24,5.86a6.39,6.39,0,0,0-.36,2.29c0,.22,0,.44,0,.6a21.73,21.73,0,0,1-3.29,1.28l-1.14.39c-1.89.67-2,1.83-2.2,3,0,.2,0,.41-.09.64a29.54,29.54,0,0,0,.12,6l0,.41a1.78,1.78,0,0,1-1.26,1.86,6.15,6.15,0,0,1-2.1-.6,9.53,9.53,0,0,0-2.44-.73c-1.72-.15-3.83,1.59-4.52,2.84a11.24,11.24,0,0,1-2.18,2.6,45.25,45.25,0,0,1-5,2.11,3.46,3.46,0,0,1-1.93-.08,11.87,11.87,0,0,0-1.25-.22.83.83,0,0,0-.89.6,7.42,7.42,0,0,0-.25,3.14c.21.87,1.66,2.52,4.27,5.26l.07.08c.3.31.53.55.66.7a26.39,26.39,0,0,1,2.51,7.41c0,.79.16,4.07.34,7.23.17,2.93.36,6.25.33,6.81,0,.86.55,4.54,1.45,9.81l.05.32c.11.63.19,1.08.21,1.22.13.95-.07,3.61-.43,4a4.94,4.94,0,0,1-2.76,1.22c-.88,0-4.18.44-4.77,1a1.93,1.93,0,0,0-.68,1.43,1.75,1.75,0,0,0,.68,1.3,39.61,39.61,0,0,1,4.39,4.72c.46.89.93,2.47.34,3.19a4.93,4.93,0,0,0-1.3,4.58c.07.2.12.4.18.61a9.33,9.33,0,0,0,2.88,4.86,17.09,17.09,0,0,1,4.21,6.2,5.33,5.33,0,0,0,2,2.71,5.69,5.69,0,0,1,.48.46c.21.27.35,1-.6,1.84-.69.61-3,2.72-3.26,4.08a5,5,0,0,1-1.24,2.42,3.64,3.64,0,0,1-.56.27c-.56.22-1.87.75-1.34,2.26a3.07,3.07,0,0,0,1.67,1.5l.46.26c-.54.58-1,1.07-1.3,1.43l-.11.14-.36.39c-.37.37-2.18,2.34-1.31,4.61a5.13,5.13,0,0,0,2.43,3,1.93,1.93,0,0,0,1.58,0,10.74,10.74,0,0,0,1.28-.75,4.9,4.9,0,0,1,1.79-.88c.12,0,.13,0,.39.32a4.1,4.1,0,0,0,1.63,1.31,11.36,11.36,0,0,0,4.89,1.16,19.68,19.68,0,0,1,5.05.4l.71.79.08.08a2,2,0,0,1,.62.67,4.76,4.76,0,0,0,.1.78c0,.19.12.68.14.74a7.85,7.85,0,0,0-.89.54,7.1,7.1,0,0,1-2,1,7.19,7.19,0,0,1-3.66-.16l-1-.32c-2.89-1-4-1.23-4.73-.77a1.06,1.06,0,0,0-.47.82,16,16,0,0,0,.13,1.79,14.85,14.85,0,0,1,.12,4.09,32.08,32.08,0,0,1-1.42,3.19,17.23,17.23,0,0,0-1.35,3.16,1.09,1.09,0,0,0,.27.89c.43.47,1.11.43,1.91.39a4,4,0,0,1,1.47.08,1.25,1.25,0,0,1,.72.93.4.4,0,0,1-.23.41l-.15.1c-1.34.85-3.36,2.13-3.07,3.95a29.44,29.44,0,0,0,1.78,4.94c.15.36.28.66.36.88a11.79,11.79,0,0,0,.7,1.34,8.26,8.26,0,0,1,.93,2c-.33.75-2,4.57-1.9,6a8.75,8.75,0,0,0,.4,1.81c.22.78.69,2.41.43,2.81-.12.18-.25.39-.41.67-.5.82-1.17,1.94-1.88,2.16a4.91,4.91,0,0,0-2.82,3.35,2.77,2.77,0,0,0,.8,2.16,5.32,5.32,0,0,1,.45.64,7.11,7.11,0,0,1-1.15,2.21l-4.93,2.38-3,2.52a3.91,3.91,0,0,0-1.17,4.31c.52,1.31.21,3.56,0,4.9-.07.48-.12.86-.13,1.1,0,1.49,0,5.13,1.9,6.93a17.94,17.94,0,0,0,5.46,2.93,13.36,13.36,0,0,1,1.28.54c.43.24,1,2.8.71,3.77a11.82,11.82,0,0,1-4.18,4.8,4.21,4.21,0,0,0-2.53,3.13,1.87,1.87,0,0,0,.8,1.72,5.93,5.93,0,0,0,1.86.69,5.15,5.15,0,0,1,2.5,1.11,7.58,7.58,0,0,1,1.66,4.71,3.41,3.41,0,0,1-2,3.36,5,5,0,0,0-2.84,2.87,8.31,8.31,0,0,0-.17,2.09,15.58,15.58,0,0,1-.16,2.33,6.22,6.22,0,0,1-2.17.07,20.23,20.23,0,0,1-3.08-1c-1.22-.51-1.3-.91-1.37-1.23v-.08a1.47,1.47,0,0,0-.11-1.2,2.56,2.56,0,0,0-1.86-.92,9.89,9.89,0,0,0-2-.14c-1,0-1.13,0-1.35-.42a5.54,5.54,0,0,1-.61-1.93,7.91,7.91,0,0,0-.36-1.5,4.06,4.06,0,0,0-2.72-2.79,5,5,0,0,0-3.38,1.19l-1.57,1-.12,0a.86.86,0,0,0-.4.4s-.32.67-.49,1c0,0-.07.1-.17.24a5.16,5.16,0,0,0-1.23,2.87c0,.46,0,1,0,1.59,0,.84.06,1.79,0,2.55,0,1.07-.29,1.25-.49,1.4a45,45,0,0,1-4.57,2,10.09,10.09,0,0,1-1.07.33,5.64,5.64,0,0,0-1.9.85c-1.31.9-1,2.58-.93,3.22l0,.1c0,.49-.06,2-.16,2.71l-.62-.17a8.94,8.94,0,0,0-1.64-.4,2.46,2.46,0,0,0-2.74,1.44l-.19.3a7,7,0,0,0-1.28,2.9c-.22,1.3,1.59,9.15,1.61,9.22a1.88,1.88,0,0,1-.22,1.15,21,21,0,0,1-1.59-1.52c-.39-.39-.75-.76-1-1s-1-1.12-3.3-6.3c-1-2.28-2.56-2.62-4.52-3l-.23-.05c-1.2-.27-2.94-.1-4.48,2.21-.24.35-.55,1-1,1.73s-1,1.82-1.59,2.92c-.78,1.34-2,1.2-4,.52-.75-.27-.89-.64-1.17-1.39a7.88,7.88,0,0,0-.47-1.08c-.75-1.38-3-1-4.89-.71a12.2,12.2,0,0,1-1.32.17c-1.42,0-2.26,1.42-3.07,2.81l-.59,1a13.25,13.25,0,0,0-1.1,2.31,18.26,18.26,0,0,1-1.75,3.5c-.57.88-1.14,1.69-1.64,2.4-1.27,1.79-1.79,2.55-1.79,3.21,0,1.24,2.09,2.75,3.16,3.18l.15.07a1.76,1.76,0,0,0-.86,1.41,1.84,1.84,0,0,0,1,1.51,4.18,4.18,0,0,0,1.75.66l.13,0a57.45,57.45,0,0,1,.38,6.09c0,.68-.16,1-2.08,1.64-2.26.79-7.32,8.44-8.18,10.14a6.74,6.74,0,0,0-.14,4.4,9.33,9.33,0,0,1,.22,1.57c0,1-.56,1.42-2.71,2.66s-2.1,3.26-2,5c0,.34,0,.69,0,1a27.1,27.1,0,0,1-1.24,7c-.17.27-.8.4-1.67.59-.46.1-1,.22-1.58.38a10,10,0,0,1-2.3.35,8,8,0,0,0-2,.32c-1.7.52-3.11,2.48-3.11,3.25a14.92,14.92,0,0,0,1.21,4c.51.92,3,4.39,3.74,5.36.31.41.94,1.49,1.5,2.43a31.24,31.24,0,0,0,1.81,2.86,4.32,4.32,0,0,0,1.73,1.23v.21a7.76,7.76,0,0,1,0,1,4.23,4.23,0,0,1-.57.19,3.45,3.45,0,0,0-1.1.45,1.15,1.15,0,0,1-1.22.18,5.19,5.19,0,0,0-3.6-.46,15.36,15.36,0,0,1-1.85-.44c-.63-.18-1.28-.36-1.84-.47a14.39,14.39,0,0,0-3.7.06c-.5.05-.94.09-1.23.09l-.8,0a4.12,4.12,0,0,1-1.32-.09,2.16,2.16,0,0,1-.48-.34,1.92,1.92,0,0,0-2-.57,34.13,34.13,0,0,0-3.87,2.15,1.55,1.55,0,0,0-.9,1.46,1.61,1.61,0,0,0,1,1.22.66.66,0,0,1,0,.48,16.3,16.3,0,0,0-.08,3.37c0,.64,0,2.08,0,2.51a28.14,28.14,0,0,1-3.69,1.2l-.72.2c-2.28.65-7.77,5.86-8.32,6.38l-.41.26c-11.32,7.1-11.52,7.25-11.58,7.29-.3.2-5.12,2.72-6.26,3.11-.45.16-1.73-.12-3.83-.81l-.67-.21a38.12,38.12,0,0,1-3.89-1.77l-.1-.05c-1.26-.67-3.6-1.93-5.06-2a2.21,2.21,0,0,0-2.31.89l-.31.35a2.25,2.25,0,0,1-2.46.28c-.62-.3-.61-1.61-.61-2.66v-.38a4.72,4.72,0,0,0-1.09-2.89,30.13,30.13,0,0,1,2.44-4c.13-.13.29-.29.48-.5.72-.76,1.81-1.91,3-2l.74-.08a8.84,8.84,0,0,0,3.15-.7c1.42-.71,1.5-2.17,1.57-3.58v-.27c.08-1.5.15-2.38.9-2.94a13.48,13.48,0,0,1,3.58-1.68c1.13-.37,2.68-.86,2.75-2.31,0-.89-.19-4.29-1-5.66-1-1.59-2.14-3.76-2.18-4.65a5.91,5.91,0,0,1,.77-2.32c.24-.5.48-1,.67-1.54a18.65,18.65,0,0,0,.36-5.57c0-.12-.1-.4-.64-2.3-.65-2.26-2.62-9.15-2.64-9.8a2.19,2.19,0,0,0-.51-1.55A3.49,3.49,0,0,1,697,619a3.7,3.7,0,0,1-.16-.64,2.17,2.17,0,0,0-1.38-1.78,10.25,10.25,0,0,1-1.23-.83,16.83,16.83,0,0,0-3.14-1.94,9.49,9.49,0,0,1-2.47-1.61,4.42,4.42,0,0,0-1.2-.82,2.46,2.46,0,0,0-3.12,1.18,4.84,4.84,0,0,0-.48,1,2.09,2.09,0,0,1-1.57,1.56c-2.43.8-3.66.67-3.86.4a7.87,7.87,0,0,0-1.23-1.14c-.91-.74-2.17-1.76-2.34-2.78a13.09,13.09,0,0,0-1.56-3.91c.71-1.21,2.52-3.58,4.31-4.37a16.06,16.06,0,0,0,5.62-3.74,5.27,5.27,0,0,0,1-3.52c0-1.54-1.73-2.23-2.29-2.45s-.79-.61-1.21-1.29a14.3,14.3,0,0,0-1-1.42c-.25-.32-.46-.6-.67-.89a11.29,11.29,0,0,0-2.38-2.53c-1.14-.94-1.82-1-2.52-.78a2.37,2.37,0,0,1,.31-1.15,12,12,0,0,0,.94-3c.05-.25.1-.47.15-.64l.49-1.87c.72-.28,1.37-.65,1.54-1.28.26-1-.3-1.7-1.07-2.74l-.16-.22a2.34,2.34,0,0,1-.58-1.72,20.44,20.44,0,0,0,5.81-3.48,8.12,8.12,0,0,0,2-3.39,7.63,7.63,0,0,1,1.71-2.25,9.66,9.66,0,0,0,.94-1.08c.62-.93,1.06-2.8,0-3.84-.73-.72-2.51-1.26-4.16-1.69a13,13,0,0,1-4.12-2.19,3,3,0,0,0-1.78-1.26,5.52,5.52,0,0,1-.83-.35,3,3,0,0,1-1-1.64c0-.28.49-3.5.69-4.74.17-1,1.19-5.1,2.22-6.42l.51-.66c.47-.61,1.71-2.23,2.12-2.28a3.34,3.34,0,0,1,.76.27,2.92,2.92,0,0,0,2.34.27c.89-.33,2.39-.87,2.39-2.47,0-4.67-.26-5.3-.35-5.51l-.07-.18a1.37,1.37,0,0,0-.69-.86,2.21,2.21,0,0,0-1.69.26,7.6,7.6,0,0,1-4.13.61,4.35,4.35,0,0,1-3-2.78,31.31,31.31,0,0,1,.71-6.08l0-.15v-.07c0-.16-.34-4-2.84-4.37l-2.91-.47-.29,0c-5.55-.91-10.62-1.73-11.68-1.73-2.33,0-6.11-.56-6.74-1.42l-.11-.16c-.94-1.28-1.76-2.39-1.25-3.37a12.8,12.8,0,0,1,1.14-1.65c1-1.27,2-2.59,1.86-3.78l0-.21a26.11,26.11,0,0,0-.57-4.38c-.22-.66-1.91-6-2.52-8l.89-.32a20.28,20.28,0,0,1,2.07-.7,38.74,38.74,0,0,1,6-.74h.23c2.38,0,4.24-.09,4.66-1.26a37.57,37.57,0,0,0,1.61-6.08c0-1.38-1.7-3.14-4-4.1-.5-.21-1-.4-1.58-.59-1.22-.43-2.59-.91-2.76-1.53a10.26,10.26,0,0,1-.39-3.8c.28-.78.81-3.35.93-4s.57-1.28.67-1.46.73-.5,2.24-1.62c1.08-.81,2.32-1.73,2.74-2,.68-.43,1.57-1.77,3.07-4.62l.13-.26c.1-.17.27-.53.49-1,.33-.67.83-1.68,1.24-2.44a5.81,5.81,0,0,1,1.23-1.3,9,9,0,0,0,2-2.25,4.74,4.74,0,0,0,.37-5,5.23,5.23,0,0,0-2.82-2.3l-.41-.2c0-.17.13-.46.26-.85a4.5,4.5,0,0,0,.37-1.73,7.6,7.6,0,0,1,3.27-3.07c1.08-.43,2.18-.8,3.25-1.15l1.65-.56a1.85,1.85,0,0,0,1.13-1,3.56,3.56,0,0,0-.42-2.74,4.63,4.63,0,0,1-.33-.89,4.32,4.32,0,0,1,1.25-3.57c1.38-1.38,1.17-3.29,1-4.82,0-.39-.08-.78-.1-1.15-.11-2.34-3.56-3.18-6.75-3.18a3.65,3.65,0,0,1-2.73-.81c-.23-.17-.48-.35-.78-.54-.78-.48-.72-2.95-.39-4,.17-.55.44-1.94.77-3.57s.71-3.61,1-4.95a6.47,6.47,0,0,0-2.07-6.3c-.33-.32-.84-.77-1.45-1.29a20.53,20.53,0,0,1-3-2.87c-.46-.77.07-3.38.8-4.63a4.3,4.3,0,0,0,.65-3.7c-.09-.29-.25-.69-.44-1.14a9.42,9.42,0,0,1-.9-3.15c0-.7,1.15-2.05,1.82-2.85A8.12,8.12,0,0,0,668,379c.33-.67.43-1.91-1.79-5.62-.36-.59-.81-1.29-1.26-2a30.72,30.72,0,0,1-1.86-3.1c-.17-.4-.08-.54.29-1a5.24,5.24,0,0,0,.41-.59c.38-.67,2.24-4.08,2-5.85s-2.16-5.26-2.72-6.17l.07,0c.7.34,2.16,1.07,2.86,1.47,1.25.71,2.8-.32,3.45-1,.85-.85.24-1.9-.26-2.75,0,0,0-.08,0-.13a2.87,2.87,0,0,1,2-1.11c2-.15,2.62-1.86,3-2.78l.34-.83A13.58,13.58,0,0,0,675.8,344a6.85,6.85,0,0,0-1-3.22l-.31-.64a6.94,6.94,0,0,1-.06-2.75,13.73,13.73,0,0,0,.09-2.46c-.19-1.91-2.65-6.75-3.43-7.52-1-1-2.81-.2-4.07.33l-.45.18-.2.07c-3.08,1.05-4,1.05-4.2,1a4.76,4.76,0,0,1-2.71-1.83,14.49,14.49,0,0,1-1.24-4.27,11.71,11.71,0,0,0-2.4-4.34,1.8,1.8,0,0,1-.67-1.3,23.29,23.29,0,0,1,1.26-4.16c.1-.17.64-.74,3.46-.74,2.45,0,3.82-2.13,4.52-3.23l.16-.23c.13-.15.3-.37.5-.62a19.19,19.19,0,0,1,1.49-1.76c.23-.22,1.06-.11,1.67,0a5.26,5.26,0,0,0,2.09,0,2.32,2.32,0,0,0,1.79-2c0-.16.08-.32.14-.51.23-.72.15-3.28-.1-8.37-.07-1.27-.13-2.57-.13-3.07,0-1.89-2.4-5.8-4.2-6.85-1-.61-.57-2.81-.4-3.63,0-.18,0-.23.87-.37l.43-.08a11.32,11.32,0,0,0,3.35-1.3c1.55-.89,2.8-4.51,2.92-5.3a4.69,4.69,0,0,0-1.51-3.73,8.57,8.57,0,0,0-2.68-1c-.41-.11-.81-.21-1.1-.31a4.31,4.31,0,0,1-.78-1.34C669.64,268.56,670.27,268.47,670.51,268.42Z"/></svg>