<?xml version="1.0" encoding="utf-8"?>
<!-- Generator: Adobe Illustrator 23.0.0, SVG Export Plug-In . SVG Version: 6.00 Build 0)  -->
<svg version="1.1" id="Слой_2" xmlns="http://www.w3.org/2000/svg" xmlns:xlink="http://www.w3.org/1999/xlink" x="0px" y="0px"
	 viewBox="0 0 1437.2 770.8" style="enable-background:new 0 0 1437.2 770.8;" xml:space="preserve">
<style type="text/css">
	.st0{fill:#2D261B;}
</style>
<image style="overflow:visible;enable-background:new    ;" width="17" height="14" id="Vector_Smart_Object_copy_11" xlink:href="15BC2CE1.png"  transform="matrix(1.2353 0 0 1.2353 195.62 288.8116)">
</image>
<g>
	<g>
		<path class="st0" d="M172.6,315.2h2.4l2.1,5.8c0.3,0.7,0.5,1.5,0.8,2.3h0.1c0.3-0.8,0.5-1.6,0.7-2.3l2-5.8h2.4v11.8h-1.9v-5.4
			c0-1.1,0.2-2.7,0.3-3.7h-0.1l-1,2.7l-1.9,5.3h-1.2l-1.9-5.3l-0.9-2.7h-0.1c0.1,1.1,0.3,2.7,0.3,3.7v5.4h-1.9V315.2z"/>
		<path class="st0" d="M185.4,321c0-3.8,2.1-6.1,5.2-6.1c3.1,0,5.2,2.3,5.2,6.1c0,3.8-2.1,6.2-5.2,6.2
			C187.5,327.1,185.4,324.8,185.4,321z M193.6,321c0-2.6-1.2-4.2-3-4.2c-1.9,0-3,1.6-3,4.2s1.2,4.3,3,4.3
			C192.5,325.3,193.6,323.6,193.6,321z"/>
		<path class="st0" d="M197.5,321.1c0-3.9,2.4-6.1,5.4-6.1c1.5,0,2.7,0.7,3.4,1.5l-1.1,1.3c-0.6-0.6-1.3-1-2.2-1
			c-1.9,0-3.3,1.6-3.3,4.3c0,2.7,1.3,4.3,3.2,4.3c1,0,1.9-0.5,2.5-1.2l1.1,1.3c-1,1.1-2.2,1.7-3.7,1.7
			C199.9,327.1,197.5,325,197.5,321.1z"/>
		<path class="st0" d="M208.5,315.2h2.1v4.8h2.9l4.4,7h-2.2l-3.4-5.3h-1.6v5.3h-2.1V315.2z M212.1,320.3l1.8-3.2
			c0.9-1.7,1.7-2.2,2.9-2.2c0.3,0,0.6,0,0.8,0.1l-0.3,1.9c-0.2-0.1-0.4-0.1-0.5-0.1c-0.5,0-0.8,0.2-1.4,1.3l-1.4,2.6L212.1,320.3z"
			/>
		<path class="st0" d="M219.3,315.2h3.8c2.4,0,4.2,0.7,4.2,2.9c0,1.1-0.6,2.2-1.6,2.5v0.1c1.3,0.3,2.3,1.2,2.3,2.8
			c0,2.4-1.9,3.5-4.5,3.5h-4.1V315.2z M222.9,320c1.6,0,2.3-0.6,2.3-1.7c0-1.1-0.8-1.6-2.3-1.6h-1.5v3.2H222.9z M223.2,325.3
			c1.7,0,2.7-0.6,2.7-1.9c0-1.2-0.9-1.8-2.7-1.8h-1.8v3.7H223.2z"/>
		<path class="st0" d="M232.4,315.2h2.4l3.8,11.8h-2.2l-1.8-6.3c-0.4-1.2-0.7-2.6-1.1-3.9h-0.1c-0.3,1.3-0.7,2.6-1,3.9l-1.8,6.3
			h-2.1L232.4,315.2z M230.8,322.1h5.5v1.6h-5.5V322.1z"/>
	</g>
</g>
</svg>
