<svg id="map" xmlns="http://www.w3.org/2000/svg" viewBox="0 0 1437.2 770.75"><defs><style>.cls-1{fill:#acb9bf;}</style></defs><title>msk</title><path class="cls-1" d="M198.62,293.48a5.47,5.47,0,0,0,.86-2.41,2.34,2.34,0,0,1,.19-.26l.05-.06a15.4,15.4,0,0,0,1.54.56c1,.28,3.48.82,4.47,0,.29-.24.66-.61,1-1a10.19,10.19,0,0,1,1-.91,3.58,3.58,0,0,1,1.44-.34l0,.31a5,5,0,0,1,0,2.3l-.1.23c-1,2.17-1.35,3.25-1.09,3.9.62,1.5,1.39,2.39,2.3,2.65a7.82,7.82,0,0,0,1.43.2,7.69,7.69,0,0,1,2.78.62,8,8,0,0,1,1.46,1A6,6,0,0,0,219,302a14.12,14.12,0,0,1,4.47,1.09,5,5,0,0,0,4.57,1.71,1.58,1.58,0,0,1,1.28.39,1.87,1.87,0,0,1,.67,1.1,4.84,4.84,0,0,0,1.58,2.81c-1.3,1.1-2.06,1.77-2.26,2-1.37,1.54-2.21,1.85-2.6,1.89-1.32.16-3.06,1.51-3.94,2.19l-.26.2c-.85.53-1.07,2.5-1,3.43a7.33,7.33,0,0,1-.5,3.27l-.31.23c-.92.66-2.07,1.48-1.86,2.53.1.48.4,5.84.4,7.08a1.52,1.52,0,0,0,.48,1.1c.89.85,2.89.87,3.71.84a3.31,3.31,0,0,0,1.61-.57,1.19,1.19,0,0,1,.47-.19l-.57.76a9.82,9.82,0,0,0-.84,1.19c-.28.56,0,1.26.41,2.35l0,.12.1.24c-.14.69-1,3.84-1.08,4.13l-.15.18a12.85,12.85,0,0,1-2.35-1.19,3.25,3.25,0,0,0-2.28-.76h-.28a15.21,15.21,0,0,0-4.08,1.47c-.48.25-.71.19-1.34,0a7,7,0,0,0-1.06-.24c-.37-.06-1.29-.38-3.2-1.89l-.2-.16a12.38,12.38,0,0,0-3.52-2.24c-1.8-.5-3.18.91-3.69,1.53A13,13,0,0,0,200.1,341a3.16,3.16,0,0,1-1.41,0,9.71,9.71,0,0,0-1.27-.8,15.65,15.65,0,0,1,2.17-3.4c1-.87.62-2.42.31-3.8a12.24,12.24,0,0,1-.25-1.34c-.24-2.17-1.58-2.15-2.18-2.14a4,4,0,0,1-1.59-.39,3.82,3.82,0,0,1,1-1.61,2.93,2.93,0,0,0,.47-2.47,1.1,1.1,0,0,0-.86-.82c-.26-.05-1.17-.17-2.08-.28.07-.17.16-.37.24-.58a14.06,14.06,0,0,1,1.2-2.48c.34-.34,4.61-5.7,4.61-7,0-.11,0-.25,0-.43,0-1.76,0-3.38-1-3.92-.21-.11-.59-.28-1-.49a16.65,16.65,0,0,1-3-1.58,12.72,12.72,0,0,1-1.25-3.37c0-.13-.65-3.18-2.08-4.11-.43-.28-1-.6-1.58-.88a2.35,2.35,0,0,0,.17-.62,2.15,2.15,0,0,0,0-.31c.06-.57.11-.92.44-1.09a9.32,9.32,0,0,1,2.45-.7l.87-.17a5.84,5.84,0,0,0,4-2.53Z"/></svg>