<?xml version="1.0" encoding="utf-8"?>
<!-- Generator: Adobe Illustrator 23.0.0, SVG Export Plug-In . SVG Version: 6.00 Build 0)  -->
<svg version="1.1" id="Слой_2" xmlns="http://www.w3.org/2000/svg" xmlns:xlink="http://www.w3.org/1999/xlink" x="0px" y="0px"
	 viewBox="0 0 1437.2 770.8" style="enable-background:new 0 0 1437.2 770.8;" xml:space="preserve">
<style type="text/css">
	.st0{fill:#2D261B;}
</style>
<image style="overflow:visible;enable-background:new    ;" width="17" height="14" id="Vector_Smart_Object_copy_11" xlink:href="846D3919.png"  transform="matrix(1.2353 0 0 1.2353 573.8521 564.0629)">
</image>
<g>
	<g>
		<path class="st0" d="M522.8,588.1h2.1v4.7h4.8v-4.7h2.1v11.8h-2.1v-5.2h-4.8v5.2h-2.1V588.1z"/>
		<path class="st0" d="M534.1,593.9c0-3.8,2.1-6.1,5.2-6.1c3.1,0,5.2,2.3,5.2,6.1c0,3.8-2.1,6.2-5.2,6.2
			C536.2,600.1,534.1,597.7,534.1,593.9z M542.3,593.9c0-2.6-1.2-4.2-3-4.2c-1.9,0-3,1.6-3,4.2s1.2,4.3,3,4.3
			C541.1,598.3,542.3,596.6,542.3,593.9z"/>
		<path class="st0" d="M546.8,588.1h3.8c2.4,0,4.2,0.7,4.2,2.9c0,1.1-0.6,2.2-1.6,2.5v0.1c1.3,0.3,2.3,1.2,2.3,2.8
			c0,2.4-1.9,3.5-4.5,3.5h-4.1V588.1z M550.4,592.9c1.6,0,2.3-0.6,2.3-1.7c0-1.1-0.8-1.6-2.3-1.6h-1.5v3.2H550.4z M550.7,598.2
			c1.7,0,2.7-0.6,2.7-1.9c0-1.2-0.9-1.8-2.7-1.8h-1.8v3.7H550.7z"/>
		<path class="st0" d="M557,593.9c0-3.8,2.1-6.1,5.2-6.1c3.1,0,5.2,2.3,5.2,6.1c0,3.8-2.1,6.2-5.2,6.2
			C559.1,600.1,557,597.7,557,593.9z M565.2,593.9c0-2.6-1.2-4.2-3-4.2c-1.9,0-3,1.6-3,4.2s1.2,4.3,3,4.3
			C564,598.3,565.2,596.6,565.2,593.9z"/>
		<path class="st0" d="M569.1,594c0-3.9,2.4-6.1,5.4-6.1c1.5,0,2.7,0.7,3.4,1.5l-1.1,1.3c-0.6-0.6-1.3-1-2.2-1
			c-1.9,0-3.3,1.6-3.3,4.3c0,2.7,1.3,4.3,3.2,4.3c1,0,1.9-0.5,2.5-1.2l1.1,1.3c-1,1.1-2.2,1.7-3.7,1.7
			C571.4,600.1,569.1,597.9,569.1,594z"/>
		<path class="st0" d="M580.1,588.1h2.1v5.1c0,1.3-0.2,2.8-0.3,4h0.1l1.2-2.5l3.7-6.6h2.2v11.8H587v-5.2c0-1.3,0.2-2.7,0.3-4h-0.1
			l-1.2,2.5l-3.7,6.6h-2.2V588.1z"/>
		<path class="st0" d="M592.1,588.1h7.7v1.8h-5.6v3h1.9c2.5,0,4.4,0.9,4.4,3.3c0,2.6-1.8,3.7-4.3,3.7h-4.1V588.1z M595.9,598.2
			c1.7,0,2.6-0.6,2.6-2c0-1.3-0.9-1.8-2.6-1.8h-1.7v3.8H595.9z"/>
		<path class="st0" d="M602.7,588.1h2.1v5.1c0,1.3-0.2,2.8-0.3,4h0.1l1.2-2.5l3.7-6.6h2.2v11.8h-2.1v-5.2c0-1.3,0.2-2.7,0.3-4h-0.1
			l-1.2,2.5l-3.7,6.6h-2.2V588.1z"/>
		<path class="st0" d="M614.7,588.1h3.7c2.6,0,4.6,0.9,4.6,3.6c0,2.6-1.9,3.8-4.5,3.8h-1.7v4.3h-2.1V588.1z M618.3,593.9
			c1.8,0,2.6-0.7,2.6-2.1c0-1.5-0.9-2-2.7-2h-1.4v4.1H618.3z"/>
		<path class="st0" d="M624.5,594c0-3.9,2.4-6.1,5.4-6.1c1.5,0,2.7,0.7,3.4,1.5l-1.1,1.3c-0.6-0.6-1.3-1-2.2-1
			c-1.9,0-3.3,1.6-3.3,4.3c0,2.7,1.3,4.3,3.2,4.3c1,0,1.9-0.5,2.5-1.2l1.1,1.3c-1,1.1-2.2,1.7-3.7,1.7
			C626.9,600.1,624.5,597.9,624.5,594z"/>
		<path class="st0" d="M635.5,588.1h2.1v4.8h2.9l4.4,7h-2.2l-3.4-5.3h-1.6v5.3h-2.1V588.1z M639,593.3l1.8-3.2
			c0.9-1.7,1.7-2.2,2.9-2.2c0.3,0,0.6,0,0.8,0.1l-0.3,1.9c-0.2-0.1-0.4-0.1-0.5-0.1c-0.5,0-0.8,0.2-1.4,1.3l-1.4,2.6L639,593.3z"/>
	</g>
</g>
</svg>
