<?xml version="1.0" encoding="utf-8"?>
<!-- Generator: Adobe Illustrator 23.0.0, SVG Export Plug-In . SVG Version: 6.00 Build 0)  -->
<svg version="1.1" id="Слой_2" xmlns="http://www.w3.org/2000/svg" xmlns:xlink="http://www.w3.org/1999/xlink" x="0px" y="0px"
	 viewBox="0 0 1437.2 770.8" style="enable-background:new 0 0 1437.2 770.8;" xml:space="preserve">
<style type="text/css">
	.st0{fill:#2D261B;}
</style>
<image style="overflow:visible;enable-background:new    ;" width="17" height="14" id="Vector_Smart_Object_copy_11" xlink:href="5F0697B.png"  transform="matrix(1.2353 0 0 1.2353 495.635 544.3278)">
</image>
<g>
	<g>
		<path class="st0" d="M481.4,573.5c0-3.8,2.1-6.1,5.2-6.1c3.1,0,5.2,2.3,5.2,6.1c0,3.8-2.1,6.2-5.2,6.2
			C483.5,579.7,481.4,577.3,481.4,573.5z M489.6,573.5c0-2.6-1.2-4.2-3-4.2c-1.9,0-3,1.6-3,4.2s1.2,4.3,3,4.3
			C488.4,577.9,489.6,576.2,489.6,573.5z"/>
		<path class="st0" d="M494.2,567.7h2.4l2.1,5.8c0.3,0.7,0.5,1.5,0.8,2.3h0.1c0.3-0.8,0.5-1.6,0.7-2.3l2-5.8h2.4v11.8h-1.9v-5.4
			c0-1.1,0.2-2.7,0.3-3.7h-0.1l-1,2.7l-1.9,5.3h-1.2l-1.9-5.3l-0.9-2.7h-0.1c0.1,1.1,0.3,2.7,0.3,3.7v5.4h-1.9V567.7z"/>
		<path class="st0" d="M506.9,573.6c0-3.9,2.4-6.1,5.4-6.1c1.5,0,2.7,0.7,3.4,1.5l-1.1,1.3c-0.6-0.6-1.3-1-2.2-1
			c-1.9,0-3.3,1.6-3.3,4.3c0,2.7,1.3,4.3,3.2,4.3c1,0,1.9-0.5,2.5-1.2l1.1,1.3c-1,1.1-2.2,1.7-3.7,1.7
			C509.3,579.7,506.9,577.5,506.9,573.6z"/>
		<path class="st0" d="M517.9,567.7h2.1v4.8h2.9l4.4,7H525l-3.4-5.3H520v5.3h-2.1V567.7z M521.5,572.9l1.8-3.2
			c0.9-1.7,1.7-2.2,2.9-2.2c0.3,0,0.6,0,0.8,0.1l-0.3,1.9c-0.2-0.1-0.4-0.1-0.5-0.1c-0.5,0-0.8,0.2-1.4,1.3l-1.4,2.6L521.5,572.9z"
			/>
	</g>
</g>
</svg>
