<svg id="map" xmlns="http://www.w3.org/2000/svg" viewBox="0 0 1437.2 770.75"><defs><style>.cls-1{fill:#acb9bf;}</style></defs><title>omsk</title><path class="cls-1" d="M524.63,594.88a13.42,13.42,0,0,1-2.8,1.16c-.23,0-.77,0-1.27-.07h-.09c-1.67-.11-3.4-.2-4.66-.18a7.42,7.42,0,0,1-2.82-.56,6.83,6.83,0,0,0-1.22-.37,3.24,3.24,0,0,0-2.5.48,2.55,2.55,0,0,0-1,1.76c0,.23-.05.45-.07.66a2.05,2.05,0,0,1-1.5-1.38c-.13-.3-.24-.67-.37-1.07-.36-1.13-.74-2.3-1.73-2.79a2,2,0,0,0-1.6-.07c-.53.18-1,.37-1.37.54a7.17,7.17,0,0,1-1.58.56l-.46.1-.52.1c0-.87,0-2,.49-2.33a8.17,8.17,0,0,1,2.72-1,3,3,0,0,0,2.72-.25,1.91,1.91,0,0,0,.69-1.69,4,4,0,0,0-2.23-3.37,3.63,3.63,0,0,0-2.39-.38l-.33,0a2.84,2.84,0,0,1-1.46-.4,13.74,13.74,0,0,1-.54-1.3,8.56,8.56,0,0,0-.65-1.51c0-.05-.06-.13-.1-.21l0-.07c-.27-.62-.68-1.54-1.63-1.72a1.67,1.67,0,0,0-1.5.51A12.86,12.86,0,0,1,493,581.5l-.21.07-.09,0c.2-.58.46-1.16.68-1.64a5.72,5.72,0,0,0,.67-2.06v-.15c0-1,0-3-1.14-4.06-.84-.8-1.9-1.8-3-1.32a1.61,1.61,0,0,0-.94,1.62v.42c0,.23,0,.69,0,1.1a5.35,5.35,0,0,0-.82-.5,10.19,10.19,0,0,0-3.36-.91l-.23,0c-.63-.06-2.56-.23-3.1-.94a2.31,2.31,0,0,1-.28-2.08c.09-.14.6-.77,1.07-1.35,3.16-3.92,3.5-4.52,3.5-5.19a12.06,12.06,0,0,0-.62-4.21,2.47,2.47,0,0,1-.19-2.4,17.91,17.91,0,0,0,.72-2.81,9.84,9.84,0,0,1,.22-1,4.43,4.43,0,0,1,.19-.42c.33-.67.94-1.92.12-3a6,6,0,0,0-3.26-1.58h0a5.62,5.62,0,0,1,1-1c.2-.07.45-.14.77-.22,1.15-.31,2.45-.65,2.81-1.68a9.49,9.49,0,0,0,.31-1.45,18.54,18.54,0,0,1,1-3.83c.9-2.29,1.23-2.38,2-2.59a11,11,0,0,0,2.6-1.11c.23-.13.47-.26.74-.39a3.69,3.69,0,0,0,1.92-4.26c-.06-.19-.24-.69-.25-.77a.74.74,0,0,1,.33-.14,2.59,2.59,0,0,0,2-2.51,4.52,4.52,0,0,1,.24-1c.16.15.34.35.51.54.7.77,1.56,1.73,2.65,1.54a6.76,6.76,0,0,0,2.68-1.4l.1-.07c1.05-.79,1.64-6.51,1.64-7.49,0-1.18-.26-6-1.05-7.44a4.28,4.28,0,0,0-1.08-1.18c-.64-.53-.61-.6-.55-.77a9.54,9.54,0,0,0,.09-3.94,31.2,31.2,0,0,1,.06-5,51.78,51.78,0,0,1,5.69-7.29,9.76,9.76,0,0,0,.93-.83c1.31-1.26,1.8-1.52,2.21-1.17l.39.33c1.29,1.06,1.44,1.23.91,2.14s-1.22,1.82-1.9,2.74a15.74,15.74,0,0,0-1.71,2.57c-.34.81-.64,2.29-.12,3.08s1.19.54,1.92.41a10.21,10.21,0,0,1,3.39-.11c1.36.2,3.59,1.79,5.06,2.83.73.52,1.35,1,1.84,1.24a16.32,16.32,0,0,0,5.57,1.76c.55,0,1.17-.4,2.31-1.16.6-.41,2.22-1.49,2.62-1.42a16.32,16.32,0,0,1,3.63,2.65,5.5,5.5,0,0,0,4,1.46,49.56,49.56,0,0,0,8.24-1.35,22.81,22.81,0,0,0,3.86-1.94c.43-.25,1-.56,1.1-.61h0a7.42,7.42,0,0,1-.05,1.54,7.6,7.6,0,0,1-1.19,2c-.22.31-.43.6-.6.87l-.28.43a9.61,9.61,0,0,0-1.81,4,3.58,3.58,0,0,0,1.18,3.18,10.4,10.4,0,0,1,.92,1.17c.48.75.37,1-.75,1.93l-.24.19c-1.1.9-2.53,4.27-2.44,6.36a28.9,28.9,0,0,0,1.66,6.13c.22,1.84.73,7.22.41,9.08-.24,1.4-1.33,1.75-3,2.14l-.7.17a1.71,1.71,0,0,0-1.18.88,2.13,2.13,0,0,0,.32,1.86,4.67,4.67,0,0,1,.44,1.11,7.79,7.79,0,0,1-.06,3.51,3.59,3.59,0,0,1-1.94,2.15c-.68.3-.79.23-1.66-.29-.37-.21-.82-.48-1.43-.77a6.46,6.46,0,0,0-4.63-.29l-.63.13c-1.13.18-1.45,1.2-1.76,2.19a7.69,7.69,0,0,1-.79,1.9c-.46.75-.6.74-1.37.71a7.4,7.4,0,0,0-1.76.12,1.47,1.47,0,0,0-1.26.92c-.26.81.36,1.5,1,2.22a4.29,4.29,0,0,1,.9,1.22c.07.24-.89,1-1.3,1.29a6.26,6.26,0,0,0-1.8,1.79c-.77,1.42-.07,3.07.56,4.54l.38.92c.14.38.34.85.56,1.37.6,1.46,1.72,4.19,1.69,5s-1.14,2-2.48,2.72-1.39,2-1.35,3.08a7.08,7.08,0,0,1,0,.92c-.06.77.09,3.65.26,6.31A6.35,6.35,0,0,0,524.63,594.88Z"/></svg>