<svg id="map" xmlns="http://www.w3.org/2000/svg" viewBox="0 0 1437.2 770.75"><defs><style>.cls-1{fill:#acb9bf;}</style></defs><title>piter</title><path class="cls-1" d="M211.65,198.75l.65-.13a7.9,7.9,0,0,0,.88-.24c.19.3.37.6.5.79,0,0,2.33,3.41,4,3s1.65-1.84,1.68-2.74a21.87,21.87,0,0,0-.3-4.58,1.58,1.58,0,0,1-.05-.25l.86,0,.73,0a6,6,0,0,0,1.56-.39c.19-.06.52-.18.76-.24a4.61,4.61,0,0,1,.22.87,2.76,2.76,0,0,0,2.67,2.21l.18,0a1.8,1.8,0,0,0,1.53,2.13,27.37,27.37,0,0,1,4.11,2.08,14,14,0,0,1,1.19,1.32,15.73,15.73,0,0,1,1,3.81v1a22.59,22.59,0,0,0,.09,3.19c.11.55.59,3.35.59,3.37l.17,1,1,.07c2,.16,3.24-.21,3.72-1.08a7.62,7.62,0,0,0,.51-2.5,13,13,0,0,1,.34-2.13c.07-.21.19-.47.33-.78l0-.09c.67-1.47,1.69-3.7,1.19-5.57a8.91,8.91,0,0,0-2.77-4.33c-.22-.2-.48-.41-.75-.64a10.08,10.08,0,0,1-.84-.74,19.2,19.2,0,0,0,.29-3.08,9.79,9.79,0,0,0-.15-1.53c0-.25-.08-.61-.1-.87l1-.33a13.08,13.08,0,0,0,2.77-1.1c.54-.35,1.79-1.28,1.73-2.39a1.36,1.36,0,0,0-.75-1.15,11.42,11.42,0,0,0-1.19-.44l1.84.24c3,.46,5.77,1,6.13,1.12a24,24,0,0,0,4.32,1.23L255,189l.2,2.07,0,.12c.1.29,1,2.88,1.25,3.74a.49.49,0,0,1,0,.19,1.73,1.73,0,0,1-.26.29,6.22,6.22,0,0,0-.58.67,5.12,5.12,0,0,0-.57,3c0,.38,0,.73,0,1a3.82,3.82,0,0,1-1.21,2l-.55.25a20.9,20.9,0,0,1-2.46,1.06c-.92.19-1.17,1.21-1.16,4.77v.21c0,.35-.49.79-1.54,1.36l-.93.49a17.46,17.46,0,0,0-2.51,1.49,4,4,0,0,0-1.62,4.37,2.92,2.92,0,0,0,2.25,2l.64.24a6.7,6.7,0,0,0,2.73.32,6.76,6.76,0,0,1,1.32.05c.47.1.71,1.05.71,1.55a9.53,9.53,0,0,0,1.29,3.29l.16.32c.58,1.14,2.11,1.28,3.29.91l.3-.09c2-.62,3.08-.93,3.68-1.09a3.49,3.49,0,0,0,2.16,2.4c.19.05.77.29,1.24.49a17.36,17.36,0,0,0,3.23,1.12,1.57,1.57,0,0,0,1.27-.31,2.62,2.62,0,0,0,.68-2c0-.16,0-.32,0-.45a5.16,5.16,0,0,0-.89-2.65c-.14-.26-.39-.74-.42-.83a1.33,1.33,0,0,1,.28-.44,3.78,3.78,0,0,1,1.94.77,9.25,9.25,0,0,1,.74,1.11,9,9,0,0,0,1.18,1.63,1.7,1.7,0,0,0,2,.42l.24-.07a2.33,2.33,0,0,0,1.79-2.57c0-.33-.08-.72-.14-1.12,0-.19-.06-.48-.09-.75h0a28.69,28.69,0,0,1,1.39,3.48c-.1,1.16-.14,3.67,1.15,4.46l.18.12a28.83,28.83,0,0,0,4.88,2.61c.49.14,1.21,2.38,1.21,3.24a27.54,27.54,0,0,1-.56,3.48,13.49,13.49,0,0,1-2.21.38,16.73,16.73,0,0,1-1.73-.32,15.56,15.56,0,0,0-3.14-.5c-1,.06-1.57.91-2,1.67a6.24,6.24,0,0,1-.81,1.1,3.14,3.14,0,0,1-2.14.79h-.19a50.2,50.2,0,0,0-6.53,1.7c-1.44.53-2,2.41-2.5,3.78a8.23,8.23,0,0,1-.33.89c-.11.18-.36.49-.64.84-1.12,1.41-1.84,2.39-1.73,3.22a11.4,11.4,0,0,0,.5,1.64c.1.27.32.89.38,1.12a1.08,1.08,0,0,1-.12.22,8.15,8.15,0,0,0-3.22-.74c-1.2.07-1.84,1.29-2.27,2.1l-.21.42a1.21,1.21,0,0,1-.53.07c-.19,0-.31,0-.27,0s-.21-.27-.4-.52a12.31,12.31,0,0,0-2.13-2.42c-1-.67-1.94-.55-3.55,0a9.25,9.25,0,0,1-.94.25l-.05-.08A7.73,7.73,0,0,1,245,250.6a2.8,2.8,0,0,1,.52-1.21,3.35,3.35,0,0,0,.51-1.11,10.59,10.59,0,0,0-.58-3.77,7.69,7.69,0,0,0-1.9-2.57l-.68-.73a4.42,4.42,0,0,1-.68-3.2c0-.22,0-.41,0-.58,0-1.65-1.68-2.26-2.91-2.7-.48-.17-.85-.27-1.16-.35a2.38,2.38,0,0,1-1.21-.59c-.42-.39-.28-3.48,0-4.24a10.7,10.7,0,0,0-.73-5.72c-.88-1.45-2.79-.63-4.19,0l-.6.25-.34.13c-1,.39-1.1.42-1.34.38a4.59,4.59,0,0,1-1.22-.39l.13-.42a5.17,5.17,0,0,0,.31-2.86,1.45,1.45,0,0,0-.76-1c-1.06-.54-2.78.14-4.3.75l-.74.29c-.68.24-.68.24-1.13-.06-.19-.12-.42-.27-.71-.43a16.89,16.89,0,0,0-5.8-1.81c-.56,0-1.17,0-1.81,0a14.14,14.14,0,0,1-2.22,0,4.79,4.79,0,0,1-1.62-1.32,2.08,2.08,0,0,0,.6-1.5,9.64,9.64,0,0,0,0-1.28c-.06-1-.17-2.58.29-3.11.88-1,2-3.21,1.59-4.4-.1-.34-.22-.83-.35-1.38s-.28-1.15-.42-1.63l-.34-1.13c-.21-.68-.85-2.77-.88-3V199Z"/></svg>