<?xml version="1.0" encoding="utf-8"?>
<!-- Generator: Adobe Illustrator 23.0.0, SVG Export Plug-In . SVG Version: 6.00 Build 0)  -->
<svg version="1.1" id="Слой_2" xmlns="http://www.w3.org/2000/svg" xmlns:xlink="http://www.w3.org/1999/xlink" x="0px" y="0px"
	 viewBox="0 0 1437.2 770.8" style="enable-background:new 0 0 1437.2 770.8;" xml:space="preserve">
<style type="text/css">
	.st0{fill:#2D261B;}
</style>
<image style="overflow:visible;enable-background:new    ;" width="17" height="14" id="Vector_Smart_Object_copy_11" xlink:href="68D7613F.png"  transform="matrix(1.2353 0 0 1.2353 224.9233 201.9099)">
</image>
<g>
	<g>
		<path class="st0" d="M161.4,233.5c0-3.9,2.4-6.1,5.4-6.1c1.5,0,2.7,0.7,3.4,1.5l-1.1,1.3c-0.6-0.6-1.3-1-2.2-1
			c-1.9,0-3.3,1.6-3.3,4.3c0,2.7,1.3,4.3,3.2,4.3c1,0,1.9-0.5,2.5-1.2l1.1,1.3c-1,1.1-2.2,1.7-3.7,1.7
			C163.7,239.6,161.4,237.4,161.4,233.5z"/>
		<path class="st0" d="M174.7,227.6h2.4l3.8,11.8h-2.2l-1.8-6.3c-0.4-1.2-0.7-2.6-1.1-3.9h-0.1c-0.3,1.3-0.7,2.6-1,3.9l-1.8,6.3
			h-2.1L174.7,227.6z M173.1,234.6h5.5v1.6h-5.5V234.6z"/>
		<path class="st0" d="M182.4,227.6h2.1v4.7h4.8v-4.7h2.1v11.8h-2.1v-5.2h-4.8v5.2h-2.1V227.6z"/>
		<path class="st0" d="M194.3,227.6h2.1v4.8h2.9l4.4,7h-2.2l-3.4-5.3h-1.6v5.3h-2.1V227.6z M197.9,232.8l1.8-3.2
			c0.9-1.7,1.7-2.2,2.9-2.2c0.3,0,0.6,0,0.8,0.1l-0.3,1.9c-0.2-0.1-0.4-0.1-0.5-0.1c-0.5,0-0.8,0.2-1.4,1.3l-1.4,2.6L197.9,232.8z"
			/>
		<path class="st0" d="M207.5,229.4h-3.4v-1.8h8.9v1.8h-3.4v10h-2.1V229.4z"/>
		<path class="st0" d="M214.2,234.1h4.3v1.5h-4.3V234.1z"/>
		<path class="st0" d="M220.8,227.6h8.8v11.8h-2.1v-10h-4.6v10h-2.1V227.6z"/>
		<path class="st0" d="M232.5,227.6h7.1v1.8h-5v3h4.2v1.8h-4.2v3.5h5.2v1.8h-7.3V227.6z"/>
		<path class="st0" d="M242.2,227.6h3.7c2.6,0,4.6,0.9,4.6,3.6c0,2.6-1.9,3.8-4.5,3.8h-1.7v4.3h-2.1V227.6z M245.8,233.4
			c1.8,0,2.6-0.7,2.6-2.1c0-1.5-0.9-2-2.7-2h-1.4v4.1H245.8z"/>
		<path class="st0" d="M252.7,227.6h7.1v1.8h-5v3h4.2v1.8h-4.2v3.5h5.2v1.8h-7.3V227.6z"/>
		<path class="st0" d="M264.8,229.4h-3.4v-1.8h8.9v1.8h-3.4v10h-2.1V229.4z"/>
		<path class="st0" d="M272.2,227.6h7.7v1.8h-5.6v3h1.9c2.5,0,4.4,0.9,4.4,3.3c0,2.6-1.8,3.7-4.3,3.7h-4.1V227.6z M276,237.8
			c1.7,0,2.6-0.6,2.6-2c0-1.3-0.9-1.8-2.6-1.8h-1.7v3.8H276z"/>
		<path class="st0" d="M282.7,239.4l0.4-1.8c0.2,0.1,0.4,0.1,0.8,0.1c0.6,0,1.1-0.2,1.3-0.7l0.2-0.5l-4-8.9h2.2l1.8,4.3l0.9,2.6h0.1
			l0.9-2.6l1.6-4.3h2.1l-3.7,9.4c-0.7,1.6-1.6,2.6-3.3,2.6C283.4,239.6,283,239.5,282.7,239.4z"/>
		<path class="st0" d="M292.5,227.6h3.7c2.6,0,4.6,0.9,4.6,3.6c0,2.6-1.9,3.8-4.5,3.8h-1.7v4.3h-2.1V227.6z M296.1,233.4
			c1.8,0,2.6-0.7,2.6-2.1c0-1.5-0.9-2-2.7-2h-1.4v4.1H296.1z"/>
		<path class="st0" d="M302.9,227.6h7.1v1.8h-5v10h-2.1V227.6z"/>
	</g>
</g>
</svg>
