<?xml version="1.0" encoding="utf-8"?>
<!-- Generator: Adobe Illustrator 23.0.0, SVG Export Plug-In . SVG Version: 6.00 Build 0)  -->
<svg version="1.1" id="Слой_2" xmlns="http://www.w3.org/2000/svg" xmlns:xlink="http://www.w3.org/1999/xlink" x="0px" y="0px"
	 viewBox="0 0 1437.2 770.8" style="enable-background:new 0 0 1437.2 770.8;" xml:space="preserve">
<style type="text/css">
	.st0{fill:#2D261B;}
</style>
<image style="overflow:visible;enable-background:new    ;" width="17" height="14" id="Vector_Smart_Object_copy_11" xlink:href="BCDA726C.png"  transform="matrix(1.2353 0 0 1.2353 258.1332 430.1098)">
</image>
<g>
	<g>
		<path class="st0" d="M235.9,459.9c0-3.9,2.4-6.1,5.4-6.1c1.5,0,2.7,0.7,3.4,1.5l-1.1,1.3c-0.6-0.6-1.3-1-2.2-1
			c-1.9,0-3.3,1.6-3.3,4.3c0,2.7,1.3,4.3,3.2,4.3c1,0,1.9-0.5,2.5-1.2l1.1,1.3c-1,1.1-2.2,1.7-3.7,1.7
			C238.3,466,235.9,463.8,235.9,459.9z"/>
		<path class="st0" d="M249.2,454h2.4l3.8,11.8h-2.2l-1.8-6.3c-0.4-1.2-0.7-2.6-1.1-3.9h-0.1c-0.3,1.3-0.7,2.6-1,3.9l-1.8,6.3h-2.1
			L249.2,454z M247.7,461h5.5v1.6h-5.5V461z"/>
		<path class="st0" d="M257,454h2.4l2.1,5.8c0.3,0.7,0.5,1.5,0.8,2.3h0.1c0.3-0.8,0.5-1.6,0.7-2.3l2-5.8h2.4v11.8h-1.9v-5.4
			c0-1.1,0.2-2.7,0.3-3.7h-0.1l-1,2.7l-1.9,5.3h-1.2l-1.9-5.3l-0.9-2.7h-0.1c0.1,1.1,0.3,2.7,0.3,3.7v5.4H257V454z"/>
		<path class="st0" d="M272.7,454h2.4l3.8,11.8h-2.2l-1.8-6.3c-0.4-1.2-0.7-2.6-1.1-3.9h-0.1c-0.3,1.3-0.7,2.6-1,3.9l-1.8,6.3h-2.1
			L272.7,454z M271.1,461h5.5v1.6h-5.5V461z"/>
		<path class="st0" d="M280.4,454h3.7c2.6,0,4.6,0.9,4.6,3.6c0,2.6-1.9,3.8-4.5,3.8h-1.7v4.3h-2.1V454z M284,459.8
			c1.8,0,2.6-0.7,2.6-2.1c0-1.5-0.9-2-2.7-2h-1.4v4.1H284z"/>
		<path class="st0" d="M293.2,454h2.4l3.8,11.8h-2.2l-1.8-6.3c-0.4-1.2-0.7-2.6-1.1-3.9h-0.1c-0.3,1.3-0.7,2.6-1,3.9l-1.8,6.3h-2.1
			L293.2,454z M291.6,461h5.5v1.6h-5.5V461z"/>
	</g>
</g>
</svg>
