<svg id="map" xmlns="http://www.w3.org/2000/svg" viewBox="0 0 1437.2 770.75"><defs><style>.cls-1{fill:#acb9bf;}</style></defs><title>tver</title><path class="cls-1" d="M184,251.49a9.32,9.32,0,0,1-1.4-1.33,33.55,33.55,0,0,1,2.61-3.44,30.52,30.52,0,0,1,3.09-.18,2.16,2.16,0,0,1,1,.68c.08.14.17.32.27.53.51,1.07,1.22,2.54,2.58,2.73.43.06,1,.08,1.6.1a11.05,11.05,0,0,1,3.11.38,21.09,21.09,0,0,1,2.79,1.79c.49.35,1,.68,1.38.95,1.44.94,4.7,1.23,5.72,1.23a5.08,5.08,0,0,0,1-.13c1-.19,1.82-.29,2.16.21l.48.76c.75,1.24,1.69,2.78,3.24,2.84l.53,0c2.22.11,4.29.15,5.32-.39a10.28,10.28,0,0,0,2.84-2.24,3.3,3.3,0,0,0,.63-3,1.24,1.24,0,0,1,.09-.54l.07.13c.82,1.53,2,3.62,3.38,4a7.12,7.12,0,0,0,1.5.24,2.29,2.29,0,0,1,.86.18,9.77,9.77,0,0,1,.13,3.36s-.44,4.19,1.37,4.68a3,3,0,0,0,1.71-.21c.11,0,.33-.11.5-.15v.09c-.08.9.12,1.85,2.16,2a16.19,16.19,0,0,0,3.46-.07l.74-.06A20.31,20.31,0,0,1,242.2,271c.75,1.44,2.59,3,3.42,3.13a4.81,4.81,0,0,0,.5,0,2.48,2.48,0,0,0,1.32-.31,31.54,31.54,0,0,1,4.47.89,2.68,2.68,0,0,1,1.67,2.45c-.12,1.36-.39,4.18-.49,5a5,5,0,0,1-2.6,1.18,4.26,4.26,0,0,0-2.12,1.12,8.44,8.44,0,0,1-.76.6l-.65.46c-.79.56-1.54,1.09-2.47,1.64-1.56.93-1.71,3.36-1.78,4.39a10.76,10.76,0,0,1-1.27,3.11c-.22.4-.58,1.07-.92,1.72s-.79,1.48-.92,1.7a4.42,4.42,0,0,0-.19,2.46c0,.45.06.94.06,1.38s-.57,1-1.17,1.57a8.2,8.2,0,0,0-1.26,1.37A18.83,18.83,0,0,1,233,308l-.1-.07a3.92,3.92,0,0,1-1.2-1.73,3.39,3.39,0,0,0-1.25-2.35,3.25,3.25,0,0,0-2.12-.81,2.77,2.77,0,0,0-.49,0,3.53,3.53,0,0,1-2.94-1c-.73-1.09-4.18-1.63-5.63-1.82a4.41,4.41,0,0,1-2.25-1.24,9.61,9.61,0,0,0-1.76-1.22,9,9,0,0,0-3.39-.79,7.45,7.45,0,0,1-1.12-.15c-.14,0-.62-.27-1.18-1.6a13.6,13.6,0,0,1,1-2.69l.1-.24a5.92,5.92,0,0,0,.15-3.18l-.06-.48a1.32,1.32,0,0,0-.73-1.06c-1.06-.55-2.84.19-3.12.35a8.37,8.37,0,0,0-1.34,1.18c-.32.32-.65.65-.88.84a7.17,7.17,0,0,1-3-.31,16.19,16.19,0,0,1-1.61-.6,1.78,1.78,0,0,0-.56-.68L199,288c-.92-.66-3.08-2.2-3.38-3.13s-1.17-2.93-1.8-4.36l-.53-1.22c-.31-.78-1-2.4-2.69-2.4a64,64,0,0,1-7.28-.45,15.23,15.23,0,0,1-2.3-2.12c-.19-.41-1.36-3.18-1.8-4.22L176.57,265l-1.36-2.36a19.54,19.54,0,0,0,4.17-1.44l.66-.46a10,10,0,0,0,2-1.58,28,28,0,0,0,2.28-4.07C184.48,254.64,185,252.34,184,251.49Z"/></svg>