<?xml version="1.0" encoding="utf-8"?>
<!-- Generator: Adobe Illustrator 23.0.0, SVG Export Plug-In . SVG Version: 6.00 Build 0)  -->
<svg version="1.1" id="Слой_2" xmlns="http://www.w3.org/2000/svg" xmlns:xlink="http://www.w3.org/1999/xlink" x="0px" y="0px"
	 viewBox="0 0 1437.2 770.8" style="enable-background:new 0 0 1437.2 770.8;" xml:space="preserve">
<style type="text/css">
	.st0{fill:#2D261B;}
</style>
<image style="overflow:visible;enable-background:new    ;" width="17" height="14" id="Vector_Smart_Object_copy_11" xlink:href="7636CBF.png"  transform="matrix(1.2353 0 0 1.2353 200.28 250.5922)">
</image>
<g>
	<g>
		<path class="st0" d="M187.7,276h-3.4v-1.8h8.9v1.8h-3.4v10h-2.1V276z"/>
		<path class="st0" d="M195.1,274.3h3.8c2.4,0,4.2,0.7,4.2,2.9c0,1.1-0.6,2.2-1.6,2.5v0.1c1.3,0.3,2.3,1.2,2.3,2.8
			c0,2.4-1.9,3.5-4.5,3.5h-4.1V274.3z M198.7,279.1c1.6,0,2.3-0.6,2.3-1.7c0-1.1-0.8-1.6-2.3-1.6h-1.5v3.2H198.7z M199,284.4
			c1.7,0,2.7-0.6,2.7-1.9c0-1.2-0.9-1.8-2.7-1.8h-1.8v3.7H199z"/>
		<path class="st0" d="M205.9,274.3h7.1v1.8h-5v3h4.2v1.8H208v3.5h5.2v1.8h-7.3V274.3z"/>
		<path class="st0" d="M215.6,274.3h3.7c2.6,0,4.6,0.9,4.6,3.6c0,2.6-1.9,3.8-4.5,3.8h-1.7v4.3h-2.1V274.3z M219.2,280
			c1.8,0,2.6-0.7,2.6-2.1c0-1.5-0.9-2-2.7-2h-1.4v4.1H219.2z"/>
		<path class="st0" d="M226.1,274.3h2.1v4.6h1.8c2.6,0,4.5,1,4.5,3.5c0,2.7-1.9,3.7-4.5,3.7h-3.9V274.3z M229.8,284.4
			c1.7,0,2.6-0.6,2.6-2c0-1.3-0.9-1.8-2.7-1.8h-1.6v3.9H229.8z"/>
	</g>
</g>
</svg>
