<svg id="map" xmlns="http://www.w3.org/2000/svg" viewBox="0 0 1437.2 770.75"><defs><style>.cls-1{fill:#acb9bf;}</style></defs><title>voronezh</title><path class="cls-1" d="M184.5,410.94c-.05,2.27-.13,3.73-.17,3.91a4.29,4.29,0,0,1-1,1.6,9.3,9.3,0,0,1-3.2.62,12.1,12.1,0,0,1-3.73-1.22c-.38-.21-3-2.55-4.53-4l-.33.38.26-.45c-1.7-1.53-3.05-2.74-3.54-3.1-1.54-1.13-4.22-.62-4.52-.56-1.58.32-2.52,3.07-2.56,3.18-.27.82-.83,2.27-1.17,3.07-.15.26-1.14.51-3,.74a18.83,18.83,0,0,0-2.11.41h-.18a.72.72,0,0,0-.43.15,33.32,33.32,0,0,0-4.32,1.35c-.46.18-.94.4-1.46.64a9.9,9.9,0,0,1-3.09,1.1,13.51,13.51,0,0,1-4.25-1.31c-1.07-.52-5.84-3.25-7.21-4.08a7.79,7.79,0,0,0-1.28-.6c.43-2,1.07-5.71.86-7.11a3.24,3.24,0,0,0-1.14-2.1,1.29,1.29,0,0,1-.41-.55c-.06-.18-.14-.4-.22-.65a16.63,16.63,0,0,1,1.65-.8c1.08-.22,4.83-3.61,5.47-5.38l.15-.41c.46-1.29,1.15-3.23,1.79-3.66a3.67,3.67,0,0,1,.88-.38,3.33,3.33,0,0,0,2.42-2,6.44,6.44,0,0,0-.07-3.62.2.2,0,0,0,0-.09,2.2,2.2,0,0,1,.61-.66h.22c1.45-.08,2.91-.23,3.38-1.12a6.68,6.68,0,0,0,.78-3.24,5.3,5.3,0,0,0-.81-2,4.24,4.24,0,0,1-.51-1.08,2.5,2.5,0,0,1,1,.13,2.86,2.86,0,0,0,2.42-.29,1.23,1.23,0,0,0,.54-1c0-.34-.16-1.77-.27-2.74a9.21,9.21,0,0,0,2-2.38c.08-.17.19-.41.3-.68l0-.12c.61-1.41,1-2.28,1.17-2.55a1.37,1.37,0,0,1,.74.52l.12.24c.52,1,.89,1.67,1.61,1.67a.93.93,0,0,0,.83-.53,5.1,5.1,0,0,0,.23-.65,3.31,3.31,0,0,1,.35-.89,3.88,3.88,0,0,1,.79-.28,5.27,5.27,0,0,0,1.5-.62,3.31,3.31,0,0,0,.6-.59c1.62,2.16,5.21,6.93,5.56,7.31a4.86,4.86,0,0,1,1.08,2,18.38,18.38,0,0,0-.26,4.26c.16,1.36,1.6,2.58,2.47,3.31l.15.12c.22.19.49.39.8.62a7,7,0,0,1,1.46,1.28,12.47,12.47,0,0,0,1.15,1.4,16.53,16.53,0,0,1,2.14,2.78.48.48,0,0,1,0,.33c-.1.28-.74.57-1,.71l-.14.06a2.87,2.87,0,0,0-1.84,2.74,4.89,4.89,0,0,0,1.46,2.14,6.14,6.14,0,0,1,.9,1.08c.44,1,5.93,6.59,6.59,7.16a27.71,27.71,0,0,1,2.17,2.14c0,.37.06,1.67,0,3.67A.78.78,0,0,0,184.5,410.94Z"/></svg>