<?xml version="1.0" encoding="utf-8"?>
<!-- Generator: Adobe Illustrator 23.0.0, SVG Export Plug-In . SVG Version: 6.00 Build 0)  -->
<svg version="1.1" id="Слой_2" xmlns="http://www.w3.org/2000/svg" xmlns:xlink="http://www.w3.org/1999/xlink" x="0px" y="0px"
	 viewBox="0 0 1437.2 770.8" style="enable-background:new 0 0 1437.2 770.8;" xml:space="preserve">
<style type="text/css">
	.st0{fill:#2D261B;}
</style>
<image style="overflow:visible;enable-background:new    ;" width="17" height="14" id="Vector_Smart_Object_copy_11" xlink:href="537FA8C6.png"  transform="matrix(1.2353 0 0 1.2353 143.8229 379.273)">
</image>
<g>
	<g>
		<path class="st0" d="M114.3,402.5h3.8c2.4,0,4.2,0.7,4.2,2.9c0,1.1-0.6,2.2-1.6,2.5v0.1c1.3,0.3,2.3,1.2,2.3,2.8
			c0,2.4-1.9,3.5-4.5,3.5h-4.1V402.5z M117.9,407.4c1.6,0,2.3-0.6,2.3-1.7c0-1.1-0.8-1.6-2.3-1.6h-1.5v3.2H117.9z M118.2,412.7
			c1.7,0,2.7-0.6,2.7-1.9c0-1.2-0.9-1.8-2.7-1.8h-1.8v3.7H118.2z"/>
		<path class="st0" d="M124.4,408.4c0-3.8,2.1-6.1,5.2-6.1c3.1,0,5.2,2.3,5.2,6.1c0,3.8-2.1,6.2-5.2,6.2
			C126.5,414.5,124.4,412.2,124.4,408.4z M132.7,408.4c0-2.6-1.2-4.2-3-4.2c-1.9,0-3,1.6-3,4.2s1.2,4.3,3,4.3
			C131.5,412.7,132.7,411,132.7,408.4z"/>
		<path class="st0" d="M137.2,402.5h3.7c2.6,0,4.6,0.9,4.6,3.6c0,2.6-1.9,3.8-4.5,3.8h-1.7v4.3h-2.1V402.5z M140.8,408.3
			c1.8,0,2.6-0.7,2.6-2.1c0-1.5-0.9-2-2.7-2h-1.4v4.1H140.8z"/>
		<path class="st0" d="M147,408.4c0-3.8,2.1-6.1,5.2-6.1c3.1,0,5.2,2.3,5.2,6.1c0,3.8-2.1,6.2-5.2,6.2
			C149.2,414.5,147,412.2,147,408.4z M155.3,408.4c0-2.6-1.2-4.2-3-4.2c-1.9,0-3,1.6-3,4.2s1.2,4.3,3,4.3
			C154.1,412.7,155.3,411,155.3,408.4z"/>
		<path class="st0" d="M159.8,402.5h2.1v4.7h4.8v-4.7h2.1v11.8h-2.1v-5.2h-4.8v5.2h-2.1V402.5z"/>
		<path class="st0" d="M171.7,402.5h7.1v1.8h-5v3h4.2v1.8h-4.2v3.5h5.2v1.8h-7.3V402.5z"/>
		<path class="st0" d="M183.9,407.3h2.6v-4.8h2v4.8h2.6l3.9,7h-2.3l-2.8-5.3h-1.4v5.3h-2V409H185l-2.8,5.3H180L183.9,407.3z
			 M182.3,405.6c-0.5-1.1-0.9-1.3-1.4-1.3c-0.1,0-0.3,0-0.5,0.1l-0.3-1.9c0.2-0.1,0.5-0.1,0.8-0.1c1.2,0,2.1,0.4,2.9,2.2l1.5,3.2
			l-1.8,0.4L182.3,405.6z M189.6,407.7l1.5-3.2c0.8-1.7,1.7-2.2,2.9-2.2c0.3,0,0.6,0,0.8,0.1l-0.3,1.9c-0.2-0.1-0.4-0.1-0.5-0.1
			c-0.5,0-0.9,0.2-1.4,1.3l-1.1,2.5L189.6,407.7z"/>
	</g>
</g>
</svg>
