<svg width="19" height="16" fill="none" xmlns="http://www.w3.org/2000/svg"><path d="M7.308 14.546c0-.796-.663-1.455-1.462-1.455-.8 0-1.461.659-1.461 1.455 0 .795.662 1.454 1.461 1.454.8 0 1.462-.66 1.462-1.454zm10.23 0c0-.796-.662-1.455-1.461-1.455-.8 0-1.462.659-1.462 1.455 0 .795.663 1.454 1.462 1.454.8 0 1.461-.66 1.461-1.454zM19 2.181a.734.734 0 0 0-.73-.727H4.555C4.442.909 4.419 0 3.654 0H.73C.33 0 0 .33 0 .727c0 .398.331.728.73.728h2.33l2.021 9.352c-.183.352-.696 1.204-.696 1.557 0 .397.33.727.73.727h11.693c.4 0 .73-.33.73-.727a.734.734 0 0 0-.73-.728H6.303c.114-.227.274-.465.274-.727 0-.273-.091-.534-.149-.795L18.35 8.727A.746.746 0 0 0 19 8V2.182z" fill="#000"/></svg>