<svg width="25" height="22" fill="none" xmlns="http://www.w3.org/2000/svg"><g clip-path="url(#clip0)" fill="#00AAD2"><path d="M24.98 16.34c-.01-.33-.1-.69-.26-.99-.4-.75-1.72-.89-2.26-.21-.24.3-.42.81-.44 1.19-.06.95-.02 1.38-.02 3H3v-3.21c0-.74-.97-1.71-1.99-1.33-.6.23-1 .76-1.01 1.44 0 1.37-.01 2.73 0 4.1C.01 21.45.64 22 1.78 22c5.34.01 10.68-.01 16.01-.01 1.81 0 3.61.02 5.42.01 1.1-.01 1.82-.6 1.79-1.69-.04-1.32.01-2.65-.02-3.97z"/><path d="M11.01 11.94V7.5 1.54c0-.79.43-1.23 1.06-1.46.56-.21 1.29.06 1.68.6.13.19.19.46.19.69.01 3.34.01 6.68.01 10.02v.63c.45-.42.81-.75 1.16-1.09.9-.86 1.8-1.72 2.71-2.57.55-.52 1.42-.48 1.99.05.62.57.67 1.33.07 1.91-1.42 1.38-2.86 2.73-4.29 4.09-.61.58-1.23 1.17-1.85 1.74-.89.83-1.57.81-2.45-.03-1.89-1.79-3.81-3.56-5.7-5.36-.3-.28-.53-.64-.74-1-.33-.56.16-1.33.69-1.61.52-.28 1.21-.18 1.71.28 1.17 1.09 2.33 2.2 3.5 3.3.06.05.12.09.26.21z"/></g><defs><clipPath id="clip0"><path fill="#fff" d="M0 0h25v22H0z"/></clipPath></defs></svg>