<svg width="39" height="39" viewBox="0 0 39 39" fill="none" xmlns="http://www.w3.org/2000/svg">
<rect width="39" height="39" rx="2" fill="#93A3A7"/>
<g clip-path="url(#clip0)">
<path d="M15 17.2835H17.1429V16.3921V15.519V15.3734C17.1429 14.5329 17.1667 13.234 17.8332 12.4299C18.5357 11.5784 19.5 11 21.1586 11C23.8609 11 24.9999 11.3528 24.9999 11.3528L24.4642 14.2637C24.4642 14.2637 23.5715 14.0271 22.738 14.0271C21.9047 14.0271 21.1586 14.3 21.1586 15.0641V15.3734V16.3922V17.2836H24.5752L24.3371 20.1252H21.1586V30H17.1429V20.1252H15V17.2835Z" fill="white"/>
</g>
<defs>
<clipPath id="clip0">
<rect width="10" height="19" fill="white" transform="matrix(-1 0 0 1 25 11)"/>
</clipPath>
</defs>
</svg>
