<svg width="39" height="39" fill="none" xmlns="http://www.w3.org/2000/svg"><rect width="39" height="39" rx="2" fill="#93A3A7"/><path d="M30.998 14.008h-4.063V10H25.92v4.008h-4.064v1.002h4.064v4.008h1.017V15.01h4.063v-1.002zM17.406 21.512c-.568-.396-1.654-1.36-1.654-1.926 0-.664.192-.992 1.206-1.772 1.039-.8 1.773-1.926 1.773-3.234 0-1.559-.704-3.077-2.024-3.578h1.99L20.104 10h-6.28c-2.815 0-5.464 2.104-5.464 4.54 0 2.49 1.919 4.5 4.783 4.5.2 0 .393-.003.582-.016-.186.35-.319.746-.319 1.156 0 .693.378 1.254.855 1.712-.36 0-.709.01-1.089.01-3.487 0-6.171 2.19-6.171 4.462C7 28.6 9.942 30 13.43 30c3.975 0 6.17-2.225 6.17-4.462 0-1.794-.536-2.869-2.194-4.026zM14.05 18.41c-1.618-.048-3.156-1.785-3.435-3.881-.28-2.096.805-3.7 2.423-3.652 1.618.048 3.155 1.73 3.435 3.825.279 2.096-.806 3.755-2.423 3.708zm-.634 10.601c-2.41 0-4.152-1.505-4.152-3.313 0-1.771 2.16-3.246 4.57-3.22a5.309 5.309 0 0 1 1.562.247c1.309.897 2.247 1.404 2.512 2.427.05.207.077.421.077.639 0 1.807-1.18 3.22-4.57 3.22z" fill="#fff"/></svg>