<svg width="20" height="20" fill="none" xmlns="http://www.w3.org/2000/svg"><path d="M17.833 0H2.221A1.97 1.97 0 0 0 .266 1.975v15.77A1.97 1.97 0 0 0 2.22 19.72h15.612a1.97 1.97 0 0 0 1.956-1.975V1.975A1.97 1.97 0 0 0 17.833 0zm-7.806 5.918c2.146 0 3.903 1.774 3.903 3.942s-1.757 3.943-3.903 3.943-3.903-1.775-3.903-3.943 1.757-3.942 3.903-3.942zM2.702 17.745c-.29 0-.489-.201-.489-.494V8.872H4.26c-.1.302-.1.695-.1.988 0 3.256 2.635 5.918 5.859 5.918 3.223 0 5.858-2.662 5.858-5.918 0-.293 0-.686-.1-.988h2.056v8.379c0 .293-.199.494-.489.494H2.702zM17.833 4.436c0 .293-.199.494-.489.494h-1.956c-.29 0-.488-.2-.488-.494V2.461c0-.293.198-.494.489-.494h1.955c.29 0 .489.2.489.494v1.975z" fill="#9E9E9E"/></svg>