<svg width="15" height="13" fill="none" xmlns="http://www.w3.org/2000/svg"><path d="M7.498 1.529c.114-.122.214-.242.325-.348A4.22 4.22 0 0 1 8.868.444c.225-.11.45-.213.695-.269.155-.035.311-.07.466-.108.383-.096.77-.066 1.156-.049.183.008.366.06.545.103.21.051.417.108.62.18.157.058.309.138.454.224.176.107.353.22.513.35.197.16.392.327.56.517.191.217.364.454.523.696.103.156.173.333.246.506.076.184.146.374.201.566.073.252.125.51.125.776 0 .146.03.294.027.44a3.289 3.289 0 0 1-.053.553c-.05.245-.122.482-.189.723-.035.125-.066.253-.114.375-.075.193-.15.388-.248.571-.127.238-.266.47-.416.693-.142.209-.301.405-.46.6-.19.236-.38.472-.584.695-.235.258-.48.508-.73.75-.26.252-.53.496-.8.735-.261.232-.527.458-.797.677-.28.228-.566.447-.85.667-.254.195-.503.392-.763.576-.395.281-.798.552-1.199.827-.075.053-.152.1-.224.156-.048.035-.093.033-.14.001-.259-.176-.519-.349-.776-.528-.2-.14-.395-.287-.594-.43-.183-.13-.373-.255-.553-.39-.25-.191-.493-.391-.741-.587-.157-.124-.32-.242-.473-.371-.29-.245-.582-.487-.862-.744a30.16 30.16 0 0 1-1.08-1.04 15.31 15.31 0 0 1-.84-.928c-.186-.223-.338-.476-.515-.708a5.221 5.221 0 0 1-.511-.876c-.078-.16-.13-.332-.186-.5a7.995 7.995 0 0 1-.146-.494 3.085 3.085 0 0 1-.126-.753C.026 4.45-.002 4.272 0 4.096c.003-.172.02-.347.053-.517a5.31 5.31 0 0 1 .161-.648c.134-.417.331-.805.587-1.159.192-.265.409-.511.66-.724A4.268 4.268 0 0 1 3.53.061a3.89 3.89 0 0 1 .878-.05c.142.006.283.005.42.023.13.017.258.054.385.084A3.745 3.745 0 0 1 6.22.492c.24.126.47.269.674.446.19.164.365.343.545.516.025.023.043.053.059.075z" fill="#95A3A7"/></svg>