<svg viewBox="0 0 278 43" fill="none" xmlns="http://www.w3.org/2000/svg"><path fill-rule="evenodd" clip-rule="evenodd" d="M27.305 8.263H18.44v26.944H9.147V8.263H0V0h27.305v8.263zm25.758 26.905h-8.25v-3.694h-.095c-1.602 2.759-4.902 4.474-7.9 4.474-7.441 0-9.594-4.474-9.594-11.542V8.175h8.497V23.83c0 3.587 1.498 4.837 4.196 4.837 1.85 0 4.647-1.25 4.647-6.03V8.174h8.5v26.993zM64.354 21.39c0 4.732 1.3 7.795 5.143 7.795 3.802 0 5.102-4.105 5.102-7.795 0-3.43-1.3-7.234-5.045-7.234-2.302 0-5.2 1.672-5.2 7.234zM56.158 8.175h8.092v3.121h.104C66.001 8.75 68.502 7.4 71.5 7.4c8.145 0 11.594 7.282 11.594 14.87 0 7.021-3.597 13.678-10.942 13.678-3.203 0-5.648-1.245-7.398-3.69h-.101V43h-8.494V8.175zM93.083 21.39c0 4.732 1.3 7.795 5.148 7.795 3.799 0 5.098-4.105 5.098-7.795 0-3.43-1.299-7.234-5.047-7.234-2.3 0-5.2 1.672-5.2 7.234zM84.886 8.175h8.098v3.121h.099c1.65-2.546 4.153-3.896 7.145-3.896 8.148 0 11.595 7.282 11.595 14.87 0 7.021-3.597 13.678-10.944 13.678-3.2 0-5.645-1.245-7.4-3.69h-.092V43h-8.5V8.175zm47.515 10.714c-.147-3.012-2.2-5.509-5.045-5.509-2.997 0-4.992 2.228-5.501 5.51H132.401zm-10.546 4.942c.153 3.693 2.199 6.137 5.798 6.137 2.054 0 4.049-.988 4.851-2.962h7.943c-1.554 6.243-7.095 8.942-12.893 8.942-8.442 0-14.191-5.308-14.191-14.349 0-8.268 6.347-14.199 13.993-14.199 9.29 0 13.943 7.282 13.543 16.431h-19.044zm20.922-15.656h8.248v4.736h.097c1.25-3.433 4.15-5.254 7.797-5.254.649 0 .646.053 1.292.21v8.08s-1.388.006-2.537.006c-4.203 0-6.398 3.012-6.398 6.394V35.17h-8.497V8.175h-.002zm52.042 26.993h-8.593l-4.102-17.94h-.098l-4.05 17.94h-8.593l-8.097-26.993h8.596l4.346 17.474h.105l3.694-17.474h8.096l3.797 17.421h.103l4.243-17.421h8.648l-8.095 26.993zm18.715-4.68c4.047 0 5.403-2.393 5.198-7.955-1.199.775-3.396.935-5.245 1.455-1.898.47-3.497 1.3-3.497 3.43 0 2.186 1.647 3.07 3.544 3.07zm-10.99-13.99c.145-3.534 1.742-5.826 4.044-7.223 2.301-1.357 5.296-1.875 8.247-1.875 6.143 0 12.093 1.4 12.093 9.047v18.721h-7.971s.026-1.662-.073-2.547c-2.199 2.395-5.444 3.325-8.547 3.325-4.948 0-8.846-2.596-8.846-8.162 0-8.79 9.195-8.115 15.092-9.36 1.451-.313 2.252-.831 2.252-2.497 0-2.025-2.351-2.81-4.097-2.81-2.351 0-3.849 1.096-4.252 3.381h-7.942zm64.073 2.391c-.152-3.012-2.199-5.509-5.044-5.509-3.004 0-4.999 2.228-5.495 5.51h10.539zm-10.539 4.942c.145 3.693 2.195 6.137 5.793 6.137 2.046 0 4.043-.988 4.849-2.962h7.943c-1.549 6.243-7.099 8.942-12.893 8.942-8.445 0-14.193-5.308-14.193-14.349 0-8.268 6.349-14.199 13.996-14.199 9.294 0 13.94 7.282 13.543 16.431h-19.038zM230.035 8.214h8.245v4.73h.099c1.251-3.43 4.144-5.252 7.798-5.252.646 0 .637.053 1.287.209v8.082h-2.537c-4.197 0-6.394 3.018-6.394 6.398v12.826h-8.498V8.214zm44.033-6.79h1.137c.692 0 1.016.267 1.016.83 0 .525-.328.744-.761.792l.832 1.285h-.501l-.792-1.252h-.465v1.252h-.466V1.424zm.466 1.279h.471c.398 0 .754-.011.754-.47 0-.388-.322-.434-.629-.434h-.596v.904zm.607 3.019a2.858 2.858 0 1 0-.003-5.72 2.86 2.86 0 1 0 .003 5.72zm-2.496-2.86a2.496 2.496 0 0 1 2.498-2.496 2.498 2.498 0 0 1 2.498 2.496 2.498 2.498 0 0 1-4.998 0h.002z" fill="#231F20"/></svg>