<svg width="17" height="16" fill="none" xmlns="http://www.w3.org/2000/svg"><path d="M9.225 16H7.829c-.036-.01-.072-.021-.11-.027-.49-.08-.99-.125-1.471-.242-2.292-.554-4.099-1.776-5.256-3.824-.94-1.663-1.18-3.456-.855-5.32.277-1.59 1-2.967 2.176-4.094A9.023 9.023 0 0 1 11.86.631c2.818 1.11 4.516 3.14 5.015 6.101.056.337.084.678.125 1.017v.782c-.01.053-.023.105-.026.158a7.58 7.58 0 0 1-.309 1.763c-.339 1.123-.894 2.114-1.838 2.864-.481.383-1.03.51-1.635.396-.732-.138-1.61-.757-1.597-1.838.002-.12 0-.24 0-.395-1.854 1.773-4.7 1.856-6.64.066C3.18 9.91 2.867 7.448 4.21 5.517c.844-1.214 2-1.983 3.503-2.154 1.514-.173 2.79.379 3.893 1.386.098-.53.37-.748.859-.71.428.033.7.343.713.812.002.05 0 .098 0 .147l.001 6.391c0 .244.095.4.283.469.193.07.37.024.518-.184.18-.252.361-.51.49-.79a6.953 6.953 0 0 0 .557-4.076c-.19-1.183-.695-2.225-1.596-3.044-1.825-1.66-3.986-2.229-6.419-1.8-1.393.245-2.586.866-3.522 1.934-1.758 2.006-2.1 4.9-.85 7.158C4 13.513 7.06 14.603 9.56 14.15c.347-.063.68-.19 1.019-.29.338-.098.664-.094.93.165.26.253.312.569.203.905-.101.308-.325.521-.623.64-.27.11-.55.2-.835.263-.339.075-.686.113-1.03.167zm2.206-7.884c-.002-.716-.176-1.382-.63-1.952-.74-.932-1.747-1.258-2.91-1.163-1.117.092-1.922.655-2.385 1.653-.41.882-.444 1.798-.134 2.718.233.693.675 1.234 1.341 1.572 1.982 1.003 4.711-.179 4.718-2.828z" fill="#fff"/></svg>