<svg width="12" height="20" fill="none" xmlns="http://www.w3.org/2000/svg"><path d="M6.293.002c-2.844 0-5.15 2.32-5.15 5.183 0 2.862 2.306 5.183 5.15 5.183 2.845 0 5.151-2.32 5.151-5.183S9.138.002 6.294.002zm0 7.325c-1.176 0-2.129-.959-2.129-2.142 0-1.183.953-2.143 2.13-2.143 1.175 0 2.129.96 2.129 2.143a2.136 2.136 0 0 1-2.13 2.142zM8.112 14.49c2.062-.423 3.298-1.405 3.363-1.458.604-.487.7-1.374.217-1.98a1.395 1.395 0 0 0-1.97-.219c-.012.01-1.33 1.028-3.498 1.03-2.169-.002-3.515-1.02-3.527-1.03a1.395 1.395 0 0 0-1.97.218 1.415 1.415 0 0 0 .217 1.981c.067.054 1.353 1.062 3.473 1.475l-2.954 3.106c-.537.56-.521 1.453.036 1.993a1.391 1.391 0 0 0 1.98-.036l2.745-2.942 3.022 2.96c.547.55 1.434.55 1.98 0a1.415 1.415 0 0 0-.001-1.994L8.112 14.49z" fill="#9E9E9E"/><path d="M6.224 11.864c-.004 0 .003.463 0 .926-.004-.463.003-.926 0-.926z" fill="#9E9E9E"/></svg>