<svg width="15" height="18" fill="none" xmlns="http://www.w3.org/2000/svg"><path d="M7.954.736C2.666.736 0 4.336 0 7.34c0 1.817.724 3.434 2.28 4.037.254.1.482.004.556-.264.051-.186.174-.654.227-.848.075-.265.046-.358-.16-.59-.448-.502-.733-1.152-.733-2.072 0-2.671 2.103-5.062 5.479-5.062 2.988 0 4.63 1.734 4.63 4.05 0 3.048-1.42 5.62-3.528 5.62-1.165 0-2.036-.915-1.757-2.036.334-1.339.983-2.784.983-3.75 0-.865-.489-1.587-1.501-1.587-1.19 0-2.147 1.17-2.147 2.735 0 .998.356 1.673.356 1.673l-1.432 5.759c-.2.803-.225 1.689-.194 2.427l-.05-.022c.003.133.005.293.007.473.458-.012.916-.019 1.374-.021.417-.631.87-1.435 1.103-2.239.137-.47.783-2.905.783-2.905.387.7 1.517 1.317 2.719 1.317 3.578 0 6.005-3.097 6.005-7.243C15 3.656 12.203.736 7.954.736z" fill="#fff"/></svg>