<svg width="15" height="14" fill="none" xmlns="http://www.w3.org/2000/svg"><path d="M2.333 2.63v-.143c0-.502.012-1.005 0-1.507a.915.915 0 0 1 .623-.92C3.066.024 3.2 0 3.31 0h8.355c.367 0 .66.143.868.442.097.144.134.311.134.479v1.697h1.026c.5 0 .892.215 1.148.634.11.18.159.383.159.586V8.93a.56.56 0 0 1-.574.562c-.55-.012-1.087 0-1.637 0-.098 0-.122.024-.122.12v3.395c0 .442-.232.765-.66.92a.93.93 0 0 1-.317.048H3.298c-.415 0-.77-.227-.916-.61a1.165 1.165 0 0 1-.061-.358V9.624c0-.143 0-.143-.147-.143-.525 0-1.05-.012-1.575 0C.219 9.54 0 9.23 0 8.93c.012-.586 0-1.16 0-1.734 0-1.1 0-2.212.012-3.311 0-.515.245-.885.709-1.124.17-.084.354-.12.55-.12h.94c.024-.012.061-.012.122-.012zm.843 4.986v5.416c0 .155.037.19.195.19h8.258c.17 0 .207-.035.207-.202V7.723c0-.036 0-.071-.012-.107H3.176zm8.648-4.986v-.107V.98c0-.155-.037-.19-.195-.19H3.37c-.17 0-.195.035-.195.19v1.65h8.648zm.012 1.937c0 .31.171.478.477.502.28.012.513-.275.513-.49a.53.53 0 0 0-.513-.514c-.281-.012-.477.203-.477.502z" fill="#009ABE"/><path d="M7.474 12.506H4.421a.451.451 0 0 1-.38-.168c-.097-.131-.097-.275-.048-.418a.399.399 0 0 1 .379-.24h6.144c.159 0 .28.037.379.168.11.132.11.275.048.418-.06.144-.195.228-.366.24H7.474zM7.476 9.302H4.41a.47.47 0 0 1-.367-.156.404.404 0 0 1-.049-.418c.074-.168.22-.251.403-.251h6.132c.147 0 .27.035.367.143.122.132.134.287.06.442a.416.416 0 0 1-.39.24h-3.09zM7.476 10.88H4.41c-.208 0-.38-.108-.428-.288a.388.388 0 0 1 .195-.478.671.671 0 0 1 .27-.048h6.057c.16 0 .306.024.404.168.183.25.024.598-.293.645H7.476z" fill="#009ABE"/></svg>