<svg width="11" height="17" fill="none" xmlns="http://www.w3.org/2000/svg"><path fill-rule="evenodd" clip-rule="evenodd" d="M1.984 13.28c.004.819.186 1.61.748 2.203.072.076.138.116.208.185.53.53 1.31.94 2.28 1.159.997.226 2.198.217 3.204.059.74-.117 2.046-.505 2.576-.822l-.002-2.657c-.269.06-1.442.962-3.023.798-1.258-.13-1.695-.925-1.748-2.037-.048-.383-.048-5.117-.042-5.194h4.218V4.317l-4.236-.01-.02-4.29H4.102c-.304-.003-.449-.086-.5.154-.174.804-.224 1.334-.606 2.025C2.396 3.28 1.273 4.28 0 4.556v2.417l1.976.016.008 6.292z" fill="#fff"/></svg>