<svg width="39" height="39" fill="none" xmlns="http://www.w3.org/2000/svg"><rect width="39" height="39" rx="2" fill="#93A3A7"/><g clip-path="url(#clip0)"><path fill-rule="evenodd" clip-rule="evenodd" d="M25.784 20.393s2.503-3.491 2.752-4.639c.083-.41-.1-.64-.53-.64h-2.173c-.497 0-.68.214-.829.525 0 0-1.174 2.474-2.603 4.033-.458.504-.692.656-.945.656-.204 0-.298-.168-.298-.623v-3.984c0-.557-.066-.721-.53-.721h-3.482c-.265 0-.431.152-.431.36 0 .526.812.644.812 2.066v2.935c0 .59-.033.82-.315.82-.746 0-2.52-2.542-3.515-5.427-.199-.59-.414-.754-.978-.754h-2.172c-.315 0-.547.213-.547.524 0 .574.68 3.23 3.35 6.787C15.14 24.706 17.493 26 19.615 26c1.293 0 1.608-.213 1.608-.754V23.41c0-.46.183-.656.448-.656.298 0 .825.095 2.056 1.295C25.187 25.426 25.286 26 26.082 26h2.437c.249 0 .481-.115.481-.525 0-.54-.713-1.508-1.807-2.655-.448-.59-1.177-1.23-1.41-1.525-.33-.344-.232-.541 0-.902z" fill="#fff"/></g><defs><clipPath id="clip0"><path fill="#fff" transform="translate(10 15)" d="M0 0h19v11H0z"/></clipPath></defs></svg>