<svg width="19" height="11" fill="none" xmlns="http://www.w3.org/2000/svg"><path fill-rule="evenodd" clip-rule="evenodd" d="M15.784 5.393s2.503-3.491 2.752-4.639c.083-.41-.1-.64-.53-.64h-2.173c-.497 0-.68.214-.829.525 0 0-1.174 2.474-2.603 4.033-.458.504-.691.656-.945.656-.204 0-.298-.168-.298-.623V.721c0-.557-.066-.721-.53-.721H7.145c-.265 0-.431.153-.431.36 0 .525.812.644.812 2.066v2.935c0 .59-.033.82-.315.82-.746 0-2.52-2.542-3.515-5.427C3.498.164 3.283 0 2.72 0H.547C.232 0 0 .213 0 .525c0 .573.68 3.23 3.35 6.787C5.14 9.705 7.493 11 9.615 11c1.293 0 1.608-.213 1.608-.754V8.41c0-.46.183-.656.448-.656.298 0 .825.095 2.056 1.295C15.187 10.426 15.286 11 16.082 11h2.437c.249 0 .481-.115.481-.525 0-.54-.713-1.508-1.807-2.655-.448-.59-1.177-1.23-1.41-1.525-.33-.344-.231-.541 0-.902z" fill="#fff"/></svg>