<svg width="25" height="15" fill="none" xmlns="http://www.w3.org/2000/svg"><path d="M12.552 14.368h1.47s.46-.093.644-.28c.184-.186.184-.652.184-.652s0-1.958.827-2.237c.92-.28 2.022 1.864 3.217 2.703.92.652 1.563.466 1.563.466h3.217s1.654-.093.919-1.492c-.092-.093-.46-1.025-2.39-2.796-2.022-1.864-1.746-1.584.644-4.94 1.47-2.05 2.022-3.262 1.838-3.728-.184-.466-1.287-.373-1.287-.373h-3.585s-.275 0-.46.093c-.183.093-.275.466-.275.466s-.552 1.585-1.287 2.89C16.23 7.284 15.585 7.47 15.31 7.284c-.643-.373-.46-1.585-.46-2.517 0-2.703.368-3.821-.735-4.101-.367-.093-.643-.187-1.654-.187-1.287 0-2.39 0-2.941.28-.552.187-.828.653-.644.653.276 0 .736.186 1.103.559.276.466.276 1.678.276 1.678s.184 3.169-.46 3.542c-.46.28-1.194-.28-2.573-2.797-.736-1.305-1.287-2.796-1.287-2.796s-.092-.28-.276-.373c-.276-.186-.551-.28-.551-.28H1.614s-.552 0-.735.28c-.184.187 0 .653 0 .653s2.757 6.431 5.79 9.694c2.758 2.982 5.883 2.796 5.883 2.796z" fill="#9E9E9E"/></svg>