<svg xmlns="http://www.w3.org/2000/svg"
xmlns:xlink="http://www.w3.org/1999/xlink"
viewBox="0 0 30 30" version="1.1" x="0px" y="0px">
	<title>icons-photo-insta</title>
	<g stroke="none" stroke-width="1" fill-rule="evenodd">
		<g fill-rule="nonzero" >
			<path d="M5,5 L5,25 L25,25 L25,5 L5,5 Z M3,3 L27,3 L27,27 L3,27 L3,3 Z M15,19 C17.209139,19 19,17.209139 19,15 C19,12.790861 17.209139,11 15,11 C12.790861,11 11,12.790861 11,15 C11,17.209139 12.790861,19 15,19 Z M15,21 C11.6862915,21 9,18.3137085 9,15 C9,11.6862915 11.6862915,9 15,9 C18.3137085,9 21,11.6862915 21,15 C21,18.3137085 18.3137085,21 15,21 Z M21.5,10 C20.6715729,10 20,9.32842712 20,8.5 C20,7.67157288 20.6715729,7 21.5,7 C22.3284271,7 23,7.67157288 23,8.5 C23,9.32842712 22.3284271,10 21.5,10 Z"/>
		</g>
	</g>
</svg>
