<?xml version="1.0" encoding="UTF-8" standalone="no"?>
<svg
   xmlns:dc="http://purl.org/dc/elements/1.1/"
   xmlns:cc="http://creativecommons.org/ns#"
   xmlns:rdf="http://www.w3.org/1999/02/22-rdf-syntax-ns#"
   xmlns:svg="http://www.w3.org/2000/svg"
   xmlns="http://www.w3.org/2000/svg"
   xmlns:xlink="http://www.w3.org/1999/xlink"
   viewBox="113 575 110 80"
   id="svg2"
   height="78"
   width="60"
   version="1.1">
  <metadata
     id="metadata80">
    <rdf:RDF>
      <cc:Work
         rdf:about="">
        <dc:format>image/svg+xml</dc:format>
        <dc:type
           rdf:resource="http://purl.org/dc/dcmitype/StillImage" />
      </cc:Work>
    </rdf:RDF>
  </metadata>
  <defs
     id="defs78" />




  <g
     id="g36">
    <path
       id="path38"
       style="fill:#2e9e62;fill-rule:evenodd"
       d="m 173.4005,607.1008 c -0.2421,3.2719 -1.6253,6.2233 -3.8068,8.4041 -2.3684,2.3691 -5.6421,3.8343 -9.2559,3.8343 -3.6137,0 -6.8874,-1.4652 -9.2558,-3.8343 -2.3691,-2.3684 -3.8343,-5.642 -3.8343,-9.2558 0,-3.6138 1.4652,-6.8875 3.8343,-9.2559 2.3684,-2.369 5.6421,-3.8342 9.2558,-3.8342 2.8574,0 2.6153,3.4289 0,3.4289 -2.668,0 -5.0837,1.0815 -6.8315,2.8296 -1.7481,1.7478 -2.8296,4.1635 -2.8296,6.8316 0,2.668 1.0815,5.0838 2.8296,6.8315 1.7478,1.7481 4.1635,2.8296 6.8315,2.8296 2.6681,0 5.0838,-1.0815 6.8316,-2.8296 1.5722,-1.5718 2.6064,-3.6841 2.7973,-6.0346 0.2356,-2.9003 3.619,-2.4494 3.4338,0.0548 z" />
    <path
       id="path40"
       style="fill:#31c25c;fill-rule:evenodd"
       d="m 187.6407,599.6891 c 0.3532,1.7639 0.6608,4.7755 0.6608,6.56 0,7.7213 -3.1307,14.713 -8.1905,19.7731 -5.0601,5.0598 -12.0518,8.1905 -19.7732,8.1905 -7.7213,0 -14.713,-3.1307 -19.7731,-8.1905 -5.0605,-5.0604 -8.1905,-12.0518 -8.1905,-19.7731 0,-7.7214 3.13,-14.7127 8.1905,-19.7732 5.0605,-5.0605 12.0518,-8.1905 19.7731,-8.1905 1.8291,0 3.6749,0.2298 5.531,0.5634 3.8027,0.6838 4.9456,2.5385 4.2903,4.0894 -0.6553,1.5509 -1.8818,1.6288 -5.295,0.9334 -1.4515,-0.2959 -2.9692,-0.4427 -4.5263,-0.4427 -6.3017,0 -12.0068,2.5542 -16.1364,6.6838 -4.1295,4.1295 -6.6837,9.8346 -6.6837,16.1364 0,6.3014 2.5542,12.0068 6.6837,16.1364 4.1296,4.1291 9.8347,6.6837 16.1364,6.6837 6.3015,0 12.0069,-2.5546 16.1365,-6.6837 4.1291,-4.1296 6.6837,-9.835 6.6837,-16.1364 0,-1.4844 -0.1416,-2.9507 -0.419,-4.3764 -0.7921,-4.0685 0.2421,-4.8915 1.4354,-5.2669 1.1932,-0.3755 2.8498,0.003 3.4663,3.0833 z" />
    <path
       id="path42"
       style="fill:#2ee64d;fill-rule:evenodd"
       d="m 203.8978,593.9181 c 0.2575,0.8713 0.4698,1.7577 0.6642,2.6448 0.6971,3.1776 1.0517,6.4255 1.0517,9.6862 0,12.502 -5.0681,23.821 -13.2612,32.0146 -8.1936,8.1932 -19.5126,13.2612 -32.0147,13.2612 -12.5023,0 -23.821,-5.068 -32.0146,-13.2612 -8.1935,-8.1936 -13.2612,-19.513 -13.2612,-32.0146 0,-12.5024 5.0677,-23.8211 13.2612,-32.0146 8.1936,-8.1936 19.5123,-13.2613 32.0146,-13.2613 3.6786,0 7.3477,0.4554 10.9261,1.3463 1.4361,0.3573 2.8526,0.7835 4.242,1.2762 5.4061,1.9172 5.0907,4.4501 4.3764,5.8303 -0.7142,1.3802 -1.8571,2.3039 -6.8802,0.5456 -1.1107,-0.3889 -2.2367,-0.7256 -3.3724,-1.0082 -3.01,-0.7492 -6.13,-1.1322 -9.2919,-1.1322 -10.6092,0 -20.2141,4.2999 -27.166,11.2518 -6.9519,6.9519 -11.2518,16.5568 -11.2518,27.1661 0,10.6092 4.2999,20.2141 11.2518,27.166 6.9519,6.9516 16.5568,11.2518 27.166,11.2518 10.6093,0 20.2142,-4.3002 27.1661,-11.2518 6.9515,-6.9519 11.2518,-16.5568 11.2518,-27.166 0,-2.7844 -0.3007,-5.5471 -0.8912,-8.2399 -0.1532,-0.7002 -0.3264,-1.3966 -0.5181,-2.0851 -1.5362,-5.5214 -0.0895,-6.776 1.3833,-7.3339 1.4727,-0.5579 3.5918,-0.005 5.1681,5.3279 z" />
    <path
       id="path44"
       style="fill:#266e44;fill-rule:evenodd"
       d="m 160.3652,606.6202 37.9445,-54.1978 c 3.6255,-5.1784 12.1697,-8.3117 18.3673,-2.1141 6.1977,6.1977 2.849,14.8931 -2.1138,18.3676 l -54.198,37.9443 z m 42.6712,-53.6472 c 3.0297,-3.0296 7.9415,-3.0296 10.9712,0 3.0296,3.0297 3.0296,7.9416 0,10.9712 -3.0297,3.0297 -7.9415,3.0297 -10.9712,0 -3.0297,-3.0296 -3.0297,-7.9415 0,-10.9712 z" />
  </g>
  <path
     id="path46"
     style="fill:#266e44;fill-rule:evenodd"
     d="m 182.6145,676.5245 0,-11.4548 2.5086,0 0,11.4548 -2.5086,0 z m -39.88,-1.5677 c -0.9316,0.7934 -1.8293,1.3489 -2.689,1.6771 -0.8603,0.3278 -1.7817,0.4893 -2.7702,0.4893 -1.625,0 -2.8749,-0.3943 -3.7486,-1.1875 -0.8747,-0.789 -1.3116,-1.8012 -1.3116,-3.0312 0,-0.7225 0.1663,-1.3829 0.4941,-1.9819 0.3327,-0.5987 0.7647,-1.0736 1.2972,-1.4347 0.5367,-0.3611 1.1354,-0.6364 1.8057,-0.8223 0.4938,-0.1282 1.2396,-0.2513 2.233,-0.3748 2.0241,-0.2379 3.5208,-0.5277 4.4755,-0.8603 0.01,-0.3419 0.0144,-0.561 0.0144,-0.6512 0,-1.0163 -0.2373,-1.734 -0.7126,-2.152 -0.6415,-0.5654 -1.5965,-0.8459 -2.8601,-0.8459 -1.1833,0 -2.0577,0.2092 -2.618,0.6227 -0.5658,0.4132 -0.979,1.1449 -1.2499,2.2 l -2.4517,-0.3425 c 0.2232,-1.0496 0.5891,-1.9004 1.1024,-2.5464 0.513,-0.646 1.254,-1.1408 2.2234,-1.4919 0.9646,-0.347 2.091,-0.523 3.3641,-0.523 1.2636,0 2.2951,0.1475 3.0885,0.4468 0.1314,0.0498 0.2569,0.1019 0.3769,0.1557 l 0,-0.5736 2.2806,0 0,1.9428 c 0.5373,-0.7503 1.1453,-1.3157 1.8245,-1.6912 0.6749,-0.3754 1.4968,-0.5657 2.4617,-0.5657 1.2636,0 2.3756,0.323 3.3398,0.9745 0.823,0.5507 1.4724,1.2996 1.9528,2.2391 0.0748,-0.2733 0.18,-0.5366 0.3155,-0.7904 0.3041,-0.5606 0.7129,-1.0259 1.2306,-1.3966 0.3896,-0.2853 0.9217,-0.5277 1.5914,-0.7273 0.6748,-0.1992 1.3925,-0.2993 2.162,-0.2993 1.1593,0 2.1757,0.1697 3.0504,0.5037 0.8775,0.335 1.6415,1.2351 2.0594,1.8046 -0.8401,0.7963 -0.887,1.5925 -1.2347,2.5029 -0.1091,-0.7702 -0.9056,-1.6802 -1.4378,-2.112 -0.5318,-0.4323 -1.2828,-0.646 -2.2566,-0.646 -1.1453,0 -1.9672,0.1896 -2.4565,0.5699 -0.4893,0.38 -0.7366,0.8264 -0.7366,1.3349 0,0.3234 0.0998,0.6179 0.3042,0.8792 0.2044,0.2658 0.5229,0.4893 0.9598,0.6649 0.2516,0.095 0.9834,0.3089 2.2096,0.6415 1.7673,0.4705 3.0027,0.86 3.7053,1.159 0.261,0.1111 0.5007,0.2414 0.7198,0.3909 0.003,-2.7229 0.7636,-4.7412 2.285,-6.0538 1.2691,-1.0932 2.8228,-1.6397 4.6518,-1.6397 2.0289,0 3.692,0.6655 4.9843,1.996 0.5422,0.5575 0.9704,1.2063 1.2845,1.9452 l 0,-3.6271 2.2522,0 0,2.2662 c 0.5747,-1.0503 1.1069,-1.7437 1.5965,-2.0766 0.4893,-0.3371 1.0263,-0.5037 1.6106,-0.5037 0.8459,0 1.7059,0.2664 2.58,0.7938 l -0.8929,2.3135 c -0.6083,-0.3419 -1.2166,-0.513 -1.8249,-0.513 -0.5463,0 -1.0356,0.1663 -1.468,0.4945 -0.4327,0.3274 -0.7413,0.7835 -0.9262,1.3681 -0.2808,0.8885 -0.4183,1.8623 -0.4183,2.9222 l 0,7.7303 -2.509,0 0,-3.5668 c -0.0641,0.1532 -0.1327,0.3003 -0.206,0.4402 -0.5699,1.0881 -1.4018,1.934 -2.4943,2.5375 -1.088,0.6031 -2.2809,0.9028 -3.5685,0.9028 -2.0711,0 -3.7438,-0.6604 -5.0217,-1.986 -0.2826,-0.2929 -0.5332,-0.6148 -0.7534,-0.9646 -0.0987,0.2157 -0.2174,0.4283 -0.3559,0.6364 -0.4893,0.7362 -1.1923,1.3071 -2.1095,1.7107 -0.9221,0.404 -1.9621,0.6035 -3.1214,0.6035 -1.9196,0 -3.3882,-0.3991 -4.3953,-1.1929 -0.3645,-0.2891 -0.681,-0.6275 -0.9501,-1.016 0.7835,-1.0061 0.9909,-1.8047 1.5012,-2.9229 0.1382,0.9934 0.5277,1.7533 1.1641,2.2858 0.6368,0.5274 1.53,0.7931 2.6701,0.7931 1.1549,0 2.0098,-0.2325 2.5707,-0.7029 0.5562,-0.4657 0.8364,-1.0167 0.8364,-1.649 0,-0.5655 -0.2524,-1.0116 -0.7506,-1.3349 -0.3518,-0.2232 -1.2074,-0.5034 -2.5659,-0.8508 -1.8342,-0.4605 -3.1029,-0.8596 -3.8155,-1.197 -0.4193,-0.2027 -0.7787,-0.4485 -1.078,-0.74 0.014,0.2322 0.0212,0.4674 0.0212,0.7064 0,1.5063 -0.2705,2.8652 -0.8123,4.0767 -0.5418,1.207 -1.3301,2.1335 -2.3663,2.7799 -1.0304,0.6415 -2.1191,0.9645 -3.2589,0.9645 -0.8363,0 -1.5873,-0.1762 -2.2474,-0.5277 -0.6655,-0.3515 -1.207,-0.7934 -1.6346,-1.3304 l 0,7.2176 -2.5089,0 0,-6.7677 c -0.0261,-0.153 -0.047,-0.3107 -0.0635,-0.4732 z m -0.1995,-5.5591 c -0.9125,0.3703 -2.2806,0.6841 -4.1052,0.9409 -1.0359,0.1471 -1.7676,0.3134 -2.1949,0.4989 -0.4279,0.1849 -0.7557,0.4561 -0.9882,0.8076 -0.2332,0.3562 -0.3518,0.7506 -0.3518,1.1878 0,0.66 0.252,1.2162 0.7602,1.6585 0.5081,0.4417 1.2495,0.6646 2.224,0.6646 0.9642,0 1.8239,-0.2088 2.5793,-0.6316 0.7509,-0.418 1.3068,-0.9934 1.6586,-1.7204 0.2709,-0.565 0.4036,-1.3966 0.4036,-2.4942 l 0.0144,-0.9121 z m 2.5436,-0.181 c 0,1.8962 0.3847,3.2976 1.1497,4.2053 0.7698,0.9076 1.7015,1.3633 2.7939,1.3633 1.1121,0 2.0622,-0.4704 2.8509,-1.411 0.7934,-0.9409 1.1878,-2.3948 1.1878,-4.3665 0,-1.8814 -0.3847,-3.2877 -1.159,-4.2241 -0.7746,-0.9358 -1.6967,-1.4014 -2.7703,-1.4014 -1.0643,0 -2.0049,0.4989 -2.8227,1.4916 -0.8216,0.9981 -1.2303,2.4428 -1.2303,4.3428 z m 22.3305,-0.0851 c 0,1.8908 0.4132,3.3066 1.2399,4.2427 0.8319,0.9406 1.8719,1.411 3.131,1.411 1.2447,0 2.2813,-0.4704 3.1121,-1.4158 0.8267,-0.9454 1.2403,-2.3852 1.2403,-4.3188 0,-1.8246 -0.4184,-3.2071 -1.2495,-4.1432 -0.8319,-0.9409 -1.8675,-1.4111 -3.1029,-1.4111 -1.2591,0 -2.2991,0.4654 -3.131,1.4018 -0.8267,0.9358 -1.2399,2.3471 -1.2399,4.2334 z" />
  <path
     id="path48"
     style="fill:#00ff00;fill-rule:evenodd"
     d="m 182.5587,660.2441 c -0.5899,-0.6697 -0.5899,-2.1809 0,-2.8509 0.5899,-0.67 1.9189,-0.67 2.5088,0 0.5899,0.67 0.5899,2.1808 0,2.8509 -0.5899,0.67 -1.9189,0.6697 -2.5088,0 z" />


</svg>
