<?xml version="1.0" encoding="UTF-8"?>
<!DOCTYPE svg PUBLIC "-//W3C//DTD SVG 1.1//EN" "http://www.w3.org/Graphics/SVG/1.1/DTD/svg11.dtd">
<svg xmlns="http://www.w3.org/2000/svg" xmlns:xlink="http://www.w3.org/1999/xlink">
<symbol id="arrow_right" viewBox="0 0 100 100">
	<path d="M29.1 97.5c-1.4 0-2.9-.5-4-1.6-2.2-2.2-2.2-5.7 0-7.9L63 50 25.1 12.1c-2.2-2.2-2.2-5.7 0-7.9S30.8 2 33 4.1L74.9 46c1.1 1.1 1.6 2.5 1.6 4s-.6 2.9-1.6 4L33 95.9c-1.1 1.1-2.5 1.6-3.9 1.6z"/>
</symbol>
<symbol id="check" viewBox="-40 -40 600 600">
	<path fill="#fff" fill-opacity=".85" d="M506.231 75.508c-7.689-7.69-20.158-7.69-27.849 0l-319.21 319.211L33.617 269.163c-7.689-7.691-20.158-7.691-27.849 0-7.69 7.69-7.69 20.158 0 27.849l139.481 139.481c7.687 7.687 20.16 7.689 27.849 0l333.133-333.136c7.69-7.691 7.69-20.159 0-27.849z"/>
</symbol>
<symbol id="instagram" viewBox="0 0 30 30">
	<path fill-rule="nonzero" d="M5 5v20h20V5H5zM3 3h24v24H3V3zm12 16a4 4 0 100-8 4 4 0 000 8zm0 2a6 6 0 110-12 6 6 0 010 12zm6.5-11a1.5 1.5 0 110-3 1.5 1.5 0 010 3z"/>
</symbol>
<symbol id="logo" viewBox="113 575 110 80">
	<g fill-rule="evenodd">
		<path fill="#2e9e62" d="M173.4 607.1c-.242 3.273-1.625 6.224-3.806 8.405a13.049 13.049 0 01-9.256 3.834 13.049 13.049 0 01-9.256-3.834 13.048 13.048 0 01-3.834-9.256c0-3.614 1.465-6.887 3.834-9.256a13.049 13.049 0 019.256-3.834c2.857 0 2.615 3.429 0 3.429a9.63 9.63 0 00-6.832 2.83 9.63 9.63 0 00-2.83 6.831 9.63 9.63 0 002.83 6.832 9.63 9.63 0 006.832 2.83 9.63 9.63 0 006.831-2.83 9.624 9.624 0 002.798-6.035c.235-2.9 3.619-2.45 3.433.055z"/>
		<path fill="#31c25c" d="M187.64 599.69c.354 1.763.662 4.775.662 6.56 0 7.72-3.131 14.712-8.191 19.772-5.06 5.06-12.052 8.19-19.773 8.19-7.722 0-14.713-3.13-19.773-8.19a27.877 27.877 0 01-8.19-19.773c0-7.721 3.13-14.713 8.19-19.773 5.06-5.06 12.051-8.19 19.773-8.19 1.829 0 3.675.23 5.53.563 3.803.684 4.946 2.538 4.291 4.09-.655 1.55-1.882 1.628-5.295.933a22.675 22.675 0 00-4.526-.443 22.749 22.749 0 00-16.137 6.684 22.749 22.749 0 00-6.683 16.136 22.75 22.75 0 006.683 16.136 22.75 22.75 0 0016.137 6.684 22.751 22.751 0 0016.136-6.683 22.751 22.751 0 006.684-16.137c0-1.484-.142-2.95-.419-4.376-.792-4.069.242-4.892 1.435-5.267 1.194-.376 2.85.003 3.467 3.083z"/>
		<path fill="#2ee64d" d="M203.898 593.918c.257.871.47 1.758.664 2.645a45.207 45.207 0 011.052 9.686c0 12.502-5.068 23.821-13.262 32.015-8.193 8.193-19.512 13.26-32.014 13.26-12.503 0-23.821-5.067-32.015-13.26-8.193-8.194-13.261-19.513-13.261-32.015 0-12.502 5.068-23.821 13.261-32.015 8.194-8.193 19.512-13.26 32.015-13.26 3.678 0 7.347.455 10.926 1.345 1.436.358 2.852.784 4.242 1.277 5.406 1.917 5.09 4.45 4.376 5.83-.714 1.38-1.857 2.304-6.88.546a37.906 37.906 0 00-3.372-1.009 38.468 38.468 0 00-9.292-1.132c-10.61 0-20.214 4.3-27.166 11.252-6.952 6.952-11.252 16.557-11.252 27.166 0 10.61 4.3 20.214 11.252 27.166 6.952 6.952 16.557 11.252 27.166 11.252 10.61 0 20.214-4.3 27.166-11.252 6.951-6.952 11.252-16.557 11.252-27.166a38.47 38.47 0 00-1.41-10.325c-1.536-5.521-.09-6.776 1.384-7.334 1.472-.558 3.591-.005 5.168 5.328z"/>
		<path fill="#266e44" d="M160.365 606.62l37.945-54.198c3.625-5.178 12.17-8.311 18.367-2.114 6.198 6.198 2.849 14.893-2.114 18.368l-54.198 37.944zm42.671-53.647a7.758 7.758 0 1110.972 10.971 7.758 7.758 0 01-10.972-10.971z"/>
	</g>
	<path fill="#266e44" fill-rule="evenodd" d="M182.614 676.524V665.07h2.51v11.454h-2.51zm-39.88-1.567c-.931.793-1.829 1.349-2.689 1.677-.86.328-1.781.49-2.77.49-1.625 0-2.875-.395-3.748-1.188-.875-.79-1.312-1.802-1.312-3.032 0-.722.166-1.382.494-1.981a4.111 4.111 0 011.297-1.435 6.147 6.147 0 011.806-.822c.494-.129 1.24-.252 2.233-.375 2.024-.238 3.52-.528 4.476-.86.01-.342.014-.562.014-.652 0-1.016-.237-1.734-.713-2.152-.641-.565-1.596-.846-2.86-.846-1.183 0-2.057.21-2.618.623-.565.413-.979 1.145-1.25 2.2l-2.451-.342c.223-1.05.589-1.9 1.102-2.547.513-.646 1.254-1.14 2.224-1.492.964-.347 2.09-.523 3.364-.523 1.263 0 2.295.148 3.088.447.132.05.257.102.377.156v-.574h2.28v1.943c.538-.75 1.146-1.316 1.825-1.691.675-.376 1.497-.566 2.462-.566 1.263 0 2.375.323 3.34.975.823.55 1.472 1.3 1.952 2.239.075-.274.18-.537.316-.79a4.095 4.095 0 011.23-1.397c.39-.286.922-.528 1.592-.728.675-.199 1.392-.299 2.162-.299 1.16 0 2.176.17 3.05.504.878.335 1.642 1.235 2.06 1.804-.84.797-.887 1.593-1.235 2.503-.11-.77-.906-1.68-1.438-2.112-.532-.432-1.283-.646-2.256-.646-1.146 0-1.968.19-2.457.57-.49.38-.736.827-.736 1.335 0 .323.1.618.304.88.204.265.523.489.96.664.251.095.983.31 2.21.642 1.766.47 3.002.86 3.704 1.159.261.11.501.241.72.39.003-2.722.764-4.74 2.285-6.053 1.27-1.093 2.823-1.64 4.652-1.64 2.029 0 3.692.666 4.984 1.996.543.558.97 1.206 1.285 1.945v-3.627h2.252v2.266c.575-1.05 1.107-1.743 1.597-2.076a2.777 2.777 0 011.61-.504c.846 0 1.706.266 2.58.794l-.893 2.313c-.608-.342-1.216-.513-1.825-.513-.546 0-1.035.167-1.468.495-.432.327-.741.783-.926 1.368-.28.888-.418 1.862-.418 2.922v7.73h-2.51v-3.566a6.057 6.057 0 01-2.7 2.978c-1.087.602-2.28.902-3.568.902-2.071 0-3.744-.66-5.022-1.986a5.946 5.946 0 01-.753-.964 4.616 4.616 0 01-.356.636c-.49.736-1.192 1.307-2.11 1.71-.922.405-1.962.604-3.12.604-1.92 0-3.39-.399-4.396-1.193a4.714 4.714 0 01-.95-1.016c.783-1.006.99-1.804 1.5-2.923.14.994.529 1.754 1.165 2.286.637.528 1.53.793 2.67.793 1.155 0 2.01-.232 2.57-.703.557-.465.837-1.016.837-1.649 0-.565-.252-1.011-.75-1.335-.352-.223-1.208-.503-2.566-.85-1.834-.46-3.103-.86-3.816-1.197a4.062 4.062 0 01-1.078-.74c.014.232.021.467.021.706 0 1.506-.27 2.865-.812 4.077-.542 1.207-1.33 2.133-2.366 2.78-1.03.641-2.12.964-3.26.964-.835 0-1.586-.176-2.246-.528a5.088 5.088 0 01-1.635-1.33v7.218h-2.509v-6.768a7.05 7.05 0 01-.063-.473zm-.199-5.56c-.912.371-2.28.685-4.105.942-1.036.147-1.768.313-2.195.499a2.195 2.195 0 00-.988.807 2.12 2.12 0 00-.352 1.188c0 .66.252 1.216.76 1.658.508.442 1.25.665 2.224.665.964 0 1.824-.209 2.58-.632.75-.418 1.306-.993 1.658-1.72.27-.565.404-1.397.404-2.494l.014-.912zm2.544-.18c0 1.896.384 3.297 1.15 4.205.77.908 1.7 1.363 2.793 1.363 1.112 0 2.062-.47 2.851-1.41.794-.942 1.188-2.395 1.188-4.367 0-1.882-.385-3.288-1.16-4.224-.774-.936-1.696-1.402-2.77-1.402-1.064 0-2.004.5-2.822 1.492-.822.998-1.23 2.443-1.23 4.343zm22.33-.085c0 1.89.413 3.306 1.24 4.242.832.94 1.872 1.411 3.131 1.411 1.245 0 2.281-.47 3.112-1.415.827-.946 1.24-2.386 1.24-4.32 0-1.824-.418-3.206-1.25-4.142-.831-.941-1.867-1.412-3.102-1.412-1.26 0-2.3.466-3.131 1.402-.827.936-1.24 2.347-1.24 4.234z"/>
	<path fill="#0f0" fill-rule="evenodd" d="M182.559 660.244c-.59-.67-.59-2.18 0-2.85.59-.67 1.919-.67 2.508 0 .59.67.59 2.18 0 2.85-.59.67-1.918.67-2.508 0z"/>
</symbol>
<symbol id="whatsapp" viewBox="0 0 100 100">
	<g fill-rule="evenodd" color="#fff">
		<path style="text-indent:0;text-transform:none;block-progression:tb" d="M34.341 23.008a2 2 0 00-.437.094c-4.455 1.368-7.61 3.787-9.313 6.937-1.703 3.15-1.919 6.843-1.187 10.594 1.462 7.502 6.653 15.565 13.219 22.28 6.565 6.717 14.481 12.092 22.03 13.657 3.775.783 7.534.576 10.782-1.125 3.248-1.7 5.832-4.872 7.437-9.406a2 2 0 00-.812-2.344l-14.25-8.937-.031-.031a2 2 0 00-.219-.125 2 2 0 00-.687-.281 2 2 0 00-.063 0 2 2 0 00-.156-.031 2 2 0 00-.031 0 2 2 0 00-.97.187 2 2 0 00-.312.188 2 2 0 00-.187.125 2 2 0 00-.063.094 2 2 0 00-.218.218l-3.125 3.157c-5.666-2.852-10.023-7.634-13.938-14.094l2.875-2.844a2 2 0 00.156-.156 2 2 0 00.125-.125 2 2 0 000-.031 2 2 0 00.125-.125 2 2 0 000-.031 2 2 0 00.063-.094 2 2 0 00.062-.062 2 2 0 00.063-.156 2 2 0 000-.031 2 2 0 00.031-.062 2 2 0 00.063-.125 2 2 0 00.03-.157 2 2 0 000-.03 2 2 0 00.032-.188 2 2 0 000-.031 2 2 0 000-.156 2 2 0 000-.031 2 2 0 000-.157 2 2 0 000-.062 2 2 0 00-.031-.156 2 2 0 000-.031 2 2 0 00-.125-.344 2 2 0 000-.03 2 2 0 00-.125-.25l-.031-.063a2 2 0 00-.032-.03L36.185 23.98a2 2 0 00-1.656-.968 2 2 0 00-.188 0zm-.718 4.406l7.28 12.031-3.03 3a2 2 0 00-.313 2.406c4.626 8.01 10.107 14.243 17.781 17.625a2 2 0 002.219-.406l3.219-3.219 11.75 7.344c-1.301 2.928-2.998 4.672-4.938 5.688-2.247 1.176-4.992 1.4-8.125.75-6.265-1.3-13.833-6.224-20-12.532S28.526 46.123 27.31 39.883c-.608-3.12-.34-5.808.813-7.938.991-1.834 2.676-3.405 5.5-4.531z" overflow="visible"/>
		<path style="text-indent:0;text-transform:none;block-progression:tb" d="M50 6C25.73 6 6 25.72 6 50c0 8.823 2.615 17.07 7.225 24.145l-4.92 16.42a2 2 0 002.568 2.465l16.072-5.547C33.637 91.614 41.552 94 50 94c24.28 0 44-19.72 44-44S74.28 6 50 6zm0 4c22.12 0 40 17.88 40 40S72.12 90 50 90c-8.018 0-15.476-2.352-21.712-6.397a2 2 0 00-1.74-.213l-13.292 4.587 4.07-13.583a2 2 0 00-.263-1.7C12.543 66.064 10 58.342 10 50c0-22.12 17.89-40 40-40z" overflow="visible"/>
	</g>
</symbol>
</svg>