<?xml version="1.0" standalone="no"?>
<!DOCTYPE svg PUBLIC "-//W3C//DTD SVG 1.1//EN" "http://www.w3.org/Graphics/SVG/1.1/DTD/svg11.dtd" >
<svg>
<metadata>
Created by FontForge 20090622 at Wed Dec 16 15:45:46 2015
 By deploy user
Copyright (c) 2013 by Tupperware Brands Corporation .              All rights reserved.
</metadata>
<defs>
<font id="TupperPRO-Light" horiz-adv-x="555" >
  <font-face 
    font-family="TupperPRO  Light"
    font-weight="300"
    font-stretch="normal"
    units-per-em="1000"
    panose-1="0 0 4 0 0 0 0 0 0 0"
    ascent="800"
    descent="-200"
    x-height="525"
    cap-height="700"
    bbox="-74 -273 1460 1155"
    underline-thickness="50"
    underline-position="-50"
    unicode-range="U+0020-U+FB04"
  />
<missing-glyph horiz-adv-x="250" 
 />
    <glyph glyph-name="f_f" unicode="ff" horiz-adv-x="615" 
d="M107 525v52q0 143 130 143q49 0 90 -15v-62q-43 17 -88 17q-35 0 -51 -21.5t-16 -71.5v-42h210v52q0 143 130 143q49 0 90 -15v-62q-43 17 -88 17q-35 0 -51 -21.5t-16 -71.5v-42h140v-57h-140v-468h-65v468h-210v-468h-65v468h-85v57h85z" />
    <glyph glyph-name="fi" unicode="fi" horiz-adv-x="522" 
d="M457 0h-65v468h-220v-468h-65v468h-85v57h85v52q0 143 130 143q49 0 90 -15v-62q-43 17 -88 17q-35 0 -51 -21.5t-16 -71.5v-42h285v-525zM467 648q0 -43 -42 -43q-41 0 -41 43t41 43q42 0 42 -43z" />
    <glyph glyph-name="fl" unicode="fl" horiz-adv-x="635" 
d="M327 705v-62q-43 17 -88 17q-35 0 -51 -21.5t-16 -71.5v-42h140v-57h-140v-468h-65v468h-85v57h85v52q0 143 130 143q49 0 90 -15zM622 67v-62q-41 -15 -90 -15q-130 0 -130 143v587h65v-577q0 -50 16 -71.5t51 -21.5q45 0 88 17z" />
    <glyph glyph-name="f_f_i" unicode="ffi" horiz-adv-x="797" 
d="M602 705v-62q-43 17 -88 17q-35 0 -51 -21.5t-16 -71.5v-42h284v-525h-65v468h-219v-468h-65v468h-210v-468h-65v468h-85v57h85v52q0 143 130 143q49 0 90 -15v-62q-43 17 -88 17q-35 0 -51 -21.5t-16 -71.5v-42h210v52q0 143 130 143q49 0 90 -15zM741 648
q0 -43 -42 -43q-41 0 -41 43t41 43q42 0 42 -43z" />
    <glyph glyph-name="f_f_l" unicode="ffl" horiz-adv-x="951" 
d="M602 705v-62q-43 17 -88 17q-35 0 -51 -21.5t-16 -71.5v-42h140v-57h-140v-468h-65v468h-210v-468h-65v468h-85v57h85v52q0 143 130 143q49 0 90 -15v-62q-43 17 -88 17q-35 0 -51 -21.5t-16 -71.5v-42h210v52q0 143 130 143q49 0 90 -15zM897 67v-62q-41 -15 -90 -15
q-130 0 -130 143v587h65v-577q0 -50 16 -71.5t51 -21.5q45 0 88 17z" />
    <glyph glyph-name=".notdef" horiz-adv-x="250" 
 />
    <glyph glyph-name=".null" horiz-adv-x="0" 
 />
    <glyph glyph-name="nonmarkingreturn" horiz-adv-x="333" 
 />
    <glyph glyph-name="space" unicode=" " horiz-adv-x="250" 
 />
    <glyph glyph-name="exclam" unicode="!" horiz-adv-x="206" 
d="M76 163l-8 317v230h69v-230l-8 -317h-53zM150 36q0 -46 -47 -46q-48 0 -48 46t48 46q47 0 47 -46z" />
    <glyph glyph-name="quotedbl" unicode="&#x22;" horiz-adv-x="293" 
d="M33 555v190h69l-19 -190h-50zM178 555v190h69l-19 -190h-50z" />
    <glyph glyph-name="numbersign" unicode="#" horiz-adv-x="795" 
d="M248 525l57 195h68l-56 -195h259l57 195h68l-55 -195h123v-61h-141l-57 -202h131v-60h-148l-57 -202h-72l58 202h-258l-58 -202h-72l59 202h-128v60h145l59 202h-137v61h155zM501 262l58 202h-259l-58 -202h259z" />
    <glyph glyph-name="dollar" unicode="$" horiz-adv-x="591" 
d="M486 188q0 63 -43.5 92.5t-132.5 45.5q-101 18 -140 34q-112 47 -112 162q0 86 57 132t148 54v82h65v-81q94 -7 153 -54.5t59 -129.5h-68q0 60 -48 90.5t-128 30.5q-77 0 -123.5 -29.5t-46.5 -94.5q0 -27 10 -48t23.5 -33t40.5 -22.5t45.5 -15t55.5 -11.5
q48 -10 75.5 -16.5t66.5 -22.5t59.5 -35t36 -52.5t15.5 -76.5q0 -95 -62.5 -142.5t-163.5 -55.5v-81h-65v82q-93 7 -155.5 54.5t-62.5 128.5h68q0 -59 53.5 -90t135.5 -31q80 0 132 31.5t52 102.5z" />
    <glyph glyph-name="percent" unicode="%" horiz-adv-x="864" 
d="M278 0l240 720h68l-235 -720h-73zM196 710q68 0 110 -46t42 -124q0 -77 -42 -123.5t-110 -46.5t-110.5 46.5t-42.5 123.5q0 78 42.5 124t110.5 46zM196 428q87 0 87 113q0 111 -87 111q-89 0 -89 -111q0 -113 89 -113zM669 330q68 0 110 -46t42 -124q0 -77 -42 -123.5
t-110 -46.5t-110.5 46.5t-42.5 123.5q0 78 42.5 124t110.5 46zM669 48q87 0 87 113q0 111 -87 111q-89 0 -89 -111q0 -113 89 -113z" />
    <glyph glyph-name="ampersand" unicode="&#x26;" horiz-adv-x="646" 
d="M128 555q0 71 48.5 113t117.5 42q70 0 116.5 -42.5t46.5 -114.5q0 -63 -37 -102t-113 -79l171 -187q22 54 25 125h62q-4 -101 -42 -175l123 -135h-84l-75 82q-78 -92 -218 -92q-98 0 -159.5 50.5t-61.5 139.5q0 75 42 121t117 86q-40 49 -59.5 86t-19.5 82zM392 553
q0 41 -25.5 68.5t-70.5 27.5t-72 -27t-27 -67q0 -61 69 -138q65 34 95.5 63t30.5 73zM116 181q0 -62 44.5 -96t112.5 -34q54 0 99.5 21t72.5 56l-197 214q-63 -33 -97.5 -69.5t-34.5 -91.5z" />
    <glyph glyph-name="quotesingle" unicode="'" horiz-adv-x="148" 
d="M33 555v190h69l-19 -190h-50z" />
    <glyph glyph-name="parenleft" unicode="(" horiz-adv-x="258" 
d="M172 783l43 -25q-82 -189 -82 -403t82 -403l-43 -25q-107 214 -107 428t107 428z" />
    <glyph glyph-name="parenright" unicode=")" horiz-adv-x="258" 
d="M43 758l43 25q107 -214 107 -428t-107 -428l-43 25q82 189 82 403t-82 403z" />
    <glyph glyph-name="asterisk" unicode="*" horiz-adv-x="300" 
d="M168 684l106 56l19 -60l-118 -18l-6 -2l4 -5l84 -86l-50 -35l-53 107l-4 7l-4 -7l-53 -107l-50 35l84 86l3 5l-5 2l-118 18l19 60l106 -56l6 -2v7l-18 118h60l-18 -118v-7z" />
    <glyph glyph-name="plus" unicode="+" horiz-adv-x="436" 
d="M188 357v168h60v-168h170v-60h-170v-172h-60v172h-170v60h170z" />
    <glyph glyph-name="comma" unicode="," horiz-adv-x="148" 
d="M126 36v-5q0 -107 -97 -162l-7 38q45 31 49 83q-40 3 -40 46q0 46 47 46q48 0 48 -46z" />
    <glyph glyph-name="hyphen" unicode="-" horiz-adv-x="330" 
d="M263 357v-60h-245v60h245z" />
    <glyph glyph-name="period" unicode="." horiz-adv-x="148" 
d="M126 36q0 -46 -48 -46q-47 0 -47 46t47 46q48 0 48 -46z" />
    <glyph glyph-name="slash" unicode="/" horiz-adv-x="305" 
d="M-2 -10l240 730h69l-237 -730h-72z" />
    <glyph glyph-name="zero" unicode="0" horiz-adv-x="579" 
d="M290 -10q-69 0 -118 24.5t-76.5 72t-40 109t-12.5 144.5q0 171 56.5 265.5t190.5 94.5q69 0 118 -26t76.5 -75.5t39.5 -112.5t12 -146q0 -170 -56 -260t-190 -90zM290 639q-95 0 -135 -74t-40 -225q0 -150 39.5 -219.5t135.5 -69.5q95 0 135 69.5t40 219.5
q0 151 -40.5 225t-134.5 74z" />
    <glyph glyph-name="one" unicode="1" horiz-adv-x="404" 
d="M223 0v599l-113 -125l-45 45l158 171h69v-690h-69z" />
    <glyph glyph-name="two" unicode="2" horiz-adv-x="541" 
d="M43 0v61q203 171 287.5 273t84.5 190q0 115 -143 115q-74 0 -112.5 -27.5t-42.5 -86.5h-68q6 94 63.5 134.5t157.5 40.5q213 0 213 -168q0 -45 -17 -91.5t-40 -83.5t-63 -82t-70 -73.5l-78.5 -73t-71.5 -67.5h355v-61h-455z" />
    <glyph glyph-name="three" unicode="3" horiz-adv-x="553" 
d="M207 387h65q56 0 99.5 38.5t43.5 103.5q0 110 -144 110q-73 0 -111.5 -27.5t-42.5 -86.5h-68q6 95 63.5 135t157.5 40q213 0 213 -169q0 -64 -29 -106t-80 -59q136 -41 136 -171q0 -93 -63.5 -149t-186.5 -56q-206 0 -217 175h68q10 -114 151 -114q83 0 131.5 37.5
t48.5 107.5t-47.5 102.5t-122.5 32.5h-65v56z" />
    <glyph glyph-name="four" unicode="4" horiz-adv-x="539" 
d="M418 235h95v-61h-95v-174h-68v174h-324v66l330 450h62v-455zM350 584l-251 -349h251v349z" />
    <glyph glyph-name="five" unicode="5" horiz-adv-x="563" 
d="M297 450q98 0 158 -58.5t60 -163.5q0 -107 -65 -172.5t-189 -65.5q-202 0 -213 175h68q10 -114 147 -114q92 0 138 49t46 127q0 79 -45 120.5t-115 41.5q-55 0 -98.5 -24.5t-60.5 -64.5h-62l39 390h365v-61h-307l-24 -245q59 66 158 66z" />
    <glyph glyph-name="six" unicode="6" horiz-adv-x="563" 
d="M298 450q101 0 161.5 -57.5t60.5 -167.5q0 -106 -59 -170.5t-176 -64.5q-70 0 -118.5 24.5t-75 73t-37.5 110t-11 145.5q0 178 55.5 267.5t196.5 89.5q203 0 214 -175h-69q-3 57 -42.5 85.5t-104.5 28.5q-99 0 -140.5 -69.5t-41.5 -224.5v-5q43 110 187 110zM288 389
q-73 0 -120.5 -39t-46.5 -122t45.5 -130t124.5 -47q82 0 121 48t39 124q0 83 -44 124.5t-119 41.5z" />
    <glyph glyph-name="seven" unicode="7" horiz-adv-x="512" 
d="M486 690v-58q-109 -115 -177.5 -284.5t-94.5 -347.5h-73q25 179 91 343t167 282h-364v65h451z" />
    <glyph glyph-name="eight" unicode="8" horiz-adv-x="582" 
d="M70 523q0 86 62.5 131.5t158.5 45.5t158.5 -45.5t62.5 -131.5q0 -115 -109 -151q136 -44 136 -176q0 -92 -65.5 -149t-182.5 -57t-182.5 57t-65.5 149q0 132 136 176q-109 36 -109 151zM444 521q0 60 -45 89t-108 29t-108 -29t-45 -89q0 -61 46 -91.5t107 -30.5t107 30.5
t46 91.5zM111 199q0 -68 50.5 -108t129.5 -40t129.5 40t50.5 108q0 70 -52.5 105t-127.5 35t-127.5 -35t-52.5 -105z" />
    <glyph glyph-name="nine" unicode="9" horiz-adv-x="563" 
d="M264 240q-100 0 -160.5 57.5t-60.5 167.5q0 106 59 170.5t176 64.5q70 0 118.5 -24.5t75 -73t37.5 -109.5t11 -145q0 -178 -56 -268t-197 -90q-202 0 -213 175h68q4 -58 44 -86t104 -28q99 0 140 69.5t41 224.5v2q-45 -107 -187 -107zM276 301q70 0 116.5 45t46.5 127
q0 30 -7 56.5t-23.5 52.5t-50 41.5t-81.5 15.5q-86 0 -126 -47.5t-40 -124.5q0 -83 44 -124.5t121 -41.5z" />
    <glyph glyph-name="colon" unicode=":" horiz-adv-x="148" 
d="M126 434q0 -46 -48 -46q-47 0 -47 46t47 46q48 0 48 -46zM126 36q0 -46 -48 -46q-47 0 -47 46t47 46q48 0 48 -46z" />
    <glyph glyph-name="semicolon" unicode=";" horiz-adv-x="149" 
d="M127 434q0 -46 -48 -46q-47 0 -47 46t47 46q48 0 48 -46zM127 36v-5q0 -108 -97 -162l-7 38q45 30 50 83q-41 3 -41 46q0 46 47 46q48 0 48 -46z" />
    <glyph glyph-name="less" unicode="&#x3c;" horiz-adv-x="411" 
d="M393 541v-65l-325 -160l325 -160v-65l-375 196v57z" />
    <glyph glyph-name="equal" unicode="=" horiz-adv-x="476" 
d="M458 446v-60h-440v60h440zM458 270v-60h-440v60h440z" />
    <glyph glyph-name="greater" unicode="&#x3e;" horiz-adv-x="411" 
d="M18 91v65l324 160l-324 160v65l375 -197v-57z" />
    <glyph glyph-name="question" unicode="?" horiz-adv-x="494" 
d="M459 548q0 -52 -19 -92.5t-46.5 -68l-54.5 -55.5t-46 -70.5t-19 -98.5h-67q0 59 19 106t46 77.5t54 58t46 63t19 77.5q0 114 -139 114q-71 0 -108 -27.5t-41 -86.5h-68q7 97 64 136t152 39q208 0 208 -172zM287 36q0 -46 -47 -46q-48 0 -48 46t48 46q47 0 47 -46z" />
    <glyph glyph-name="at" unicode="@" horiz-adv-x="817" 
d="M599 118q56 0 87.5 65.5t31.5 149.5q0 69 -23.5 121t-64.5 81.5t-88.5 43.5t-101.5 14q-152 0 -243 -101t-91 -246q0 -142 88 -224t233 -82q150 0 254 116h55q-60 -85 -134 -125.5t-179 -40.5q-172 0 -273.5 98.5t-101.5 259.5q0 172 111 284t280 112q141 0 235.5 -80.5
t94.5 -225.5q0 -106 -49 -186.5t-130 -80.5q-82 0 -79 94q-52 -94 -148 -94q-73 0 -109 52.5t-26 146.5q12 90 64 144.5t127 54.5q87 0 118 -81l21 75h41l-36 -246l-4 -34q-10 -65 40 -65zM381 117q56 0 93 39.5t47 113.5q12 80 -16 117t-81 37q-55 0 -92 -39t-49 -115
q-10 -75 16 -114t82 -39z" />
    <glyph glyph-name="A" unicode="A" horiz-adv-x="628" 
d="M154 190l-72 -190h-75l273 700h68l273 -700h-75l-73 190h-319zM450 251l-136 359l-137 -359h273z" />
    <glyph glyph-name="B" unicode="B" horiz-adv-x="650" 
d="M65 700h263q55 0 96 -7.5t76.5 -26t54 -55.5t18.5 -92q0 -64 -28 -102t-92 -60q75 -16 112 -56.5t37 -111.5q0 -100 -67 -144.5t-178 -44.5h-292v700zM133 382h190q86 0 132 28.5t46 104.5q0 71 -43.5 97.5t-137.5 26.5h-187v-257zM133 61h216q90 0 135.5 30t45.5 100
q0 33 -11 58t-27 38.5t-40.5 21.5t-46.5 10.5t-49 2.5h-223v-261z" />
    <glyph glyph-name="C" unicode="C" horiz-adv-x="706" 
d="M377 710q98 0 175 -48.5t111 -136.5h-75q-61 121 -205 121q-116 0 -192 -80.5t-76 -215.5t76 -215.5t192 -80.5q144 0 204 121h75q-34 -88 -110.5 -136.5t-174.5 -48.5q-145 0 -239.5 98.5t-94.5 261.5t94.5 261.5t239.5 98.5z" />
    <glyph glyph-name="D" unicode="D" horiz-adv-x="646" 
d="M65 700h239q137 0 218 -87t81 -263t-81 -263t-218 -87h-239v700zM133 61h167q111 0 171.5 73.5t60.5 215.5t-60.5 215.5t-170.5 73.5h-168v-578z" />
    <glyph glyph-name="E" unicode="E" horiz-adv-x="572" 
d="M133 639v-257h347v-60h-347v-261h387v-61h-455v700h455v-61h-387z" />
    <glyph glyph-name="F" unicode="F" 
d="M133 639v-257h347v-60h-347v-322h-68v700h455v-61h-387z" />
    <glyph glyph-name="G" unicode="G" horiz-adv-x="741" 
d="M698 366v-16q0 -167 -83 -263.5t-231 -96.5q-151 0 -246 98t-95 261t94.5 262t238.5 99q99 0 176 -48.5t111 -136.5h-75q-61 121 -205 121q-116 0 -192 -80.5t-76 -215.5q0 -136 76.5 -216t194.5 -80q104 0 169.5 65.5t74.5 185.5h-207v61h275z" />
    <glyph glyph-name="H" unicode="H" horiz-adv-x="677" 
d="M543 0v322h-410v-322h-68v700h68v-318h410v318h69v-700h-69z" />
    <glyph glyph-name="I" unicode="I" horiz-adv-x="206" 
d="M69 0v700h68v-700h-68z" />
    <glyph glyph-name="J" unicode="J" horiz-adv-x="368" 
d="M13 135h68q0 -41 20 -62.5t55 -21.5q36 0 57.5 22t21.5 62v565h68v-565q0 -70 -38.5 -107.5t-108.5 -37.5t-106.5 37t-36.5 108z" />
    <glyph glyph-name="K" unicode="K" horiz-adv-x="607" 
d="M473 700h86l-284 -312l332 -388h-85l-293 336l-96 -105v-231h-68v700h68v-375z" />
    <glyph glyph-name="L" unicode="L" horiz-adv-x="504" 
d="M133 700v-639h362v-61h-430v700h68z" />
    <glyph glyph-name="M" unicode="M" horiz-adv-x="817" 
d="M433 15h-50l-250 567v-582h-68v700h82l261 -593l262 593h82v-700h-69v580z" />
    <glyph glyph-name="N" unicode="N" horiz-adv-x="662" 
d="M515 0l-382 604v-604h-68v700h82l381 -612v612h69v-700h-82z" />
    <glyph glyph-name="O" unicode="O" horiz-adv-x="756" 
d="M378 -10q-145 0 -240 98.5t-95 261.5t95 261.5t240 98.5t240 -98.5t95 -261.5t-95 -261.5t-240 -98.5zM378 646q-110 0 -186.5 -81t-76.5 -215t76.5 -215t186.5 -81t186.5 81t76.5 215t-76.5 215t-186.5 81z" />
    <glyph glyph-name="P" unicode="P" horiz-adv-x="621" 
d="M133 0h-68v700h272q245 0 245 -220t-245 -220h-204v-260zM133 321h195q40 0 69 5.5t56.5 21.5t42 49t14.5 83t-14.5 83t-42 49t-56.5 21.5t-69 5.5h-195v-318z" />
    <glyph glyph-name="Q" unicode="Q" horiz-adv-x="756" 
d="M377 -10q-144 0 -239 98.5t-95 261.5t95 261.5t240 98.5t240 -98.5t95 -261.5q0 -116 -49.5 -200.5t-135.5 -126.5l97 -146h-76l-82 124q-44 -11 -90 -11zM378 646q-110 0 -186.5 -81t-76.5 -215t76.5 -215t186.5 -81t186.5 81t76.5 215t-76.5 215t-186.5 81z" />
    <glyph glyph-name="R" unicode="R" horiz-adv-x="621" 
d="M133 260v-260h-68v700h272q245 0 245 -220q0 -194 -187 -217l173 -263h-77l-170 260h-188zM133 321h195q40 0 69 5.5t56.5 21.5t42 49t14.5 83t-14.5 83t-42 49t-56.5 21.5t-69 5.5h-195v-318z" />
    <glyph glyph-name="S" unicode="S" horiz-adv-x="602" 
d="M486 186q0 30 -12 53t-28 37t-46.5 26t-53.5 18t-63 14q-42 9 -67 15.5t-59 21t-52.5 32t-32.5 47.5t-14 69q0 94 67 142.5t173 48.5q107 0 174.5 -48t67.5 -137h-68q0 60 -48 90.5t-127 30.5q-76 0 -123.5 -29.5t-47.5 -91.5q0 -75 83 -107q29 -11 123 -31
q35 -7 61.5 -14t58.5 -22.5t52.5 -35.5t35 -52.5t14.5 -73.5q0 -99 -72 -149t-180 -50t-181 48t-73 137h68q0 -59 52 -90t133 -31q80 0 132.5 31.5t52.5 100.5z" />
    <glyph glyph-name="T" unicode="T" horiz-adv-x="548" 
d="M308 639v-639h-68v639h-231v61h530v-61h-231z" />
    <glyph glyph-name="U" unicode="U" horiz-adv-x="664" 
d="M133 700v-420q0 -101 49.5 -163.5t149.5 -62.5t149.5 62.5t49.5 163.5v420h68v-420q0 -127 -67 -208.5t-200 -81.5t-200 81.5t-67 208.5v420h68z" />
    <glyph glyph-name="V" unicode="V" horiz-adv-x="584" 
d="M575 700l-249 -700h-68l-249 700h76l207 -601l207 601h76z" />
    <glyph glyph-name="W" unicode="W" horiz-adv-x="937" 
d="M286 0h-69l-208 700h76l168 -599l182 588h67l181 -588l169 599h76l-208 -700h-69l-183 582z" />
    <glyph glyph-name="X" unicode="X" horiz-adv-x="595" 
d="M296 408l201 292h79l-235 -338l245 -362h-80l-208 312l-211 -312h-78l245 359l-235 341h80z" />
    <glyph glyph-name="Y" unicode="Y" horiz-adv-x="583" 
d="M257 0v245l-248 455h76l206 -385l1 1l206 384h76l-248 -455v-245h-69z" />
    <glyph glyph-name="Z" unicode="Z" horiz-adv-x="534" 
d="M422 639h-382v61h459v-61l-397 -578h407v-61h-484v61z" />
    <glyph glyph-name="bracketleft" unicode="[" horiz-adv-x="261" 
d="M226 780v-61h-100v-738h100v-61h-165v860h165z" />
    <glyph glyph-name="backslash" unicode="\" horiz-adv-x="305" 
d="M67 720l240 -720h-72l-237 720h69z" />
    <glyph glyph-name="bracketright" unicode="]" horiz-adv-x="261" 
d="M200 780v-860h-165v61h100v738h-100v61h165z" />
    <glyph glyph-name="asciicircum" unicode="^" horiz-adv-x="468" 
d="M459 300h-75l-150 316l-150 -316h-75l197 369h57z" />
    <glyph glyph-name="underscore" unicode="_" horiz-adv-x="418" 
d="M409 0v-47h-400v47h400z" />
    <glyph glyph-name="grave" unicode="`" horiz-adv-x="189" 
d="M79 910l78 -160h-40l-108 160h70z" />
    <glyph glyph-name="a" unicode="a" horiz-adv-x="532" 
d="M43 144q0 84 61 122.5t157 38.5q88 0 150 -38v81q0 73 -34 100t-99 27q-142 0 -142 -95h-68q0 79 56.5 117t151.5 38q99 0 149.5 -44.5t50.5 -150.5v-340h-50l-10 73q-58 -83 -178 -83q-87 0 -141 37.5t-54 116.5zM271 252q-160 0 -160 -106q0 -96 136 -96q119 0 164 74
v95q-54 33 -140 33z" />
    <glyph glyph-name="b" unicode="b" horiz-adv-x="552" 
d="M285 -10q-114 0 -169 91l-10 -81h-50v720h65v-269q57 84 164 84q104 0 164 -73t60 -199t-60 -199.5t-164 -73.5zM270 50q78 0 124.5 56t46.5 157q0 100 -46.5 156t-124.5 56q-48 0 -88 -21.5t-61 -59.5v-263q22 -40 62 -60.5t87 -20.5z" />
    <glyph glyph-name="c" unicode="c" horiz-adv-x="530" 
d="M280 50q48 0 87.5 23.5t59.5 71.5h68q-25 -74 -80.5 -114.5t-134.5 -40.5q-108 0 -176.5 74.5t-68.5 198.5t68 198t177 74q79 0 134.5 -40.5t80.5 -114.5h-68q-20 48 -59.5 71.5t-87.5 23.5q-76 0 -126.5 -56.5t-50.5 -155.5t50.5 -156t126.5 -57z" />
    <glyph glyph-name="d" unicode="d" horiz-adv-x="552" 
d="M267 -10q-104 0 -164 73.5t-60 199.5q0 125 60 198.5t164 73.5q107 0 164 -83v268h65v-720h-50l-11 80q-54 -90 -168 -90zM283 50q47 0 86 20t62 59v266q-46 80 -148 80q-78 0 -125 -55.5t-47 -156.5t47 -157t125 -56z" />
    <glyph glyph-name="e" unicode="e" horiz-adv-x="545" 
d="M280 -10q-108 0 -176.5 74.5t-68.5 198.5t68 198t177 74q107 0 168.5 -73t61.5 -199v-28h-406q7 -87 56.5 -136t119.5 -49q105 0 144 95h68q-25 -74 -79.5 -114.5t-132.5 -40.5zM280 475q-70 0 -119 -48.5t-57 -134.5h337q-7 87 -50 135t-111 48z" />
    <glyph glyph-name="f" unicode="f" horiz-adv-x="340" 
d="M327 705v-62q-43 17 -88 17q-35 0 -51 -21.5t-16 -71.5v-42h140v-57h-140v-468h-65v468h-85v57h85v52q0 143 130 143q49 0 90 -15z" />
    <glyph glyph-name="g" unicode="g" horiz-adv-x="552" 
d="M278 -200q-179 0 -210 155h68q19 -93 139 -95q75 0 115.5 39t40.5 137v37q-55 -83 -164 -83q-104 0 -164 73.5t-60 199.5q0 125 60 198.5t164 73.5q113 0 168 -90l11 80h50v-489q0 -236 -218 -236zM283 475q-78 0 -125 -55.5t-47 -156.5t47 -157t125 -56q47 0 86 20
t62 59v266q-46 80 -148 80z" />
    <glyph glyph-name="h" unicode="h" 
d="M302 535q197 0 197 -250v-285h-65v285q0 101 -36.5 145.5t-111.5 44.5q-117 0 -165 -85v-390h-65v720h65v-276q62 91 181 91z" />
    <glyph glyph-name="i" unicode="i" horiz-adv-x="199" 
d="M141 648q0 -43 -42 -43q-41 0 -41 43t41 43q42 0 42 -43zM66 0v525h65v-525h-65z" />
    <glyph glyph-name="j" unicode="j" horiz-adv-x="199" 
d="M141 648q0 -43 -41 -43q-42 0 -42 43t42 43q41 0 41 -43zM132 525v-582q0 -143 -143 -143v60q38 0 58 21t20 72v572h65z" />
    <glyph glyph-name="k" unicode="k" horiz-adv-x="503" 
d="M390 525h83l-205 -211l242 -314h-81l-207 266l-101 -104v-162h-65v720h65v-470z" />
    <glyph glyph-name="l" unicode="l" horiz-adv-x="289" 
d="M276 67v-62q-41 -15 -90 -15q-130 0 -130 143v587h65v-577q0 -50 16 -71.5t51 -21.5q45 0 88 17z" />
    <glyph glyph-name="m" unicode="m" horiz-adv-x="870" 
d="M273 475q-110 0 -152 -79v-396h-65v525h50l10 -82q58 92 173 92q127 0 162 -100q57 100 185 100q96 0 137 -55t41 -169v-311h-65v311q0 93 -32 128.5t-99 35.5q-108 0 -150 -73v-402h-65v320q0 86 -32.5 120.5t-97.5 34.5z" />
    <glyph glyph-name="n" unicode="n" 
d="M286 475q-117 0 -165 -85v-390h-65v525h50l11 -87q62 97 185 97q197 0 197 -250v-285h-65v285q0 101 -36.5 145.5t-111.5 44.5z" />
    <glyph glyph-name="o" unicode="o" horiz-adv-x="560" 
d="M280 -10q-108 0 -176.5 74.5t-68.5 198.5t68 198t177 74t177 -74t68 -198t-68.5 -198.5t-176.5 -74.5zM280 475q-76 0 -126.5 -56.5t-50.5 -155.5t50.5 -156t126.5 -57t126.5 57t50.5 156t-50.5 155.5t-126.5 56.5z" />
    <glyph glyph-name="p" unicode="p" horiz-adv-x="552" 
d="M285 535q104 0 164 -73.5t60 -198.5q0 -126 -60 -199.5t-164 -73.5q-109 0 -164 84v-269h-65v720h50l10 -81q56 91 169 91zM270 475q-48 0 -88 -21.5t-61 -59.5v-263q22 -40 62 -60.5t87 -20.5q78 0 124.5 56t46.5 157q0 100 -46.5 156t-124.5 56z" />
    <glyph glyph-name="q" unicode="q" horiz-adv-x="559" 
d="M270 535q114 0 169 -92l11 82h50v-720h-65v269q-55 -84 -165 -84q-104 0 -164 73.5t-60 199.5q0 125 60 198.5t164 73.5zM286 475q-78 0 -124.5 -55.5t-46.5 -156.5q0 -100 46.5 -156.5t124.5 -56.5q48 0 88 21t61 60v263q-22 39 -62 60t-87 21z" />
    <glyph glyph-name="r" unicode="r" horiz-adv-x="324" 
d="M106 525l13 -104q67 114 187 114v-67q-57 0 -107.5 -27.5t-77.5 -80.5v-360h-65v525h50z" />
    <glyph glyph-name="s" unicode="s" horiz-adv-x="516" 
d="M118 386q0 -51 59 -70q24 -7 98 -18q34 -6 54 -10t51 -15.5t48.5 -26t31 -40t13.5 -58.5q0 -78 -61 -118t-158 -40q-93 0 -152 38.5t-59 116.5h68q0 -50 41.5 -72.5t102.5 -22.5q65 0 109 24.5t44 71.5q0 16 -5 28.5t-17.5 22t-21.5 15.5t-31 11.5t-32 7.5t-37 6.5
t-34 5.5q-33 5 -51.5 9.5t-46 15t-42 24t-26 38t-11.5 56.5q0 75 53 112t147 37q95 0 150 -38t55 -117h-68q0 95 -135 95q-62 0 -99.5 -21.5t-37.5 -67.5z" />
    <glyph glyph-name="t" unicode="t" horiz-adv-x="349" 
d="M172 525h140v-57h-140v-325q0 -50 16 -71.5t51 -21.5q45 0 88 17v-62q-41 -15 -90 -15q-130 0 -130 143v335h-85v57h85v100l65 15v-115z" />
    <glyph glyph-name="u" unicode="u" 
d="M269 50q116 0 165 83v392h65v-525h-50l-12 87q-62 -97 -183 -97q-198 0 -198 250v285h65v-285q0 -101 36.5 -145.5t111.5 -44.5z" />
    <glyph glyph-name="v" unicode="v" horiz-adv-x="499" 
d="M215 0l-202 525h72l164 -442l164 442h73l-202 -525h-69z" />
    <glyph glyph-name="w" unicode="w" horiz-adv-x="813" 
d="M255 0h-70l-172 525h72l137 -439l154 429h61l154 -429l137 439h72l-172 -525h-70l-152 428z" />
    <glyph glyph-name="x" unicode="x" horiz-adv-x="488" 
d="M391 0l-149 219l-153 -219h-76l191 272l-185 253h77l150 -206l153 206h76l-192 -259l184 -266h-76z" />
    <glyph glyph-name="y" unicode="y" horiz-adv-x="499" 
d="M486 525l-232 -601q-25 -63 -65.5 -93.5t-114.5 -30.5v62q48 1 76 18.5t45 61.5l21 54l-203 529h72l164 -442l164 442h73z" />
    <glyph glyph-name="z" unicode="z" horiz-adv-x="480" 
d="M440 525v-57l-327 -411h332v-57h-410v57l327 411h-317v57h395z" />
    <glyph glyph-name="braceleft" unicode="{" horiz-adv-x="284" 
d="M26 334v32q32 0 56.5 36t24.5 97v134q0 78 32 112.5t98 34.5h15v-61h-15q-35 0 -50 -19t-15 -67v-133q0 -112 -72 -150q72 -38 72 -150v-133q0 -48 15 -67t50 -19h15v-61h-15q-66 0 -98 34.5t-32 112.5v134q0 61 -24.5 97t-56.5 36z" />
    <glyph glyph-name="bar" unicode="|" horiz-adv-x="188" 
d="M62 -50v830h65v-830h-65z" />
    <glyph glyph-name="braceright" unicode="}" horiz-adv-x="284" 
d="M252 366v-32q-32 0 -56.5 -36t-24.5 -97v-134q0 -78 -32 -112.5t-98 -34.5h-15v61h15q35 0 50 19t15 67v133q0 112 71 150q-71 38 -71 150v133q0 48 -15 67t-50 19h-15v61h15q66 0 98 -34.5t32 -112.5v-134q0 -61 24.5 -97t56.5 -36z" />
    <glyph glyph-name="asciitilde" unicode="~" horiz-adv-x="388" 
d="M280 348q49 0 48 61h51q0 -55 -29 -84.5t-73 -29.5q-35 0 -89 30t-81 30q-48 0 -47 -60h-51q0 54 29 84t71 30q35 0 89 -30.5t82 -30.5z" />
    <glyph glyph-name="exclamdown" unicode="&#xa1;" horiz-adv-x="204" 
d="M149 544q0 -46 -47 -46q-48 0 -48 46t48 46q47 0 47 -46zM136 -130h-69v230l8 317h53l8 -317v-230z" />
    <glyph glyph-name="cent" unicode="&#xa2;" horiz-adv-x="530" 
d="M280 50q48 0 87.5 23.5t59.5 71.5h68q-23 -67 -70.5 -106.5t-114.5 -46.5v-82h-65v83q-95 11 -152.5 84t-57.5 186t57.5 185t152.5 84v83h65v-82q67 -7 114.5 -47t70.5 -106h-68q-20 48 -59.5 71.5t-87.5 23.5q-76 0 -126.5 -56.5t-50.5 -155.5t50.5 -156t126.5 -57z" />
    <glyph glyph-name="sterling" unicode="&#xa3;" horiz-adv-x="541" 
d="M492 556h-68q0 95 -141 95q-65 0 -99.5 -27.5t-34.5 -100.5q0 -67 35 -148h225v-47h-204q38 -86 38 -136q0 -73 -74 -135h331v-57h-425l-17 60q116 31 116 134q0 54 -38 134h-97v47h75q-30 69 -30 142q0 104 51 149t149 45q95 0 151.5 -38.5t56.5 -116.5z" />
    <glyph glyph-name="currency" unicode="&#xa4;" horiz-adv-x="651" 
d="M52 36l58 59q-56 73 -56.5 166t56.5 166l-58 59l48 48l58 -59q73 58 167.5 58.5t167.5 -56.5l57 58l48 -48l-57 -58q58 -74 57.5 -168.5t-58.5 -167.5l58 -58l-48 -48l-58 58q-73 -56 -166.5 -55.5t-166.5 57.5l-59 -59zM179 407q-61 -63 -60 -147.5t60 -143.5
q61 -61 146.5 -61.5t146.5 59.5t61.5 145.5t-61.5 149.5q-61 60 -146.5 59.5t-146.5 -61.5z" />
    <glyph glyph-name="yen" unicode="&#xa5;" horiz-adv-x="580" 
d="M230 292l-223 408h73l209 -390l1 1v-1l209 390h73l-223 -408h126v-47h-151v-70h151v-47h-151v-128h-68v128h-151v47h151v70h-151v47h125z" />
    <glyph glyph-name="brokenbar" unicode="&#xa6;" horiz-adv-x="188" 
d="M62 780h65v-355h-65v355zM127 -50h-65v355h65v-355z" />
    <glyph glyph-name="section" unicode="&#xa7;" horiz-adv-x="595" 
d="M499 625h-65q0 118 -143 118q-142 0 -151 -118q0 -37 22 -63t57 -40.5t78 -26l85.5 -23t77.5 -27t57 -43.5t22 -67q0 -83 -87 -132q67 -49 67 -133q-7 -97 -64 -136t-153 -39q-98 0 -152.5 39.5t-54.5 135.5h65q0 -118 142 -118q145 0 152 118q0 50 -41 80.5t-99.5 45.5
l-117 30t-99.5 48t-41 87q0 84 86 131q-67 47 -67 133q7 97 64 136t153 39q98 0 152.5 -39.5t54.5 -135.5zM478 322q0 35 -29.5 57.5t-67 32l-96.5 24t-96 30.5q-72 -35 -72 -94q0 -35 29 -57t66.5 -31.5l96.5 -24.5t96 -31q73 36 73 94z" />
    <glyph glyph-name="dieresis" unicode="&#xa8;" horiz-adv-x="320" 
d="M102 802q0 -43 -42 -43t-42 43t42 43t42 -43zM302 802q0 -43 -42 -43t-42 43t42 43t42 -43z" />
    <glyph glyph-name="copyright" unicode="&#xa9;" horiz-adv-x="756" 
d="M13 355q0 151 107 258t258 107t258 -107t107 -258t-107 -258t-258 -107t-258 107t-107 258zM38 355q0 -140 100 -240t240 -100t240 100t100 240t-100 240t-240 100t-240 -100t-100 -240zM378 585q63 0 112 -31t71 -87h-51q-40 75 -129 75q-73 0 -120 -50.5t-47 -136.5
q0 -87 47 -137t121 -50q88 0 127 75h51q-21 -57 -70 -87.5t-112 -30.5q-92 0 -152.5 63t-60.5 167t60.5 167t152.5 63z" />
    <glyph glyph-name="ordfeminine" unicode="&#xaa;" horiz-adv-x="326" 
d="M31 517q0 50 36 73t92 23q48 0 88 -23v49q0 38 -19.5 53t-56.5 15q-77 0 -77 -49h-48q0 46 34 69t91 23q124 0 124 -116v-203h-39l-5 39q-36 -47 -104 -47q-51 0 -83.5 23.5t-32.5 70.5zM163 576q-82 0 -82 -58q0 -54 73 -54q66 0 93 38v57q-34 17 -84 17z" />
    <glyph glyph-name="guillemotleft" unicode="&#xab;" horiz-adv-x="488" 
d="M249 541v-66l-200 -159l200 -159v-66l-231 196v57zM470 541v-66l-223 -159l223 -159v-66l-258 196v57z" />
    <glyph glyph-name="logicalnot" unicode="&#xac;" horiz-adv-x="426" 
d="M408 382v-207h-61v147h-329v60h390z" />
    <glyph glyph-name="uni00AD" unicode="&#xad;" horiz-adv-x="330" 
d="M263 357v-60h-245v60h245z" />
    <glyph glyph-name="registered" unicode="&#xae;" horiz-adv-x="756" 
d="M13 355q0 151 107 258t258 107t258 -107t107 -258t-107 -258t-258 -107t-258 107t-107 258zM38 355q0 -140 100 -240t240 -100t240 100t100 240t-100 240t-240 100t-240 -100t-100 -240zM227 580h175q157 0 157 -141q0 -124 -120 -139l111 -169h-53l-109 167h-114v-167
h-47v449zM274 339h123q53 0 83 20.5t30 79.5t-30 79t-83 20h-123v-199z" />
    <glyph glyph-name="macron" unicode="&#xaf;" horiz-adv-x="308" 
d="M299 820v-47h-290v47h290z" />
    <glyph glyph-name="degree" unicode="&#xb0;" horiz-adv-x="258" 
d="M9 581q0 49 35.5 84t85.5 35t84.5 -35t34.5 -84q0 -50 -35 -85.5t-84 -35.5q-50 0 -85.5 36t-35.5 85zM62 581q0 -28 20 -48t48 -20q27 0 46 20t19 48t-18.5 46.5t-46.5 18.5t-48 -19t-20 -46z" />
    <glyph glyph-name="plusminus" unicode="&#xb1;" horiz-adv-x="436" 
d="M188 382v168h60v-168h170v-60h-170v-172h-60v172h-170v60h170zM419 94v-61h-401v61h401z" />
    <glyph glyph-name="twosuperior" unicode="&#xb2;" horiz-adv-x="337" 
d="M35 431v43q119 100 166 158t47 111q0 35 -19.5 49.5t-56.5 14.5q-79 0 -83 -62h-48q8 105 131 105q126 0 126 -101q0 -23 -5.5 -45.5t-20 -46l-24.5 -39t-35 -41l-34.5 -35t-40 -36.5t-35.5 -32h199v-43h-267z" />
    <glyph glyph-name="threesuperior" unicode="&#xb3;" horiz-adv-x="350" 
d="M133 667h39q33 0 55 21t22 57q0 62 -76 62q-79 0 -83 -62h-48q8 105 131 105q126 0 126 -102q0 -79 -61 -100q77 -19 77 -100q0 -56 -37.5 -90t-111.5 -34q-124 0 -131 105h50q4 -33 23 -47.5t58 -14.5q99 0 99 82q0 75 -93 75h-39v43z" />
    <glyph glyph-name="acute" unicode="&#xb4;" horiz-adv-x="176" 
d="M9 750l78 160h70l-108 -160h-40z" />
    <glyph glyph-name="mu" unicode="&#xb5;" horiz-adv-x="571" 
d="M501 525v-382q0 -51 14.5 -72t48.5 -21v-60q-56 0 -84.5 26t-34.5 79q-60 -105 -186 -105q-88 0 -133 47v-232h-65v720h65v-285q0 -101 35.5 -145.5t110.5 -44.5q56 0 100 22.5t66 66.5h-2v386h65z" />
    <glyph glyph-name="paragraph" unicode="&#xb6;" horiz-adv-x="558" 
d="M439 -10v694h-165v-694h-55v386q-71 0 -121 50.5t-50 121.5t50 121.5t121 50.5h274v-730h-54z" />
    <glyph glyph-name="periodcentered" unicode="&#xb7;" horiz-adv-x="165" 
d="M130 367q0 -46 -47 -46q-48 0 -48 46t48 46q47 0 47 -46z" />
    <glyph glyph-name="cedilla" unicode="&#xb8;" horiz-adv-x="222" 
d="M102 5l-14 -78q47 13 86 -2.5t39 -59.5q0 -42 -37 -67.5t-89 -25.5q-45 0 -78 19l6 37q32 -16 67 -16q33 0 54.5 13.5t21.5 39.5q0 18 -10.5 27t-30.5 8.5t-38 -4t-42 -10.5l21 119h44z" />
    <glyph glyph-name="onesuperior" unicode="&#xb9;" horiz-adv-x="221" 
d="M120 431v348l-58 -64l-32 31l90 99h48v-414h-48z" />
    <glyph glyph-name="ordmasculine" unicode="&#xba;" horiz-adv-x="366" 
d="M183 424q-81 0 -114.5 54t-33.5 156q0 216 148 216t148 -216q0 -102 -33.5 -156t-114.5 -54zM183 807q-54 0 -76 -42t-22 -131q0 -88 22 -127.5t76 -39.5q53 0 75.5 39.5t22.5 128.5q0 88 -22 130t-76 42z" />
    <glyph glyph-name="guillemotright" unicode="&#xbb;" horiz-adv-x="488" 
d="M18 91v66l223 159l-223 159v66l258 -197v-57zM239 91v66l199 159l-199 159v66l231 -197v-57z" />
    <glyph glyph-name="onequarter" unicode="&#xbc;" horiz-adv-x="658" 
d="M154 0l240 720h50l-236 -720h-54zM120 286v349l-59 -65l-32 31l91 99h48v-414h-48zM573 141h50v-42h-50v-99h-48v99h-194v45l195 270h47v-273zM525 344l-142 -203h142v203z" />
    <glyph glyph-name="onehalf" unicode="&#xbd;" horiz-adv-x="683" 
d="M150 0l240 720h51l-237 -720h-54zM116 286v348l-58 -64l-32 31l90 99h48v-414h-48zM381 0v43q118 99 166 157t48 111q0 36 -20 50.5t-57 14.5q-78 0 -82 -62h-48q8 105 130 105q127 0 127 -102q0 -27 -10.5 -55t-20.5 -47t-38 -50t-38 -41t-47 -43.5t-41 -37.5h198v-43
h-267z" />
    <glyph glyph-name="threequarters" unicode="&#xbe;" horiz-adv-x="786" 
d="M262 0l240 720h51l-237 -720h-54zM133 523h39q33 0 55 21t22 57q0 62 -76 62q-79 0 -83 -62h-48q8 105 131 105q126 0 126 -102q0 -79 -61 -100q77 -19 77 -100q0 -56 -37.5 -90t-111.5 -34q-124 0 -131 105h50q4 -33 23 -47.5t58 -14.5q99 0 99 82q0 75 -93 75h-39v43z
M692 141h50v-42h-50v-99h-48v99h-194v45l195 270h47v-273zM644 344l-142 -203h142v203z" />
    <glyph glyph-name="questiondown" unicode="&#xbf;" horiz-adv-x="494" 
d="M207 509q0 46 47 46q48 0 48 -46t-48 -46q-47 0 -47 46zM35 -3q0 52 19 92.5t46.5 68l54.5 55.5t46 70.5t19 98.5h67q0 -59 -19 -106t-46 -77.5t-54 -58t-46 -63t-19 -77.5q0 -114 139 -114q71 0 108 27.5t41 86.5h68q-7 -97 -64 -136t-152 -39q-208 0 -208 172z" />
    <glyph glyph-name="Agrave" unicode="&#xc0;" horiz-adv-x="628" 
d="M270 920l78 -160h-40l-108 160h70zM154 190l-72 -190h-75l273 700h68l273 -700h-75l-73 190h-319zM450 251l-136 359l-137 -359h273z" />
    <glyph glyph-name="Aacute" unicode="&#xc1;" horiz-adv-x="628" 
d="M280 760l78 160h70l-108 -160h-40zM154 190l-72 -190h-75l273 700h68l273 -700h-75l-73 190h-319zM450 251l-136 359l-137 -359h273z" />
    <glyph glyph-name="Acircumflex" unicode="&#xc2;" horiz-adv-x="628" 
d="M389 760l-74 126l-74 -126h-70l124 160h40l124 -160h-70zM154 190l-72 -190h-75l273 700h68l273 -700h-75l-73 190h-319zM450 251l-136 359l-137 -359h273z" />
    <glyph glyph-name="Atilde" unicode="&#xc3;" horiz-adv-x="628" 
d="M400 813q48 0 48 61h51q0 -55 -29 -84.5t-73 -29.5q-35 0 -89 30t-81 30q-47 0 -47 -60h-51q0 54 29 84t71 30q35 0 89 -30.5t82 -30.5zM154 190l-72 -190h-75l273 700h68l273 -700h-75l-73 190h-319zM450 251l-136 359l-137 -359h273z" />
    <glyph glyph-name="Adieresis" unicode="&#xc4;" horiz-adv-x="628" 
d="M256 803q0 -43 -42 -43t-42 43t42 43t42 -43zM456 803q0 -43 -42 -43t-42 43t42 43t42 -43zM154 190l-72 -190h-75l273 700h68l273 -700h-75l-73 190h-319zM450 251l-136 359l-137 -359h273z" />
    <glyph glyph-name="Aring" unicode="&#xc5;" horiz-adv-x="628" 
d="M194 768q0 49 35.5 84t85.5 35q49 0 84 -34.5t35 -84.5q0 -36 -19.5 -65.5t-50.5 -44.5l257 -658h-75l-73 190h-319l-72 -190h-75l257 658q-31 15 -50.5 45t-19.5 65zM247 768q0 -28 20 -48t48 -20h5q25 2 42.5 22t17.5 46q0 28 -18.5 46.5t-46.5 18.5t-48 -19t-20 -46z
M450 251l-136 359l-137 -359h273z" />
    <glyph glyph-name="AE" unicode="&#xc6;" horiz-adv-x="949" 
d="M510 639v-257h347v-60h-347v-261h387v-61h-455v190h-291l-73 -190h-71l273 700h617v-61h-387zM442 251v388h-119l-149 -388h268z" />
    <glyph glyph-name="Ccedilla" unicode="&#xc7;" horiz-adv-x="706" 
d="M377 710q98 0 175 -48.5t111 -136.5h-75q-61 121 -205 121q-116 0 -192 -80.5t-76 -215.5t76 -215.5t192 -80.5q144 0 204 121h75q-33 -87 -107.5 -135t-170.5 -50l-11 -63q47 13 86 -2.5t39 -59.5q0 -42 -37 -67.5t-89 -25.5q-45 0 -78 19l6 37q32 -16 67 -16
q33 0 54.5 13.5t21.5 39.5q0 18 -10.5 27t-30.5 8.5t-38 -4t-42 -10.5l18 106q-131 13 -214 109.5t-83 248.5q0 163 94.5 261.5t239.5 98.5z" />
    <glyph glyph-name="Egrave" unicode="&#xc8;" horiz-adv-x="572" 
d="M263 920l78 -160h-40l-108 160h70zM133 639v-257h347v-60h-347v-261h387v-61h-455v700h455v-61h-387z" />
    <glyph glyph-name="Eacute" unicode="&#xc9;" horiz-adv-x="572" 
d="M241 760l78 160h70l-108 -160h-40zM133 639v-257h347v-60h-347v-261h387v-61h-455v700h455v-61h-387z" />
    <glyph glyph-name="Ecircumflex" unicode="&#xca;" horiz-adv-x="572" 
d="M371 760l-74 126l-74 -126h-70l124 160h40l124 -160h-70zM520 700v-61h-387v-257h347v-60h-347v-261h387v-61h-455v700h455z" />
    <glyph glyph-name="Edieresis" unicode="&#xcb;" horiz-adv-x="572" 
d="M240 803q0 -43 -42 -43t-42 43t42 43t42 -43zM440 803q0 -43 -42 -43t-42 43t42 43t42 -43zM133 639v-257h347v-60h-347v-261h387v-61h-455v700h455v-61h-387z" />
    <glyph glyph-name="Igrave" unicode="&#xcc;" horiz-adv-x="228" 
d="M76 920l78 -160h-40l-108 160h70zM86 0v700h68v-700h-68z" />
    <glyph glyph-name="Iacute" unicode="&#xcd;" horiz-adv-x="228" 
d="M74 760l78 160h70l-108 -160h-40zM74 0v700h68v-700h-68z" />
    <glyph glyph-name="Icircumflex" unicode="&#xce;" horiz-adv-x="234" 
d="M192 760l-74 126l-74 -126h-70l124 160h40l124 -160h-70zM82 0v700h68v-700h-68z" />
    <glyph glyph-name="Idieresis" unicode="&#xcf;" horiz-adv-x="234" 
d="M59 803q0 -43 -42 -43t-42 43t42 43t42 -43zM259 803q0 -43 -42 -43t-42 43t42 43t42 -43zM82 0v700h68v-700h-68z" />
    <glyph glyph-name="Eth" unicode="&#xd0;" horiz-adv-x="661" 
d="M75 377v323h239q137 0 218 -87t81 -263t-81 -263t-218 -87h-239v330h-62v47h62zM143 377h160v-47h-160v-269h167q111 0 171.5 73.5t60.5 215.5t-60.5 215.5t-170.5 73.5h-168v-262z" />
    <glyph glyph-name="Ntilde" unicode="&#xd1;" horiz-adv-x="662" 
d="M416 813q48 0 48 61h51q0 -55 -29 -84.5t-73 -29.5q-35 0 -89 30t-81 30q-47 0 -47 -60h-51q0 54 29 84t71 30q35 0 89 -30.5t82 -30.5zM515 0l-382 604v-604h-68v700h82l381 -612v612h69v-700h-82z" />
    <glyph glyph-name="Ograve" unicode="&#xd2;" horiz-adv-x="756" 
d="M340 920l78 -160h-40l-108 160h70zM378 -10q-145 0 -240 98.5t-95 261.5t95 261.5t240 98.5t240 -98.5t95 -261.5t-95 -261.5t-240 -98.5zM378 54q110 0 186.5 81t76.5 215t-76.5 215t-186.5 81t-186.5 -81t-76.5 -215t76.5 -215t186.5 -81z" />
    <glyph glyph-name="Oacute" unicode="&#xd3;" horiz-adv-x="756" 
d="M338 760l78 160h70l-108 -160h-40zM378 -10q-145 0 -240 98.5t-95 261.5t95 261.5t240 98.5t240 -98.5t95 -261.5t-95 -261.5t-240 -98.5zM378 646q-110 0 -186.5 -81t-76.5 -215t76.5 -215t186.5 -81t186.5 81t76.5 215t-76.5 215t-186.5 81z" />
    <glyph glyph-name="Ocircumflex" unicode="&#xd4;" horiz-adv-x="756" 
d="M453 760l-74 126l-74 -126h-70l124 160h40l124 -160h-70zM378 -10q-145 0 -240 98.5t-95 261.5t95 261.5t240 98.5t240 -98.5t95 -261.5t-95 -261.5t-240 -98.5zM378 646q-110 0 -186.5 -81t-76.5 -215t76.5 -215t186.5 -81t186.5 81t76.5 215t-76.5 215t-186.5 81z" />
    <glyph glyph-name="Otilde" unicode="&#xd5;" horiz-adv-x="756" 
d="M464 813q48 0 48 61h51q0 -55 -29 -84.5t-73 -29.5q-35 0 -89 30t-81 30q-47 0 -47 -60h-51q0 54 29 84t71 30q35 0 89 -30.5t82 -30.5zM378 -10q-145 0 -240 98.5t-95 261.5t95 261.5t240 98.5t240 -98.5t95 -261.5t-95 -261.5t-240 -98.5zM378 54q110 0 186.5 81
t76.5 215t-76.5 215t-186.5 81t-186.5 -81t-76.5 -215t76.5 -215t186.5 -81z" />
    <glyph glyph-name="Odieresis" unicode="&#xd6;" horiz-adv-x="756" 
d="M278 760q-42 0 -42 43t42 43t42 -43t-42 -43zM478 760q-42 0 -42 43t42 43t42 -43t-42 -43zM378 710q145 0 240 -98.5t95 -261.5t-95 -261.5t-240 -98.5t-240 98.5t-95 261.5t95 261.5t240 98.5zM378 54q110 0 186.5 81t76.5 215t-76.5 215t-186.5 81t-186.5 -81
t-76.5 -215t76.5 -215t186.5 -81z" />
    <glyph glyph-name="multiply" unicode="&#xd7;" horiz-adv-x="413" 
d="M207 394l119 119l43 -43l-119 -119l120 -119l-43 -44l-120 120l-121 -121l-43 43l121 121l-120 120l44 43z" />
    <glyph glyph-name="Oslash" unicode="&#xd8;" horiz-adv-x="756" 
d="M378 710q103 0 183 -52l44 62l40 -24l-47 -66q115 -102 115 -280q0 -163 -95.5 -261.5t-240.5 -98.5q-106 0 -187 55l-47 -67l-39 24l50 71q-111 101 -111 277q0 163 95 261.5t240 98.5zM377 646q-109 0 -185.5 -81t-76.5 -215q0 -135 79 -219l328 470q-65 45 -145 45z
M377 54q111 0 187.5 80.5t76.5 214.5q0 138 -83 223l-329 -471q65 -47 148 -47z" />
    <glyph glyph-name="Ugrave" unicode="&#xd9;" horiz-adv-x="664" 
d="M294 920l78 -160h-40l-108 160h70zM133 700v-420q0 -101 49.5 -163.5t149.5 -62.5t149.5 62.5t49.5 163.5v420h68v-420q0 -127 -67 -208.5t-200 -81.5t-200 81.5t-67 208.5v420h68z" />
    <glyph glyph-name="Uacute" unicode="&#xda;" horiz-adv-x="664" 
d="M292 760l78 160h70l-108 -160h-40zM133 700v-420q0 -101 49.5 -163.5t149.5 -62.5t149.5 62.5t49.5 163.5v420h68v-420q0 -127 -67 -208.5t-200 -81.5t-200 81.5t-67 208.5v420h68z" />
    <glyph glyph-name="Ucircumflex" unicode="&#xdb;" horiz-adv-x="664" 
d="M406 760l-74 126l-74 -126h-70l124 160h40l124 -160h-70zM133 700v-420q0 -101 49.5 -163.5t149.5 -62.5t149.5 62.5t49.5 163.5v420h68v-420q0 -127 -67 -208.5t-200 -81.5t-200 81.5t-67 208.5v420h68z" />
    <glyph glyph-name="Udieresis" unicode="&#xdc;" horiz-adv-x="664" 
d="M274 803q0 -43 -42 -43t-42 43t42 43t42 -43zM474 803q0 -43 -42 -43t-42 43t42 43t42 -43zM133 700v-420q0 -101 49.5 -163.5t149.5 -62.5t149.5 62.5t49.5 163.5v420h68v-420q0 -127 -67 -208.5t-200 -81.5t-200 81.5t-67 208.5v420h68z" />
    <glyph glyph-name="Yacute" unicode="&#xdd;" horiz-adv-x="583" 
d="M258 760l78 160h70l-108 -160h-40zM257 0v245l-248 455h76l206 -385l1 1l206 384h76l-248 -455v-245h-69z" />
    <glyph glyph-name="Thorn" unicode="&#xde;" horiz-adv-x="625" 
d="M133 0h-68v700h68v-120h204q245 0 245 -220t-245 -220h-204v-140zM133 201h195q40 0 69 5.5t56.5 21.5t42 49t14.5 83t-14.5 83t-42 49t-56.5 21.5t-69 5.5h-195v-318z" />
    <glyph glyph-name="germandbls" unicode="&#xdf;" horiz-adv-x="557" 
d="M213 0v59q29 -9 66 -9q167 0 167 139q0 49 -20.5 80.5t-58 44.5t-72.5 17t-82 2v57q79 -3 134 31.5t55 111.5q0 63 -38 95t-102 32q-70 0 -105.5 -44t-35.5 -145v-471h-65v471q0 128 50.5 188.5t152.5 60.5q96 0 153.5 -49t57.5 -137q0 -117 -121 -165q165 -30 165 -181
q0 -103 -65 -150.5t-167 -47.5q-44 0 -69 10z" />
    <glyph glyph-name="agrave" unicode="&#xe0;" horiz-adv-x="532" 
d="M238 750l78 -160h-40l-108 160h70zM43 144q0 84 61 122.5t157 38.5q88 0 150 -38v81q0 73 -34 100t-99 27q-142 0 -142 -95h-68q0 79 56.5 117t151.5 38q99 0 149.5 -44.5t50.5 -150.5v-340h-50l-10 73q-58 -83 -178 -83q-87 0 -141 37.5t-54 116.5zM271 252
q-160 0 -160 -106q0 -96 136 -96q119 0 164 74v95q-54 33 -140 33z" />
    <glyph glyph-name="aacute" unicode="&#xe1;" horiz-adv-x="532" 
d="M246 590l78 160h70l-108 -160h-40zM43 144q0 84 61 122.5t157 38.5q88 0 150 -38v81q0 73 -34 100t-99 27q-142 0 -142 -95h-68q0 79 56.5 117t151.5 38q99 0 149.5 -44.5t50.5 -150.5v-340h-50l-10 73q-58 -83 -178 -83q-87 0 -141 37.5t-54 116.5zM271 252
q-160 0 -160 -106q0 -96 136 -96q119 0 164 74v95q-54 33 -140 33z" />
    <glyph glyph-name="acircumflex" unicode="&#xe2;" horiz-adv-x="532" 
d="M346 590l-74 126l-74 -126h-70l124 160h40l124 -160h-70zM43 144q0 84 61 122.5t157 38.5q88 0 150 -38v81q0 73 -34 100t-99 27q-142 0 -142 -95h-68q0 79 56.5 117t151.5 38q99 0 149.5 -44.5t50.5 -150.5v-340h-50l-10 73q-58 -83 -178 -83q-87 0 -141 37.5t-54 116.5
zM271 252q-160 0 -160 -106q0 -96 136 -96q119 0 164 74v95q-54 33 -140 33z" />
    <glyph glyph-name="atilde" unicode="&#xe3;" horiz-adv-x="532" 
d="M362 643q48 0 48 61h51q0 -55 -29 -84.5t-73 -29.5q-35 0 -89 30t-81 30q-47 0 -47 -60h-51q0 54 29 84t71 30q35 0 89 -30.5t82 -30.5zM43 144q0 84 61 122.5t157 38.5q88 0 150 -38v81q0 73 -34 100t-99 27q-142 0 -142 -95h-68q0 79 56.5 117t151.5 38
q99 0 149.5 -44.5t50.5 -150.5v-340h-50l-10 73q-58 -83 -178 -83q-87 0 -141 37.5t-54 116.5zM271 252q-160 0 -160 -106q0 -96 136 -96q119 0 164 74v95q-54 33 -140 33z" />
    <glyph glyph-name="adieresis" unicode="&#xe4;" horiz-adv-x="532" 
d="M221 648q0 -43 -42 -43t-42 43t42 43t42 -43zM421 648q0 -43 -42 -43t-42 43t42 43t42 -43zM43 144q0 84 61 122.5t157 38.5q88 0 150 -38v81q0 73 -34 100t-99 27q-142 0 -142 -95h-68q0 79 56.5 117t151.5 38q99 0 149.5 -44.5t50.5 -150.5v-340h-50l-10 73
q-58 -83 -178 -83q-87 0 -141 37.5t-54 116.5zM271 252q-160 0 -160 -106q0 -96 136 -96q119 0 164 74v95q-54 33 -140 33z" />
    <glyph glyph-name="aring" unicode="&#xe5;" horiz-adv-x="532" 
d="M156 696q0 49 35.5 84t85.5 35q49 0 84 -34.5t35 -84.5t-35 -85.5t-84 -35.5t-85 35.5t-36 85.5zM209 696q0 -28 20 -48t48 -20q27 0 46 20t19 48t-18.5 46.5t-46.5 18.5t-48 -19t-20 -46zM43 144q0 84 61 122.5t157 38.5q88 0 150 -38v81q0 73 -34 100t-99 27
q-142 0 -142 -95h-68q0 79 56.5 117t151.5 38q99 0 149.5 -44.5t50.5 -150.5v-340h-50l-10 73q-58 -83 -178 -83q-87 0 -141 37.5t-54 116.5zM271 252q-160 0 -160 -106q0 -96 136 -96q119 0 164 74v95q-54 33 -140 33z" />
    <glyph glyph-name="ae" unicode="&#xe6;" horiz-adv-x="926" 
d="M43 144q0 84 61 122.5t157 38.5q88 0 150 -38q0 41 9 79q7 65 -37 97t-113 32q-56 0 -95 -22.5t-39 -72.5h-68q0 79 56 117t151 38q149 0 185 -96q68 96 193 96q107 0 168.5 -73t61.5 -199v-28h-405v-5q9 -85 57.5 -132.5t117.5 -47.5q105 0 144 95h68
q-25 -74 -79.5 -114.5t-132.5 -40.5q-139 0 -205 115q-59 -115 -209 -115q-88 0 -142 37.5t-54 116.5zM653 475q-70 0 -119 -48.5t-57 -134.5h337q-7 87 -50 135t-111 48zM270 252q-159 0 -159 -105q0 -37 21.5 -60t49 -30t61.5 -7q129 0 184 105q-10 31 -14 62
q-55 35 -143 35z" />
    <glyph glyph-name="ccedilla" unicode="&#xe7;" horiz-adv-x="530" 
d="M280 50q48 0 87.5 23.5t59.5 71.5h68q-24 -72 -78 -112.5t-130 -42.5l-11 -63q47 13 86 -2.5t39 -59.5q0 -42 -37 -67.5t-89 -25.5q-45 0 -78 19l6 37q32 -16 67 -16q33 0 54.5 13.5t21.5 39.5q0 18 -10.5 27t-30.5 8.5t-38 -4t-42 -10.5l19 107q-94 12 -151.5 84.5
t-57.5 185.5q0 124 68 198t177 74q79 0 134.5 -40.5t80.5 -114.5h-68q-20 48 -59.5 71.5t-87.5 23.5q-76 0 -126.5 -56.5t-50.5 -155.5t50.5 -156t126.5 -57z" />
    <glyph glyph-name="egrave" unicode="&#xe8;" horiz-adv-x="545" 
d="M242 750l78 -160h-40l-108 160h70zM280 -10q-108 0 -176.5 74.5t-68.5 198.5t68 198t177 74q107 0 168.5 -73t61.5 -199v-28h-406q7 -87 56.5 -136t119.5 -49q105 0 144 95h68q-25 -74 -79.5 -114.5t-132.5 -40.5zM280 475q-70 0 -119 -48.5t-57 -134.5h337
q-7 87 -50 135t-111 48z" />
    <glyph glyph-name="eacute" unicode="&#xe9;" horiz-adv-x="545" 
d="M239 590l78 160h70l-108 -160h-40zM280 -10q-108 0 -176.5 74.5t-68.5 198.5t68 198t177 74q107 0 168.5 -73t61.5 -199v-28h-406q7 -87 56.5 -136t119.5 -49q105 0 144 95h68q-25 -74 -79.5 -114.5t-132.5 -40.5zM280 475q-70 0 -119 -48.5t-57 -134.5h337
q-7 87 -50 135t-111 48z" />
    <glyph glyph-name="ecircumflex" unicode="&#xea;" horiz-adv-x="545" 
d="M354 590l-74 126l-74 -126h-70l124 160h40l124 -160h-70zM280 -10q-108 0 -176.5 74.5t-68.5 198.5t68 198t177 74q107 0 168.5 -73t61.5 -199v-28h-406q7 -87 56.5 -136t119.5 -49q105 0 144 95h68q-25 -74 -79.5 -114.5t-132.5 -40.5zM280 475q-70 0 -119 -48.5
t-57 -134.5h337q-7 87 -50 135t-111 48z" />
    <glyph glyph-name="edieresis" unicode="&#xeb;" horiz-adv-x="545" 
d="M217 648q0 -43 -42 -43t-42 43t42 43t42 -43zM417 648q0 -43 -42 -43t-42 43t42 43t42 -43zM280 -10q-108 0 -176.5 74.5t-68.5 198.5t68 198t177 74q107 0 168.5 -73t61.5 -199v-28h-406q7 -87 56.5 -136t119.5 -49q105 0 144 95h68q-25 -74 -79.5 -114.5t-132.5 -40.5z
M280 475q-70 0 -119 -48.5t-57 -134.5h337q-7 87 -50 135t-111 48z" />
    <glyph glyph-name="igrave" unicode="&#xec;" horiz-adv-x="189" 
d="M53 750l78 -160h-40l-108 160h70zM66 0v525h65v-525h-65z" />
    <glyph glyph-name="iacute" unicode="&#xed;" horiz-adv-x="195" 
d="M58 590l78 160h70l-108 -160h-40zM58 0v525h65v-525h-65z" />
    <glyph glyph-name="icircumflex" unicode="&#xee;" horiz-adv-x="278" 
d="M213 590l-74 126l-74 -126h-70l124 160h40l124 -160h-70zM105 0v525h65v-525h-65z" />
    <glyph glyph-name="idieresis" unicode="&#xef;" horiz-adv-x="249" 
d="M67 648q0 -43 -42 -43t-42 43t42 43t42 -43zM267 648q0 -43 -42 -43t-42 43t42 43t42 -43zM92 0v525h65v-525h-65z" />
    <glyph glyph-name="eth" unicode="&#xf0;" horiz-adv-x="560" 
d="M211 619l44 44q-22 13 -77 37l36 37q43 -16 78 -37l50 50l38 -38l-42 -42q77 -54 132 -160.5t55 -240.5q0 -141 -65.5 -210t-176.5 -69q-113 0 -180.5 67.5t-67.5 189.5q0 121 67 184.5t175 63.5q130 0 180 -101q-36 152 -155 240l-53 -53zM280 435q-79 0 -128 -45
t-49 -142q0 -98 49.5 -148t127.5 -50t127.5 50t49.5 148q0 97 -49 142t-128 45z" />
    <glyph glyph-name="ntilde" unicode="&#xf1;" 
d="M366 643q48 0 48 61h51q0 -55 -29 -84.5t-73 -29.5q-35 0 -89 30t-81 30q-47 0 -47 -60h-51q0 54 29 84t71 30q35 0 89 -30.5t82 -30.5zM286 475q-117 0 -165 -85v-390h-65v525h50l11 -87q62 97 185 97q197 0 197 -250v-285h-65v285q0 101 -36.5 145.5t-111.5 44.5z" />
    <glyph glyph-name="ograve" unicode="&#xf2;" horiz-adv-x="560" 
d="M244 750l78 -160h-40l-108 160h70zM280 -10q-108 0 -176.5 74.5t-68.5 198.5t68 198t177 74t177 -74t68 -198t-68.5 -198.5t-176.5 -74.5zM280 475q-76 0 -126.5 -56.5t-50.5 -155.5t50.5 -156t126.5 -57t126.5 57t50.5 156t-50.5 155.5t-126.5 56.5z" />
    <glyph glyph-name="oacute" unicode="&#xf3;" horiz-adv-x="560" 
d="M240 590l78 160h70l-108 -160h-40zM280 -10q-108 0 -176.5 74.5t-68.5 198.5t68 198t177 74t177 -74t68 -198t-68.5 -198.5t-176.5 -74.5zM280 475q-76 0 -126.5 -56.5t-50.5 -155.5t50.5 -156t126.5 -57t126.5 57t50.5 156t-50.5 155.5t-126.5 56.5z" />
    <glyph glyph-name="ocircumflex" unicode="&#xf4;" horiz-adv-x="560" 
d="M357 590l-74 126l-74 -126h-70l124 160h40l124 -160h-70zM280 -10q-108 0 -176.5 74.5t-68.5 198.5t68 198t177 74t177 -74t68 -198t-68.5 -198.5t-176.5 -74.5zM280 475q-76 0 -126.5 -56.5t-50.5 -155.5t50.5 -156t126.5 -57t126.5 57t50.5 156t-50.5 155.5
t-126.5 56.5z" />
    <glyph glyph-name="otilde" unicode="&#xf5;" horiz-adv-x="560" 
d="M366 643q48 0 48 61h51q0 -55 -29 -84.5t-73 -29.5q-35 0 -89 30t-81 30q-47 0 -47 -60h-51q0 54 29 84t71 30q35 0 89 -30.5t82 -30.5zM280 -10q-108 0 -176.5 74.5t-68.5 198.5t68 198t177 74t177 -74t68 -198t-68.5 -198.5t-176.5 -74.5zM280 475q-76 0 -126.5 -56.5
t-50.5 -155.5t50.5 -156t126.5 -57t126.5 57t50.5 156t-50.5 155.5t-126.5 56.5z" />
    <glyph glyph-name="odieresis" unicode="&#xf6;" horiz-adv-x="560" 
d="M217 648q0 -43 -42 -43t-42 43t42 43t42 -43zM417 648q0 -43 -42 -43t-42 43t42 43t42 -43zM280 -10q-108 0 -176.5 74.5t-68.5 198.5t68 198t177 74t177 -74t68 -198t-68.5 -198.5t-176.5 -74.5zM280 475q-76 0 -126.5 -56.5t-50.5 -155.5t50.5 -156t126.5 -57t126.5 57
t50.5 156t-50.5 155.5t-126.5 56.5z" />
    <glyph glyph-name="divide" unicode="&#xf7;" horiz-adv-x="436" 
d="M265 489q0 -46 -48 -46q-47 0 -47 46t47 46q48 0 48 -46zM418 357v-60h-400v60h400zM265 211q0 -46 -48 -46q-47 0 -47 46t47 46q48 0 48 -46z" />
    <glyph glyph-name="oslash" unicode="&#xf8;" horiz-adv-x="560" 
d="M280 535q89 0 152 -51l37 51l40 -24l-44 -60q60 -74 60 -188q0 -124 -68.5 -198.5t-176.5 -74.5q-71 0 -124 32l-42 -58l-39 25l43 60q-83 77 -83 214q0 124 68 198t177 74zM280 475q-76 0 -126.5 -56.5t-50.5 -156.5q0 -102 54 -159l237 328q-47 44 -114 44zM280 50
q76 0 126.5 57t50.5 156q0 78 -33 131l-231 -321q40 -23 87 -23z" />
    <glyph glyph-name="ugrave" unicode="&#xf9;" 
d="M239 750l78 -160h-40l-108 160h70zM269 50q116 0 165 83v392h65v-525h-50l-12 87q-62 -97 -183 -97q-198 0 -198 250v285h65v-285q0 -101 36.5 -145.5t111.5 -44.5z" />
    <glyph glyph-name="uacute" unicode="&#xfa;" 
d="M226 590l78 160h70l-108 -160h-40zM269 50q116 0 165 83v392h65v-525h-50l-12 87q-62 -97 -183 -97q-198 0 -198 250v285h65v-285q0 -101 36.5 -145.5t111.5 -44.5z" />
    <glyph glyph-name="ucircumflex" unicode="&#xfb;" 
d="M349 590l-74 126l-74 -126h-70l124 160h40l124 -160h-70zM269 50q116 0 165 83v392h65v-525h-50l-12 87q-62 -97 -183 -97q-198 0 -198 250v285h65v-285q0 -101 36.5 -145.5t111.5 -44.5z" />
    <glyph glyph-name="udieresis" unicode="&#xfc;" 
d="M219 648q0 -43 -42 -43t-42 43t42 43t42 -43zM419 648q0 -43 -42 -43t-42 43t42 43t42 -43zM269 50q116 0 165 83v392h65v-525h-50l-12 87q-62 -97 -183 -97q-198 0 -198 250v285h65v-285q0 -101 36.5 -145.5t111.5 -44.5z" />
    <glyph glyph-name="yacute" unicode="&#xfd;" horiz-adv-x="499" 
d="M212 590l78 160h70l-108 -160h-40zM283 0l-29 -76q-24 -61 -64.5 -92t-115.5 -31v62q49 1 76 18t45 61l21 54l-203 529h72l164 -442l164 442h73z" />
    <glyph glyph-name="thorn" unicode="&#xfe;" horiz-adv-x="556" 
d="M285 535q104 0 164 -73t60 -199t-60 -199.5t-164 -73.5q-109 0 -164 84v-269h-65v915h65v-269q57 84 164 84zM270 475q-48 0 -88 -21.5t-61 -59.5v-263q22 -40 62 -60.5t87 -20.5q78 0 124.5 56t46.5 157q0 100 -46.5 156t-124.5 56z" />
    <glyph glyph-name="ydieresis" unicode="&#xff;" horiz-adv-x="499" 
d="M187 648q0 -43 -42 -43t-42 43t42 43t42 -43zM387 648q0 -43 -42 -43t-42 43t42 43t42 -43zM283 0l-29 -76q-24 -61 -64.5 -92.5t-115.5 -31.5v62q48 1 76 18.5t45 61.5l21 54l-203 529h72l164 -442l164 442h73z" />
    <glyph glyph-name="Amacron" unicode="&#x100;" horiz-adv-x="628" 
d="M459 807v-47h-290v47h290zM154 190l-72 -190h-75l273 700h68l273 -700h-75l-73 190h-319zM450 251l-136 359l-137 -359h273z" />
    <glyph glyph-name="amacron" unicode="&#x101;" horiz-adv-x="532" 
d="M420 650v-47h-290v47h290zM43 144q0 84 61 122.5t157 38.5q88 0 150 -38v81q0 73 -34 100t-99 27q-142 0 -142 -95h-68q0 79 56.5 117t151.5 38q99 0 149.5 -44.5t50.5 -150.5v-340h-50l-10 73q-58 -83 -178 -83q-87 0 -141 37.5t-54 116.5zM271 252q-160 0 -160 -106
q0 -96 136 -96q119 0 164 74v95q-54 33 -140 33z" />
    <glyph glyph-name="Abreve" unicode="&#x102;" horiz-adv-x="628" 
d="M417 884h43q0 -65 -40.5 -94.5t-104.5 -29.5t-104.5 29.5t-40.5 94.5h43q0 -35 28 -54.5t74 -19.5t74 19.5t28 54.5zM154 190l-72 -190h-75l273 700h68l273 -700h-75l-73 190h-319zM450 251l-136 359l-137 -359h273z" />
    <glyph glyph-name="abreve" unicode="&#x103;" horiz-adv-x="532" 
d="M377 714h43q0 -65 -40.5 -94.5t-104.5 -29.5t-104.5 29.5t-40.5 94.5h43q0 -35 28 -54.5t74 -19.5t74 19.5t28 54.5zM43 144q0 84 61 122.5t157 38.5q88 0 150 -38v81q0 73 -34 100t-99 27q-142 0 -142 -95h-68q0 79 56.5 117t151.5 38q99 0 149.5 -44.5t50.5 -150.5
v-340h-50l-10 73q-58 -83 -178 -83q-87 0 -141 37.5t-54 116.5zM271 252q-160 0 -160 -106q0 -96 136 -96q119 0 164 74v95q-54 33 -140 33z" />
    <glyph glyph-name="Aogonek" unicode="&#x104;" horiz-adv-x="631" 
d="M154 190l-72 -190h-75l273 700h68l273 -700q-100 -63 -100 -122q0 -53 50 -53q24 0 41 11l16 -30q-28 -21 -66 -21t-66.5 18.5t-28.5 64.5q0 72 112 132h-33l-73 190h-319zM450 251l-136 359l-137 -359h273z" />
    <glyph glyph-name="aogonek" unicode="&#x105;" horiz-adv-x="541" 
d="M459 -164l16 -30q-28 -21 -66 -21t-66.5 18.5t-28.5 64.5q0 72 112 132l-10 73q-58 -83 -178 -83q-87 0 -141 37.5t-54 116.5q0 84 61 122.5t157 38.5q88 0 150 -38v81q0 73 -34 100t-99 27q-142 0 -142 -95h-68q0 79 56.5 117t151.5 38q99 0 149.5 -44.5t50.5 -150.5
v-340q-65 -37 -86.5 -65t-21.5 -56q0 -54 50 -54q24 0 41 11zM271 252q-160 0 -160 -106q0 -96 136 -96q119 0 164 74v95q-54 33 -140 33z" />
    <glyph glyph-name="Cacute" unicode="&#x106;" horiz-adv-x="706" 
d="M337 760l78 160h70l-108 -160h-40zM377 710q98 0 175 -48.5t111 -136.5h-75q-61 121 -205 121q-116 0 -192 -80.5t-76 -215.5t76 -215.5t192 -80.5q144 0 204 121h75q-34 -88 -110.5 -136.5t-174.5 -48.5q-145 0 -239.5 98.5t-94.5 261.5t94.5 261.5t239.5 98.5z" />
    <glyph glyph-name="cacute" unicode="&#x107;" horiz-adv-x="530" 
d="M240 590l78 160h70l-108 -160h-40zM280 50q48 0 87.5 23.5t59.5 71.5h68q-25 -74 -80.5 -114.5t-134.5 -40.5q-108 0 -176.5 74.5t-68.5 198.5t68 198t177 74q79 0 134.5 -40.5t80.5 -114.5h-68q-20 48 -59.5 71.5t-87.5 23.5q-76 0 -126.5 -56.5t-50.5 -155.5t50.5 -156
t126.5 -57z" />
    <glyph glyph-name="Ccircumflex" unicode="&#x108;" horiz-adv-x="706" 
d="M451 760l-74 126l-74 -126h-70l124 160h40l124 -160h-70zM377 710q98 0 175 -48.5t111 -136.5h-75q-61 121 -205 121q-116 0 -192 -80.5t-76 -215.5t76 -215.5t192 -80.5q144 0 204 121h75q-34 -88 -110.5 -136.5t-174.5 -48.5q-145 0 -239.5 98.5t-94.5 261.5
t94.5 261.5t239.5 98.5z" />
    <glyph glyph-name="ccircumflex" unicode="&#x109;" horiz-adv-x="530" 
d="M354 590l-74 126l-74 -126h-70l124 160h40l124 -160h-70zM280 50q48 0 87.5 23.5t59.5 71.5h68q-25 -74 -80.5 -114.5t-134.5 -40.5q-108 0 -176.5 74.5t-68.5 198.5t68 198t177 74q79 0 134.5 -40.5t80.5 -114.5h-68q-20 48 -59.5 71.5t-87.5 23.5q-76 0 -126.5 -56.5
t-50.5 -155.5t50.5 -156t126.5 -57z" />
    <glyph glyph-name="Cdotaccent" unicode="&#x10a;" horiz-adv-x="706" 
d="M419 809q0 -43 -42 -43t-42 43t42 43t42 -43zM377 710q98 0 175 -48.5t111 -136.5h-75q-61 121 -205 121q-116 0 -192 -80.5t-76 -215.5t76 -215.5t192 -80.5q144 0 204 121h75q-34 -88 -110.5 -136.5t-174.5 -48.5q-145 0 -239.5 98.5t-94.5 261.5t94.5 261.5
t239.5 98.5z" />
    <glyph glyph-name="cdotaccent" unicode="&#x10b;" horiz-adv-x="530" 
d="M322 648q0 -43 -42 -43t-42 43t42 43t42 -43zM280 50q48 0 87.5 23.5t59.5 71.5h68q-25 -74 -80.5 -114.5t-134.5 -40.5q-108 0 -176.5 74.5t-68.5 198.5t68 198t177 74q79 0 134.5 -40.5t80.5 -114.5h-68q-20 48 -59.5 71.5t-87.5 23.5q-76 0 -126.5 -56.5t-50.5 -155.5
t50.5 -156t126.5 -57z" />
    <glyph glyph-name="Ccaron" unicode="&#x10c;" horiz-adv-x="706" 
d="M353 750l-124 160h70l74 -126l74 126h70l-124 -160h-40zM377 710q98 0 175 -48.5t111 -136.5h-75q-61 121 -205 121q-116 0 -192 -80.5t-76 -215.5t76 -215.5t192 -80.5q144 0 204 121h75q-34 -88 -110.5 -136.5t-174.5 -48.5q-145 0 -239.5 98.5t-94.5 261.5t94.5 261.5
t239.5 98.5z" />
    <glyph glyph-name="ccaron" unicode="&#x10d;" horiz-adv-x="530" 
d="M260 590l-124 160h70l74 -126l74 126h70l-124 -160h-40zM280 50q48 0 87.5 23.5t59.5 71.5h68q-25 -74 -80.5 -114.5t-134.5 -40.5q-108 0 -176.5 74.5t-68.5 198.5t68 198t177 74q79 0 134.5 -40.5t80.5 -114.5h-68q-20 48 -59.5 71.5t-87.5 23.5q-76 0 -126.5 -56.5
t-50.5 -155.5t50.5 -156t126.5 -57z" />
    <glyph glyph-name="Dcaron" unicode="&#x10e;" horiz-adv-x="646" 
d="M264 760l-124 160h70l74 -126l74 126h70l-124 -160h-40zM65 700h239q137 0 218 -87t81 -263t-81 -263t-218 -87h-239v700zM133 61h167q111 0 171.5 73.5t60.5 215.5t-60.5 215.5t-170.5 73.5h-168v-578z" />
    <glyph glyph-name="dcaron" unicode="&#x10f;" horiz-adv-x="684" 
d="M675 750v-5q0 -111 -97 -162l-7 38q45 30 50 83q-41 3 -41 46q0 46 47 46q48 0 48 -46zM267 -10q-104 0 -164 73.5t-60 199.5q0 125 60 198.5t164 73.5q107 0 164 -83v268h65v-720h-50l-11 80q-54 -90 -168 -90zM283 50q47 0 86 20t62 59v266q-46 80 -148 80
q-78 0 -125 -55.5t-47 -156.5t47 -157t125 -56z" />
    <glyph glyph-name="Dcroat" unicode="&#x110;" horiz-adv-x="656" 
d="M75 377v323h239q137 0 218 -87t81 -263t-81 -263t-218 -87h-239v330h-62v47h62zM143 377h160v-47h-160v-269h167q111 0 171.5 73.5t60.5 215.5t-60.5 215.5t-170.5 73.5h-168v-262z" />
    <glyph glyph-name="dcroat" unicode="&#x111;" horiz-adv-x="578" 
d="M446 0l-11 80q-54 -90 -168 -90q-104 0 -164 73.5t-60 199.5q0 125 60 198.5t164 73.5q107 0 164 -83v143h-156v47h156v78h65v-78h69v-47h-69v-595h-50zM283 50q47 0 86 20t62 59v266q-46 80 -148 80q-78 0 -125 -55.5t-47 -156.5t47 -157t125 -56z" />
    <glyph glyph-name="Emacron" unicode="&#x112;" horiz-adv-x="572" 
d="M443 807v-47h-290v47h290zM133 639v-257h347v-60h-347v-261h387v-61h-455v700h455v-61h-387z" />
    <glyph glyph-name="emacron" unicode="&#x113;" horiz-adv-x="545" 
d="M425 650v-47h-290v47h290zM280 -10q-108 0 -176.5 74.5t-68.5 198.5t68 198t177 74q107 0 168.5 -73t61.5 -199v-28h-406q7 -87 56.5 -136t119.5 -49q105 0 144 95h68q-25 -74 -79.5 -114.5t-132.5 -40.5zM280 475q-70 0 -119 -48.5t-57 -134.5h337q-7 87 -50 135
t-111 48z" />
    <glyph glyph-name="Ebreve" unicode="&#x114;" horiz-adv-x="572" 
d="M389 884h43q0 -65 -40.5 -94.5t-104.5 -29.5t-104.5 29.5t-40.5 94.5h43q0 -35 28 -54.5t74 -19.5t74 19.5t28 54.5zM520 700v-61h-387v-257h347v-60h-347v-261h387v-61h-455v700h455z" />
    <glyph glyph-name="ebreve" unicode="&#x115;" horiz-adv-x="545" 
d="M382 714h43q0 -65 -40.5 -94.5t-104.5 -29.5t-104.5 29.5t-40.5 94.5h43q0 -35 28 -54.5t74 -19.5t74 19.5t28 54.5zM280 -10q-108 0 -176.5 74.5t-68.5 198.5t68 198t177 74q107 0 168.5 -73t61.5 -199v-28h-406q7 -87 56.5 -136t119.5 -49q105 0 144 95h68
q-25 -74 -79.5 -114.5t-132.5 -40.5zM280 475q-70 0 -119 -48.5t-57 -134.5h337q-7 87 -50 135t-111 48z" />
    <glyph glyph-name="Edotaccent" unicode="&#x116;" horiz-adv-x="572" 
d="M332 802q0 -43 -42 -43t-42 43t42 43t42 -43zM133 639v-257h347v-60h-347v-261h387v-61h-455v700h455v-61h-387z" />
    <glyph glyph-name="edotaccent" unicode="&#x117;" horiz-adv-x="545" 
d="M324 648q0 -43 -42 -43t-42 43t42 43t42 -43zM280 -10q-108 0 -176.5 74.5t-68.5 198.5t68 198t177 74q107 0 168.5 -73t61.5 -199v-28h-406q7 -87 56.5 -136t119.5 -49q105 0 144 95h68q-25 -74 -79.5 -114.5t-132.5 -40.5zM280 475q-70 0 -119 -48.5t-57 -134.5h337
q-7 87 -50 135t-111 48z" />
    <glyph glyph-name="Eogonek" unicode="&#x118;" horiz-adv-x="573" 
d="M520 700v-61h-387v-257h347v-60h-347v-261h387v-61q-100 -63 -100 -122q0 -53 50 -53q24 0 41 11l16 -30q-28 -21 -66 -21t-66.5 18.5t-28.5 64.5q0 72 112 132h-413v700h455z" />
    <glyph glyph-name="eogonek" unicode="&#x119;" horiz-adv-x="545" 
d="M342 -164l16 -30q-28 -21 -66 -21t-66.5 18.5t-28.5 64.5q0 65 94 122h-11q-108 0 -176.5 74.5t-68.5 198.5t68 198t177 74q107 0 168.5 -73t61.5 -199v-28h-406q7 -87 56.5 -136t119.5 -49q105 0 144 95h68q-39 -115 -142 -145h1q-100 -63 -100 -122q0 -53 50 -53
q24 0 41 11zM280 475q-70 0 -119 -48.5t-57 -134.5h337q-7 87 -50 135t-111 48z" />
    <glyph glyph-name="Ecaron" unicode="&#x11a;" horiz-adv-x="572" 
d="M277 760l-124 160h70l74 -126l74 126h70l-124 -160h-40zM520 700v-61h-387v-257h347v-60h-347v-261h387v-61h-455v700h455z" />
    <glyph glyph-name="ecaron" unicode="&#x11b;" horiz-adv-x="545" 
d="M260 590l-124 160h70l74 -126l74 126h70l-124 -160h-40zM280 -10q-108 0 -176.5 74.5t-68.5 198.5t68 198t177 74q107 0 168.5 -73t61.5 -199v-28h-406q7 -87 56.5 -136t119.5 -49q105 0 144 95h68q-25 -74 -79.5 -114.5t-132.5 -40.5zM280 475q-70 0 -119 -48.5
t-57 -134.5h337q-7 87 -50 135t-111 48z" />
    <glyph glyph-name="Gcircumflex" unicode="&#x11c;" horiz-adv-x="741" 
d="M453 760l-74 126l-74 -126h-70l124 160h40l124 -160h-70zM698 366v-16q0 -167 -83 -263.5t-231 -96.5q-151 0 -246 98t-95 261t94.5 262t238.5 99q99 0 176 -48.5t111 -136.5h-75q-61 121 -205 121q-116 0 -192 -80.5t-76 -215.5q0 -136 76.5 -216t194.5 -80
q104 0 169.5 65.5t74.5 185.5h-207v61h275z" />
    <glyph glyph-name="gcircumflex" unicode="&#x11d;" horiz-adv-x="552" 
d="M360 590l-74 126l-74 -126h-70l124 160h40l124 -160h-70zM278 -200q-179 0 -210 155h68q19 -93 139 -95q75 0 115.5 39t40.5 137v37q-55 -83 -164 -83q-104 0 -164 73.5t-60 199.5q0 125 60 198.5t164 73.5q113 0 168 -90l11 80h50v-489q0 -236 -218 -236zM283 475
q-78 0 -125 -55.5t-47 -156.5t47 -157t125 -56q47 0 86 20t62 59v266q-46 80 -148 80z" />
    <glyph glyph-name="Gbreve" unicode="&#x11e;" horiz-adv-x="741" 
d="M479 884h43q0 -65 -40.5 -94.5t-104.5 -29.5t-104.5 29.5t-40.5 94.5h43q0 -35 28 -54.5t74 -19.5t74 19.5t28 54.5zM698 366v-16q0 -167 -83 -263.5t-231 -96.5q-151 0 -246 98t-95 261t94.5 262t238.5 99q99 0 176 -48.5t111 -136.5h-75q-61 121 -205 121
q-116 0 -192 -80.5t-76 -215.5q0 -136 76.5 -216t194.5 -80q104 0 169.5 65.5t74.5 185.5h-207v61h275z" />
    <glyph glyph-name="gbreve" unicode="&#x11f;" horiz-adv-x="552" 
d="M387 714h43q0 -65 -40.5 -94.5t-104.5 -29.5t-104.5 29.5t-40.5 94.5h43q0 -35 28 -54.5t74 -19.5t74 19.5t28 54.5zM278 -200q-179 0 -210 155h68q19 -93 139 -95q75 0 115.5 39t40.5 137v37q-55 -83 -164 -83q-104 0 -164 73.5t-60 199.5q0 125 60 198.5t164 73.5
q113 0 168 -90l11 80h50v-489q0 -236 -218 -236zM283 475q-78 0 -125 -55.5t-47 -156.5t47 -157t125 -56q47 0 86 20t62 59v266q-46 80 -148 80z" />
    <glyph glyph-name="Gdotaccent" unicode="&#x120;" horiz-adv-x="741" 
d="M419 809q0 -43 -42 -43t-42 43t42 43t42 -43zM698 366v-16q0 -167 -83 -263.5t-231 -96.5q-151 0 -246 98t-95 261t94.5 262t238.5 99q99 0 176 -48.5t111 -136.5h-75q-61 121 -205 121q-116 0 -192 -80.5t-76 -215.5q0 -136 76.5 -216t194.5 -80q104 0 169.5 65.5
t74.5 185.5h-207v61h275z" />
    <glyph glyph-name="gdotaccent" unicode="&#x121;" horiz-adv-x="552" 
d="M327 648q0 -43 -42 -43t-42 43t42 43t42 -43zM278 -200q-179 0 -210 155h68q19 -93 139 -95q75 0 115.5 39t40.5 137v37q-55 -83 -164 -83q-104 0 -164 73.5t-60 199.5q0 125 60 198.5t164 73.5q113 0 168 -90l11 80h50v-489q0 -236 -218 -236zM283 475q-78 0 -125 -55.5
t-47 -156.5t47 -157t125 -56q47 0 86 20t62 59v266q-46 80 -148 80z" />
    <glyph glyph-name="Gcommaaccent" unicode="&#x122;" horiz-adv-x="741" 
d="M698 366v-16q0 -167 -83 -263.5t-231 -96.5q-151 0 -246 98t-95 261t94.5 262t238.5 99q99 0 176 -48.5t111 -136.5h-75q-61 121 -205 121q-116 0 -192 -80.5t-76 -215.5q0 -136 76.5 -216t194.5 -80q104 0 169.5 65.5t74.5 185.5h-207v61h275zM429 -115
q0 -60 -29.5 -99.5t-66.5 -58.5l-7 39q44 31 49 82q-41 3 -41 47q0 45 49 45q25 0 35.5 -12.5t10.5 -42.5z" />
    <glyph glyph-name="gcommaaccent" unicode="&#x123;" horiz-adv-x="552" 
d="M241 663q0 106 97 157l7 -38q-47 -31 -50 -83q41 -3 41 -46q0 -46 -48 -46q-26 0 -36.5 12.5t-10.5 43.5zM278 -200q-179 0 -210 155h68q19 -93 139 -95q75 0 115.5 39t40.5 137v37q-55 -83 -164 -83q-104 0 -164 73.5t-60 199.5q0 125 60 198.5t164 73.5q113 0 168 -90
l11 80h50v-489q0 -236 -218 -236zM283 475q-78 0 -125 -55.5t-47 -156.5t47 -157t125 -56q47 0 86 20t62 59v266q-46 80 -148 80z" />
    <glyph glyph-name="Hcircumflex" unicode="&#x124;" horiz-adv-x="677" 
d="M406 760l-74 126l-74 -126h-70l124 160h40l124 -160h-70zM543 0v322h-410v-322h-68v700h68v-318h410v318h69v-700h-69z" />
    <glyph glyph-name="hcircumflex" unicode="&#x125;" 
d="M364 750l-74 126l-74 -126h-70l124 160h40l124 -160h-70zM302 535q197 0 197 -250v-285h-65v285q0 101 -36.5 145.5t-111.5 44.5q-117 0 -165 -85v-390h-65v720h65v-276q62 91 181 91z" />
    <glyph glyph-name="Hbar" unicode="&#x126;" horiz-adv-x="728" 
d="M569 0v322h-410v-322h-68v595h-82v47h82v58h68v-58h410v58h69v-58h81v-47h-81v-595h-69zM569 382v213h-410v-213h410z" />
    <glyph glyph-name="hbar" unicode="&#x127;" horiz-adv-x="577" 
d="M323 535q197 0 197 -250v-285h-65v285q0 101 -36.5 145.5t-111.5 44.5q-117 0 -165 -85v-390h-65v595h-68v47h68v78h65v-78h157v-47h-157v-151q62 91 181 91z" />
    <glyph glyph-name="Itilde" unicode="&#x128;" horiz-adv-x="222" 
d="M197 813q48 0 48 61h51q0 -55 -29 -84.5t-73 -29.5q-36 0 -90 30t-80 30q-47 0 -47 -60h-51q0 54 29 84t71 30q35 0 89 -30.5t82 -30.5zM77 0v700h68v-700h-68z" />
    <glyph glyph-name="itilde" unicode="&#x129;" horiz-adv-x="326" 
d="M249 643q48 0 48 61h51q0 -55 -29 -84.5t-73 -29.5q-36 0 -89.5 30t-80.5 30q-47 0 -47 -60h-51q0 54 29 84t71 30q35 0 89 -30.5t82 -30.5zM130 0v525h65v-525h-65z" />
    <glyph glyph-name="Imacron" unicode="&#x12a;" horiz-adv-x="226" 
d="M259 807v-47h-290v47h290zM80 0v700h68v-700h-68z" />
    <glyph glyph-name="imacron" unicode="&#x12b;" horiz-adv-x="302" 
d="M295 650v-47h-290v47h290zM118 0v525h65v-525h-65z" />
    <glyph glyph-name="Ibreve" unicode="&#x12c;" horiz-adv-x="226" 
d="M216 884h43q0 -65 -40.5 -94.5t-104.5 -29.5t-104.5 29.5t-40.5 94.5h43q0 -35 28 -54.5t74 -19.5t74 19.5t28 54.5zM80 0v700h68v-700h-68z" />
    <glyph glyph-name="ibreve" unicode="&#x12d;" horiz-adv-x="302" 
d="M252 714h43q0 -65 -40.5 -94.5t-104.5 -29.5t-104.5 29.5t-40.5 94.5h43q0 -35 28 -54.5t74 -19.5t74 19.5t28 54.5zM118 0v525h65v-525h-65z" />
    <glyph glyph-name="Iogonek" unicode="&#x12e;" horiz-adv-x="226" 
d="M117 -164l16 -30q-28 -21 -66 -21t-66.5 18.5t-28.5 64.5q0 72 112 132v700h68v-700h-26q-100 -63 -100 -122q0 -53 50 -53q24 0 41 11z" />
    <glyph glyph-name="iogonek" unicode="&#x12f;" horiz-adv-x="206" 
d="M145 648q0 -43 -42 -43q-41 0 -41 43t41 43q42 0 42 -43zM126 -164l16 -30q-28 -21 -66 -21t-66.5 18.5t-28.5 64.5q0 72 112 132h-23v525h65v-525q-100 -63 -100 -122q0 -53 50 -53q24 0 41 11z" />
    <glyph glyph-name="Idotaccent" unicode="&#x130;" horiz-adv-x="216" 
d="M149 802q0 -43 -42 -43t-42 43t42 43t42 -43zM74 0v700h68v-700h-68z" />
    <glyph glyph-name="dotlessi" unicode="&#x131;" horiz-adv-x="190" 
d="M62 0v525h65v-525h-65z" />
    <glyph glyph-name="IJ" unicode="&#x132;" horiz-adv-x="598" 
d="M74 0v700h68v-700h-68zM243 135h68q0 -41 20 -62.5t55 -21.5q36 0 57.5 22t21.5 62v565h68v-565q0 -70 -38.5 -107.5t-108.5 -37.5t-106.5 37t-36.5 108z" />
    <glyph glyph-name="ij" unicode="&#x133;" horiz-adv-x="408" 
d="M141 648q0 -43 -42 -43q-41 0 -41 43t41 43q42 0 42 -43zM350 648q0 -43 -41 -43q-42 0 -42 43t42 43q41 0 41 -43zM66 0v525h65v-525h-65zM341 525v-582q0 -143 -143 -143v60q38 0 58 21t20 72v572h65z" />
    <glyph glyph-name="Jcircumflex" unicode="&#x134;" horiz-adv-x="396" 
d="M343 760l-74 126l-74 -126h-70l124 160h40l124 -160h-70zM13 135h68q0 -41 20 -62.5t55 -21.5q36 0 57.5 22t21.5 62v565h68v-565q0 -70 -38.5 -107.5t-108.5 -37.5t-106.5 37t-36.5 108z" />
    <glyph glyph-name="jcircumflex" unicode="&#x135;" horiz-adv-x="288" 
d="M218 590l-74 126l-74 -126h-70l124 160h40l124 -160h-70zM177 525v-582q0 -143 -144 -143v60q38 0 58.5 21t20.5 72v572h65z" />
    <glyph glyph-name="Kcommaaccent" unicode="&#x136;" horiz-adv-x="607" 
d="M473 700h86l-284 -312l332 -388h-85l-293 336l-96 -105v-231h-68v700h68v-375zM341 -106v-4q0 -109 -96 -163l-7 39q44 31 49 82q-41 3 -41 46q0 46 48 46q47 0 47 -46z" />
    <glyph glyph-name="kcommaaccent" unicode="&#x137;" horiz-adv-x="503" 
d="M390 525h83l-205 -211l242 -314h-81l-207 266l-101 -104v-162h-65v720h65v-470zM316 -106v-4q0 -109 -96 -163l-7 39q44 31 49 82q-41 3 -41 46q0 46 48 46q47 0 47 -46z" />
    <glyph glyph-name="kgreenlandic" unicode="&#x138;" horiz-adv-x="503" 
d="M510 0h-81l-207 267l-101 -105v-162h-65v525h65v-276l153 156q76 77 111 98.5t81 21.5v-57q-28 0 -50 -12.5t-60 -50.5l-88 -91z" />
    <glyph glyph-name="Lacute" unicode="&#x139;" horiz-adv-x="504" 
d="M65 760l78 160h70l-108 -160h-40zM133 700v-639h362v-61h-430v700h68z" />
    <glyph glyph-name="lacute" unicode="&#x13a;" horiz-adv-x="289" 
d="M56 760l78 160h70l-108 -160h-40zM276 67v-62q-41 -15 -90 -15q-130 0 -130 143v587h65v-577q0 -50 16 -71.5t51 -21.5q45 0 88 17z" />
    <glyph glyph-name="Lcommaaccent" unicode="&#x13b;" horiz-adv-x="504" 
d="M133 700v-639h362v-61h-430v700h68zM339 -115q0 -60 -29.5 -99.5t-66.5 -58.5l-7 39q44 31 49 82q-41 3 -41 47q0 45 49 45q25 0 35.5 -12.5t10.5 -42.5z" />
    <glyph glyph-name="lcommaaccent" unicode="&#x13c;" horiz-adv-x="289" 
d="M276 67v-62q-41 -15 -90 -15q-130 0 -130 143v587h65v-577q0 -50 16 -71.5t51 -21.5q45 0 88 17zM226 -106v-4q0 -109 -96 -163l-7 39q44 31 49 82q-41 3 -41 46q0 46 48 46q47 0 47 -46z" />
    <glyph glyph-name="Lcaron" unicode="&#x13d;" horiz-adv-x="504" 
d="M349 740q0 -106 -97 -157l-7 38q45 30 50 83q-41 3 -41 46q0 46 48 46q26 0 36.5 -12.5t10.5 -43.5zM133 700v-639h362v-61h-430v700h68z" />
    <glyph glyph-name="lcaron" unicode="&#x13e;" horiz-adv-x="367" 
d="M338 740q0 -106 -97 -157l-7 38q45 30 50 83q-41 3 -41 46q0 46 48 46q26 0 36.5 -12.5t10.5 -43.5zM276 67v-62q-41 -15 -90 -15q-130 0 -130 143v587h65v-577q0 -50 16 -71.5t51 -21.5q45 0 88 17z" />
    <glyph glyph-name="Ldot" unicode="&#x13f;" horiz-adv-x="504" 
d="M133 700v-639h362v-61h-430v700h68zM335 367q0 -46 -47 -46q-48 0 -48 46t48 46q47 0 47 -46z" />
    <glyph glyph-name="ldot" unicode="&#x140;" horiz-adv-x="318" 
d="M276 67v-62q-41 -15 -90 -15q-130 0 -130 143v587h65v-577q0 -50 16 -71.5t51 -21.5q45 0 88 17zM296 367q0 -46 -47 -46q-48 0 -48 46t48 46q47 0 47 -46z" />
    <glyph glyph-name="Lslash" unicode="&#x141;" horiz-adv-x="520" 
d="M370 482v-65l-221 -118v-238h362v-61h-430v263l-71 -38v65l71 38v372h68v-336z" />
    <glyph glyph-name="lslash" unicode="&#x142;" horiz-adv-x="334" 
d="M321 67v-62q-41 -15 -90 -15q-130 0 -130 143v216l-88 -49v65l88 49v306h65v-269l132 74v-65l-132 -74v-243q0 -50 16 -71.5t51 -21.5q45 0 88 17z" />
    <glyph glyph-name="Nacute" unicode="&#x143;" horiz-adv-x="662" 
d="M297 760l78 160h70l-108 -160h-40zM515 0l-382 604v-604h-68v700h82l381 -612v612h69v-700h-82z" />
    <glyph glyph-name="nacute" unicode="&#x144;" 
d="M250 590l78 160h70l-108 -160h-40zM286 475q-117 0 -165 -85v-390h-65v525h50l11 -87q62 97 185 97q197 0 197 -250v-285h-65v285q0 101 -36.5 145.5t-111.5 44.5z" />
    <glyph glyph-name="Ncommaaccent" unicode="&#x145;" horiz-adv-x="662" 
d="M515 0l-382 604v-604h-68v700h82l381 -612v612h69v-700h-82zM388 -106v-4q0 -109 -96 -163l-7 39q44 31 49 82q-41 3 -41 46q0 46 48 46q47 0 47 -46z" />
    <glyph glyph-name="ncommaaccent" unicode="&#x146;" 
d="M286 475q-117 0 -165 -85v-390h-65v525h50l11 -87q62 97 185 97q197 0 197 -250v-285h-65v285q0 101 -36.5 145.5t-111.5 44.5zM341 -106v-4q0 -109 -96 -163l-7 39q44 31 49 82q-41 3 -41 46q0 46 48 46q47 0 47 -46z" />
    <glyph glyph-name="Ncaron" unicode="&#x147;" horiz-adv-x="662" 
d="M318 760l-124 160h70l74 -126l74 126h70l-124 -160h-40zM515 0l-382 604v-604h-68v700h82l381 -612v612h69v-700h-82z" />
    <glyph glyph-name="ncaron" unicode="&#x148;" 
d="M271 590l-124 160h70l74 -126l74 126h70l-124 -160h-40zM286 475q-117 0 -165 -85v-390h-65v525h50l11 -87q62 97 185 97q197 0 197 -250v-285h-65v285q0 101 -36.5 145.5t-111.5 44.5z" />
    <glyph glyph-name="napostrophe" unicode="&#x149;" horiz-adv-x="564" 
d="M117 751v-5q0 -111 -97 -162l-7 38q45 30 50 83q-41 3 -41 46q0 46 47 46q48 0 48 -46zM295 475q-117 0 -165 -85v-390h-65v525h50l11 -87q62 97 185 97q197 0 197 -250v-285h-65v285q0 101 -36.5 145.5t-111.5 44.5z" />
    <glyph glyph-name="Eng" unicode="&#x14a;" horiz-adv-x="662" 
d="M133 0h-68v700h68l395 -591v591h69v-757q0 -143 -142 -143v60q37 0 55 20.5t18 72.5v47l-395 593v-593z" />
    <glyph glyph-name="eng" unicode="&#x14b;" 
d="M434 -47v332q0 101 -36.5 145.5t-111.5 44.5q-117 0 -165 -85v-390h-65v525h50l11 -87q62 97 185 97q197 0 197 -250v-342q0 -143 -141 -143v60q37 0 56.5 21t19.5 72z" />
    <glyph glyph-name="Omacron" unicode="&#x14c;" horiz-adv-x="756" 
d="M523 807v-47h-290v47h290zM378 -10q-145 0 -240 98.5t-95 261.5t95 261.5t240 98.5t240 -98.5t95 -261.5t-95 -261.5t-240 -98.5zM378 646q-110 0 -186.5 -81t-76.5 -215t76.5 -215t186.5 -81t186.5 81t76.5 215t-76.5 215t-186.5 81z" />
    <glyph glyph-name="omacron" unicode="&#x14d;" horiz-adv-x="560" 
d="M425 650v-47h-290v47h290zM280 -10q-108 0 -176.5 74.5t-68.5 198.5t68 198t177 74t177 -74t68 -198t-68.5 -198.5t-176.5 -74.5zM280 475q-76 0 -126.5 -56.5t-50.5 -155.5t50.5 -156t126.5 -57t126.5 57t50.5 156t-50.5 155.5t-126.5 56.5z" />
    <glyph glyph-name="Obreve" unicode="&#x14e;" horiz-adv-x="756" 
d="M480 884h43q0 -65 -40.5 -94.5t-104.5 -29.5t-104.5 29.5t-40.5 94.5h43q0 -35 28 -54.5t74 -19.5t74 19.5t28 54.5zM378 -10q-145 0 -240 98.5t-95 261.5t95 261.5t240 98.5t240 -98.5t95 -261.5t-95 -261.5t-240 -98.5zM378 54q110 0 186.5 81t76.5 215t-76.5 215
t-186.5 81t-186.5 -81t-76.5 -215t76.5 -215t186.5 -81z" />
    <glyph glyph-name="obreve" unicode="&#x14f;" horiz-adv-x="560" 
d="M382 714h43q0 -65 -40.5 -94.5t-104.5 -29.5t-104.5 29.5t-40.5 94.5h43q0 -35 28 -54.5t74 -19.5t74 19.5t28 54.5zM280 -10q-108 0 -176.5 74.5t-68.5 198.5t68 198t177 74t177 -74t68 -198t-68.5 -198.5t-176.5 -74.5zM280 475q-76 0 -126.5 -56.5t-50.5 -155.5
t50.5 -156t126.5 -57t126.5 57t50.5 156t-50.5 155.5t-126.5 56.5z" />
    <glyph glyph-name="Ohungarumlaut" unicode="&#x150;" horiz-adv-x="756" 
d="M218 760l78 160h71l-109 -160h-40zM413 760l78 160h71l-109 -160h-40zM378 -10q-145 0 -240 98.5t-95 261.5t95 261.5t240 98.5t240 -98.5t95 -261.5t-95 -261.5t-240 -98.5zM378 54q110 0 186.5 81t76.5 215t-76.5 215t-186.5 81t-186.5 -81t-76.5 -215t76.5 -215
t186.5 -81z" />
    <glyph glyph-name="ohungarumlaut" unicode="&#x151;" horiz-adv-x="560" 
d="M145 590l78 160h71l-109 -160h-40zM340 590l78 160h71l-109 -160h-40zM280 -10q-108 0 -176.5 74.5t-68.5 198.5t68 198t177 74t177 -74t68 -198t-68.5 -198.5t-176.5 -74.5zM280 475q-76 0 -126.5 -56.5t-50.5 -155.5t50.5 -156t126.5 -57t126.5 57t50.5 156
t-50.5 155.5t-126.5 56.5z" />
    <glyph glyph-name="OE" unicode="&#x152;" horiz-adv-x="1020" 
d="M970 639h-438q166 -64 180 -257h218v-60h-218q-12 -189 -162 -261h420v-61h-592q-146 0 -240.5 94t-94.5 256t94.5 256t240.5 94h592v-61zM378 636q-111 0 -187 -76.5t-76 -209.5t76 -209.5t187 -76.5t187 76.5t76 209.5t-76 209.5t-187 76.5z" />
    <glyph glyph-name="oe" unicode="&#x153;" horiz-adv-x="975" 
d="M702 50q105 0 143 95h69q-25 -74 -79.5 -114.5t-132.5 -40.5q-70 0 -125 32.5t-86 91.5q-32 -59 -86.5 -91.5t-124.5 -32.5q-108 0 -176.5 74.5t-68.5 198.5t68 198t176 74q70 0 125 -32.5t87 -91.5q31 59 86 91.5t125 32.5q107 0 168.5 -73t61.5 -199v-28h-406
q7 -87 56 -136t120 -49zM279 475q-75 0 -125.5 -56.5t-50.5 -155.5t50.5 -156t126.5 -57t126.5 57t50.5 156v10q0 88 -50.5 145t-127.5 57zM702 475q-70 0 -119 -48.5t-57 -134.5h337q-7 87 -50 135t-111 48z" />
    <glyph glyph-name="Racute" unicode="&#x154;" horiz-adv-x="621" 
d="M235 760l78 160h70l-108 -160h-40zM133 260v-260h-68v700h272q245 0 245 -220q0 -194 -187 -217l173 -263h-77l-170 260h-188zM133 321h195q40 0 69 5.5t56.5 21.5t42 49t14.5 83t-14.5 83t-42 49t-56.5 21.5t-69 5.5h-195v-318z" />
    <glyph glyph-name="racute" unicode="&#x155;" horiz-adv-x="326" 
d="M123 590l78 160h70l-108 -160h-40zM106 525l13 -104q67 114 187 114v-67q-57 0 -107.5 -27.5t-77.5 -80.5v-360h-65v525h50z" />
    <glyph glyph-name="Rcommaaccent" unicode="&#x156;" horiz-adv-x="621" 
d="M133 260v-260h-68v700h272q245 0 245 -220q0 -194 -187 -217l173 -263h-77l-170 260h-188zM133 321h195q40 0 69 5.5t56.5 21.5t42 49t14.5 83t-14.5 83t-42 49t-56.5 21.5t-69 5.5h-195v-318zM357 -115q0 -60 -29.5 -99.5t-66.5 -58.5l-7 39q44 31 49 82q-41 3 -41 47
q0 45 49 45q25 0 35.5 -12.5t10.5 -42.5z" />
    <glyph glyph-name="rcommaaccent" unicode="&#x157;" horiz-adv-x="336" 
d="M116 525l13 -104q67 114 187 114v-67q-57 0 -107.5 -27.5t-77.5 -80.5v-360h-65v525h50zM146 -106v-4q0 -109 -96 -163l-7 39q44 31 49 82q-41 3 -41 46q0 46 48 46q47 0 47 -46z" />
    <glyph glyph-name="Rcaron" unicode="&#x158;" horiz-adv-x="621" 
d="M282 760l-124 160h70l74 -126l74 126h70l-124 -160h-40zM65 700h272q245 0 245 -220q0 -194 -187 -217l173 -263h-77l-170 260h-188v-260h-68v700zM133 321h195q40 0 69 5.5t56.5 21.5t42 49t14.5 83t-14.5 83t-42 49t-56.5 21.5t-69 5.5h-195v-318z" />
    <glyph glyph-name="rcaron" unicode="&#x159;" horiz-adv-x="338" 
d="M155 590l-124 160h70l74 -126l74 126h70l-124 -160h-40zM113 525l13 -104q67 114 187 114v-67q-57 0 -107.5 -27.5t-77.5 -80.5v-360h-65v525h50z" />
    <glyph glyph-name="Sacute" unicode="&#x15a;" horiz-adv-x="602" 
d="M259 760l78 160h70l-108 -160h-40zM486 186q0 30 -12 53t-28 37t-46.5 26t-53.5 18t-63 14q-42 9 -67 15.5t-59 21t-52.5 32t-32.5 47.5t-14 69q0 94 67 142.5t173 48.5q107 0 174.5 -48t67.5 -137h-68q0 60 -48 90.5t-127 30.5q-76 0 -123.5 -29.5t-47.5 -91.5
q0 -75 83 -107q29 -11 123 -31q35 -7 61.5 -14t58.5 -22.5t52.5 -35.5t35 -52.5t14.5 -73.5q0 -99 -72 -149t-180 -50t-181 48t-73 137h68q0 -59 52 -90t133 -31q80 0 132.5 31.5t52.5 100.5z" />
    <glyph glyph-name="sacute" unicode="&#x15b;" horiz-adv-x="516" 
d="M214 590l78 160h70l-108 -160h-40zM118 386q0 -51 59 -70q24 -7 98 -18q34 -6 54 -10t51 -15.5t48.5 -26t31 -40t13.5 -58.5q0 -78 -61 -118t-158 -40q-93 0 -152 38.5t-59 116.5h68q0 -50 41.5 -72.5t102.5 -22.5q65 0 109 24.5t44 71.5q0 16 -5 28.5t-17.5 22
t-21.5 15.5t-31 11.5t-32 7.5t-37 6.5t-34 5.5q-33 5 -51.5 9.5t-46 15t-42 24t-26 38t-11.5 56.5q0 75 53 112t147 37q95 0 150 -38t55 -117h-68q0 95 -135 95q-62 0 -99.5 -21.5t-37.5 -67.5z" />
    <glyph glyph-name="Scircumflex" unicode="&#x15c;" horiz-adv-x="602" 
d="M374 760l-74 126l-74 -126h-70l124 160h40l124 -160h-70zM486 186q0 30 -12 53t-28 37t-46.5 26t-53.5 18t-63 14q-42 9 -67 15.5t-59 21t-52.5 32t-32.5 47.5t-14 69q0 94 67 142.5t173 48.5q107 0 174.5 -48t67.5 -137h-68q0 60 -48 90.5t-127 30.5q-76 0 -123.5 -29.5
t-47.5 -91.5q0 -75 83 -107q29 -11 123 -31q35 -7 61.5 -14t58.5 -22.5t52.5 -35.5t35 -52.5t14.5 -73.5q0 -99 -72 -149t-180 -50t-181 48t-73 137h68q0 -59 52 -90t133 -31q80 0 132.5 31.5t52.5 100.5z" />
    <glyph glyph-name="scircumflex" unicode="&#x15d;" horiz-adv-x="516" 
d="M327 590l-74 126l-74 -126h-70l124 160h40l124 -160h-70zM408 146q0 55 -72 76q-24 8 -106 21q-32 5 -53 9.5t-47 15t-41 25t-25.5 38t-10.5 55.5q0 75 52.5 112t147.5 37t150 -38t55 -117h-68q0 95 -135 95q-62 0 -99.5 -21.5t-37.5 -67.5q0 -51 59 -70q24 -7 98 -18
q34 -6 54 -10t51 -15.5t48.5 -26t31 -40t13.5 -58.5q0 -78 -61 -118t-158 -40q-93 0 -152 38.5t-59 116.5h68q0 -50 41.5 -72.5t102.5 -22.5q65 0 109 24.5t44 71.5z" />
    <glyph glyph-name="Scedilla" unicode="&#x15e;" horiz-adv-x="602" 
d="M486 186q0 30 -12 53t-28 37t-46.5 26t-53.5 18t-63 14q-42 9 -67 15.5t-59 21t-52.5 32t-32.5 47.5t-14 69q0 94 67 142.5t173 48.5q107 0 174.5 -48t67.5 -137h-68q0 60 -48 90.5t-127 30.5q-76 0 -123.5 -29.5t-47.5 -91.5q0 -75 83 -107q29 -11 123 -31
q46 -9 80 -20.5t69 -33t54 -58.5t19 -87q0 -98 -68.5 -146t-176.5 -52l-11 -63q47 13 86 -2.5t39 -59.5q0 -42 -37 -67.5t-89 -25.5q-45 0 -78 19l6 37q32 -16 67 -16q33 0 54.5 13.5t21.5 39.5q0 18 -10.5 27t-30.5 8.5t-38 -4t-42 -10.5l18 106q-94 7 -155.5 54t-61.5 129
h68q0 -59 52 -90t133 -31q80 0 132.5 31.5t52.5 100.5z" />
    <glyph glyph-name="scedilla" unicode="&#x15f;" horiz-adv-x="516" 
d="M408 146q0 55 -72 76q-24 8 -106 21q-32 5 -53 9.5t-47 15t-41 25t-25.5 38t-10.5 55.5q0 75 52.5 112t147.5 37t150 -38t55 -117h-68q0 95 -135 95q-62 0 -99.5 -21.5t-37.5 -67.5q0 -51 59 -70q24 -7 98 -18q34 -6 54 -10t51 -15.5t48.5 -26t31 -40t13.5 -58.5
q0 -77 -59.5 -116.5t-148.5 -41.5l-11 -63q47 13 86 -2.5t39 -59.5q0 -42 -37 -67.5t-89 -25.5q-45 0 -78 19l6 37q32 -16 67 -16q33 0 54.5 13.5t21.5 39.5q0 18 -10.5 27t-30.5 8.5t-38 -4t-42 -10.5l18 106q-82 6 -130 44t-48 109h68q0 -50 41.5 -72.5t102.5 -22.5
q65 0 109 24.5t44 71.5z" />
    <glyph glyph-name="Scaron" unicode="&#x160;" horiz-adv-x="602" 
d="M278 760l-124 160h70l74 -126l74 126h70l-124 -160h-40zM486 186q0 30 -12 53t-28 37t-46.5 26t-53.5 18t-63 14q-42 9 -67 15.5t-59 21t-52.5 32t-32.5 47.5t-14 69q0 94 67 142.5t173 48.5q107 0 174.5 -48t67.5 -137h-68q0 60 -48 90.5t-127 30.5q-76 0 -123.5 -29.5
t-47.5 -91.5q0 -75 83 -107q29 -11 123 -31q35 -7 61.5 -14t58.5 -22.5t52.5 -35.5t35 -52.5t14.5 -73.5q0 -99 -72 -149t-180 -50t-181 48t-73 137h68q0 -59 52 -90t133 -31q80 0 132.5 31.5t52.5 100.5z" />
    <glyph glyph-name="scaron" unicode="&#x161;" horiz-adv-x="516" 
d="M233 590l-124 160h70l74 -126l74 126h70l-124 -160h-40zM408 146q0 55 -72 76q-24 8 -106 21q-32 5 -53 9.5t-47 15t-41 25t-25.5 38t-10.5 55.5q0 75 52.5 112t147.5 37t150 -38t55 -117h-68q0 95 -135 95q-62 0 -99.5 -21.5t-37.5 -67.5q0 -51 59 -70q24 -7 98 -18
q34 -6 54 -10t51 -15.5t48.5 -26t31 -40t13.5 -58.5q0 -78 -61 -118t-158 -40q-93 0 -152 38.5t-59 116.5h68q0 -50 41.5 -72.5t102.5 -22.5q65 0 109 24.5t44 71.5z" />
    <glyph glyph-name="Tcaron" unicode="&#x164;" horiz-adv-x="548" 
d="M254 760l-124 160h70l74 -126l74 126h70l-124 -160h-40zM308 639v-639h-68v639h-231v61h530v-61h-231z" />
    <glyph glyph-name="tcaron" unicode="&#x165;" horiz-adv-x="458" 
d="M434 750v-5q0 -111 -97 -162l-7 38q45 30 50 83q-41 3 -41 46q0 46 47 46q48 0 48 -46zM172 525h140v-57h-140v-325q0 -50 16 -71.5t51 -21.5q45 0 88 17v-62q-41 -15 -90 -15q-130 0 -130 143v335h-85v57h85v100l65 15v-115z" />
    <glyph glyph-name="Tbar" unicode="&#x166;" horiz-adv-x="548" 
d="M308 639v-104h110v-47h-110v-488h-68v488h-112v47h112v104h-231v61h530v-61h-231z" />
    <glyph glyph-name="tbar" unicode="&#x167;" horiz-adv-x="349" 
d="M172 525h140v-57h-140v-113h140v-47h-140v-165q0 -50 16 -71.5t51 -21.5q45 0 88 17v-62q-41 -15 -90 -15q-130 0 -130 143v175h-85v47h85v113h-85v57h85v100l65 15v-115z" />
    <glyph glyph-name="Utilde" unicode="&#x168;" horiz-adv-x="664" 
d="M418 813q48 0 48 61h51q0 -55 -29 -84.5t-73 -29.5q-35 0 -89 30t-81 30q-47 0 -47 -60h-51q0 54 29 84t71 30q35 0 89 -30.5t82 -30.5zM133 700v-420q0 -101 49.5 -163.5t149.5 -62.5t149.5 62.5t49.5 163.5v420h68v-420q0 -127 -67 -208.5t-200 -81.5t-200 81.5
t-67 208.5v420h68z" />
    <glyph glyph-name="utilde" unicode="&#x169;" 
d="M366 643q48 0 48 61h51q0 -55 -29 -84.5t-73 -29.5q-35 0 -89 30t-81 30q-47 0 -47 -60h-51q0 54 29 84t71 30q35 0 89 -30.5t82 -30.5zM269 50q116 0 165 83v392h65v-525h-50l-12 87q-62 -97 -183 -97q-198 0 -198 250v285h65v-285q0 -101 36.5 -145.5t111.5 -44.5z" />
    <glyph glyph-name="Umacron" unicode="&#x16a;" horiz-adv-x="664" 
d="M477 807v-47h-290v47h290zM133 700v-420q0 -101 49.5 -163.5t149.5 -62.5t149.5 62.5t49.5 163.5v420h68v-420q0 -127 -67 -208.5t-200 -81.5t-200 81.5t-67 208.5v420h68z" />
    <glyph glyph-name="umacron" unicode="&#x16b;" 
d="M426 650v-47h-290v47h290zM269 50q116 0 165 83v392h65v-525h-50l-12 87q-62 -97 -183 -97q-198 0 -198 250v285h65v-285q0 -101 36.5 -145.5t111.5 -44.5z" />
    <glyph glyph-name="Ubreve" unicode="&#x16c;" horiz-adv-x="664" 
d="M434 884h43q0 -65 -40.5 -94.5t-104.5 -29.5t-104.5 29.5t-40.5 94.5h43q0 -35 28 -54.5t74 -19.5t74 19.5t28 54.5zM133 700v-420q0 -101 49.5 -163.5t149.5 -62.5t149.5 62.5t49.5 163.5v420h68v-420q0 -127 -67 -208.5t-200 -81.5t-200 81.5t-67 208.5v420h68z" />
    <glyph glyph-name="ubreve" unicode="&#x16d;" 
d="M392 714h43q0 -65 -40.5 -94.5t-104.5 -29.5t-104.5 29.5t-40.5 94.5h43q0 -35 28 -54.5t74 -19.5t74 19.5t28 54.5zM269 50q116 0 165 83v392h65v-525h-50l-12 87q-62 -97 -183 -97q-198 0 -198 250v285h65v-285q0 -101 36.5 -145.5t111.5 -44.5z" />
    <glyph glyph-name="Uring" unicode="&#x16e;" horiz-adv-x="664" 
d="M212 856q0 49 35.5 84t85.5 35q49 0 84 -34.5t35 -84.5t-35 -85.5t-84 -35.5t-85 35.5t-36 85.5zM265 856q0 -28 20 -48t48 -20q27 0 46 20t19 48t-18.5 46.5t-46.5 18.5t-48 -19t-20 -46zM133 700v-420q0 -101 49.5 -163.5t149.5 -62.5t149.5 62.5t49.5 163.5v420h68
v-420q0 -127 -67 -208.5t-200 -81.5t-200 81.5t-67 208.5v420h68z" />
    <glyph glyph-name="uring" unicode="&#x16f;" 
d="M163 696q0 49 35.5 84t85.5 35t84.5 -34.5t34.5 -84.5t-35 -85.5t-84 -35.5q-50 0 -85.5 35.5t-35.5 85.5zM216 696q0 -28 20 -48t48 -20q27 0 46 20t19 48t-18.5 46.5t-46.5 18.5t-48 -19t-20 -46zM269 50q116 0 165 83v392h65v-525h-50l-12 87q-62 -97 -183 -97
q-198 0 -198 250v285h65v-285q0 -101 36.5 -145.5t111.5 -44.5z" />
    <glyph glyph-name="Uhungarumlaut" unicode="&#x170;" horiz-adv-x="664" 
d="M193 760l78 160h71l-109 -160h-40zM388 760l78 160h71l-109 -160h-40zM133 700v-420q0 -101 49.5 -163.5t149.5 -62.5t149.5 62.5t49.5 163.5v420h68v-420q0 -127 -67 -208.5t-200 -81.5t-200 81.5t-67 208.5v420h68z" />
    <glyph glyph-name="uhungarumlaut" unicode="&#x171;" 
d="M143 590l78 160h71l-109 -160h-40zM338 590l78 160h71l-109 -160h-40zM269 50q116 0 165 83v392h65v-525h-50l-12 87q-62 -97 -183 -97q-198 0 -198 250v285h65v-285q0 -101 36.5 -145.5t111.5 -44.5z" />
    <glyph glyph-name="Uogonek" unicode="&#x172;" horiz-adv-x="664" 
d="M133 700v-420q0 -101 49.5 -163.5t149.5 -62.5t149.5 62.5t49.5 163.5v420h68v-420q0 -106 -47 -182t-141 -99q-98 -62 -98 -121q0 -53 50 -53q24 0 41 11l16 -30q-28 -21 -66 -21t-66.5 18.5t-28.5 64.5q0 66 95 123q-7 -1 -22 -1q-133 0 -200 81.5t-67 208.5v420h68z
" />
    <glyph glyph-name="uogonek" unicode="&#x173;" horiz-adv-x="564" 
d="M254 -10q-198 0 -198 250v285h65v-285q0 -101 36.5 -145.5t111.5 -44.5q116 0 165 83v392h65v-525q-65 -37 -86.5 -65t-21.5 -56q0 -54 50 -54q24 0 41 11l16 -30q-28 -21 -66 -21t-66.5 18.5t-28.5 64.5q0 72 112 132l-12 87q-62 -97 -183 -97z" />
    <glyph glyph-name="Wcircumflex" unicode="&#x174;" horiz-adv-x="937" 
d="M541 760l-74 126l-74 -126h-70l124 160h40l124 -160h-70zM286 0h-69l-208 700h76l168 -599l182 588h67l181 -588l169 599h76l-208 -700h-69l-183 582z" />
    <glyph glyph-name="wcircumflex" unicode="&#x175;" horiz-adv-x="813" 
d="M481 590l-74 126l-74 -126h-70l124 160h40l124 -160h-70zM255 0h-70l-172 525h72l137 -439l154 429h61l154 -429l137 439h72l-172 -525h-70l-152 428z" />
    <glyph glyph-name="Ycircumflex" unicode="&#x176;" horiz-adv-x="583" 
d="M364 760l-74 126l-74 -126h-70l124 160h40l124 -160h-70zM257 0v245l-248 455h76l206 -385l1 1l206 384h76l-248 -455v-245h-69z" />
    <glyph glyph-name="ycircumflex" unicode="&#x177;" horiz-adv-x="499" 
d="M324 590l-74 126l-74 -126h-70l124 160h40l124 -160h-70zM486 525l-232 -601q-24 -61 -64.5 -92.5t-115.5 -31.5v62q48 1 76 18.5t45 61.5l21 54l-203 529h72l164 -442l164 442h73z" />
    <glyph glyph-name="Ydieresis" unicode="&#x178;" horiz-adv-x="583" 
d="M232 803q0 -43 -42 -43t-42 43t42 43t42 -43zM432 803q0 -43 -42 -43t-42 43t42 43t42 -43zM257 0v245l-248 455h76l206 -385l1 1l206 384h76l-248 -455v-245h-69z" />
    <glyph glyph-name="Zacute" unicode="&#x179;" horiz-adv-x="534" 
d="M227 760l78 160h70l-108 -160h-40zM422 639h-382v61h459v-61l-397 -578h407v-61h-484v61z" />
    <glyph glyph-name="zacute" unicode="&#x17a;" horiz-adv-x="480" 
d="M213 590l78 160h70l-108 -160h-40zM440 525v-57l-327 -411h332v-57h-410v57l327 411h-317v57h395z" />
    <glyph glyph-name="Zdotaccent" unicode="&#x17b;" horiz-adv-x="534" 
d="M309 803q0 -43 -42 -43t-42 43t42 43t42 -43zM422 639h-382v61h459v-61l-397 -578h407v-61h-484v61z" />
    <glyph glyph-name="zdotaccent" unicode="&#x17c;" horiz-adv-x="480" 
d="M284 648q0 -43 -42 -43t-42 43t42 43t42 -43zM440 525v-57l-327 -411h332v-57h-410v57l327 411h-317v57h395z" />
    <glyph glyph-name="Zcaron" unicode="&#x17d;" horiz-adv-x="534" 
d="M257 760l-124 160h70l74 -126l74 126h70l-124 -160h-40zM422 639h-382v61h459v-61l-397 -578h407v-61h-484v61z" />
    <glyph glyph-name="zcaron" unicode="&#x17e;" horiz-adv-x="480" 
d="M223 590l-124 160h70l74 -126l74 126h70l-124 -160h-40zM440 525v-57l-327 -411h332v-57h-410v57l327 411h-317v57h395z" />
    <glyph glyph-name="longs" unicode="&#x17f;" horiz-adv-x="340" 
d="M107 525v52q0 143 130 143q49 0 90 -15v-62q-43 17 -88 17q-35 0 -51 -21.5t-16 -71.5v-567h-65v468h-85v57h85z" />
    <glyph glyph-name="florin" unicode="&#x192;" horiz-adv-x="442" 
d="M380 468h-140l-65 -468l-9 -60q-11 -73 -48 -108t-105 -35l8 60q36 0 55 21t26 72l8 50l65 468h-85l8 57h85l8 52q11 71 47 107t103 36q49 0 88 -15l-9 -62q-42 17 -87 17q-34 0 -53 -21.5t-26 -71.5l-6 -42h140z" />
    <glyph glyph-name="Aringacute" unicode="&#x1fa;" horiz-adv-x="628" 
d="M291 995l78 160h70l-108 -160h-40zM194 856q0 49 35.5 84t85.5 35q49 0 84 -34.5t35 -84.5t-35 -85.5t-84 -35.5t-85 35.5t-36 85.5zM247 856q0 -28 20 -48t48 -20q27 0 46 20t19 48t-18.5 46.5t-46.5 18.5t-48 -19t-20 -46zM154 190l-72 -190h-75l273 700h68l273 -700
h-75l-73 190h-319zM450 251l-136 359l-137 -359h273z" />
    <glyph glyph-name="aringacute" unicode="&#x1fb;" horiz-adv-x="532" 
d="M248 849l78 160h70l-108 -160h-40zM155 696q0 49 35.5 84t85.5 35t84.5 -34.5t34.5 -84.5t-35 -85.5t-84 -35.5q-50 0 -85.5 35.5t-35.5 85.5zM208 696q0 -28 20 -48t48 -20q27 0 46 20t19 48t-18.5 46.5t-46.5 18.5t-48 -19t-20 -46zM43 144q0 84 61 122.5t157 38.5
q88 0 150 -38v81q0 73 -34 100t-99 27q-142 0 -142 -95h-68q0 79 56.5 117t151.5 38q99 0 149.5 -44.5t50.5 -150.5v-340h-50l-10 73q-58 -83 -178 -83q-87 0 -141 37.5t-54 116.5zM271 252q-160 0 -160 -106q0 -96 136 -96q119 0 164 74v95q-54 33 -140 33z" />
    <glyph glyph-name="AEacute" unicode="&#x1fc;" horiz-adv-x="917" 
d="M475 760l78 160h70l-108 -160h-40zM151 190l-73 -190h-71l273 700h617v-61h-387v-257h347v-60h-347v-261h387v-61h-455v190h-291zM442 251v388h-119l-149 -388h268z" />
    <glyph glyph-name="aeacute" unicode="&#x1fd;" horiz-adv-x="926" 
d="M431 590l78 160h70l-108 -160h-40zM43 144q0 84 61 122.5t157 38.5q88 0 150 -38q0 41 9 79q7 65 -37 97t-113 32q-56 0 -95 -22.5t-39 -72.5h-68q0 79 56 117t151 38q149 0 185 -96q68 96 193 96q107 0 168.5 -73t61.5 -199v-28h-405v-5q9 -85 57.5 -132.5t117.5 -47.5
q105 0 144 95h68q-25 -74 -79.5 -114.5t-132.5 -40.5q-139 0 -205 115q-59 -115 -209 -115q-88 0 -142 37.5t-54 116.5zM653 475q-70 0 -119 -48.5t-57 -134.5h337q-7 87 -50 135t-111 48zM270 252q-159 0 -159 -105q0 -37 21.5 -60t49 -30t61.5 -7q129 0 184 105
q-10 31 -14 62q-55 35 -143 35z" />
    <glyph glyph-name="Oslashacute" unicode="&#x1fe;" horiz-adv-x="756" 
d="M338 760l78 160h70l-108 -160h-40zM378 710q103 0 183 -52l44 62l40 -24l-47 -66q115 -102 115 -280q0 -163 -95.5 -261.5t-240.5 -98.5q-106 0 -187 55l-47 -67l-39 24l50 71q-111 101 -111 277q0 163 95 261.5t240 98.5zM377 646q-109 0 -185.5 -81t-76.5 -215
q0 -135 79 -219l328 470q-65 45 -145 45zM377 54q111 0 187.5 80.5t76.5 214.5q0 138 -83 223l-329 -471q65 -47 148 -47z" />
    <glyph glyph-name="oslashacute" unicode="&#x1ff;" horiz-adv-x="560" 
d="M240 590l78 160h70l-108 -160h-40zM280 535q89 0 152 -51l37 51l40 -24l-44 -60q60 -74 60 -188q0 -124 -68.5 -198.5t-176.5 -74.5q-71 0 -124 32l-42 -58l-39 25l43 60q-83 77 -83 214q0 124 68 198t177 74zM280 475q-76 0 -126.5 -56.5t-50.5 -156.5q0 -102 54 -159
l237 328q-47 44 -114 44zM280 50q76 0 126.5 57t50.5 156q0 78 -33 131l-231 -321q40 -23 87 -23z" />
    <glyph glyph-name="Scommaaccent" unicode="&#x218;" horiz-adv-x="602" 
d="M486 186q0 30 -12 53t-28 37t-46.5 26t-53.5 18t-63 14q-42 9 -67 15.5t-59 21t-52.5 32t-32.5 47.5t-14 69q0 94 67 142.5t173 48.5q107 0 174.5 -48t67.5 -137h-68q0 60 -48 90.5t-127 30.5q-76 0 -123.5 -29.5t-47.5 -91.5q0 -75 83 -107q29 -11 123 -31
q35 -7 61.5 -14t58.5 -22.5t52.5 -35.5t35 -52.5t14.5 -73.5q0 -99 -72 -149t-180 -50t-181 48t-73 137h68q0 -59 52 -90t133 -31q80 0 132.5 31.5t52.5 100.5zM350 -106v-4q0 -109 -96 -163l-7 39q44 31 49 82q-41 3 -41 46q0 46 48 46q47 0 47 -46z" />
    <glyph glyph-name="scommaaccent" unicode="&#x219;" horiz-adv-x="516" 
d="M118 386q0 -51 59 -70q24 -7 98 -18q34 -6 54 -10t51 -15.5t48.5 -26t31 -40t13.5 -58.5q0 -78 -61 -118t-158 -40q-93 0 -152 38.5t-59 116.5h68q0 -50 41.5 -72.5t102.5 -22.5q65 0 109 24.5t44 71.5q0 16 -5 28.5t-17.5 22t-21.5 15.5t-31 11.5t-32 7.5t-37 6.5
t-34 5.5q-33 5 -51.5 9.5t-46 15t-42 24t-26 38t-11.5 56.5q0 75 53 112t147 37q95 0 150 -38t55 -117h-68q0 95 -135 95q-62 0 -99.5 -21.5t-37.5 -67.5zM310 -106v-4q0 -109 -96 -163l-7 39q44 31 49 82q-41 3 -41 46q0 46 48 46q47 0 47 -46z" />
    <glyph glyph-name="uni021A" unicode="&#x21a;" horiz-adv-x="548" 
d="M308 639v-639h-68v639h-231v61h530v-61h-231zM321 -106v-4q0 -109 -96 -163l-7 39q44 31 49 82q-41 3 -41 46q0 46 48 46q47 0 47 -46z" />
    <glyph glyph-name="uni021B" unicode="&#x21b;" horiz-adv-x="349" 
d="M172 525h140v-57h-140v-325q0 -50 16 -71.5t51 -21.5q45 0 88 17v-62q-41 -15 -90 -15q-130 0 -130 143v335h-85v57h85v100l65 15v-115zM292 -106v-4q0 -109 -96 -163l-7 39q44 31 49 82q-41 3 -41 46q0 46 48 46q47 0 47 -46z" />
    <glyph glyph-name="circumflex" unicode="&#x2c6;" horiz-adv-x="316" 
d="M227 750l-74 126l-74 -126h-70l124 160h40l124 -160h-70z" />
    <glyph glyph-name="caron" unicode="&#x2c7;" horiz-adv-x="316" 
d="M133 750l-124 160h70l74 -126l74 126h70l-124 -160h-40z" />
    <glyph glyph-name="uni02C9" unicode="&#x2c9;" horiz-adv-x="308" 
d="M299 820v-47h-290v47h290z" />
    <glyph glyph-name="breve" unicode="&#x2d8;" horiz-adv-x="308" 
d="M256 874h43q0 -65 -40.5 -94.5t-104.5 -29.5t-104.5 29.5t-40.5 94.5h43q0 -35 28 -54.5t74 -19.5t74 19.5t28 54.5z" />
    <glyph glyph-name="dotaccent" unicode="&#x2d9;" horiz-adv-x="121" 
d="M102 802q0 -43 -42 -43t-42 43t42 43t42 -43z" />
    <glyph glyph-name="ring" unicode="&#x2da;" horiz-adv-x="258" 
d="M9 801q0 49 35.5 84t85.5 35t84.5 -35t34.5 -84q0 -50 -35 -85.5t-84 -35.5q-50 0 -85.5 36t-35.5 85zM62 801q0 -28 20 -48t48 -20q27 0 46 20t19 48t-18.5 46.5t-46.5 18.5t-48 -19t-20 -46z" />
    <glyph glyph-name="ogonek" unicode="&#x2db;" horiz-adv-x="215" 
d="M156 -164l16 -30q-28 -21 -66 -21t-66.5 18.5t-28.5 64.5q0 72 112 132h42q-100 -63 -100 -122q0 -53 50 -53q24 0 41 11z" />
    <glyph glyph-name="tilde" unicode="&#x2dc;" horiz-adv-x="388" 
d="M280 803q48 0 48 61h51q0 -55 -29 -84.5t-73 -29.5q-35 0 -89 30t-81 30q-47 0 -47 -60h-51q0 54 29 84t71 30q35 0 89 -30.5t82 -30.5z" />
    <glyph glyph-name="hungarumlaut" unicode="&#x2dd;" horiz-adv-x="388" 
d="M25 750l78 160h71l-109 -160h-40zM220 750l78 160h71l-109 -160h-40z" />
    <glyph glyph-name="gravecomb" unicode="&#x300;" horiz-adv-x="0" 
d="M86 910l78 -160h-40l-108 160h70z" />
    <glyph glyph-name="acutecomb" unicode="&#x301;" horiz-adv-x="0" 
d="M9 750l78 160h70l-108 -160h-40z" />
    <glyph glyph-name="uni0302" unicode="&#x302;" horiz-adv-x="0" 
d="M218 590l-74 126l-74 -126h-70l124 160h40l124 -160h-70z" />
    <glyph glyph-name="tildecomb" unicode="&#x303;" horiz-adv-x="0" 
d="M271 643q48 0 48 61h51q0 -55 -29 -84.5t-73 -29.5q-36 0 -90 30t-80 30q-47 0 -47 -60h-51q0 54 29 84t71 30q35 0 89 -30.5t82 -30.5z" />
    <glyph glyph-name="uni0304" unicode="&#x304;" horiz-adv-x="0" 
d="M290 650v-47h-290v47h290z" />
    <glyph glyph-name="uni0306" unicode="&#x306;" horiz-adv-x="0" 
d="M256 874h43q0 -65 -40.5 -94.5t-104.5 -29.5t-104.5 29.5t-40.5 94.5h43q0 -35 28 -54.5t74 -19.5t74 19.5t28 54.5z" />
    <glyph glyph-name="uni0307" unicode="&#x307;" horiz-adv-x="0" 
d="M84 648q0 -43 -42 -43t-42 43t42 43t42 -43z" />
    <glyph glyph-name="uni0308" unicode="&#x308;" horiz-adv-x="0" 
d="M84 648q0 -43 -42 -43t-42 43t42 43t42 -43zM284 648q0 -43 -42 -43t-42 43t42 43t42 -43z" />
    <glyph glyph-name="uni030A" unicode="&#x30a;" horiz-adv-x="0" 
d="M0 696q0 49 35.5 84t85.5 35q49 0 84 -34.5t35 -84.5t-35 -85.5t-84 -35.5t-85 35.5t-36 85.5zM53 696q0 -28 20 -48t48 -20q27 0 46 20t19 48t-18.5 46.5t-46.5 18.5t-48 -19t-20 -46z" />
    <glyph glyph-name="uni030B" unicode="&#x30b;" horiz-adv-x="0" 
d="M0 590l78 160h71l-109 -160h-40zM195 590l78 160h71l-109 -160h-40z" />
    <glyph glyph-name="uni030C" unicode="&#x30c;" horiz-adv-x="0" 
d="M124 590l-124 160h70l74 -126l74 126h70l-124 -160h-40z" />
    <glyph glyph-name="uni0312" unicode="&#x312;" horiz-adv-x="0" 
d="M22 645v4q0 110 97 163l7 -38q-47 -31 -50 -83q41 -3 41 -46q0 -46 -47 -46q-48 0 -48 46z" />
    <glyph glyph-name="uni0315" unicode="&#x315;" horiz-adv-x="0" 
d="M127 710q0 -106 -97 -157l-7 38q45 30 50 83q-41 3 -41 46q0 46 48 46q26 0 36.5 -12.5t10.5 -43.5z" />
    <glyph glyph-name="uni0326" unicode="&#x326;" horiz-adv-x="0" 
d="M163 -106v-4q0 -109 -96 -163l-7 39q44 31 49 82q-41 3 -41 46q0 46 48 46q47 0 47 -46z" />
    <glyph glyph-name="uni0327" unicode="&#x327;" horiz-adv-x="0" 
d="M93 5l-14 -78q47 13 86 -2.5t39 -59.5q0 -42 -37 -67.5t-89 -25.5q-45 0 -78 19l6 37q32 -16 67 -16q33 0 54.5 13.5t21.5 39.5q0 18 -10.5 27t-30.5 8.5t-38 -4t-42 -10.5l21 119h44z" />
    <glyph glyph-name="uni0328" unicode="&#x328;" horiz-adv-x="0" 
d="M145 -164l16 -30q-28 -21 -66 -21t-66.5 18.5t-28.5 64.5q0 72 112 132h42q-100 -63 -100 -122q0 -53 50 -53q24 0 41 11z" />
    <glyph glyph-name="uni0344" unicode="&#x344;" horiz-adv-x="0" 
d="M122 750l78 160h70l-108 -160h-40zM100 802q0 -43 -41 -43q-42 0 -42 43t42 43q41 0 41 -43zM331 802q0 -43 -42 -43q-41 0 -41 43t41 43q42 0 42 -43z" />
    <glyph glyph-name="uni0374" unicode="&#x374;" horiz-adv-x="163" 
d="M77 775l66 4q-18 -100 -73 -238l-41 4q33 95 48 230z" />
    <glyph glyph-name="uni0375" unicode="&#x375;" horiz-adv-x="163" 
d="M86 -80l-66 -4q18 100 73 238l41 -4q-33 -95 -48 -230z" />
    <glyph glyph-name="uni037E" unicode="&#x37e;" horiz-adv-x="149" 
d="M127 434q0 -46 -48 -46q-47 0 -47 46t47 46q48 0 48 -46zM127 36v-5q0 -108 -97 -162l-7 38q45 30 50 83q-41 3 -41 46q0 46 47 46q48 0 48 -46z" />
    <glyph glyph-name="tonos" unicode="&#x384;" horiz-adv-x="185" 
d="M14 750l41 160h80l-71 -160h-50z" />
    <glyph glyph-name="dieresistonos" unicode="&#x385;" horiz-adv-x="348" 
d="M122 750l78 160h70l-108 -160h-40zM100 802q0 -43 -41 -43q-42 0 -42 43t42 43q41 0 41 -43zM331 802q0 -43 -42 -43q-41 0 -41 43t41 43q42 0 42 -43z" />
    <glyph glyph-name="Alphatonos" unicode="&#x386;" horiz-adv-x="628" 
d="M63 560l78 160h70l-108 -160h-40zM154 190l-72 -190h-75l273 700h68l273 -700h-75l-73 190h-319zM450 251l-136 359l-137 -359h273z" />
    <glyph glyph-name="anoteleia" unicode="&#x387;" horiz-adv-x="122" 
d="M110 351q0 -46 -47 -46q-48 0 -48 46t48 46q47 0 47 -46z" />
    <glyph glyph-name="Epsilontonos" unicode="&#x388;" horiz-adv-x="712" 
d="M9 560l78 160h70l-108 -160h-40zM660 700v-61h-387v-257h347v-60h-347v-261h387v-61h-455v700h455z" />
    <glyph glyph-name="Etatonos" unicode="&#x389;" horiz-adv-x="817" 
d="M9 560l78 160h70l-108 -160h-40zM684 0v322h-410v-322h-68v700h68v-318h410v318h68v-700h-68z" />
    <glyph glyph-name="Iotatonos" unicode="&#x38a;" horiz-adv-x="343" 
d="M9 560l78 160h70l-108 -160h-40zM205 0v700h69v-700h-69z" />
    <glyph glyph-name="Omicrontonos" unicode="&#x38c;" horiz-adv-x="843" 
d="M5 560l78 160h70l-108 -160h-40zM465 -10q-145 0 -240 98.5t-95 261.5t95 261.5t240 98.5t240 -98.5t95 -261.5t-95 -261.5t-240 -98.5zM465 54q109 0 186 81t77 215t-77 215t-186 81q-110 0 -187 -81t-77 -215t77 -215t187 -81z" />
    <glyph glyph-name="Upsilontonos" unicode="&#x38e;" horiz-adv-x="775" 
d="M5 560l78 160h70l-108 -160h-40zM449 0v245l-248 455h73l209 -389v-1l210 390h73l-249 -455v-245h-68z" />
    <glyph glyph-name="Omegatonos" unicode="&#x38f;" horiz-adv-x="860" 
d="M5 560l78 160h70l-108 -160h-40zM745 385q0 122 -73.5 192t-194.5 70q-120 0 -193 -70t-73 -196q0 -195 200 -326v-55h-264v60h170q-87 62 -132.5 139t-45.5 183q0 158 94.5 243t244.5 85t244.5 -85t94.5 -240q0 -108 -44 -184.5t-134 -140.5h170v-60h-264v55
q98 64 149 143.5t51 186.5z" />
    <glyph glyph-name="iotadieresistonos" unicode="&#x390;" horiz-adv-x="337" 
d="M114 590l16 160h70l-43 -160h-43zM80 648q0 -43 -42 -43q-41 0 -41 43t41 43q42 0 42 -43zM300 648q0 -43 -42 -43q-41 0 -41 43t41 43q42 0 42 -43zM169 525v-382q0 -50 16 -71.5t51 -21.5q45 0 88 17v-62q-41 -15 -90 -15q-130 0 -130 143v392h65z" />
    <glyph glyph-name="Alpha" unicode="&#x391;" horiz-adv-x="628" 
d="M154 190l-72 -190h-75l273 700h68l273 -700h-75l-73 190h-319zM450 251l-136 359l-137 -359h273z" />
    <glyph glyph-name="Beta" unicode="&#x392;" horiz-adv-x="650" 
d="M65 700h263q55 0 96 -7.5t76.5 -26t54 -55.5t18.5 -92q0 -64 -28 -102t-92 -60q75 -16 112 -56.5t37 -111.5q0 -100 -67 -144.5t-178 -44.5h-292v700zM133 382h190q86 0 132 28.5t46 104.5q0 71 -43.5 97.5t-137.5 26.5h-187v-257zM133 61h216q90 0 135.5 30t45.5 100
q0 33 -11 58t-27 38.5t-40.5 21.5t-46.5 10.5t-49 2.5h-223v-261z" />
    <glyph glyph-name="Gamma" unicode="&#x393;" horiz-adv-x="535" 
d="M74 0v700h429v-61h-361v-639h-68z" />
    <glyph glyph-name="uni0394" unicode="&#x394;" horiz-adv-x="628" 
d="M7 0l273 700h68l273 -700h-614zM523 61l-209 549l-209 -549h418z" />
    <glyph glyph-name="Epsilon" unicode="&#x395;" horiz-adv-x="572" 
d="M133 639v-257h347v-60h-347v-261h387v-61h-455v700h455v-61h-387z" />
    <glyph glyph-name="Zeta" unicode="&#x396;" horiz-adv-x="520" 
d="M409 639h-369v61h445v-61l-383 -578h393v-61h-470v61z" />
    <glyph glyph-name="Eta" unicode="&#x397;" horiz-adv-x="688" 
d="M549 0v322h-410v-322h-68v700h68v-318h410v318h68v-700h-68z" />
    <glyph glyph-name="Theta" unicode="&#x398;" horiz-adv-x="756" 
d="M378 -10q-145 0 -240 98.5t-95 261.5t95 261.5t240 98.5t240 -98.5t95 -261.5t-95 -261.5t-240 -98.5zM378 646q-110 0 -186.5 -81t-76.5 -215t76.5 -215t186.5 -81t186.5 81t76.5 215t-76.5 215t-186.5 81zM516 382v-60h-276v60h276z" />
    <glyph glyph-name="Iota" unicode="&#x399;" horiz-adv-x="216" 
d="M74 0v700h68v-700h-68z" />
    <glyph glyph-name="Kappa" unicode="&#x39a;" horiz-adv-x="607" 
d="M473 700h86l-284 -312l332 -388h-85l-293 336l-96 -105v-231h-68v700h68v-375z" />
    <glyph glyph-name="Lambda" unicode="&#x39b;" horiz-adv-x="633" 
d="M81 0h-72l273 700h69l273 -700h-72l-236 613z" />
    <glyph glyph-name="Mu" unicode="&#x39c;" horiz-adv-x="817" 
d="M433 15h-50l-250 567v-582h-68v700h82l261 -593l262 593h82v-700h-69v580z" />
    <glyph glyph-name="Nu" unicode="&#x39d;" horiz-adv-x="662" 
d="M515 0l-382 604v-604h-68v700h82l381 -612v612h69v-700h-82z" />
    <glyph glyph-name="Xi" unicode="&#x39e;" horiz-adv-x="577" 
d="M516 700v-61h-455v61h455zM429 382v-60h-278v60h278zM516 61v-61h-455v61h455z" />
    <glyph glyph-name="Omicron" unicode="&#x39f;" horiz-adv-x="756" 
d="M378 -10q-145 0 -240 98.5t-95 261.5t95 261.5t240 98.5t240 -98.5t95 -261.5t-95 -261.5t-240 -98.5zM378 646q-110 0 -186.5 -81t-76.5 -215t76.5 -215t186.5 -81t186.5 81t76.5 215t-76.5 215t-186.5 81z" />
    <glyph glyph-name="Pi" unicode="&#x3a0;" horiz-adv-x="677" 
d="M543 0v639h-410v-639h-68v700h547v-700h-69z" />
    <glyph glyph-name="Rho" unicode="&#x3a1;" horiz-adv-x="621" 
d="M133 0h-68v700h272q245 0 245 -220t-245 -220h-204v-260zM133 321h195q40 0 69 5.5t56.5 21.5t42 49t14.5 83t-14.5 83t-42 49t-56.5 21.5t-69 5.5h-195v-318z" />
    <glyph glyph-name="Sigma" unicode="&#x3a3;" horiz-adv-x="574" 
d="M517 700v-61h-379l184 -290l-194 -288h394v-61h-470v61l194 288l-184 290v61h455z" />
    <glyph glyph-name="Tau" unicode="&#x3a4;" horiz-adv-x="548" 
d="M308 639v-639h-68v639h-231v61h530v-61h-231z" />
    <glyph glyph-name="Upsilon" unicode="&#x3a5;" horiz-adv-x="583" 
d="M257 0v245l-248 455h76l206 -385l1 1l206 384h76l-248 -455v-245h-69z" />
    <glyph glyph-name="Phi" unicode="&#x3a6;" horiz-adv-x="750" 
d="M409 710v-86q142 -5 220 -66.5t78 -207.5t-78 -207.5t-220 -67.5v-85h-68v85q-142 6 -220 67.5t-78 207.5q0 75 22 128.5t63.5 84t93 45t119.5 16.5v86h68zM114 350q0 -62 17 -104t50 -64t70.5 -31.5t89.5 -11.5v421q-52 -2 -89.5 -11t-70.5 -31t-50 -64t-17 -104z
M409 560v-421q52 2 89 11.5t70.5 31.5t50.5 64t17 104q0 50 -12 87t-31.5 59.5t-50 36.5t-61.5 20t-72 7z" />
    <glyph glyph-name="Chi" unicode="&#x3a7;" horiz-adv-x="621" 
d="M307 408l200 292h80l-236 -338l246 -362h-80l-208 312l-211 -312h-78l245 360l-235 340h80z" />
    <glyph glyph-name="Psi" unicode="&#x3a8;" horiz-adv-x="801" 
d="M367 700h68v-464h48q40 0 69.5 6t57.5 21.5t43 49t15 83.5v304h68v-304q0 -221 -245 -221h-56v-175h-68v175h-57q-245 0 -245 221v304h68v-304q0 -50 15 -83.5t43 -49t57.5 -21.5t69.5 -6h49v464z" />
    <glyph glyph-name="uni03A9" unicode="&#x3a9;" horiz-adv-x="764" 
d="M721 383q0 -107 -45.5 -184t-132.5 -139h170v-60h-264v55q200 131 200 326q0 126 -73 196t-194 70t-194 -70t-73 -196q0 -195 200 -326v-55h-264v60h170q-87 62 -132.5 139t-45.5 184q0 157 94 242t245 85t245 -85t94 -242z" />
    <glyph glyph-name="Iotadieresis" unicode="&#x3aa;" horiz-adv-x="234" 
d="M59 802q0 -43 -42 -43t-42 43t42 43t42 -43zM259 802q0 -43 -42 -43t-42 43t42 43t42 -43zM83 0v700h68v-700h-68z" />
    <glyph glyph-name="Upsilondieresis" unicode="&#x3ab;" horiz-adv-x="583" 
d="M232 803q0 -43 -42 -43t-42 43t42 43t42 -43zM432 803q0 -43 -42 -43t-42 43t42 43t42 -43zM257 0v245l-248 455h76l206 -385l1 1l206 384h76l-248 -455v-245h-69z" />
    <glyph glyph-name="alphatonos" unicode="&#x3ac;" horiz-adv-x="592" 
d="M227 590l78 160h70l-108 -160h-40zM265 -10q-103 0 -163.5 74t-60.5 199t60 198.5t163 73.5q114 0 171 -98l12 88h50v-382q0 -51 19.5 -72t57.5 -21v-60q-119 0 -138 99q-57 -99 -171 -99zM280 50q73 0 115 53t42 160t-42 159.5t-115 52.5q-78 0 -124.5 -55.5
t-46.5 -156.5t47 -157t124 -56z" />
    <glyph glyph-name="epsilontonos" unicode="&#x3ad;" horiz-adv-x="522" 
d="M241 590l78 160h70l-108 -160h-40zM469 380h-65q-15 95 -144 95q-132 0 -132 -92q0 -44 29 -67.5t81 -23.5h49v-57h-49q-127 0 -127 -87q0 -98 152 -98q62 0 101.5 20.5t49.5 74.5h65q-23 -155 -213 -155q-42 0 -78.5 7.5t-70.5 23.5t-54 47.5t-20 75.5q0 48 24 82t71 44
q-78 35 -78 118q0 41 18 71t48.5 46t64.5 23t73 7q187 0 205 -155z" />
    <glyph glyph-name="etatonos" unicode="&#x3ae;" 
d="M250 590l78 160h70l-108 -160h-40zM286 475q-117 0 -165 -85v-390h-65v525h50l11 -87q62 97 185 97q197 0 197 -250v-480h-65v480q0 101 -36.5 145.5t-111.5 44.5z" />
    <glyph glyph-name="iotatonos" unicode="&#x3af;" horiz-adv-x="291" 
d="M58 590l78 160h70l-108 -160h-40zM123 525v-382q0 -50 16 -71.5t51 -21.5q45 0 88 17v-62q-41 -15 -90 -15q-130 0 -130 143v392h65z" />
    <glyph glyph-name="upsilondieresistonos" unicode="&#x3b0;" horiz-adv-x="575" 
d="M236 590l16 160h69l-42 -160h-43zM202 648q0 -43 -42 -43t-42 43t42 43t42 -43zM422 648q0 -43 -42 -43t-42 43t42 43t42 -43zM301 50q83 0 120.5 53t37.5 163q0 117 -49 259h68q49 -118 49 -263q0 -272 -225 -272q-212 0 -212 235v150q0 53 -16 73t-52 20v57
q133 0 133 -143v-157q0 -94 38 -134.5t108 -40.5z" />
    <glyph glyph-name="alpha" unicode="&#x3b1;" horiz-adv-x="592" 
d="M265 -10q-103 0 -163.5 74t-60.5 199t60 198.5t163 73.5q114 0 171 -98l12 88h50v-382q0 -51 19.5 -72t57.5 -21v-60q-119 0 -138 99q-57 -99 -171 -99zM280 50q73 0 115 53t42 160t-42 159.5t-115 52.5q-78 0 -124.5 -55.5t-46.5 -156.5t47 -157t124 -56z" />
    <glyph glyph-name="beta" unicode="&#x3b2;" horiz-adv-x="564" 
d="M296 -10q-63 0 -103.5 22t-69.5 67l-9 -274h-55v666q0 128 51 188.5t153 60.5q96 0 153.5 -49t57.5 -137q0 -117 -121 -165q165 -30 165 -181q0 -100 -63.5 -149t-158.5 -49zM284 50q74 0 119.5 33t45.5 107q0 49 -21 80.5t-58.5 44.5t-72.5 16.5t-81 1.5v57
q79 -3 134 32t55 112q0 62 -38 94t-101 32q-70 0 -106 -44t-36 -145v-336q44 -85 160 -85z" />
    <glyph glyph-name="gamma" unicode="&#x3b3;" horiz-adv-x="529" 
d="M315 -195h-68q0 85 -5.5 167t-21 175t-41 161.5t-69.5 114t-101 45.5v57q111 0 185.5 -108.5t103.5 -325.5q56 98 99.5 214t54.5 220h68q-14 -128 -70.5 -266t-142.5 -251q8 -99 8 -203z" />
    <glyph glyph-name="delta" unicode="&#x3b4;" horiz-adv-x="576" 
d="M288 -10q-108 0 -176.5 74.5t-68.5 192.5q0 89 39.5 130.5t117.5 67.5q-68 39 -67 120q0 65 51 100t143 35q73 0 141 -18v-65q-66 23 -139 23q-59 0 -93.5 -16.5t-34.5 -62.5q0 -31 18.5 -51t47.5 -30.5t64.5 -19.5t71 -23t64.5 -35t47.5 -61t18.5 -97q0 -116 -69 -190
t-176 -74zM288 50q76 0 126.5 57t50.5 156q0 37 -13.5 63.5t-40.5 43t-51 26t-62 20.5q-7 2 -11 3q-90 -28 -119 -47q-56 -38 -57 -109q0 -99 50.5 -156t126.5 -57z" />
    <glyph glyph-name="epsilon" unicode="&#x3b5;" horiz-adv-x="514" 
d="M461 380h-65q-15 95 -144 95q-132 0 -132 -92q0 -44 29 -67.5t81 -23.5h49v-57h-49q-127 0 -127 -87q0 -98 152 -98q62 0 101.5 20.5t49.5 74.5h65q-23 -155 -213 -155q-42 0 -78.5 7.5t-70.5 23.5t-54 47.5t-20 75.5q0 48 24 82t71 44q-78 35 -78 118q0 41 18 71
t48.5 46t64.5 23t73 7q187 0 205 -155z" />
    <glyph glyph-name="zeta" unicode="&#x3b6;" horiz-adv-x="521" 
d="M431 700v-57q-140 -90 -229 -212.5t-89 -220.5q0 -44 20 -73.5t52 -44.5t70.5 -24l77.5 -17.5t71 -20.5t52 -36.5t20 -61.5q0 -31 -12.5 -57.5t-42.5 -69.5h-55q48 84 48 118q0 28 -20.5 45.5t-53 26.5t-72 15.5t-78.5 18t-71.5 29.5t-53 54t-20.5 88q0 115 88.5 241.5
t212.5 201.5h-261v57h346z" />
    <glyph glyph-name="eta" unicode="&#x3b7;" 
d="M286 475q-117 0 -165 -85v-390h-65v525h50l11 -87q62 97 185 97q197 0 197 -250v-480h-65v480q0 101 -36.5 145.5t-111.5 44.5z" />
    <glyph glyph-name="theta" unicode="&#x3b8;" horiz-adv-x="586" 
d="M293 -10q-134 0 -189.5 92t-55.5 263q0 83 12 146.5t39.5 114.5t76 77.5t117.5 26.5t117.5 -26.5t76 -77.5t39.5 -114.5t12 -146.5q0 -171 -55.5 -263t-189.5 -92zM293 649q-89 0 -130 -67t-46 -200h352q-5 133 -46.5 200t-129.5 67zM293 51q92 0 133 66.5t43 204.5h-353
q3 -138 44.5 -204.5t132.5 -66.5z" />
    <glyph glyph-name="iota" unicode="&#x3b9;" horiz-adv-x="291" 
d="M123 525v-382q0 -50 16 -71.5t51 -21.5q45 0 88 17v-62q-41 -15 -90 -15q-130 0 -130 143v392h65z" />
    <glyph glyph-name="kappa" unicode="&#x3ba;" horiz-adv-x="503" 
d="M510 0h-81l-207 267l-101 -105v-162h-65v525h65v-276l153 156q76 77 111 98.5t81 21.5v-57q-28 0 -50 -12.5t-60 -50.5l-88 -91z" />
    <glyph glyph-name="lambda" unicode="&#x3bb;" horiz-adv-x="533" 
d="M258 597l184 -468q19 -44 34 -60.5t48 -16.5v-62q-62 0 -89.5 26.5t-54.5 94.5l-129 329l-170 -440h-69l206 525l-22 54q-18 44 -46 61.5t-82 17.5v62q77 0 121 -30t69 -93z" />
    <glyph glyph-name="uni03BC" unicode="&#x3bc;" horiz-adv-x="562" 
d="M272 50q118 0 166 85v390h65v-525h-50l-12 87q-60 -97 -178 -97q-105 0 -139 96v-281h-65v720h65v-285q0 -101 36.5 -145.5t111.5 -44.5z" />
    <glyph glyph-name="nu" unicode="&#x3bd;" horiz-adv-x="524" 
d="M255 0l-170 405q-15 39 -30.5 51t-45.5 12v57q53 0 85.5 -22t59.5 -98l136 -338q75 151 112 255.5t48 202.5h69q-21 -203 -201 -525h-63z" />
    <glyph glyph-name="xi" unicode="&#x3be;" horiz-adv-x="521" 
d="M89 505q0 96 129 138h-119v57h366v-53q-137 6 -222.5 -30t-85.5 -113q0 -63 55.5 -90.5t133.5 -23.5v-57q-52 4 -103 -7t-90.5 -45.5t-39.5 -86.5q0 -50 37.5 -79t90.5 -41.5l106.5 -24.5t91 -40.5t37.5 -77.5q0 -29 -13 -56.5t-42 -69.5h-55q48 83 48 118q0 36 -38 56.5
t-92 30.5t-108.5 24.5t-92.5 52t-38 99.5q0 68 43 117t122 63q-57 12 -89 50t-32 89z" />
    <glyph glyph-name="omicron" unicode="&#x3bf;" horiz-adv-x="560" 
d="M280 -10q-108 0 -176.5 74.5t-68.5 198.5t68 198t177 74t177 -74t68 -198t-68.5 -198.5t-176.5 -74.5zM280 475q-76 0 -126.5 -56.5t-50.5 -155.5t50.5 -156t126.5 -57t126.5 57t50.5 156t-50.5 155.5t-126.5 56.5z" />
    <glyph glyph-name="pi" unicode="&#x3c0;" horiz-adv-x="660" 
d="M547 465v-322q0 -51 19.5 -72t56.5 -21v-60q-141 0 -141 143v332h-304v-465h-65v465h-78v60h580v-60h-68z" />
    <glyph glyph-name="rho" unicode="&#x3c1;" horiz-adv-x="552" 
d="M285 -10q-107 0 -164 81v-266h-65v495q0 120 57.5 177.5t157.5 57.5q116 0 177 -71.5t61 -197.5q0 -128 -59.5 -202t-164.5 -74zM266 475q-145 0 -145 -175v-174q22 -36 62 -56t87 -20q78 0 124.5 56t46.5 158q0 101 -47 156t-128 55z" />
    <glyph glyph-name="sigmafinal" unicode="&#x3c2;" horiz-adv-x="536" 
d="M286 535q79 0 134.5 -40.5t80.5 -114.5h-69q-19 48 -58.5 71.5t-87.5 23.5q-76 0 -126.5 -56t-50.5 -152q0 -57 20 -96.5t52.5 -58.5t71.5 -31.5t78 -21.5t71.5 -22t52.5 -39.5t20 -68.5q0 -30 -11.5 -54t-42.5 -70h-55l25.5 47.5t14.5 34.5t7 36q0 29 -20.5 47.5
t-53.5 27.5t-72.5 17.5t-79 24t-72.5 39.5t-53.5 70.5t-20.5 112.5q0 125 68 199t177 74z" />
    <glyph glyph-name="sigma" unicode="&#x3c3;" horiz-adv-x="563" 
d="M280 -10q-108 0 -176.5 74.5t-68.5 195.5q0 124 72 194.5t183 70.5h260v-57h-122q97 -60 97 -205q0 -124 -68.5 -198.5t-176.5 -74.5zM282 472q-77 0 -128 -55t-51 -154t50.5 -156t126.5 -57t126.5 57t50.5 157q0 98 -49.5 153t-125.5 55z" />
    <glyph glyph-name="tau" unicode="&#x3c4;" horiz-adv-x="446" 
d="M238 468v-325q0 -50 16 -71.5t51 -21.5q45 0 88 17v-62q-41 -15 -90 -15q-130 0 -130 143v335h-155v57h410v-57h-190z" />
    <glyph glyph-name="upsilon" unicode="&#x3c5;" horiz-adv-x="575" 
d="M301 50q83 0 120.5 53t37.5 163q0 117 -49 259h68q49 -118 49 -263q0 -272 -225 -272q-212 0 -212 235v150q0 53 -16 73t-52 20v57q133 0 133 -143v-157q0 -94 38 -134.5t108 -40.5z" />
    <glyph glyph-name="phi" unicode="&#x3c6;" horiz-adv-x="704" 
d="M320 -195v185q-117 0 -195.5 72t-78.5 200t79 200.5t195 72.5v140h65v-140q116 0 194 -73t78 -201q0 -127 -78 -199t-194 -72v-185h-65zM115 262q0 -98 61.5 -153.5t143.5 -57.5v423q-82 -3 -143.5 -58.5t-61.5 -153.5zM589 261q0 98 -61.5 154t-142.5 59v-423
q82 3 143 57.5t61 152.5z" />
    <glyph glyph-name="chi" unicode="&#x3c7;" horiz-adv-x="569" 
d="M241 177l-126 242q-16 30 -30.5 39.5t-37.5 9.5h-18v57h34q40 0 63.5 -12.5t41.5 -46.5l116 -223l168 282h76l-208 -348l144 -271q24 -49 68 -49h18v-57h-34q-40 0 -63.5 12.5t-41.5 46.5l-132 251l-176 -305h-77z" />
    <glyph glyph-name="psi" unicode="&#x3c8;" horiz-adv-x="724" 
d="M329 -195v185q-57 0 -103 11t-85 35.5t-60.5 70t-21.5 108.5v310h65v-310q0 -39 11 -68.5t29.5 -47.5t46 -29t55.5 -15t63 -4v624h65v-624q94 1 150 36t56 128v310h65v-310q0 -63 -21.5 -108.5t-61 -70t-85.5 -35.5t-103 -11v-185h-65z" />
    <glyph glyph-name="omega" unicode="&#x3c9;" horiz-adv-x="854" 
d="M601 50q142 0 142 216q0 116 -49 259h68q49 -118 49 -264q0 -271 -209 -271q-132 0 -175 117q-41 -117 -174 -117q-210 0 -210 272q0 145 49 263h68q-49 -142 -49 -258q0 -217 143 -217q141 0 141 198v141h65v-141q0 -198 141 -198z" />
    <glyph glyph-name="iotadieresis" unicode="&#x3ca;" horiz-adv-x="326" 
d="M67 648q0 -43 -42 -43t-42 43t42 43t42 -43zM267 648q0 -43 -42 -43t-42 43t42 43t42 -43zM158 525v-382q0 -50 16 -71.5t51 -21.5q45 0 88 17v-62q-41 -15 -90 -15q-130 0 -130 143v392h65z" />
    <glyph glyph-name="upsilondieresis" unicode="&#x3cb;" horiz-adv-x="575" 
d="M219 648q0 -43 -42 -43t-42 43t42 43t42 -43zM419 648q0 -43 -42 -43t-42 43t42 43t42 -43zM301 50q83 0 120.5 53t37.5 163q0 117 -49 259h68q49 -118 49 -263q0 -272 -225 -272q-212 0 -212 235v150q0 53 -16 73t-52 20v57q133 0 133 -143v-157q0 -94 38 -134.5
t108 -40.5z" />
    <glyph glyph-name="omicrontonos" unicode="&#x3cc;" horiz-adv-x="560" 
d="M240 590l78 160h70l-108 -160h-40zM280 -10q-108 0 -176.5 74.5t-68.5 198.5t68 198t177 74t177 -74t68 -198t-68.5 -198.5t-176.5 -74.5zM280 475q-76 0 -126.5 -56.5t-50.5 -155.5t50.5 -156t126.5 -57t126.5 57t50.5 156t-50.5 155.5t-126.5 56.5z" />
    <glyph glyph-name="upsilontonos" unicode="&#x3cd;" horiz-adv-x="575" 
d="M235 590l78 160h70l-108 -160h-40zM301 50q83 0 120.5 53t37.5 163q0 117 -49 259h68q49 -118 49 -263q0 -272 -225 -272q-212 0 -212 235v150q0 53 -16 73t-52 20v57q133 0 133 -143v-157q0 -94 38 -134.5t108 -40.5z" />
    <glyph glyph-name="omegatonos" unicode="&#x3ce;" horiz-adv-x="854" 
d="M385 590l78 160h70l-108 -160h-40zM601 50q142 0 142 216q0 116 -49 259h68q49 -118 49 -264q0 -271 -209 -271q-132 0 -175 117q-41 -117 -174 -117q-210 0 -210 272q0 145 49 263h68q-49 -142 -49 -258q0 -217 143 -217q141 0 141 198v141h65v-141q0 -198 141 -198z
" />
    <glyph glyph-name="uni0400" unicode="&#x400;" horiz-adv-x="572" 
d="M263 920l78 -160h-40l-108 160h70zM133 639v-257h347v-60h-347v-261h387v-61h-455v700h455v-61h-387z" />
    <glyph glyph-name="uni0401" unicode="&#x401;" horiz-adv-x="572" 
d="M227 802q0 -43 -42 -43t-42 43t42 43t42 -43zM427 802q0 -43 -42 -43t-42 43t42 43t42 -43zM520 700v-61h-387v-257h347v-60h-347v-261h387v-61h-455v700h455z" />
    <glyph glyph-name="uni0402" unicode="&#x402;" horiz-adv-x="767" 
d="M308 0h-68v639h-231v61h530v-61h-231v-257h167q119 0 182.5 -50.5t63.5 -143.5q0 -98 -66.5 -143t-178.5 -45h-67v61h59q90 0 135.5 30t45.5 100q0 33 -11 58t-27 38.5t-40.5 21.5t-46.5 10.5t-49 2.5h-167v-322z" />
    <glyph glyph-name="uni0403" unicode="&#x403;" horiz-adv-x="492" 
d="M239 760l78 160h70l-108 -160h-40zM62 0v700h429v-61h-361v-639h-68z" />
    <glyph glyph-name="uni0404" unicode="&#x404;" horiz-adv-x="707" 
d="M378 710q98 0 175 -48.5t111 -136.5h-75q-61 121 -206 121q-110 0 -183.5 -72t-83.5 -192h372v-60h-372q9 -124 83.5 -196t183.5 -72q145 0 205 121h75q-34 -88 -110.5 -136.5t-174.5 -48.5q-145 0 -240 98.5t-95 261.5t95 261.5t240 98.5z" />
    <glyph glyph-name="uni0405" unicode="&#x405;" horiz-adv-x="591" 
d="M486 187q0 64 -44 94t-132 45q-4 1 -12 2q-38 6 -60.5 11t-61.5 19.5t-61 33t-39.5 52t-17.5 77.5q0 93 67 141t173 48t174 -48t68 -137h-68q0 60 -48 90.5t-128 30.5q-77 0 -123.5 -29.5t-46.5 -94.5q0 -27 9.5 -47t22.5 -32.5t39.5 -22.5t46.5 -15.5t57 -12.5
q48 -10 73.5 -16t65.5 -21.5t61 -35t37 -52.5t16 -76q0 -101 -71.5 -151t-180.5 -50t-183 48t-74 137h68q0 -59 53.5 -90t135.5 -31q51 0 90 11.5t66.5 42.5t27.5 79z" />
    <glyph glyph-name="uni0406" unicode="&#x406;" horiz-adv-x="206" 
d="M69 0v700h68v-700h-68z" />
    <glyph glyph-name="uni0407" unicode="&#x407;" horiz-adv-x="239" 
d="M61 803q0 -43 -41 -43q-42 0 -42 43q0 42 42 42q41 0 41 -42zM261 803q0 -43 -41 -43q-42 0 -42 43q0 42 42 42q41 0 41 -42zM86 0v700h68v-700h-68z" />
    <glyph glyph-name="uni0408" unicode="&#x408;" horiz-adv-x="368" 
d="M13 135h68q0 -41 20 -62.5t55 -21.5q36 0 57.5 22t21.5 62v565h68v-565q0 -70 -38.5 -107.5t-108.5 -37.5t-106.5 37t-36.5 108z" />
    <glyph glyph-name="uni0409" unicode="&#x409;" horiz-adv-x="1044" 
d="M489 639h-202q-13 -219 -29 -312q-57 -337 -249 -337v60q139 18 182 285q19 113 28 365h338v-318h193q119 0 182.5 -50.5t63.5 -143.5q0 -98 -66.5 -143t-178.5 -45h-262v639zM557 61h186q90 0 135.5 30t45.5 100q0 33 -11 58t-27 38.5t-40.5 21.5t-46.5 10.5t-49 2.5
h-193v-261z" />
    <glyph glyph-name="uni040A" unicode="&#x40a;" horiz-adv-x="993" 
d="M115 322v-322h-69v700h69v-318h336v318h69v-318h192q119 0 182.5 -50.5t63.5 -143.5q0 -98 -66.5 -143t-178.5 -45h-262v322h-336zM520 61h185q91 0 136 30t45 100q0 33 -11 58t-27 38.5t-40.5 21.5t-46.5 10.5t-49 2.5h-192v-261z" />
    <glyph glyph-name="uni040B" unicode="&#x40b;" horiz-adv-x="730" 
d="M306 639v-218q60 29 156 29q112 0 162 -60t50 -190v-200h-65v200q0 110 -39.5 150t-120.5 40q-87 0 -143 -24v-366h-68v639h-231v61h550v-61h-251z" />
    <glyph glyph-name="uni040C" unicode="&#x40c;" horiz-adv-x="610" 
d="M261 760l78 160h70l-108 -160h-40zM133 382h159q54 0 87.5 17.5t46.5 45.5t19 62t11 68t16 62t41 45.5t79 17.5v-61q-35 0 -52.5 -23t-22.5 -59t-11 -74.5t-28 -75t-64 -55.5q42 -20 64 -58.5t28 -79t11 -78t22.5 -61.5t52.5 -24v-61q-49 0 -79 18.5t-41 47.5t-16 64.5
t-11 71t-19 64.5t-46.5 47.5t-87.5 18.5h-159v-322h-68v700h68v-318z" />
    <glyph glyph-name="uni040D" unicode="&#x40d;" horiz-adv-x="662" 
d="M300 920l78 -160h-40l-108 160h70zM133 700v-613l382 613h82v-700h-69v603l-381 -603h-82v700h68z" />
    <glyph glyph-name="uni040E" unicode="&#x40e;" horiz-adv-x="572" 
d="M390 884h43q0 -65 -40.5 -94.5t-104.5 -29.5t-104.5 29.5t-40.5 94.5h43q0 -35 28 -54.5t74 -19.5t74 19.5t28 54.5zM11 700h73l202 -441l203 441h73l-240 -511l-35 -76q-29 -61 -73.5 -92t-123.5 -31v62q52 1 80.5 18t50.5 61l29 58z" />
    <glyph glyph-name="uni040F" unicode="&#x40f;" horiz-adv-x="688" 
d="M378 0v-195h-68v195h-239v700h68v-639h410v639h68v-700h-239z" />
    <glyph glyph-name="uni0410" unicode="&#x410;" horiz-adv-x="633" 
d="M156 190l-72 -190h-75l273 700h69l273 -700h-75l-73 190h-320zM453 251l-137 361l-137 -361h274z" />
    <glyph glyph-name="uni0411" unicode="&#x411;" horiz-adv-x="650" 
d="M65 700h445v-61h-377v-257h223q119 0 182.5 -50.5t63.5 -143.5q0 -98 -66.5 -143t-178.5 -45h-292v700zM133 61h216q90 0 135.5 30t45.5 100q0 33 -11 58t-27 38.5t-40.5 21.5t-46.5 10.5t-49 2.5h-223v-261z" />
    <glyph glyph-name="uni0412" unicode="&#x412;" horiz-adv-x="653" 
d="M67 700h262q55 0 96 -7.5t76.5 -26t54 -55.5t18.5 -92q0 -64 -28 -102t-91 -60q75 -16 111.5 -56t36.5 -111q0 -100 -67 -145t-178 -45h-291v700zM135 382h190q86 0 132 28.5t46 104.5q0 71 -43.5 97.5t-137.5 26.5h-187v-257zM135 61h216q90 0 135.5 30t45.5 100
q0 33 -11 58t-27.5 38.5t-41 21.5t-46.5 10.5t-49 2.5h-222v-261z" />
    <glyph glyph-name="uni0413" unicode="&#x413;" horiz-adv-x="503" 
d="M65 0v700h429v-61h-361v-639h-68z" />
    <glyph glyph-name="uni0414" unicode="&#x414;" horiz-adv-x="716" 
d="M22 -195v255h75q131 234 147 640h383v-640h69v-255h-60l-6 195h-542l-6 -195h-60zM559 640h-251q-28 -361 -135 -580h386v580z" />
    <glyph glyph-name="uni0415" unicode="&#x415;" horiz-adv-x="572" 
d="M133 639v-257h347v-60h-347v-261h387v-61h-455v700h455v-61h-387z" />
    <glyph glyph-name="uni0416" unicode="&#x416;" horiz-adv-x="845" 
d="M457 382h62q54 0 87.5 17.5t46.5 45.5t19 62t11 68t16 62t41 45.5t79 17.5v-61q-35 0 -52.5 -23t-22.5 -59t-11 -74.5t-28 -75t-64 -55.5q42 -20 64 -58.5t28 -79t11 -78t22.5 -61.5t52.5 -24v-61q-49 0 -79 18.5t-41 47.5t-16 64.5t-11 71t-19 64.5t-46.5 47.5
t-87.5 18.5h-62v-322h-68v322h-63q-54 0 -87.5 -18.5t-46.5 -47.5t-19 -64.5t-11 -71t-16 -64.5t-41 -47.5t-79 -18.5v61q35 0 52 24t22 61.5t11 78t28 79t64 58.5q-42 19 -64 55.5t-28 75t-11 74.5t-22 59t-52 23v61q49 0 79 -17.5t41 -45.5t16 -62t11 -68t19 -62
t46.5 -45.5t87.5 -17.5h63v318h68v-318z" />
    <glyph glyph-name="uni0417" unicode="&#x417;" horiz-adv-x="567" 
d="M287 650q-136 0 -160 -125h-67q11 87 70 136t156 49q95 0 158.5 -47t63.5 -136q0 -57 -26.5 -103.5t-72.5 -62.5q123 -35 123 -161q0 -104 -73.5 -157t-181.5 -53q-103 0 -166.5 48t-75.5 137h67q24 -125 172 -125q78 0 132 37.5t54 111.5q0 125 -170 125h-96v58h97
q63 0 104 37.5t41 102.5q0 64 -40.5 96t-108.5 32z" />
    <glyph glyph-name="uni0418" unicode="&#x418;" horiz-adv-x="662" 
d="M133 700v-613l382 613h82v-700h-69v603l-381 -603h-82v700h68z" />
    <glyph glyph-name="uni0419" unicode="&#x419;" horiz-adv-x="662" 
d="M442 874h43q0 -65 -40.5 -94.5t-104.5 -29.5t-104.5 29.5t-40.5 94.5h43q0 -35 28 -54.5t74 -19.5t74 19.5t28 54.5zM133 700v-613l382 613h82v-700h-69v603l-381 -603h-82v700h68z" />
    <glyph glyph-name="uni041A" unicode="&#x41a;" horiz-adv-x="610" 
d="M133 382h159q54 0 87.5 17.5t46.5 45.5t19 62t11 68t16 62t41 45.5t79 17.5v-61q-35 0 -52.5 -23t-22.5 -59t-11 -74.5t-28 -75t-64 -55.5q42 -20 64 -58.5t28 -79t11 -78t22.5 -61.5t52.5 -24v-61q-49 0 -79 18.5t-41 47.5t-16 64.5t-11 71t-19 64.5t-46.5 47.5
t-87.5 18.5h-159v-322h-68v700h68v-318z" />
    <glyph glyph-name="uni041B" unicode="&#x41b;" horiz-adv-x="700" 
d="M566 0v639h-275q-13 -219 -29 -312q-57 -337 -249 -337v60q139 18 182 285q19 113 28 365h412v-700h-69z" />
    <glyph glyph-name="uni041C" unicode="&#x41c;" horiz-adv-x="797" 
d="M133 0h-68v700h68l265 -594l265 594h69v-700h-69v552l-240 -537h-50l-240 539v-554z" />
    <glyph glyph-name="uni041D" unicode="&#x41d;" horiz-adv-x="677" 
d="M543 0v322h-410v-322h-68v700h68v-318h410v318h69v-700h-69z" />
    <glyph glyph-name="uni041E" unicode="&#x41e;" horiz-adv-x="756" 
d="M378 -10q-145 0 -240 98.5t-95 261.5t95 261.5t240 98.5t240 -98.5t95 -261.5t-95 -261.5t-240 -98.5zM378 646q-110 0 -186.5 -81t-76.5 -215t76.5 -215t186.5 -81t186.5 81t76.5 215t-76.5 215t-186.5 81z" />
    <glyph glyph-name="uni041F" unicode="&#x41f;" horiz-adv-x="677" 
d="M543 0v639h-410v-639h-68v700h547v-700h-69z" />
    <glyph glyph-name="uni0420" unicode="&#x420;" horiz-adv-x="621" 
d="M133 0h-68v700h272q245 0 245 -220t-245 -220h-204v-260zM133 321h195q40 0 69 5.5t56.5 21.5t42 49t14.5 83t-14.5 83t-42 49t-56.5 21.5t-69 5.5h-195v-318z" />
    <glyph glyph-name="uni0421" unicode="&#x421;" horiz-adv-x="706" 
d="M377 710q98 0 175 -48.5t111 -136.5h-75q-61 121 -205 121q-116 0 -192 -80.5t-76 -215.5t76 -215.5t192 -80.5q144 0 204 121h75q-34 -88 -110.5 -136.5t-174.5 -48.5q-145 0 -239.5 98.5t-94.5 261.5t94.5 261.5t239.5 98.5z" />
    <glyph glyph-name="uni0422" unicode="&#x422;" horiz-adv-x="548" 
d="M308 639v-639h-68v639h-231v61h530v-61h-231z" />
    <glyph glyph-name="uni0423" unicode="&#x423;" horiz-adv-x="569" 
d="M9 700h73l202 -441l203 441h73l-275 -587q-29 -61 -73.5 -92t-123.5 -31v62q52 1 80.5 18t50.5 61l29 58z" />
    <glyph glyph-name="uni0424" unicode="&#x424;" horiz-adv-x="750" 
d="M409 710v-86q142 -5 220 -66.5t78 -207.5t-78 -207.5t-220 -67.5v-85h-68v85q-142 6 -220 67.5t-78 207.5q0 75 22 128.5t63.5 84t93 45t119.5 16.5v86h68zM114 350q0 -62 17 -104t50 -64t70.5 -31.5t89.5 -11.5v421q-52 -2 -89.5 -11t-70.5 -31t-50 -64t-17 -104z
M409 560v-421q52 2 89 11.5t70.5 31.5t50.5 64t17 104q0 50 -12 87t-31.5 59.5t-50 36.5t-61.5 20t-72 7z" />
    <glyph glyph-name="uni0425" unicode="&#x425;" horiz-adv-x="595" 
d="M297 412l202 288h77l-234 -334l244 -366h-77l-212 320l-211 -320h-77l244 366l-234 334h77z" />
    <glyph glyph-name="uni0426" unicode="&#x426;" horiz-adv-x="713" 
d="M622 -195l-7 195h-550v700h68v-639h410v639h69v-639h70v-256h-60z" />
    <glyph glyph-name="uni0427" unicode="&#x427;" horiz-adv-x="598" 
d="M260 275q-113 0 -165 60t-52 188v177h68v-177q0 -106 39 -143.5t123 -37.5q114 0 192 25v333h68v-700h-68v306q-90 -31 -205 -31z" />
    <glyph glyph-name="uni0428" unicode="&#x428;" horiz-adv-x="944" 
d="M65 0v700h68v-639h305v639h68v-639h304v639h69v-700h-814z" />
    <glyph glyph-name="uni0429" unicode="&#x429;" horiz-adv-x="978" 
d="M65 0v700h68v-639h305v639h68v-639h304v639h69v-700h-814zM888 -195l-8 256h68v-256h-60z" />
    <glyph glyph-name="uni042A" unicode="&#x42a;" horiz-adv-x="754" 
d="M237 700v-318h223q119 0 182.5 -50.5t63.5 -143.5q0 -98 -66.5 -143t-178.5 -45h-292v639h-160v61h228zM237 61h216q90 0 135.5 30t45.5 100q0 33 -11 58t-27 38.5t-40.5 21.5t-46.5 10.5t-49 2.5h-223v-261z" />
    <glyph glyph-name="uni042B" unicode="&#x42b;" horiz-adv-x="799" 
d="M133 700v-318h193q119 0 182.5 -50.5t63.5 -143.5q0 -98 -66.5 -143t-178.5 -45h-262v700h68zM666 0v700h68v-700h-68zM133 61h186q90 0 135.5 30t45.5 100q0 33 -11 58t-27 38.5t-40.5 21.5t-46.5 10.5t-49 2.5h-193v-261z" />
    <glyph glyph-name="uni042C" unicode="&#x42c;" horiz-adv-x="650" 
d="M133 700v-318h223q119 0 182.5 -50.5t63.5 -143.5q0 -98 -66.5 -143t-178.5 -45h-292v700h68zM133 61h216q90 0 135.5 30t45.5 100q0 33 -11 58t-27 38.5t-40.5 21.5t-46.5 10.5t-49 2.5h-223v-261z" />
    <glyph glyph-name="uni042D" unicode="&#x42d;" horiz-adv-x="707" 
d="M329 710q145 0 240 -98.5t95 -261.5t-95 -261.5t-240 -98.5q-98 0 -174.5 48.5t-110.5 136.5h75q60 -121 205 -121q110 0 184 73.5t83 194.5h-372v60h371q-10 119 -83.5 191.5t-182.5 72.5q-145 0 -206 -121h-75q34 88 111 136.5t175 48.5z" />
    <glyph glyph-name="uni042E" unicode="&#x42e;" horiz-adv-x="931" 
d="M142 382h127q8 152 91 240t218 88q142 0 226 -97.5t84 -262.5t-84 -262.5t-226 -97.5q-136 0 -219.5 89t-90.5 243h-126v-322h-68v700h68v-318zM578 646q-107 0 -172.5 -79.5t-65.5 -216.5t65.5 -216.5t172.5 -79.5t172.5 79.5t65.5 216.5t-65.5 216.5t-172.5 79.5z" />
    <glyph glyph-name="uni042F" unicode="&#x42f;" horiz-adv-x="626" 
d="M559 0h-68v260h-169q-54 0 -87 -15t-46 -38.5t-18.5 -52.5t-10 -58t-15.5 -52.5t-40.5 -38.5t-78.5 -15v61q33 0 50 17.5t21.5 45.5l9 58t21 61.5t48.5 49.5q-133 36 -133 197q0 220 245 220h271v-700zM491 639h-195q-40 0 -69 -5.5t-56.5 -21.5t-42 -49t-14.5 -83
t14.5 -83t42 -49t56.5 -21.5t69 -5.5h195v318z" />
    <glyph glyph-name="uni0430" unicode="&#x430;" horiz-adv-x="532" 
d="M43 144q0 84 61 122.5t157 38.5q88 0 150 -38v81q0 73 -34 100t-99 27q-142 0 -142 -95h-68q0 79 56.5 117t151.5 38q99 0 149.5 -44.5t50.5 -150.5v-340h-50l-10 73q-58 -83 -178 -83q-87 0 -141 37.5t-54 116.5zM271 252q-160 0 -160 -106q0 -96 136 -96q119 0 164 74
v95q-54 33 -140 33z" />
    <glyph glyph-name="uni0431" unicode="&#x431;" horiz-adv-x="576" 
d="M280 -10q-111 0 -174 69.5t-63 236.5q0 94 21 160t55 99t75.5 52t82.5 25.5t75 12.5t55 21t21 44h62q0 -43 -18 -67.5t-47 -33.5t-65.5 -14t-75 -13.5t-72.5 -25.5t-61.5 -57t-39.5 -102q51 98 180 98q108 0 175 -63.5t67 -185.5t-68 -189t-185 -67zM288 435
q-79 0 -128 -45t-49 -142q0 -98 49.5 -148t127.5 -50t127.5 50t49.5 148q0 97 -49 142t-128 45z" />
    <glyph glyph-name="uni0432" unicode="&#x432;" horiz-adv-x="537" 
d="M56 525h219q110 0 159 -34t49 -111q0 -87 -69 -115q80 -28 80 -120q0 -77 -49 -111t-159 -34h-230v525zM414 379q0 51 -33 70t-114 19h-146v-176h147q82 0 114 18.5t32 68.5zM426 147q0 50 -32.5 69t-113.5 19h-159v-178h158q81 0 114 19.5t33 70.5z" />
    <glyph glyph-name="uni0433" unicode="&#x433;" horiz-adv-x="427" 
d="M418 525v-57h-297v-468h-65v525h362z" />
    <glyph glyph-name="uni0434" unicode="&#x434;" horiz-adv-x="582" 
d="M503 -150l-6 150h-416l-6 -150h-57v207h37q47 60 73 147.5t31.5 156.5t5.5 164h328v-468h67v-207h-57zM428 468h-198q0 -260 -99 -411h297v411z" />
    <glyph glyph-name="uni0435" unicode="&#x435;" horiz-adv-x="561" 
d="M288 50q105 0 144 95h68q-25 -74 -79.5 -114.5t-132.5 -40.5q-108 0 -176.5 74.5t-68.5 198.5t68 198t177 74q107 0 168.5 -73t61.5 -199v-28h-406q7 -87 56.5 -136t119.5 -49zM288 475q-70 0 -119 -48.5t-57 -134.5h337q-7 87 -50 135t-111 48z" />
    <glyph glyph-name="uni0436" unicode="&#x436;" horiz-adv-x="768" 
d="M417 525v-233h85q48 0 69 24t25.5 58t11 68.5t38.5 58.5t96 24v-57q-37 0 -55 -18.5t-22.5 -46t-7.5 -56.5t-18 -53t-47 -31q32 -8 47 -33t18 -55.5t7.5 -59.5t22.5 -48.5t55 -19.5v-57q-54 0 -85.5 18t-40.5 45.5t-15 59t-10.5 59t-26.5 45.5t-62 18h-85v-235h-65v235
h-86q-40 0 -62 -18t-26.5 -45.5t-10.5 -59t-15 -59t-40.5 -45.5t-85.5 -18v57q37 0 55 19.5t22.5 48.5t7.5 59.5t18 55.5t46 33q-31 7 -46 31t-18 53t-7.5 56.5t-22.5 46t-55 18.5v57q64 0 96 -24t38.5 -58.5t11 -68.5t25.5 -58t69 -24h86v233h65z" />
    <glyph glyph-name="uni0437" unicode="&#x437;" horiz-adv-x="522" 
d="M118 380h-65q18 155 205 155q39 0 73 -7t64.5 -23t48.5 -46t18 -71q0 -83 -78 -118q47 -10 71 -44t24 -82q0 -44 -20 -75.5t-54 -47.5t-70.5 -23.5t-78.5 -7.5q-190 0 -213 155h65q10 -54 49.5 -74.5t101.5 -20.5q152 0 152 98q0 87 -127 87h-49v57h49q52 0 81 23.5
t29 67.5q0 92 -132 92q-129 0 -144 -95z" />
    <glyph glyph-name="uni0438" unicode="&#x438;" 
d="M434 438l-303 -438h-75v525h65v-439l303 439h75v-525h-65v438z" />
    <glyph glyph-name="uni0439" unicode="&#x439;" 
d="M379 714h43q0 -65 -40.5 -94.5t-104.5 -29.5t-104.5 29.5t-40.5 94.5h43q0 -35 28 -54.5t74 -19.5t74 19.5t28 54.5zM434 438l-303 -438h-75v525h65v-439l303 439h75v-525h-65v438z" />
    <glyph glyph-name="uni043A" unicode="&#x43a;" horiz-adv-x="539" 
d="M121 525v-233h152q48 0 69 24t25 58t11 68.5t39 58.5t96 24v-57q-37 0 -55 -18.5t-22.5 -46t-8 -56.5t-18.5 -53t-47 -31q32 -8 47 -33t18.5 -55.5t8 -59.5t22.5 -48.5t55 -19.5v-57q-47 0 -76.5 13.5t-42 35t-18 47.5t-9 52.5t-11 48t-28 35t-55.5 13.5h-152v-235h-65
v525h65z" />
    <glyph glyph-name="uni043B" unicode="&#x43b;" horiz-adv-x="562" 
d="M441 468h-232q-1 -76 -4.5 -135.5t-16.5 -127t-33.5 -112t-58 -74t-87.5 -29.5v57q26 5 45.5 20t33.5 36t24 56.5t16 69.5t10 87.5t6 97.5t3 111h359v-525h-65v468z" />
    <glyph glyph-name="uni043C" unicode="&#x43c;" horiz-adv-x="677" 
d="M121 0h-65v525h78l206 -442l203 442h78v-525h-65v424l-192 -414h-48l-195 413v-423z" />
    <glyph glyph-name="uni043D" unicode="&#x43d;" 
d="M434 235h-313v-235h-65v525h65v-233h313v233h65v-525h-65v235z" />
    <glyph glyph-name="uni043E" unicode="&#x43e;" horiz-adv-x="560" 
d="M280 -10q-108 0 -176.5 74.5t-68.5 198.5t68 198t177 74t177 -74t68 -198t-68.5 -198.5t-176.5 -74.5zM280 475q-76 0 -126.5 -56.5t-50.5 -155.5t50.5 -156t126.5 -57t126.5 57t50.5 156t-50.5 155.5t-126.5 56.5z" />
    <glyph glyph-name="uni043F" unicode="&#x43f;" 
d="M434 468h-313v-468h-65v525h443v-525h-65v468z" />
    <glyph glyph-name="uni0440" unicode="&#x440;" horiz-adv-x="552" 
d="M285 535q104 0 164 -73.5t60 -198.5q0 -126 -60 -199.5t-164 -73.5q-109 0 -164 84v-269h-65v720h50l10 -81q56 91 169 91zM270 475q-48 0 -88 -21.5t-61 -59.5v-263q22 -40 62 -60.5t87 -20.5q78 0 124.5 56t46.5 157q0 100 -46.5 156t-124.5 56z" />
    <glyph glyph-name="uni0441" unicode="&#x441;" horiz-adv-x="530" 
d="M280 50q48 0 87.5 23.5t59.5 71.5h68q-25 -74 -80.5 -114.5t-134.5 -40.5q-108 0 -176.5 74.5t-68.5 198.5t68 198t177 74q79 0 134.5 -40.5t80.5 -114.5h-68q-20 48 -59.5 71.5t-87.5 23.5q-76 0 -126.5 -56.5t-50.5 -155.5t50.5 -156t126.5 -57z" />
    <glyph glyph-name="uni0442" unicode="&#x442;" horiz-adv-x="463" 
d="M454 525v-60h-190v-465h-65v465h-190v60h445z" />
    <glyph glyph-name="uni0443" unicode="&#x443;" horiz-adv-x="499" 
d="M486 525l-232 -601q-25 -63 -65.5 -93t-114.5 -30v62q49 1 76 18t45 61l21 54l-203 529h72l164 -442l164 442h73z" />
    <glyph glyph-name="uni0444" unicode="&#x444;" horiz-adv-x="681" 
d="M308 -195v185q-116 0 -194.5 72t-78.5 200t78.5 200.5t194.5 72.5v175h65v-175q116 0 194.5 -73t78.5 -201q0 -127 -78.5 -199t-194.5 -72v-185h-65zM103 262q0 -98 61.5 -153t143.5 -58v423q-82 -3 -143.5 -58.5t-61.5 -153.5zM578 261q0 99 -61.5 154.5t-143.5 58.5
v-423q82 2 143.5 57t61.5 153z" />
    <glyph glyph-name="uni0445" unicode="&#x445;" horiz-adv-x="488" 
d="M391 0l-149 223l-153 -223h-76l191 277l-185 248h77l150 -202l153 202h76l-192 -255l184 -270h-76z" />
    <glyph glyph-name="uni0446" unicode="&#x446;" horiz-adv-x="588" 
d="M121 525v-468h313v468h65v-468h67v-207h-57l-6 150h-447v525h65z" />
    <glyph glyph-name="uni0447" unicode="&#x447;" 
d="M434 0v209q-77 -34 -171 -34q-109 0 -158 61.5t-49 188.5v100h65v-100q0 -113 34.5 -151.5t116.5 -38.5q92 0 162 29v261h65v-525h-65z" />
    <glyph glyph-name="uni0448" unicode="&#x448;" horiz-adv-x="800" 
d="M56 0v525h65v-468h247v468h65v-468h246v468h65v-525h-688z" />
    <glyph glyph-name="uni0449" unicode="&#x449;" horiz-adv-x="833" 
d="M121 525v-468h247v468h65v-468h246v468h65v-468h67v-207h-57l-6 150h-692v525h65z" />
    <glyph glyph-name="uni044A" unicode="&#x44a;" horiz-adv-x="623" 
d="M580 146q0 -78 -49 -112t-159 -34h-236v468h-123v57h188v-233h171q110 0 159 -34t49 -112zM511 146q0 50 -33 69.5t-114 19.5h-163v-178h163q81 0 114 19.5t33 69.5z" />
    <glyph glyph-name="uni044B" unicode="&#x44b;" horiz-adv-x="680" 
d="M474 146q0 -78 -49 -112t-159 -34h-210v525h65v-233h145q110 0 159 -34t49 -112zM559 0v525h65v-525h-65zM406 146q0 50 -33 69.5t-114 19.5h-138v-178h138q81 0 114 19.5t33 69.5z" />
    <glyph glyph-name="uni044C" unicode="&#x44c;" horiz-adv-x="542" 
d="M499 146q0 -78 -49 -112t-159 -34h-235v525h65v-233h170q110 0 159 -34t49 -112zM431 146q0 50 -33 69.5t-114 19.5h-163v-178h163q81 0 114 19.5t33 69.5z" />
    <glyph glyph-name="uni044D" unicode="&#x44d;" horiz-adv-x="530" 
d="M250 50q70 0 119 49t56 136h-282v57h282q-7 86 -56 134.5t-119 48.5q-48 0 -87.5 -23.5t-59.5 -71.5h-68q25 74 80.5 114.5t134.5 40.5q109 0 177 -74t68 -198t-68.5 -198.5t-176.5 -74.5q-79 0 -134.5 40.5t-80.5 114.5h68q20 -48 59.5 -71.5t87.5 -23.5z" />
    <glyph glyph-name="uni044E" unicode="&#x44e;" horiz-adv-x="733" 
d="M468 -10q-101 0 -161.5 65.5t-67.5 179.5h-118v-235h-65v525h65v-233h118q7 113 67.5 178t161.5 65q107 0 168.5 -73t61.5 -199t-61.5 -199.5t-168.5 -73.5zM468 475q-75 0 -118.5 -55.5t-43.5 -156.5t43.5 -157t118.5 -56q74 0 117.5 56t43.5 157t-43.5 156.5
t-117.5 55.5z" />
    <glyph glyph-name="uni044F" unicode="&#x44f;" horiz-adv-x="556" 
d="M63 374q0 77 50 114t158 37h229v-525h-65v220h-164q-40 0 -62 -17t-26.5 -42.5t-10.5 -55.5t-15 -55.5t-40.5 -42.5t-85.5 -17v57q42 0 60.5 25t19 57t12 66t39.5 47q-51 14 -75 45.5t-24 86.5zM132 372q0 -52 33 -73.5t113 -21.5h157v191h-156q-80 0 -113.5 -22
t-33.5 -74z" />
    <glyph glyph-name="uni0450" unicode="&#x450;" horiz-adv-x="545" 
d="M242 750l78 -160h-40l-108 160h70zM280 -10q-108 0 -176.5 74.5t-68.5 198.5t68 198t177 74q107 0 168.5 -73t61.5 -199v-28h-406q7 -87 56.5 -136t119.5 -49q105 0 144 95h68q-25 -74 -79.5 -114.5t-132.5 -40.5zM280 475q-70 0 -119 -48.5t-57 -134.5h337
q-7 87 -50 135t-111 48z" />
    <glyph glyph-name="uni0451" unicode="&#x451;" horiz-adv-x="547" 
d="M217 648q0 -43 -42 -43t-42 43t42 43t42 -43zM417 648q0 -43 -42 -43t-42 43t42 43t42 -43zM280 -10q-108 0 -176.5 74.5t-68.5 198.5t68 198t177 74q107 0 168.5 -73t61.5 -199v-28h-406q7 -87 56.5 -136t119.5 -49q105 0 144 95h68q-25 -74 -79.5 -114.5t-132.5 -40.5z
M280 475q-70 0 -119 -48.5t-57 -134.5h337q-7 87 -50 135t-111 48z" />
    <glyph glyph-name="uni0452" unicode="&#x452;" horiz-adv-x="577" 
d="M323 535q197 0 197 -250v-285h1v-57q0 -143 -142 -143v60q38 0 57.5 21t19.5 72v47h-1v285q0 101 -36.5 145.5t-111.5 44.5q-117 0 -165 -85v-390h-65v595h-68v47h68v78h65v-78h157v-47h-157v-151q62 91 181 91z" />
    <glyph glyph-name="uni0453" unicode="&#x453;" horiz-adv-x="427" 
d="M193 590l78 160h70l-108 -160h-40zM418 525v-57h-297v-468h-65v525h362z" />
    <glyph glyph-name="uni0454" unicode="&#x454;" horiz-adv-x="530" 
d="M280 50q48 0 87.5 23.5t59.5 71.5h68q-25 -74 -80.5 -114.5t-134.5 -40.5q-108 0 -176.5 74.5t-68.5 198.5t68 198t177 74q79 0 134.5 -40.5t80.5 -114.5h-68q-20 48 -59.5 71.5t-87.5 23.5q-70 0 -119 -48.5t-57 -134.5h283v-57h-283q7 -87 56.5 -136t119.5 -49z" />
    <glyph glyph-name="uni0455" unicode="&#x455;" horiz-adv-x="516" 
d="M113 386q0 -51 63 -70q23 -7 99 -18q33 -5 54 -10t51.5 -16.5t48 -26t31 -40.5t13.5 -59q0 -77 -61 -116.5t-157 -39.5q-94 0 -153 38.5t-59 116.5h68q0 -51 41.5 -73t104.5 -22q64 0 107.5 23t43.5 71q0 20 -9.5 35.5t-21.5 24.5t-37.5 16.5t-41.5 10.5l-50 9l-18 3
q-34 6 -52 9.5t-47 14.5t-44 24.5t-27 38t-12 56.5q0 75 55 112t151 37t152.5 -38t56.5 -117h-68q0 95 -140 95q-62 0 -102 -21.5t-40 -67.5z" />
    <glyph glyph-name="uni0456" unicode="&#x456;" horiz-adv-x="194" 
d="M139 648q0 -43 -42 -43t-42 43t42 43t42 -43zM64 0v525h65v-525h-65z" />
    <glyph glyph-name="uni0457" unicode="&#x457;" horiz-adv-x="270" 
d="M77 648q0 -43 -42 -43t-42 43t42 43t42 -43zM277 648q0 -43 -42 -43t-42 43t42 43t42 -43zM102 0v525h65v-525h-65z" />
    <glyph glyph-name="uni0458" unicode="&#x458;" horiz-adv-x="199" 
d="M140 648q0 -43 -42 -43q-41 0 -41 43t41 43q42 0 42 -43zM131 525v-582q0 -143 -143 -143v60q38 0 58 21t20 72v572h65z" />
    <glyph glyph-name="uni0459" unicode="&#x459;" horiz-adv-x="815" 
d="M767 146q0 -78 -49 -112t-159 -34h-210v468h-140q-1 -76 -4.5 -135.5t-16.5 -127t-33.5 -112t-58 -74t-87.5 -29.5v62q22 4 40 15t31.5 30.5t23.5 41.5t17 56.5t11.5 66t7.5 79t4.5 87t2.5 97.5h267v-233h145q110 0 159 -34t49 -112zM699 146q0 50 -33 69.5t-114 19.5
h-138v-178h138q81 0 114 19.5t33 69.5z" />
    <glyph glyph-name="uni045A" unicode="&#x45a;" horiz-adv-x="864" 
d="M816 146q0 -78 -49 -112t-159 -34h-210v235h-277v-235h-65v525h65v-233h277v233h65v-233h145q110 0 159 -34t49 -112zM748 146q0 50 -33.5 69.5t-114.5 19.5h-137v-178h137q81 0 114.5 19.5t33.5 69.5z" />
    <glyph glyph-name="uni045B" unicode="&#x45b;" horiz-adv-x="577" 
d="M323 535q197 0 197 -250v-285h-65v285q0 101 -36.5 145.5t-111.5 44.5q-117 0 -165 -85v-390h-65v595h-68v47h68v78h65v-78h157v-47h-157v-151q62 91 181 91z" />
    <glyph glyph-name="uni045C" unicode="&#x45c;" horiz-adv-x="539" 
d="M229 590l78 160h70l-108 -160h-40zM121 525v-233h152q48 0 69 24t25 58t11 68.5t39 58.5t96 24v-57q-37 0 -55 -18.5t-22.5 -46t-8 -56.5t-18.5 -53t-47 -31q32 -8 47 -33t18.5 -55.5t8 -59.5t22.5 -48.5t55 -19.5v-57q-47 0 -76.5 13.5t-42 35t-18 47.5t-9 52.5t-11 48
t-28 35t-55.5 13.5h-152v-235h-65v525h65z" />
    <glyph glyph-name="uni045D" unicode="&#x45d;" 
d="M242 750l78 -160h-40l-108 160h70zM434 438l-303 -438h-75v525h65v-439l303 439h75v-525h-65v438z" />
    <glyph glyph-name="uni045E" unicode="&#x45e;" horiz-adv-x="499" 
d="M350 714h43q0 -65 -40.5 -94.5t-104.5 -29.5t-104.5 29.5t-40.5 94.5h43q0 -35 28 -54.5t74 -19.5t74 19.5t28 54.5zM486 525l-232 -601q-25 -63 -65.5 -93t-114.5 -30v62q49 1 76 18t45 61l21 54l-203 529h72l164 -442l164 442h73z" />
    <glyph glyph-name="uni045F" unicode="&#x45f;" 
d="M121 525v-468h313v468h65v-525h-188v-150h-65v150h-190v525h65z" />
    <glyph glyph-name="uni0462" unicode="&#x462;" horiz-adv-x="715" 
d="M131 595v105h68v-105h130v-60h-130v-153h222q120 0 183 -50t63 -144q0 -99 -67 -143.5t-178 -44.5h-291v535h-120v60h120zM199 61h216q90 0 135.5 30t45.5 100q0 33 -11 58t-27.5 38.5t-41 21.5t-46.5 10.5t-49 2.5h-222v-261z" />
    <glyph glyph-name="uni0463" unicode="&#x463;" horiz-adv-x="603" 
d="M562 146q0 -78 -49 -112t-159 -34h-235v468h-108v57h108v195h65v-195h118v-57h-118v-176h170q110 0 159 -34t49 -112zM494 146q0 50 -33 69.5t-114 19.5h-163v-178h163q81 0 114 19.5t33 69.5z" />
    <glyph glyph-name="uni0472" unicode="&#x472;" horiz-adv-x="756" 
d="M378 -10q-145 0 -240 98.5t-95 261.5t95 261.5t240 98.5t240 -98.5t95 -261.5t-95 -261.5t-240 -98.5zM378 646q-103 0 -177.5 -71.5t-84.5 -192.5h523q-9 120 -84 192t-177 72zM378 54q103 0 178 73t84 195h-524q8 -122 83 -195t179 -73z" />
    <glyph glyph-name="uni0473" unicode="&#x473;" horiz-adv-x="565" 
d="M282 -10q-108 0 -176.5 74.5t-68.5 198.5t68 198t177 74t177 -74t68 -198t-68.5 -198.5t-176.5 -74.5zM282 475q-70 0 -118.5 -48.5t-56.5 -134.5h350q-7 86 -56 134.5t-119 48.5zM282 50q71 0 119.5 49t55.5 136h-350q7 -87 56 -136t119 -49z" />
    <glyph glyph-name="uni0474" unicode="&#x474;" horiz-adv-x="620" 
d="M292 92l171 492q14 40 30 64.5t37 35t37.5 13.5t43.5 3v-57q-31 0 -46.5 -11t-30.5 -49l-210 -583h-64l-251 700h72z" />
    <glyph glyph-name="uni0475" unicode="&#x475;" horiz-adv-x="524" 
d="M211 0l-202 525h69l165 -444l128 324q27 76 59.5 98t85.5 22v-57q-30 0 -45.5 -12t-30.5 -51l-167 -405h-62z" />
    <glyph glyph-name="uni0490" unicode="&#x490;" horiz-adv-x="503" 
d="M65 0v700h361v100h68v-161h-361v-639h-68z" />
    <glyph glyph-name="uni0491" unicode="&#x491;" horiz-adv-x="438" 
d="M121 465v-465h-65v525h308v101h65v-161h-308z" />
    <glyph glyph-name="Wgrave" unicode="&#x1e80;" horiz-adv-x="937" 
d="M423 920l78 -160h-40l-108 160h70zM286 0h-69l-208 700h76l168 -599l182 588h67l181 -588l169 599h76l-208 -700h-69l-183 582z" />
    <glyph glyph-name="wgrave" unicode="&#x1e81;" horiz-adv-x="813" 
d="M359 750l78 -160h-40l-108 160h70zM255 0h-70l-172 525h72l137 -439l154 429h61l154 -429l137 439h72l-172 -525h-70l-152 428z" />
    <glyph glyph-name="Wacute" unicode="&#x1e82;" horiz-adv-x="937" 
d="M435 760l78 160h70l-108 -160h-40zM286 0h-69l-208 700h76l168 -599l182 588h67l181 -588l169 599h76l-208 -700h-69l-183 582z" />
    <glyph glyph-name="wacute" unicode="&#x1e83;" horiz-adv-x="813" 
d="M376 590l78 160h70l-108 -160h-40zM255 0h-70l-172 525h72l137 -439l154 429h61l154 -429l137 439h72l-172 -525h-70l-152 428z" />
    <glyph glyph-name="Wdieresis" unicode="&#x1e84;" horiz-adv-x="937" 
d="M410 803q0 -43 -42 -43t-42 43t42 43t42 -43zM610 803q0 -43 -42 -43t-42 43t42 43t42 -43zM286 0h-69l-208 700h76l168 -599l182 588h67l181 -588l169 599h76l-208 -700h-69l-183 582z" />
    <glyph glyph-name="wdieresis" unicode="&#x1e85;" horiz-adv-x="813" 
d="M348 648q0 -43 -42 -43t-42 43t42 43t42 -43zM548 648q0 -43 -42 -43t-42 43t42 43t42 -43zM255 0h-70l-172 525h72l137 -439l154 429h61l154 -429l137 439h72l-172 -525h-70l-152 428z" />
    <glyph glyph-name="Ygrave" unicode="&#x1ef2;" horiz-adv-x="583" 
d="M251 920l78 -160h-40l-108 160h70zM257 0v245l-248 455h76l206 -385l1 1l206 384h76l-248 -455v-245h-69z" />
    <glyph glyph-name="ygrave" unicode="&#x1ef3;" horiz-adv-x="499" 
d="M215 750l78 -160h-40l-108 160h70zM283 0l-29 -76q-24 -61 -64.5 -92.5t-115.5 -31.5v62q48 1 76 18.5t45 61.5l21 54l-203 529h72l164 -442l164 442h73z" />
    <glyph glyph-name="endash" unicode="&#x2013;" horiz-adv-x="518" 
d="M509 351v-48h-500v48h500z" />
    <glyph glyph-name="emdash" unicode="&#x2014;" horiz-adv-x="910" 
d="M905 351v-48h-900v48h900z" />
    <glyph glyph-name="uni2015" unicode="&#x2015;" horiz-adv-x="778" 
d="M769 351v-48h-760v48h760z" />
    <glyph glyph-name="quoteleft" unicode="&#x2018;" horiz-adv-x="132" 
d="M22 645v4q0 110 97 163l7 -38q-47 -31 -50 -83q41 -3 41 -46q0 -46 -47 -46q-48 0 -48 46z" />
    <glyph glyph-name="quoteright" unicode="&#x2019;" horiz-adv-x="149" 
d="M127 710q0 -106 -97 -157l-7 38q45 30 50 83q-41 3 -41 46q0 46 48 46q26 0 36.5 -12.5t10.5 -43.5z" />
    <glyph glyph-name="quotesinglbase" unicode="&#x201a;" horiz-adv-x="149" 
d="M127 26q0 -106 -97 -157l-7 38q45 30 50 83q-41 3 -41 46q0 46 48 46q26 0 36.5 -12.5t10.5 -43.5z" />
    <glyph glyph-name="quotedblleft" unicode="&#x201c;" horiz-adv-x="276" 
d="M22 655q0 106 97 157l7 -38q-47 -31 -50 -83q41 -3 41 -46q0 -46 -48 -46q-26 0 -36.5 12.5t-10.5 43.5zM165 654q0 106 97 158l7 -38q-46 -32 -49 -83q40 -3 40 -46q0 -46 -49 -46q-25 0 -35.5 12.5t-10.5 42.5z" />
    <glyph glyph-name="quotedblright" unicode="&#x201d;" horiz-adv-x="292" 
d="M127 720v-5q0 -111 -97 -162l-7 38q45 30 50 83q-41 3 -41 46q0 46 47 46q48 0 48 -46zM270 710q0 -57 -28 -96.5t-68 -60.5l-7 38q45 31 49 83q-41 3 -41 46q0 46 49 46q25 0 35.5 -12.5t10.5 -43.5z" />
    <glyph glyph-name="quotedblbase" unicode="&#x201e;" horiz-adv-x="292" 
d="M127 36v-5q0 -108 -97 -162l-7 38q45 30 50 83q-41 3 -41 46q0 46 47 46q48 0 48 -46zM270 26q0 -57 -28 -96.5t-68 -60.5l-7 38q45 31 49 83q-41 3 -41 46q0 46 49 46q25 0 35.5 -12.5t10.5 -43.5z" />
    <glyph glyph-name="dagger" unicode="&#x2020;" horiz-adv-x="406" 
d="M170 525v255h65v-255h153v-61h-153v-514h-65v514h-152v61h152z" />
    <glyph glyph-name="daggerdbl" unicode="&#x2021;" horiz-adv-x="406" 
d="M170 525v255h65v-255h153v-61h-153v-178h153v-61h-153v-275h-65v275h-152v61h152v178h-152v61h152z" />
    <glyph glyph-name="bullet" unicode="&#x2022;" horiz-adv-x="246" 
d="M223 367q0 -96 -100 -96q-101 0 -101 96t101 96q100 0 100 -96z" />
    <glyph glyph-name="onedotenleader" unicode="&#x2024;" horiz-adv-x="148" 
d="M126 36q0 -46 -48 -46q-47 0 -47 46t47 46q48 0 48 -46z" />
    <glyph glyph-name="twodotenleader" unicode="&#x2025;" horiz-adv-x="303" 
d="M126 36q0 -46 -48 -46q-47 0 -47 46t47 46q48 0 48 -46zM281 36q0 -46 -48 -46q-47 0 -47 46t47 46q48 0 48 -46z" />
    <glyph glyph-name="ellipsis" unicode="&#x2026;" horiz-adv-x="458" 
d="M126 36q0 -46 -48 -46q-47 0 -47 46t47 46q48 0 48 -46zM281 36q0 -46 -48 -46q-47 0 -47 46t47 46q48 0 48 -46zM436 36q0 -46 -48 -46q-47 0 -47 46t47 46q48 0 48 -46z" />
    <glyph glyph-name="perthousand" unicode="&#x2030;" horiz-adv-x="1229" 
d="M275 0l240 720h68l-235 -720h-73zM196 710q68 0 110 -46t42 -124q0 -77 -42 -123.5t-110 -46.5t-110.5 46.5t-42.5 123.5q0 78 42.5 124t110.5 46zM196 428q87 0 87 113q0 111 -87 111q-89 0 -89 -111q0 -113 89 -113zM669 330q68 0 110 -46t42 -124q0 -77 -42 -123.5
t-110 -46.5t-110.5 46.5t-42.5 123.5q0 78 42.5 124t110.5 46zM1034 330q68 0 110 -46t42 -124q0 -77 -42 -123.5t-110 -46.5t-110.5 46.5t-42.5 123.5q0 78 42.5 124t110.5 46zM669 48q87 0 87 113q0 111 -87 111q-89 0 -89 -111q0 -113 89 -113zM1034 48q87 0 87 113
q0 111 -87 111q-89 0 -89 -111q0 -113 89 -113z" />
    <glyph glyph-name="guilsinglleft" unicode="&#x2039;" horiz-adv-x="168" 
d="M150 475v-68l-102 -91l102 -91v-68l-132 131v56z" />
    <glyph glyph-name="guilsinglright" unicode="&#x203a;" horiz-adv-x="168" 
d="M18 157v68l101 90l-101 91v68l132 -131v-55z" />
    <glyph glyph-name="uni203D" unicode="&#x203d;" horiz-adv-x="494" 
d="M459 528q0 -39 -10 -69.5t-26.5 -51.5t-36.5 -39l-39.5 -37t-36 -40.5t-26.5 -54t-10 -73.5h-67v16l-7 301v154q-91 -16 -97 -109h-68q7 97 64 136t152 39q208 0 208 -172zM268 480l-4 -150q14 17 41.5 43t43.5 43t29 46t13 63q0 108 -123 114v-159zM287 36
q0 -46 -47 -46q-48 0 -48 46t48 46q47 0 47 -46z" />
    <glyph glyph-name="fraction" unicode="&#x2044;" horiz-adv-x="304" 
d="M-2 0l240 720h68l-235 -720h-73z" />
    <glyph glyph-name="zerosuperior" unicode="&#x2070;" horiz-adv-x="366" 
d="M183 424q-81 0 -114.5 54t-33.5 156q0 216 148 216t148 -216q0 -102 -33.5 -156t-114.5 -54zM183 807q-54 0 -76 -42t-22 -131q0 -88 22 -127.5t76 -39.5q53 0 75.5 39.5t22.5 128.5q0 88 -22 130t-76 42z" />
    <glyph glyph-name="foursuperior" unicode="&#x2074;" horiz-adv-x="353" 
d="M268 572h50v-42h-50v-99h-48v99h-194v45l195 270h47v-273zM220 775l-142 -203h142v203z" />
    <glyph glyph-name="fivesuperior" unicode="&#x2075;" horiz-adv-x="350" 
d="M185 701q58 0 94 -35t36 -98q0 -64 -39 -103.5t-113 -39.5q-122 0 -128 105h48q6 -62 82 -62q51 0 75.5 27t24.5 72q0 46 -24 68.5t-63 22.5q-62 0 -88 -47h-44l23 234h219v-43h-180l-13 -140q36 39 90 39z" />
    <glyph glyph-name="sixsuperior" unicode="&#x2076;" horiz-adv-x="356" 
d="M190 700q60 0 95.5 -34.5t35.5 -100.5q0 -64 -35 -102.5t-105 -38.5q-81 0 -113.5 54t-32.5 158q0 107 33.5 160.5t118.5 53.5q120 0 127 -105h-50q-3 62 -78 62q-56 0 -78 -37t-24 -125q29 55 106 55zM183 657q-92 0 -92 -94q0 -96 87 -96q93 0 93 97q0 50 -22.5 71.5
t-65.5 21.5z" />
    <glyph glyph-name="sevensuperior" unicode="&#x2077;" horiz-adv-x="315" 
d="M297 845v-38q-66 -70 -107.5 -171t-56.5 -205h-50q30 219 157 371h-222v43h279z" />
    <glyph glyph-name="eightsuperior" unicode="&#x2078;" horiz-adv-x="346" 
d="M48 745q0 52 34.5 78.5t90.5 26.5t90.5 -26.5t34.5 -78.5q0 -73 -64 -94q81 -25 81 -106q0 -55 -36 -88t-106 -33t-106 33t-36 88q0 81 81 106q-64 21 -64 94zM249 740q0 67 -76 67t-76 -67q0 -37 21.5 -54.5t54.5 -17.5t54.5 17.5t21.5 54.5zM81 547q0 -80 92 -80t92 80
q0 79 -92 79t-92 -79z" />
    <glyph glyph-name="ninesuperior" unicode="&#x2079;" horiz-adv-x="356" 
d="M166 574q-60 0 -95.5 34.5t-35.5 100.5q0 64 35 102.5t105 38.5q81 0 113.5 -54t32.5 -158q0 -107 -33.5 -160.5t-118.5 -53.5q-120 0 -127 105h50q3 -62 78 -62q55 0 77.5 36.5t24.5 122.5q-30 -52 -106 -52zM172 617q94 0 94 97q0 93 -91 93q-93 0 -93 -97
q0 -93 90 -93z" />
    <glyph glyph-name="uni207A" unicode="&#x207a;" horiz-adv-x="267" 
d="M111 625v94h43v-94h95v-43h-95v-94h-43v94h-93v43h93z" />
    <glyph glyph-name="uni207B" unicode="&#x207b;" horiz-adv-x="267" 
d="M249 625v-43h-231v43h231z" />
    <glyph glyph-name="uni207C" unicode="&#x207c;" horiz-adv-x="267" 
d="M249 676v-42h-231v42h231zM249 572v-43h-231v43h231z" />
    <glyph glyph-name="parenleftsuperior" unicode="&#x207d;" horiz-adv-x="170" 
d="M138 409l-34 -15q-62 123 -62 247q0 123 62 247l34 -16q-46 -112 -46 -231t46 -232z" />
    <glyph glyph-name="parenrightsuperior" unicode="&#x207e;" horiz-adv-x="170" 
d="M68 394l-34 15q46 113 46 232t-46 231l34 16q62 -124 62 -247q0 -124 -62 -247z" />
    <glyph glyph-name="nsuperior" unicode="&#x207f;" horiz-adv-x="337" 
d="M177 708q-72 0 -99 -49v-228h-47v313h38l7 -53q38 59 111 59q119 0 119 -150v-169h-47v169q-1 61 -20 84.5t-62 23.5z" />
    <glyph glyph-name="zeroinferior" unicode="&#x2080;" horiz-adv-x="366" 
d="M183 -200q-81 0 -114.5 54t-33.5 156q0 216 148 216t148 -216q0 -102 -33.5 -156t-114.5 -54zM183 183q-54 0 -76 -42t-22 -131q0 -88 22 -127.5t76 -39.5q53 0 75.5 39.5t22.5 128.5q0 88 -22 130t-76 42z" />
    <glyph glyph-name="oneinferior" unicode="&#x2081;" horiz-adv-x="212" 
d="M116 -195v348l-58 -64l-32 31l90 99h48v-414h-48z" />
    <glyph glyph-name="twoinferior" unicode="&#x2082;" horiz-adv-x="337" 
d="M35 -195v43q119 100 166 158t47 111q0 35 -19.5 49.5t-56.5 14.5q-79 0 -83 -62h-48q8 105 131 105q126 0 126 -101q0 -23 -5.5 -45.5t-20 -46l-24.5 -39t-35 -41l-34.5 -35t-40 -36.5t-35.5 -32h199v-43h-267z" />
    <glyph glyph-name="threeinferior" unicode="&#x2083;" horiz-adv-x="350" 
d="M133 43h39q33 0 55 21t22 57q0 62 -76 62q-79 0 -83 -62h-48q8 105 131 105q126 0 126 -102q0 -79 -61 -100q77 -19 77 -100q0 -56 -37.5 -90t-111.5 -34q-124 0 -131 105h50q4 -33 23 -47.5t58 -14.5q99 0 99 82q0 75 -93 75h-39v43z" />
    <glyph glyph-name="fourinferior" unicode="&#x2084;" horiz-adv-x="353" 
d="M268 -54h50v-42h-50v-99h-48v99h-194v45l195 270h47v-273zM220 149l-142 -203h142v203z" />
    <glyph glyph-name="fiveinferior" unicode="&#x2085;" horiz-adv-x="350" 
d="M185 76q58 0 94 -35t36 -98q0 -64 -39 -103.5t-113 -39.5q-122 0 -128 105h48q6 -62 82 -62q51 0 75.5 27t24.5 72q0 46 -24 68.5t-63 22.5q-62 0 -88 -47h-44l23 234h219v-43h-180l-13 -140q36 39 90 39z" />
    <glyph glyph-name="sixinferior" unicode="&#x2086;" horiz-adv-x="356" 
d="M190 76q60 0 95.5 -34.5t35.5 -100.5q0 -64 -35 -102.5t-105 -38.5q-81 0 -113.5 54t-32.5 158q0 107 33.5 160.5t118.5 53.5q120 0 127 -105h-50q-3 62 -78 62q-56 0 -78 -37t-24 -125q29 55 106 55zM183 33q-92 0 -92 -94q0 -96 87 -96q93 0 93 97q0 50 -22.5 71.5
t-65.5 21.5z" />
    <glyph glyph-name="seveninferior" unicode="&#x2087;" horiz-adv-x="315" 
d="M297 219v-38q-66 -70 -107.5 -171t-56.5 -205h-50q30 219 157 371h-222v43h279z" />
    <glyph glyph-name="eightinferior" unicode="&#x2088;" horiz-adv-x="346" 
d="M48 121q0 52 34.5 78.5t90.5 26.5t90.5 -26.5t34.5 -78.5q0 -73 -64 -94q81 -25 81 -106q0 -55 -36 -88t-106 -33t-106 33t-36 88q0 80 81 106q-64 21 -64 94zM249 116q0 67 -76 67t-76 -67q0 -37 21.5 -54.5t54.5 -17.5t54.5 17.5t21.5 54.5zM81 -77q0 -80 92 -80t92 80
q0 79 -92 79t-92 -79z" />
    <glyph glyph-name="nineinferior" unicode="&#x2089;" horiz-adv-x="356" 
d="M166 -50q-60 0 -95.5 34.5t-35.5 100.5q0 64 35 102.5t105 38.5q81 0 113.5 -54t32.5 -158q0 -107 -33.5 -160.5t-118.5 -53.5q-120 0 -127 105h50q3 -62 78 -62q55 0 77.5 36.5t24.5 122.5q-30 -52 -106 -52zM172 -7q94 0 94 97q0 93 -91 93q-93 0 -93 -97q0 -93 90 -93
z" />
    <glyph glyph-name="uni208A" unicode="&#x208a;" horiz-adv-x="267" 
d="M111 0v94h43v-94h95v-43h-95v-94h-43v94h-93v43h93z" />
    <glyph glyph-name="uni208B" unicode="&#x208b;" horiz-adv-x="267" 
d="M249 0v-47h-231v47h231z" />
    <glyph glyph-name="uni208C" unicode="&#x208c;" horiz-adv-x="267" 
d="M249 51v-42h-231v42h231zM249 -53v-43h-231v43h231z" />
    <glyph glyph-name="uni208D" unicode="&#x208d;" horiz-adv-x="157" 
d="M131 -246l-34 -15q-62 123 -62 247t62 247l34 -15q-46 -113 -46 -232t46 -232z" />
    <glyph glyph-name="uni208E" unicode="&#x208e;" horiz-adv-x="157" 
d="M60 -261l-34 15q46 113 46 232t-46 232l34 15q62 -123 62 -247t-62 -247z" />
    <glyph glyph-name="franc" unicode="&#x20a3;" horiz-adv-x="573" 
d="M83 205v495h455v-61h-387v-257h347v-60h-347v-117h82v-47h-82v-158h-68v158h-70v47h70z" />
    <glyph glyph-name="lira" unicode="&#x20a4;" horiz-adv-x="570" 
d="M405 560v-51l-202 -60v-63l202 59v-51l-202 -59v-271q113 0 188 61t79 185h65q-4 -150 -94 -230t-238 -80h-68v315l-100 -30v51l100 30v63l-100 -29v51l100 29v220h68v-200z" />
    <glyph glyph-name="peseta" unicode="&#x20a7;" horiz-adv-x="1499" 
d="M133 0h-68v700h272q245 0 245 -220t-245 -220h-204v-260zM133 321h195q40 0 69 5.5t56.5 21.5t42 49t14.5 83t-14.5 83t-42 49t-56.5 21.5t-69 5.5h-195v-318zM805 468v-325q0 -50 16 -71.5t51 -21.5q45 0 88 17v-62q-41 -15 -90 -15q-130 0 -130 143v335h-85v57h85v102
l65 11v-113h140v-57h-140zM1395 144q0 20 -9.5 35.5t-21.5 24.5t-37.5 16.5t-41.5 10.5l-50 9l-18 3q-34 6 -52 9.5t-47 14.5t-44 24.5t-27 38t-12 56.5q0 75 55 112t151 37t152.5 -38t56.5 -117h-68q0 95 -140 95q-62 0 -102 -21.5t-40 -67.5q0 -51 63 -70q23 -7 99 -18
q33 -5 54 -10t51.5 -16.5t48 -26t31 -40.5t13.5 -59q0 -77 -61 -116.5t-157 -39.5q-94 0 -153 38.5t-59 116.5h68q0 -51 41.5 -73t104.5 -22q64 0 107.5 23t43.5 71z" />
    <glyph glyph-name="Euro" unicode="&#x20ac;" horiz-adv-x="599" 
d="M43 455h65q18 125 75 190t173 65q88 0 144 -38.5t56 -116.5h-68q0 50 -39 72t-94 22q-81 0 -120.5 -47t-54.5 -147h268v-47h-273q-2 -22 -2 -68q0 -41 1 -60h274v-46h-270q13 -96 53 -139.5t122 -43.5q57 0 96 22t39 72h68q0 -78 -56.5 -116.5t-147.5 -38.5
q-116 0 -172.5 61.5t-72.5 182.5h-64v46h60q-2 38 -2 61t2 67h-60v47z" />
    <glyph glyph-name="uni2105" unicode="&#x2105;" horiz-adv-x="864" 
d="M278 0l240 720h68l-235 -720h-73zM196 710q58 0 100 -32.5t47 -87.5h-62q-6 62 -83 62q-91 0 -91 -111q0 -113 91 -113q37 0 59 17t24 45h62q-5 -55 -46.5 -87.5t-99.5 -32.5q-69 0 -111.5 46.5t-42.5 123.5q0 78 42.5 124t110.5 46zM669 330q68 0 110 -46t42 -124
q0 -77 -42 -123.5t-110 -46.5t-110.5 46.5t-42.5 123.5q0 78 42.5 124t110.5 46zM669 48q87 0 87 113q0 111 -87 111q-89 0 -89 -111q0 -113 89 -113z" />
    <glyph glyph-name="uni2113" unicode="&#x2113;" horiz-adv-x="381" 
d="M308 67v-62q-41 -15 -90 -15q-130 0 -130 143v114q-38 -2 -60 -2v60q22 0 60 2v116q0 61 3 103t11.5 81.5t23.5 62.5t40 36.5t61 13.5q64 -1 95.5 -57.5t31.5 -141.5q0 -219 -201 -264v-114q0 -50 16 -71.5t51 -21.5q45 0 88 17zM153 423v-106q72 19 104 68.5t32 139.5
q0 134 -66 134q-42 0 -56 -56t-14 -180z" />
    <glyph glyph-name="uni2116" unicode="&#x2116;" horiz-adv-x="1046" 
d="M835 320q-77 0 -126 53.5t-49 141.5q0 89 48.5 142t126.5 53t127 -53t49 -142q0 -88 -49 -141.5t-127 -53.5zM515 0l-382 604v-604h-68v700h82l381 -612v612h69v-700h-82zM835 653q-51 0 -80.5 -35.5t-29.5 -102.5t29.5 -102.5t80.5 -35.5t81 35.5t30 102.5t-30 102.5
t-81 35.5zM980 255v-53h-289v53h289z" />
    <glyph glyph-name="uni2117" unicode="&#x2117;" horiz-adv-x="756" 
d="M13 355q0 151 107 258t258 107t258 -107t107 -258t-107 -258t-258 -107t-258 107t-107 258zM38 355q0 -140 100 -240t240 -100t240 100t100 240t-100 240t-240 100t-240 -100t-100 -240zM274 131h-47v449h175q157 0 157 -141t-157 -141h-128v-167zM274 339h123
q53 0 83 20.5t30 79.5t-30 79t-83 20h-123v-199z" />
    <glyph glyph-name="trademark" unicode="&#x2122;" horiz-adv-x="848" 
d="M193 677v-377h-50v377h-134v43h318v-43h-134zM423 300h-50v420h50l158 -350l160 350h50v-420h-50v318l-140 -309h-39l-139 309v-318z" />
    <glyph glyph-name="Omega" unicode="&#x2126;" horiz-adv-x="764" 
d="M721 383q0 -107 -45.5 -184t-132.5 -139h170v-60h-264v55q200 131 200 326q0 126 -73 196t-194 70t-194 -70t-73 -196q0 -195 200 -326v-55h-264v60h170q-87 62 -132.5 139t-45.5 184q0 157 94 242t245 85t245 -85t94 -242z" />
    <glyph glyph-name="estimated" unicode="&#x212e;" horiz-adv-x="709" 
d="M566 160l42 -42q-42 -61 -108 -94.5t-146 -33.5q-141 0 -230 97t-89 258q0 162 89 258.5t230 96.5t230.5 -97t89.5 -258v-26h-531v-150q65 -115 213 -115q131 0 210 106zM355 636q-147 0 -212 -116v-140h419v153q-68 103 -207 103z" />
    <glyph glyph-name="uni2153" unicode="&#x2153;" horiz-adv-x="699" 
d="M154 0l240 720h51l-237 -720h-54zM120 286v348l-58 -64l-32 31l90 99h48v-414h-48zM482 236h39q34 0 55.5 20.5t21.5 57.5q0 62 -76 62q-79 0 -83 -62h-48q8 105 131 105q126 0 126 -103q0 -79 -61 -99q77 -19 77 -100q0 -56 -37.5 -90t-111.5 -34q-124 0 -131 105h50
q4 -33 23 -47.5t58 -14.5q99 0 99 82q0 75 -93 75h-39v43z" />
    <glyph glyph-name="uni2154" unicode="&#x2154;" horiz-adv-x="800" 
d="M253 0l240 720h51l-237 -720h-54zM35 286v43q119 100 166 158t47 111q0 35 -19.5 49.5t-56.5 14.5q-79 0 -83 -62h-48q8 105 131 105q126 0 126 -101q0 -23 -5.5 -45.5t-20 -46l-24.5 -39t-35 -41l-34.5 -35t-40 -36.5t-35.5 -32h199v-43h-267zM581 236h39
q34 0 55.5 20.5t21.5 57.5q0 62 -76 62q-79 0 -83 -62h-48q8 105 131 105q126 0 126 -103q0 -79 -61 -99q77 -19 77 -100q0 -56 -37.5 -90t-111.5 -34q-124 0 -131 105h50q4 -33 23 -47.5t58 -14.5q99 0 99 82q0 75 -93 75h-39v43z" />
    <glyph glyph-name="oneeighth" unicode="&#x215b;" horiz-adv-x="701" 
d="M154 0l240 720h51l-237 -720h-54zM120 286v348l-58 -64l-32 31l90 99h48v-414h-48zM399 315q0 52 34.5 78.5t90.5 26.5t90.5 -26.5t34.5 -78.5q0 -72 -64 -95q81 -26 81 -106q0 -55 -36 -87.5t-106 -32.5t-106 32.5t-36 87.5q0 80 81 106q-64 23 -64 95zM600 310
q0 67 -76 67t-76 -67q0 -36 21 -54t55 -18t55 18t21 54zM432 116q0 -80 92 -80t92 80t-92 80t-92 -80z" />
    <glyph glyph-name="threeeighths" unicode="&#x215c;" horiz-adv-x="808" 
d="M260 0l240 720h51l-237 -720h-54zM131 523h39q33 0 55 21t22 57q0 62 -76 62q-79 0 -83 -62h-48q8 105 131 105q126 0 126 -102q0 -79 -61 -100q77 -19 77 -100q0 -56 -37.5 -90t-111.5 -34q-124 0 -131 105h50q4 -33 23 -47.5t58 -14.5q99 0 99 82q0 75 -93 75h-39v43z
M506 314q0 53 34 79.5t90 26.5t90.5 -26.5t34.5 -78.5q0 -72 -64 -95q81 -26 81 -106q0 -55 -35.5 -87.5t-106.5 -32.5q-70 0 -106 32.5t-36 87.5q0 81 82 106q-64 22 -64 94zM706 310q0 67 -76 67t-76 -67q0 -37 21.5 -54.5t54.5 -17.5q34 0 55 18t21 54zM538 116
q0 -80 92 -80t92 80t-92 80t-92 -80z" />
    <glyph glyph-name="fiveeighths" unicode="&#x215d;" horiz-adv-x="801" 
d="M254 0l240 720h51l-237 -720h-54zM185 556q58 0 94 -35t36 -98q0 -64 -39 -103.5t-113 -39.5q-122 0 -128 105h48q6 -62 82 -62q51 0 75.5 27t24.5 72q0 46 -24 68.5t-63 22.5q-62 0 -88 -47h-44l23 234h219v-43h-180l-13 -140q36 39 90 39zM499 315q0 52 34.5 78.5
t90.5 26.5t90.5 -26.5t34.5 -78.5q0 -72 -64 -95q81 -26 81 -106q0 -55 -36 -87.5t-106 -32.5t-106 32.5t-36 87.5q0 80 81 106q-64 23 -64 95zM700 310q0 67 -76 67t-76 -67q0 -36 21 -54t55 -18t55 18t21 54zM532 116q0 -80 92 -80t92 80t-92 80t-92 -80z" />
    <glyph glyph-name="seveneighths" unicode="&#x215e;" horiz-adv-x="704" 
d="M157 0l240 720h51l-237 -720h-54zM298 700v-38q-66 -70 -107.5 -171t-56.5 -205h-50q30 217 157 371h-222v43h279zM403 314q0 53 34 79.5t90 26.5t90.5 -26.5t34.5 -78.5q0 -72 -64 -95q81 -26 81 -106q0 -55 -35.5 -87.5t-106.5 -32.5q-70 0 -106 32.5t-36 87.5
q0 81 82 106q-64 22 -64 94zM603 310q0 67 -76 67t-76 -67q0 -37 21.5 -54.5t54.5 -17.5q34 0 55 18t21 54zM435 116q0 -80 92 -80t92 80t-92 80t-92 -80z" />
    <glyph glyph-name="partialdiff" unicode="&#x2202;" horiz-adv-x="567" 
d="M264 450q127 0 187 -83q-1 51 -7 92.5t-20 79.5t-36.5 63.5t-58.5 41t-83 15.5q-74 0 -167 -33l-21 57q109 37 192 37q65 1 114.5 -21.5t78 -57.5t46.5 -87.5t24 -103.5t6 -113q0 -81 -11 -141t-37.5 -108t-75 -73t-118.5 -25q-117 0 -176 64.5t-59 170.5
q0 110 60.5 167.5t161.5 57.5zM273 389q-74 0 -118 -41t-44 -124q0 -76 39 -124.5t120 -48.5q97 1 135 61.5t44 177.5q-20 50 -69 74.5t-107 24.5z" />
    <glyph glyph-name="Delta" unicode="&#x2206;" horiz-adv-x="633" 
d="M351 700l273 -700h-615l273 700h69zM528 61l-212 552l-212 -552h424z" />
    <glyph glyph-name="product" unicode="&#x220f;" horiz-adv-x="595" 
d="M465 -195v834h-332v-834h-68v895h465v-895h-65z" />
    <glyph glyph-name="summation" unicode="&#x2211;" horiz-adv-x="588" 
d="M530 700v-61h-389l252 -389l-252 -384h389v-61h-465v61l252 384l-252 389v61h465z" />
    <glyph glyph-name="minus" unicode="&#x2212;" horiz-adv-x="436" 
d="M418 357v-60h-400v60h400z" />
    <glyph glyph-name="uni2215" unicode="&#x2215;" horiz-adv-x="319" 
d="M6 0l240 720h68l-236 -720h-72z" />
    <glyph glyph-name="uni2219" unicode="&#x2219;" horiz-adv-x="165" 
d="M130 367q0 -46 -47 -46q-48 0 -48 46t48 46q47 0 47 -46z" />
    <glyph glyph-name="radical" unicode="&#x221a;" horiz-adv-x="573" 
d="M154 455l138 -378l194 723h69l-214 -810h-86l-150 404h-79v61h128z" />
    <glyph glyph-name="infinity" unicode="&#x221e;" horiz-adv-x="774" 
d="M387 289q32 36 55 57.5t61.5 41.5t77.5 20q66 0 108 -45.5t42 -110.5q0 -66 -43.5 -109.5t-108.5 -43.5q-39 0 -77 19.5t-57.5 37.5t-57.5 56q-38 -38 -57.5 -56t-57.5 -37.5t-77 -19.5q-65 0 -108.5 43.5t-43.5 109.5q0 65 42 110.5t108 45.5q39 0 77.5 -20t61.5 -41.5
t55 -57.5zM356 251q-91 97 -160 97q-36 0 -60.5 -24.5t-24.5 -71.5t25 -70t62 -23q74 0 158 92zM418 251q84 -92 158 -92q37 0 62 23t25 70t-24.5 71.5t-60.5 24.5q-69 0 -160 -97z" />
    <glyph glyph-name="integral" unicode="&#x222b;" horiz-adv-x="401" 
d="M388 875v-62q-43 17 -88 17q-35 0 -51 -21.5t-16 -71.5v-794q0 -143 -130 -143q-49 0 -90 15v62q43 -17 88 -17q35 0 51 21.5t16 71.5v794q0 143 130 143q49 0 90 -15z" />
    <glyph glyph-name="approxequal" unicode="&#x2248;" horiz-adv-x="422" 
d="M297 419q49 0 48 61h51q0 -55 -29 -84.5t-73 -29.5q-36 0 -90 30t-80 30q-48 0 -47 -60h-51q0 54 29 84t71 30q35 0 89 -30.5t82 -30.5zM297 244q49 0 48 61h51q0 -55 -29 -84.5t-73 -29.5q-36 0 -90 30t-80 30q-48 0 -47 -60h-51q0 54 29 84t71 30q35 0 89 -30.5
t82 -30.5z" />
    <glyph glyph-name="notequal" unicode="&#x2260;" horiz-adv-x="476" 
d="M223 446l33 100h69l-32 -100h165v-60h-185l-37 -116h222v-60h-241l-14 -45h-72l15 45h-128v60h147l38 116h-185v60h205z" />
    <glyph glyph-name="lessequal" unicode="&#x2264;" horiz-adv-x="411" 
d="M393 528v-76l-316 -135l316 -134v-76l-375 182v57zM393 61v-61h-375v61h375z" />
    <glyph glyph-name="greaterequal" unicode="&#x2265;" horiz-adv-x="411" 
d="M18 107v76l316 134l-316 135v76l375 -182v-57zM18 0v61h375v-61h-375z" />
    <glyph glyph-name="lozenge" unicode="&#x25ca;" horiz-adv-x="451" 
d="M253 750l181 -396l-181 -395h-60l-180 395l180 396h60zM223 688l-146 -334l146 -334l146 334z" />
    <glyph glyph-name="_0008" horiz-adv-x="0" 
 />
    <glyph glyph-name="litre" horiz-adv-x="376" 
d="M308 67v-62q-41 -15 -90 -15q-130 0 -130 143v114q-38 -2 -60 -2v60q22 0 60 2v116q0 61 3 103t11.5 81.5t23.5 62.5t40 36.5t61 13.5q64 -1 95.5 -57.5t31.5 -141.5q0 -219 -201 -264v-114q0 -50 16 -71.5t51 -21.5q45 0 88 17zM153 423v-106q72 19 104 68.5t32 139.5
q0 134 -66 134q-42 0 -56 -56t-14 -180z" />
    <glyph glyph-name="quotedblright.alt" horiz-adv-x="298" 
d="M80 775l65 4q-17 -104 -73 -238l-40 4q33 95 48 230zM213 775l65 4q-17 -104 -73 -238l-40 4q33 95 48 230z" />
    <glyph glyph-name="quotedbl.left" horiz-adv-x="298" 
d="M97 545l-65 -4q17 99 72 238l41 -4q-33 -95 -48 -230zM230 545l-65 -4q17 99 72 238l41 -4q-33 -95 -48 -230z" />
    </font>
</defs>
</svg>
